<?xml version="1.0" encoding="UTF-8"?>
<svg width="54px" height="53px" viewBox="0 0 54 53" version="1.1" xmlns="http://www.w3.org/2000/svg" xmlns:xlink="http://www.w3.org/1999/xlink">
    <!-- Generator: Sketch 51.2 (57519) - http://www.bohemiancoding.com/sketch -->
    <title>AD Design Icon@2x</title>
    <desc>Created with Sketch.</desc>
    <defs>
        <linearGradient x1="101.257813%" y1="49.7500002%" x2="-75.4590521%" y2="49.7500002%" id="linearGradient-1">
            <stop stop-color="#67C5E2" offset="0%"></stop>
            <stop stop-color="#5AA2FA" offset="100%"></stop>
        </linearGradient>
    </defs>
    <g id="Main" stroke="none" stroke-width="1" fill="none" fill-rule="evenodd">
        <g transform="translate(-1043.000000, -3637.000000)" fill="url(#linearGradient-1)" id="AD-Services">
            <g transform="translate(-74.000000, 3297.000000)">
                <g id="Design" transform="translate(1050.000000, 318.000000)">
                    <g id="AD-Design-Icon" transform="translate(67.590361, 22.061224)">
                        <g id="ui">
                            <path d="M36.6875,10.5 L28.5625,10.5 C28.1137969,10.5 27.75,10.8637969 27.75,11.3125 L27.75,19.4375 C27.75,19.8862031 28.1137969,20.25 28.5625,20.25 L36.6875,20.25 C37.1362031,20.25 37.5,19.8862031 37.5,19.4375 L37.5,11.3125 C37.5,10.8637969 37.1362031,10.5 36.6875,10.5 Z M29.375,18.625 L29.375,13.2733672 L34.7266328,18.625 L29.375,18.625 Z M35.875,17.4753125 L30.5246875,12.125 L35.875,12.125 L35.875,17.4753125 Z" id="Shape" fill-rule="nonzero"></path>
                            <path d="M36.6875,22.5 L28.5625,22.5 C28.1137969,22.5 27.75,22.8637969 27.75,23.3125 L27.75,31.4375 C27.75,31.8862031 28.1137969,32.25 28.5625,32.25 L36.6875,32.25 C37.1362031,32.25 37.5,31.8862031 37.5,31.4375 L37.5,23.3125 C37.5,22.8637969 37.1362031,22.5 36.6875,22.5 Z M29.375,30.625 L29.375,25.2741797 L34.7258203,30.625 L29.375,30.625 Z M35.875,29.476125 L30.523875,24.125 L35.875,24.125 L35.875,29.476125 Z" id="Shape" fill-rule="nonzero"></path>
                            <rect id="Rectangle-path" fill-rule="nonzero" x="27.75" y="33.75" width="6.75" height="1.5"></rect>
                            <rect id="Rectangle-path" fill-rule="nonzero" x="36" y="33.75" width="1.5" height="1.5"></rect>
                            <rect id="Rectangle-path" fill-rule="nonzero" x="27.75" y="36.75" width="9.75" height="1.5"></rect>
                            <rect id="Rectangle-path" fill-rule="nonzero" x="27.75" y="40.5" width="9.75" height="1.5"></rect>
                            <rect id="Rectangle-path" fill-rule="nonzero" x="14.25" y="18.75" width="8.25" height="1.5"></rect>
                            <rect id="Rectangle-path" fill-rule="nonzero" x="14.25" y="25.5" width="8.25" height="1.5"></rect>
                            <rect id="Rectangle-path" fill-rule="nonzero" x="14.25" y="32.25" width="8.25" height="1.5"></rect>
                            <path d="M47.578125,5.7421875 C47.1251074,5.7421875 46.7578125,6.10948242 46.7578125,6.5625 L46.7578125,9.84375 L41.8359375,9.84375 L41.8359375,1.640625 C41.8359375,0.734487305 41.1014502,0 40.1953125,0 L12.3046875,0 C11.3985498,0 10.6640625,0.734487305 10.6640625,1.640625 L10.6640625,9.84375 L5.7421875,9.84375 L5.7421875,6.5625 C5.7421875,6.10948242 5.37489258,5.7421875 4.921875,5.7421875 C4.87265625,5.7421875 0,5.81683594 0,12.3046875 L0,44.296875 C0,47.4247266 3.1171875,48.8733984 4.7578125,49.2023437 C4.81174805,49.2137256 4.86670898,49.2192627 4.921875,49.21875 L10.6640625,49.21875 L10.6640625,50.859375 C10.6640625,51.7655127 11.3985498,52.5 12.3046875,52.5 L40.1953125,52.5 C41.1014502,52.5 41.8359375,51.7655127 41.8359375,50.859375 L41.8359375,49.21875 L47.578125,49.21875 C47.633291,49.2192627 47.688252,49.2137256 47.7421875,49.2023437 C49.3828125,48.8733984 52.5,47.4247266 52.5,44.296875 L52.5,12.3046875 C52.5,5.81683594 47.6273437,5.7421875 47.578125,5.7421875 Z M1.640625,12.3046875 C1.640625,8.9578125 3.1171875,7.88648438 4.1015625,7.546875 L4.1015625,39.5628516 C3.2019873,39.8419629 2.36588379,40.2948779 1.640625,40.8958594 L1.640625,12.3046875 Z M10.6640625,47.578125 L5.01210937,47.578125 C4.52238281,47.4608203 1.640625,46.6683984 1.640625,44.296875 C1.640625,41.7375 4.94730469,41.0279297 5.0859375,40.9992188 C5.46789551,40.9212891 5.74229004,40.585166 5.7421875,40.1953125 L5.7421875,11.484375 L10.6640625,11.484375 L10.6640625,47.578125 Z M12.3046875,9.0234375 L21.7505859,9.0234375 L12.3046875,14.9238428 L12.3046875,9.0234375 Z M23.7890625,9.68450684 L23.7890625,15.5859375 L14.3415234,15.5859375 L23.7890625,9.68450684 Z M12.3046875,17.2265625 L23.7890625,17.2265625 L23.7890625,22.1484375 L12.3046875,22.1484375 L12.3046875,17.2265625 Z M12.3046875,23.7890625 L23.7890625,23.7890625 L23.7890625,28.7109375 L12.3046875,28.7109375 L12.3046875,23.7890625 Z M12.3046875,30.3515625 L23.7890625,30.3515625 L23.7890625,35.2734375 L12.3046875,35.2734375 L12.3046875,30.3515625 Z M12.3046875,36.9140625 L21.9624316,36.9140625 L12.3046875,43.5508008 L12.3046875,36.9140625 Z M23.7890625,37.6494727 L23.7890625,44.296875 L14.115835,44.296875 L23.7890625,37.6494727 Z M40.1953125,50.859375 L12.3046875,50.859375 L12.3046875,45.9375 L40.1953125,45.9375 L40.1953125,50.859375 Z M40.1953125,44.296875 L25.4296875,44.296875 L25.4296875,9.0234375 L40.1953125,9.0234375 L40.1953125,44.296875 Z M40.1953125,7.3828125 L12.3046875,7.3828125 L12.3046875,1.640625 L40.1953125,1.640625 L40.1953125,7.3828125 Z M47.4895313,47.578125 L41.8359375,47.578125 L41.8359375,11.484375 L46.7578125,11.484375 L46.7578125,40.1953125 C46.75771,40.585166 47.0321045,40.9212891 47.4140625,40.9992188 C47.4517969,41.0066016 50.859375,41.7178125 50.859375,44.296875 C50.859375,46.6815234 47.9956641,47.4591797 47.4895313,47.578125 Z M50.859375,40.8958594 C50.1341162,40.2948779 49.2980127,39.8419629 48.3984375,39.5628516 L48.3984375,7.546875 C49.3721484,7.88730469 50.859375,8.95945313 50.859375,12.3046875 L50.859375,40.8958594 Z" id="Shape" fill-rule="nonzero"></path>
                            <rect id="Rectangle-path" fill-rule="nonzero" x="20.25" y="3.75" width="6.75" height="1.5"></rect>
                            <rect id="Rectangle-path" fill-rule="nonzero" x="28.5" y="3.75" width="1.5" height="1.5"></rect>
                            <rect id="Rectangle-path" fill-rule="nonzero" x="32.25" y="3.75" width="1.5" height="1.5"></rect>
                        </g>
                    </g>
                </g>
            </g>
        </g>
    </g>
</svg>