<?xml version="1.0" encoding="UTF-8"?>
<svg width="54px" height="53px" viewBox="0 0 54 53" version="1.1" xmlns="http://www.w3.org/2000/svg" xmlns:xlink="http://www.w3.org/1999/xlink">
    <!-- Generator: Sketch 51.2 (57519) - http://www.bohemiancoding.com/sketch -->
    <title>Strategy Icon@2x</title>
    <desc>Created with Sketch.</desc>
    <defs>
        <linearGradient x1="101.257813%" y1="49.7500002%" x2="0.25781251%" y2="49.7500002%" id="linearGradient-1">
            <stop stop-color="#67C5E2" offset="0%"></stop>
            <stop stop-color="#5AA2FA" offset="100%"></stop>
        </linearGradient>
    </defs>
    <g id="Main" stroke="none" stroke-width="1" fill="none" fill-rule="evenodd">
        <g transform="translate(-822.000000, -3637.000000)" fill="url(#linearGradient-1)" fill-rule="nonzero" id="AD-Services">
            <g transform="translate(-74.000000, 3297.000000)">
                <g id="strategy" transform="translate(829.000000, 318.000000)">
                    <g id="Strategy-Icon" transform="translate(67.590361, 22.061224)">
                        <path d="M51.5120031,0.958100711 C50.1750902,-0.319366904 48.0706239,-0.319366904 46.7337111,0.958100711 L38.9710245,8.72765218 L12.0303699,8.72765218 L12.0303699,10.9162337 L36.7843277,10.9162337 L28.9888309,18.7186144 C28.8873243,18.8201798 28.8108356,18.9369288 28.7576215,19.0613721 L28.7570063,19.0610643 L26.3367419,24.7109757 C26.2784013,24.847217 26.248257,24.9938201 26.248257,25.141962 C26.2481544,25.7463277 26.737744,26.2363041 27.3418617,26.2364066 L33.9039003,26.2364066 C35.7159458,26.2364066 37.1849196,27.7062331 37.1849196,29.5193302 L37.1849196,29.7068672 C35.9107563,30.1576536 34.9976076,31.3729509 34.9976076,32.8022537 C34.9976076,33.0867395 35.0339039,33.3628129 35.1018825,33.6260623 L17.6107686,41.4041289 C17.0187497,40.8219229 16.20721,40.4624428 15.3114918,40.4624428 C13.4994463,40.4624428 12.0304725,41.9322692 12.0304725,43.7453663 C12.0304725,45.5584634 13.4994463,47.0282898 15.3114918,47.0282898 C17.1235372,47.0282898 18.5925111,45.5584634 18.5925111,43.7453663 C18.5925111,43.6191789 18.5847187,43.4947356 18.5707743,43.3722415 L36.357385,35.4627554 C36.8975228,35.8539363 37.5609039,36.0851772 38.2786269,36.0851772 C40.0906723,36.0851772 41.5596462,34.6153508 41.5596462,32.8022537 C41.5596462,31.3729509 40.6464975,30.1576536 39.3723342,29.7068672 L39.3723342,29.5193302 C39.3687456,26.4989379 36.9225406,24.0514159 33.9040028,24.0478252 L32.6751586,24.0478252 L33.415131,23.7305101 L33.4141056,23.7280479 C33.5427831,23.6736745 33.6612074,23.5948843 33.7617912,23.4941396 L46.2775469,10.9719408 C46.7133073,11.1160816 47.0280801,11.5261393 47.0280801,12.0104731 L47.0280801,49.2169739 C47.0280801,49.8213396 46.5383879,50.3113159 45.9343728,50.3113159 L5.46833133,50.3113159 C4.54369908,50.3104952 3.6621302,49.9204428 3.03924919,49.2366714 C2.48803795,48.6338446 2.18382594,47.84543 2.18731202,47.0283924 L2.18731202,46.981303 C2.18843988,46.8882526 2.19387406,46.7941763 2.20258927,46.7001001 C2.43482392,44.9793352 3.92153579,43.7076127 5.65637475,43.7454689 L8.7492481,43.7454689 C9.35326325,43.7454689 9.84295538,43.2554925 9.84295538,42.6511268 L9.84295538,5.44472866 C9.84295538,4.84036296 9.35326325,4.35038662 8.7492481,4.35038662 L5.4682288,4.35038662 C2.44979357,4.35407991 0.00358861486,6.80160199 0,9.82199422 L0,47.028495 C0,50.0503235 2.44825559,52.5 5.46833133,52.5 L45.9342702,52.5 C47.7463157,52.5 49.2152895,51.0301736 49.2152895,49.2170765 L49.2152895,12.0105757 C49.2152895,10.926698 48.6900189,9.96582731 47.8806324,9.36792486 L51.5120031,5.73475444 C52.8293323,4.41532695 52.8293323,2.2774256 51.5120031,0.958100711 Z M15.3113892,44.8398109 C14.7073741,44.8398109 14.217682,44.3498346 14.217682,43.7454689 C14.217682,43.1411032 14.7073741,42.6511268 15.3113892,42.6511268 C15.9154044,42.6511268 16.4050965,43.1411032 16.4050965,43.7454689 C16.4050965,44.3498346 15.9154044,44.8398109 15.3113892,44.8398109 Z M38.2785244,33.8966983 C37.6745092,33.8966983 37.1848171,33.406722 37.1848171,32.8023563 C37.1848171,32.1979906 37.6745092,31.7080142 38.2785244,31.7080142 C38.8825395,31.7080142 39.3722316,32.1979906 39.3722316,32.8023563 C39.3722316,33.406722 38.8825395,33.8966983 38.2785244,33.8966983 Z M2.18731202,9.82199422 C2.18731202,8.00889711 3.65628589,6.5390707 5.46833133,6.5390707 L7.65564335,6.5390707 L7.65564335,41.5568874 L5.65647728,41.5568874 C4.40476841,41.55699 3.18720266,41.9644829 2.18731202,42.7179138 L2.18731202,9.82199422 Z M30.1300104,21.4077391 L31.075149,22.3534263 L29.4198748,23.0630507 L30.1300104,21.4077391 Z M32.9884959,21.1732153 L31.308614,19.4923584 L45.090228,5.70448998 L46.7691871,7.3844235 L32.9884959,21.1732153 Z M49.9612088,4.19065188 L48.3158801,5.83693543 L46.6370236,4.1571045 L48.2824547,2.51092354 C48.7518456,2.0613682 49.491818,2.0613682 49.9612088,2.51092354 C49.9614138,2.51112872 49.9616189,2.5113339 49.961824,2.51153909 C50.4250629,2.97535462 50.4247553,3.72714411 49.9612088,4.19065188 Z" id="Shape"></path>
                        <path d="M18.5454731,19.75 C18.5454731,17.9550859 17.0802076,16.5 15.2727366,16.5 C13.4652655,16.5 12,17.9550859 12,19.75 C12,21.1649688 12.9108435,22.3680781 14.1817903,22.8143438 L14.1817903,23 C14.1817903,24.7949141 15.6470558,26.25 17.4545269,26.25 L24,26.25 L24,24.0833672 L17.4545269,24.0833672 C16.8520365,24.0833672 16.3635806,23.5983047 16.3635806,23 L16.3635806,22.8143438 C17.6346296,22.3680781 18.5454731,21.1649688 18.5454731,19.75 Z M15.2727366,18.6666328 C15.8752269,18.6666328 16.3636829,19.1516953 16.3636829,19.75 C16.3636829,20.3483047 15.8752269,20.8333672 15.2727366,20.8333672 C14.6702462,20.8333672 14.1817903,20.3483047 14.1817903,19.75 C14.1817903,19.1516953 14.6702462,18.6666328 15.2727366,18.6666328 Z" id="Shape"></path>
                        <polygon id="Shape" points="36.8171913 47.25 38.2511947 45.8166465 39.6828087 47.2477153 41.25 45.6811207 39.8183861 44.2499481 41.25 42.8188793 39.6828087 41.2522847 38.2511947 42.6833535 36.8171913 41.25 35.25 42.8165945 36.6840034 44.2499481 35.25 45.6834055"></polygon>
                        <polygon id="Shape" points="16.4332156 29.250831 15.0004155 30.6838048 13.5667844 29.25 12 30.8169743 13.4336311 32.2507791 12.001558 33.6830257 13.5683423 35.25 15.0004155 33.8177533 16.4316577 35.249169 17.998442 33.6821947 16.5671998 32.2507791 18 30.8178053"></polygon>
                    </g>
                </g>
            </g>
        </g>
    </g>
</svg>