<?xml version="1.0" encoding="UTF-8"?>
<svg width="56px" height="53px" viewBox="0 0 56 53" version="1.1" xmlns="http://www.w3.org/2000/svg" xmlns:xlink="http://www.w3.org/1999/xlink">
    <!-- Generator: Sketch 51.2 (57519) - http://www.bohemiancoding.com/sketch -->
    <title>AD Services Icon@2x</title>
    <desc>Created with Sketch.</desc>
    <defs>
        <linearGradient x1="101.257813%" y1="49.7500002%" x2="0.25781251%" y2="49.7500002%" id="linearGradient-1">
            <stop stop-color="#67C5E2" offset="0%"></stop>
            <stop stop-color="#5AA2FA" offset="100%"></stop>
        </linearGradient>
    </defs>
    <g id="Main" stroke="none" stroke-width="1" fill="none" fill-rule="evenodd">
        <g transform="translate(-601.000000, -3637.000000)" fill="url(#linearGradient-1)" fill-rule="nonzero" id="AD-Services">
            <g transform="translate(-74.000000, 3297.000000)">
                <g id="services" transform="translate(609.000000, 318.000000)">
                    <g id="AD-Services-Icon" transform="translate(66.088353, 22.061224)">
                        <path d="M40.9304008,51.3335061 C40.9304008,51.9777996 40.4075658,52.5 39.7624893,52.5 L15.4177625,52.5 C14.772686,52.5 14.2498509,51.9777996 14.2498509,51.3335061 C14.2498509,50.6892127 14.772686,50.1670123 15.4177625,50.1670123 L22.2365491,50.1670123 L22.2365491,29.1483484 C22.2365491,28.504055 22.7593842,27.9818545 23.4044607,27.9818545 C24.0495372,27.9818545 24.5723722,28.504055 24.5723722,29.1483484 L24.5723722,50.1670123 L30.6081391,50.1670123 L30.6081391,29.1483484 C30.6081391,28.504055 31.1309741,27.9818545 31.7760506,27.9818545 C32.4211271,27.9818545 32.9439622,28.504055 32.9439622,29.1483484 L32.9439622,50.1670123 L39.7626191,50.1670123 C40.4075658,50.1670123 40.9304008,50.6893423 40.9304008,51.3335061 Z M55.2404317,18.5643608 L49.4660175,25.7012294 C49.244244,25.9752259 48.9104809,26.1345171 48.5576418,26.1345171 L16.4027012,26.1345171 C13.7886557,26.1345171 11.6620185,24.0103318 11.6620185,21.3995889 L11.6620185,14.2627203 C11.6620185,11.6518479 13.7887854,9.52792179 16.4027012,9.52792179 L22.2365491,9.52792179 L22.2365491,5.34707821 C22.2365491,2.39870019 24.6381646,0 27.5901259,0 C30.542217,0 32.9439622,2.39870019 32.9439622,5.34707821 L32.9439622,9.52792179 L48.5576418,9.52792179 C48.9104809,9.52792179 49.244244,9.68721301 49.4660175,9.96120945 L55.2404317,17.0979485 C55.5865228,17.5256629 55.5865228,18.1366464 55.2404317,18.5643608 Z M24.5723722,9.52779218 L30.6081391,9.52779218 L30.6081391,5.34707821 C30.6081391,3.68508369 29.2542701,2.33298771 27.5901259,2.33298771 C25.9261115,2.33298771 24.5723722,3.68508369 24.5723722,5.34707821 L24.5723722,9.52779218 Z M52.8305111,17.8311546 L47.9997694,11.8609095 L16.4027012,11.8609095 C15.0766025,11.8609095 13.9978416,12.938361 13.9978416,14.2627203 L13.9978416,21.3995889 C13.9978416,22.7240779 15.0766025,23.8015294 16.4027012,23.8015294 L47.9997694,23.8015294 L52.8305111,17.8311546 Z M20.3340212,34.3995149 C20.3340212,33.7552214 19.8111862,33.233021 19.1661097,33.233021 L7.50010083,33.233021 L2.66948892,27.2626463 L7.49997107,21.2925307 L8.47374976,21.2925307 C9.11882623,21.2925307 9.6416613,20.7703303 9.6416613,20.1260369 C9.6416613,19.4817434 9.11882623,18.959543 8.47374976,18.959543 L6.94222842,18.959543 C6.58938937,18.959543 6.2556262,19.1188342 6.03385278,19.3928307 L0.25956834,26.5293105 C-0.0865227801,26.9570249 -0.0865227801,27.5680084 0.25956834,27.9955932 L6.03385278,35.1325915 C6.2556262,35.4065879 6.58938937,35.5658791 6.94222842,35.5658791 L19.1659799,35.5658791 C19.8110564,35.5660087 20.3340212,35.0438083 20.3340212,34.3995149 Z M42.67007,27.9818545 C42.0249935,27.9818545 41.5021584,28.504055 41.5021584,29.1483484 L41.5021584,30.830951 C41.5021584,32.1554399 40.4233975,33.2328914 39.0972988,33.2328914 L36.0890182,33.2328914 C35.4439417,33.2328914 34.9211066,33.7550918 34.9211066,34.3993853 C34.9211066,35.0436787 35.4439417,35.5658791 36.0890182,35.5658791 L39.0972988,35.5658791 C41.7113443,35.5658791 43.8379815,33.4416938 43.8379815,30.830951 L43.8379815,29.1483484 C43.8379815,28.5041846 43.3150167,27.9818545 42.67007,27.9818545 Z" id="XMLID_88_"></path>
                    </g>
                </g>
            </g>
        </g>
    </g>
</svg>