<svg width="27" height="15" viewBox="0 0 27 15" fill="none" xmlns="http://www.w3.org/2000/svg">
<path d="M26.6996 2.11658C26.6996 2.33758 26.6104 2.53308 26.4321 2.70309L13.9651 14.5863C13.7868 14.7563 13.5817 14.8413 13.3498 14.8413C13.1179 14.8413 12.9128 14.7563 12.7345 14.5863L0.267531 2.70309C0.089177 2.53308 0 2.33758 0 2.11658C0 1.89557 0.089177 1.70007 0.267531 1.53007L1.60519 0.255043C1.78354 0.0850399 1.98865 3.91006e-05 2.22051 3.91006e-05C2.45237 3.91006e-05 2.65747 0.0850399 2.83583 0.255043L13.3498 10.2767L23.8638 0.255043C24.0421 0.0850399 24.2472 3.91006e-05 24.4791 3.91006e-05C24.7109 3.91006e-05 24.9161 0.0850399 25.0944 0.255043L26.4321 1.53007C26.6104 1.70007 26.6996 1.89557 26.6996 2.11658Z" fill="white"/>
</svg>
