<?xml version="1.0" encoding="UTF-8"?>
<svg width="112px" height="119px" viewBox="0 0 112 119" version="1.1" xmlns="http://www.w3.org/2000/svg" xmlns:xlink="http://www.w3.org/1999/xlink">
    <title>Bespoke Icon</title>
    <defs>
        <linearGradient x1="25%" y1="25%" x2="25%" y2="75%" id="linearGradient-1">
            <stop stop-color="#F13C5B" offset="0%"></stop>
            <stop stop-color="#F45D77" offset="100%"></stop>
        </linearGradient>
        <linearGradient x1="25%" y1="25%" x2="25%" y2="75%" id="linearGradient-2">
            <stop stop-color="#F13C5B" offset="0%"></stop>
            <stop stop-color="#F45D77" offset="100%"></stop>
        </linearGradient>
        <linearGradient x1="25%" y1="25%" x2="25%" y2="75%" id="linearGradient-3">
            <stop stop-color="#F13C5B" offset="0%"></stop>
            <stop stop-color="#F45D77" offset="100%"></stop>
        </linearGradient>
        <linearGradient x1="25%" y1="25%" x2="25%" y2="75%" id="linearGradient-4">
            <stop stop-color="#F13C5B" offset="0%"></stop>
            <stop stop-color="#F45D77" offset="100%"></stop>
        </linearGradient>
        <linearGradient x1="25%" y1="25%" x2="25%" y2="75%" id="linearGradient-5">
            <stop stop-color="#F13C5B" offset="0%"></stop>
            <stop stop-color="#F45D77" offset="100%"></stop>
        </linearGradient>
        <linearGradient x1="25%" y1="25%" x2="25%" y2="75%" id="linearGradient-6">
            <stop stop-color="#F13C5B" offset="0%"></stop>
            <stop stop-color="#F45D77" offset="100%"></stop>
        </linearGradient>
        <linearGradient x1="25%" y1="25%" x2="25%" y2="75%" id="linearGradient-7">
            <stop stop-color="#F13C5B" offset="0%"></stop>
            <stop stop-color="#F45D77" offset="100%"></stop>
        </linearGradient>
    </defs>
    <g id="Bespoke-Icon" stroke="none" stroke-width="1" fill="none" fill-rule="evenodd">
        <path d="M97.5087501,14.5171513 L97.5047917,14.5171513 C78.1781771,-4.84380139 46.848814,-4.83834698 27.5288793,14.5292998 C19.8762149,22.2006909 14.9449816,32.175086 13.4907477,42.9237605 L0.174537615,72.5680267 C-0.27375632,73.567177 0.171321378,74.7411165 1.1683548,75.1903622 C1.42219011,75.304657 1.69730206,75.3641598 1.97563025,75.3646556 L13.039485,75.3646556 L13.039485,97.1823278 C13.039485,98.2776741 13.9256819,99.1657526 15.0187076,99.1657526 L36.790157,99.1657526 L36.790157,117.016575 C36.790157,118.111922 37.676354,119 38.7693797,119 L86.2707238,119 C87.3637495,119 88.2499465,118.111922 88.2499465,117.016575 L88.2499465,91.9103848 C91.6185834,89.8711763 94.7276949,87.4295804 97.5087501,84.6391497 C116.830417,65.2752219 116.830417,33.8813271 97.5087501,14.5171513 Z M94.4707279,81.5900551 C91.6639428,84.4047827 88.4942177,86.8310071 85.0456696,88.8037709 C84.4313683,89.1590519 84.054079,89.8165572 84.0560582,90.527367 L84.0560582,114.786635 L40.5131595,114.786635 L40.5131595,96.9358123 C40.5131595,95.840466 39.6269625,94.9523876 38.5339368,94.9523876 L16.7624874,94.9523876 L16.7624874,73.1347154 C16.7624874,72.0393691 15.8762905,71.1512907 14.7832647,71.1512907 L4.80204482,71.1512907 L16.9841604,44.0378744 C17.0653085,43.859862 17.1187475,43.6706929 17.1424982,43.4765652 C20.3659097,18.4901241 43.1917899,0.853015388 68.1255423,4.08327051 C93.0592947,7.31352564 110.65879,30.1878674 107.435379,55.1745564 C106.14542,65.1734964 101.586528,74.4626183 94.4707279,81.5900551 Z" id="Shape" fill="url(#linearGradient-1)" fill-rule="nonzero"></path>
        <path d="M102.495284,43.9234398 C100.334092,41.4906253 96.5706939,41.236436 94.089511,43.3557423 C93.3025322,44.028106 92.7092983,44.891173 92.3695574,45.8589062 L86.8277073,45.8589062 L81.4138536,40.5505907 C80.6193751,39.7980727 79.3534093,39.8196433 78.5859301,40.5986342 C77.8374503,41.3585057 77.8374503,42.5632698 78.5859301,43.3233864 L83.1718061,47.819865 L76.5859842,54.2773024 C76.2109943,54.6449821 76,55.1435559 76,55.6637002 L76,87.0390412 C76,88.1219807 76.8954758,89 77.9999459,89 C79.1044161,89 79.9998919,88.1219807 79.9998919,87.0390412 L79.9998919,56.4755372 L86.8277073,49.7808238 L92.3455581,49.7808238 C93.1442865,52.0077377 95.2262302,53.548561 97.6294152,53.6909757 C97.7554118,53.6909757 97.8834084,53.7027414 98.009405,53.7027414 C101.323065,53.697839 104.004993,51.0598592 104,47.8107956 C103.997743,46.3788054 103.462758,44.9965746 102.495284,43.9234398 Z M100.15026,47.9357579 C100.117011,48.4536961 99.8757677,48.9378078 99.4795284,49.281711 L99.4775285,49.2856329 C99.0782892,49.6275751 98.5588033,49.8028358 98.0295676,49.7739116 C96.9273474,49.7055232 96.09012,48.7738226 96.1598681,47.6928441 C96.2266163,46.6608895 97.0988428,45.8568964 98.1533143,45.8556708 L98.2793109,45.8556708 C99.381781,45.923569 100.219258,46.8547793 100.15026,47.9357579 Z" id="Shape" fill="url(#linearGradient-2)" fill-rule="nonzero"></path>
        <path d="M86,18 C82.68625,18 80,20.6542708 80,23.9285714 C80.00325,24.8101994 80.2085,25.6797232 80.6,26.4719286 L80.582,26.4837857 L78,29.039 L75.414,26.4837857 C74.6195,25.7254226 73.3535,25.7471607 72.586,26.5322024 C71.83725,27.2979762 71.83725,28.5123452 72.586,29.278119 L75.172,31.8333333 L68.586,38.3409286 C68.211,38.7114643 68,39.2139107 68,39.7380952 L68,99.0238095 C68,100.115161 68.8955,101 70,101 C71.1045,101 72,100.115161 72,99.0238095 L72,40.5562381 L83.414,29.278119 L83.426,29.2603333 C84.2275,29.6486548 85.1075,29.8526964 86,29.8571429 C89.31375,29.8571429 92,27.202872 92,23.9285714 C92,20.6542708 89.31375,18 86,18 Z M86.0504292,26.0094247 C84.9459292,26.0094247 84.0504292,25.1245854 84.0504292,24.0332342 C84.0504292,22.941883 84.9459292,22.0570437 86.0504292,22.0570437 C87.1549292,22.0570437 88.0504292,22.941883 88.0504292,24.0332342 C88.0504292,25.1245854 87.1551792,26.0094247 86.0504292,26.0094247 Z" id="Shape" fill="url(#linearGradient-3)" fill-rule="nonzero"></path>
        <path d="M56.4145931,28.4410181 L48.4226907,20.5341903 C48.0480702,20.1635577 47.5400849,19.9550151 47.0101219,19.9550151 L42.6465431,19.9550151 C41.5431611,16.8671518 38.1183811,15.2489701 34.9975432,16.3408536 C31.8767053,17.4327371 30.2408628,20.8208128 31.3444946,23.908429 C32.4481263,26.9960453 35.8726565,28.6144741 38.9934945,27.5225906 C40.7005149,26.9256251 42.0431545,25.5970309 42.6465431,23.908429 L46.18296,23.908429 L53.0040488,30.6569065 L53.0040488,38.9037279 L46.424715,32.3944319 C45.6310192,31.6361177 44.3660509,31.6578615 43.5995775,32.4431084 C42.8518351,33.2090823 42.8518351,34.4235216 43.5995775,35.1894956 L53.0040488,44.4938552 L53.0040488,99.0232931 C53.0040488,100.114929 53.8986423,101 55.0020244,101 C56.1054064,101 57,100.114929 57,99.0232931 L57,29.8385499 C57,29.3144754 56.7894633,28.8116506 56.4145931,28.4410181 Z M37.0997434,23.6425994 C35.9963614,23.6425994 35.1017678,22.7575288 35.1017678,21.6658924 C35.1017678,20.574256 35.9963614,19.6891855 37.0997434,19.6891855 C38.2031254,19.6891855 39.097719,20.574256 39.097719,21.6658924 C39.097719,22.7575288 38.2033752,23.6425994 37.0997434,23.6425994 Z" id="Shape" fill="url(#linearGradient-4)" fill-rule="nonzero"></path>
        <path d="M48.414,49.2655517 L38.414,39.4379655 L38.396,39.4261724 C38.789,38.6384914 38.9955,37.7736638 39,36.8965517 C39,33.6399353 36.31375,31 33,31 C29.68625,31 27,33.6399353 27,36.8965517 C27,40.1531681 29.68625,42.7931034 33,42.7931034 C33.89225,42.7896638 34.77225,42.5881983 35.574,42.2034483 L35.586,42.2211379 L45,51.4688966 L45,55.738 L40.414,51.231069 C39.6195,50.4770474 38.35325,50.4986681 37.586,51.2794698 C36.8375,52.0411078 36.8375,53.2486724 37.586,54.0103103 L45,61.2964828 L45,86.0344828 C45,87.1199397 45.8955,88 47,88 C48.1045,88 49,87.1199397 49,86.0344828 L49,50.6551724 C49,50.1340647 48.78925,49.6340862 48.414,49.2655517 Z M33.1059238,38.9661664 C32.0014238,38.9661664 31.1059238,38.0861061 31.1059238,37.0006492 C31.1059238,35.9151923 32.0014238,35.035132 33.1059238,35.035132 C34.2104238,35.035132 35.1059238,35.9151923 35.1059238,37.0006492 C35.1059238,38.0861061 34.2106738,38.9661664 33.1059238,38.9661664 Z" id="Shape" fill="url(#linearGradient-5)" fill-rule="nonzero"></path>
        <path d="M72.4144224,19.3247308 L67.4142938,14.4208846 L67.4002934,14.4091154 C67.7918035,13.6227837 67.9970587,12.7597067 68.0003088,11.8846154 C68.0003088,8.63459135 65.3139897,6 62.0001544,6 C58.6863191,6 56,8.63459135 56,11.8846154 C56,15.1346394 58.6863191,17.7692308 62.0001544,17.7692308 C62.8924274,17.7657981 63.77245,17.5647404 64.5742207,17.1807692 L64.586221,17.1984231 L68.1723133,20.7115385 L60.586118,28.1516538 C60.2111084,28.5194423 60.0001029,29.0181635 60.0001029,29.5384615 L60.0001029,55.0384615 C60.0001029,56.1217212 60.895626,57 62.0001544,57 C63.1046828,57 64.0002059,56.1217212 64.0002059,55.0384615 L64.0002059,30.3505385 L72.4144224,22.0983462 C73.1951925,21.3323654 73.1951925,20.0907115 72.4144224,19.3247308 Z M61.7328055,13.583953 C60.6282771,13.583953 59.732754,12.7056742 59.732754,11.6224145 C59.732754,10.5391549 60.6282771,9.66087608 61.7328055,9.66087608 C62.8373339,9.66087608 63.732857,10.5391549 63.732857,11.6224145 C63.732857,12.7056742 62.8375839,13.583953 61.7328055,13.583953 Z" id="Shape" fill="url(#linearGradient-6)" fill-rule="nonzero"></path>
        <path d="M62,61 C60.8955,61 60,61.8955 60,63 L60,105 C60,106.1045 60.8955,107 62,107 C63.1045,107 64,106.1045 64,105 L64,63 C64,61.8955 63.10475,61 62,61 Z" id="Shape" fill="url(#linearGradient-7)" fill-rule="nonzero"></path>
    </g>
</svg>