<?xml version="1.0" encoding="UTF-8"?>
<svg width="132px" height="139px" viewBox="0 0 132 139" version="1.1" xmlns="http://www.w3.org/2000/svg" xmlns:xlink="http://www.w3.org/1999/xlink">
    <title>Bespoke Icon</title>
    <defs>
        <filter x="-22.1%" y="-16.0%" width="144.1%" height="132.0%" filterUnits="objectBoundingBox" id="filter-1">
            <feOffset dx="0" dy="0" in="SourceAlpha" result="shadowOffsetOuter1"></feOffset>
            <feGaussianBlur stdDeviation="15" in="shadowOffsetOuter1" result="shadowBlurOuter1"></feGaussianBlur>
            <feColorMatrix values="0 0 0 0 0.215686275   0 0 0 0 0.215686275   0 0 0 0 0.215686275  0 0 0 0.1 0" type="matrix" in="shadowBlurOuter1" result="shadowMatrixOuter1"></feColorMatrix>
            <feMerge>
                <feMergeNode in="shadowMatrixOuter1"></feMergeNode>
                <feMergeNode in="SourceGraphic"></feMergeNode>
            </feMerge>
        </filter>
        <linearGradient x1="25%" y1="25%" x2="25%" y2="75%" id="linearGradient-2">
            <stop stop-color="#F13C5B" offset="0%"></stop>
            <stop stop-color="#F45D77" offset="100%"></stop>
        </linearGradient>
        <linearGradient x1="25%" y1="25%" x2="25%" y2="75%" id="linearGradient-3">
            <stop stop-color="#F13C5B" offset="0%"></stop>
            <stop stop-color="#F45D77" offset="100%"></stop>
        </linearGradient>
        <linearGradient x1="25%" y1="25%" x2="25%" y2="75%" id="linearGradient-4">
            <stop stop-color="#F13C5B" offset="0%"></stop>
            <stop stop-color="#F45D77" offset="100%"></stop>
        </linearGradient>
        <linearGradient x1="25%" y1="25%" x2="25%" y2="75%" id="linearGradient-5">
            <stop stop-color="#F13C5B" offset="0%"></stop>
            <stop stop-color="#F45D77" offset="100%"></stop>
        </linearGradient>
        <linearGradient x1="25%" y1="25%" x2="25%" y2="75%" id="linearGradient-6">
            <stop stop-color="#F13C5B" offset="0%"></stop>
            <stop stop-color="#F45D77" offset="100%"></stop>
        </linearGradient>
        <linearGradient x1="25%" y1="25%" x2="25%" y2="75%" id="linearGradient-7">
            <stop stop-color="#F13C5B" offset="0%"></stop>
            <stop stop-color="#F45D77" offset="100%"></stop>
        </linearGradient>
        <linearGradient x1="25%" y1="25%" x2="25%" y2="75%" id="linearGradient-8">
            <stop stop-color="#F13C5B" offset="0%"></stop>
            <stop stop-color="#F45D77" offset="100%"></stop>
        </linearGradient>
    </defs>
    <g id="Desktop" stroke="none" stroke-width="1" fill="none" fill-rule="evenodd">
        <g id="Main" transform="translate(-891.000000, -1244.000000)" fill-rule="nonzero">
            <g id="Bespoke" filter="url(#filter-1)" transform="translate(825.000000, 1219.000000)">
                <g id="neurology" transform="translate(93.000000, 54.000000)">
                    <g id="Bespoke-Icon">
                        <path d="M66.1666519,9.75942946 L66.1639658,9.75942946 C53.0494773,-3.25633707 31.7902667,-3.25267024 18.680311,9.7675965 C13.4874315,14.9248342 10.1412375,21.6303099 9.15443597,28.8563096 L0.118436239,48.7852281 C-0.185763217,49.4569257 0.116253792,50.2461287 0.792812185,50.5481426 C0.965057572,50.6249795 1.15174068,50.6649814 1.34060624,50.6653147 L8.84822195,50.6653147 L8.84822195,65.3326574 C8.84822195,66.0690246 9.44956988,66.6660521 10.1912659,66.6660521 L24.9647494,66.6660521 L24.9647494,78.6666052 C24.9647494,79.4029725 25.5660973,80 26.3077934,80 L58.5408483,80 C59.2825443,80 59.8838922,79.4029725 59.8838922,78.6666052 L59.8838922,61.788494 C62.1697531,60.4175975 64.2795072,58.7761885 66.1666519,56.9002687 C79.2777827,43.8825021 79.2777827,22.7773628 66.1666519,9.75942946 Z M64.1051368,54.8504572 C62.2005326,56.7427111 60.0496477,58.3737863 57.7095615,59.700014 C57.2927142,59.9388584 57.0366965,60.3808788 57.0380395,60.8587341 L57.0380395,77.1674857 L27.4910725,77.1674857 L27.4910725,65.1669327 C27.4910725,64.4305654 26.8897246,63.8335379 26.1480285,63.8335379 L11.374545,63.8335379 L11.374545,49.1661952 C11.374545,48.429828 10.7731971,47.8328005 10.0315011,47.8328005 L3.25853041,47.8328005 L11.524966,29.6052937 C11.5800308,29.4856215 11.6162929,29.358449 11.6324095,29.227943 C13.8197244,12.4303355 29.3087146,0.573455723 46.2280466,2.74505581 C63.1473786,4.91665589 75.0898933,20.2943646 72.9025783,37.0921388 C72.0272494,43.8141152 68.9337156,50.058903 64.1051368,54.8504572 Z" id="Shape" fill="url(#linearGradient-2)"></path>
                        <path d="M69.5503711,29.5283629 C68.0838482,27.8928574 65.5301137,27.7219738 63.8464539,29.1467175 C63.3124326,29.5987267 62.909881,30.1789398 62.6793426,30.8295168 L58.9188014,30.8295168 L55.245115,27.2609013 C54.7060045,26.7550069 53.8469563,26.7695081 53.3261668,27.2931995 C52.8182699,27.8040375 52.8182699,28.6139629 53.3261668,29.1249657 L56.4380113,32.1478084 L51.9690607,36.4889428 C51.7146033,36.7361224 51.5714286,37.0712981 51.5714286,37.4209749 L51.5714286,58.5136411 C51.5714286,59.2416677 52.1790729,59.8319328 52.9285347,59.8319328 C53.6779966,59.8319328 54.2856409,59.2416677 54.2856409,58.5136411 L54.2856409,37.9667477 L58.9188014,33.4661 L62.6630573,33.4661 C63.2050516,34.963185 64.6177991,35.9990326 66.2485318,36.0947736 C66.3340295,36.0947736 66.4208843,36.1026833 66.5063819,36.1026833 C68.7549372,36.0993876 70.5748166,34.3259558 70.5714286,32.1417113 C70.5698971,31.1790288 70.2068712,30.249798 69.5503711,29.5283629 Z M67.9591052,32.2257196 C67.9365433,32.5739134 67.7728424,32.8993666 67.5039657,33.130562 L67.5026086,33.1331986 C67.2316963,33.3630757 66.8791879,33.480898 66.5200637,33.4614532 C65.7721286,33.4154778 65.20401,32.7891245 65.2513391,32.0624162 C65.2966325,31.3686652 65.8885004,30.8281657 66.6040347,30.8273417 L66.6895324,30.8273417 C67.4376371,30.8729876 68.0059253,31.4990113 67.9591052,32.2257196 Z" id="Shape" fill="url(#linearGradient-3)"></path>
                        <path d="M58.3571429,12.1008403 C56.1085268,12.1008403 54.2857143,13.8852241 54.2857143,16.0864346 C54.2879196,16.6791257 54.4271964,17.2636795 54.6928571,17.7962545 L54.6806429,17.8042257 L52.9285714,19.5220168 L51.1737857,17.8042257 C50.6346607,17.2944018 49.7755893,17.3090156 49.2547857,17.8367747 C48.7467054,18.3515806 48.7467054,19.1679632 49.2547857,19.6827691 L51.0095714,21.4005602 L46.5405,25.7754142 C46.2860357,26.0245138 46.1428571,26.3622929 46.1428571,26.7146859 L46.1428571,66.5706283 C46.1428571,67.3043097 46.7505179,67.8991597 47.5,67.8991597 C48.2494821,67.8991597 48.8571429,67.3043097 48.8571429,66.5706283 L48.8571429,27.2646979 L56.6023571,19.6827691 L56.6105,19.6708123 C57.154375,19.9318687 57.7515179,20.0690396 58.3571429,20.0720288 C60.6057589,20.0720288 62.4285714,18.2876451 62.4285714,16.0864346 C62.4285714,13.8852241 60.6057589,12.1008403 58.3571429,12.1008403 Z M58.3913627,17.4853275 C57.6418805,17.4853275 57.0342198,16.8904776 57.0342198,16.1567961 C57.0342198,15.4231146 57.6418805,14.8282647 58.3913627,14.8282647 C59.1408448,14.8282647 59.7485055,15.4231146 59.7485055,16.1567961 C59.7485055,16.8904776 59.1410145,17.4853275 58.3913627,17.4853275 Z" id="Shape" fill="url(#linearGradient-4)"></path>
                        <path d="M38.2813311,19.1200121 L32.8582544,13.8044977 C32.6040477,13.5553329 32.2593433,13.4151362 31.8997256,13.4151362 L28.9387257,13.4151362 C28.1900022,11.3392617 25.8660443,10.2514084 23.7483329,10.9854478 C21.6306215,11.7194871 20.5205855,13.9971851 21.2694784,16.0728935 C22.0183714,18.1486019 24.3421598,19.2366212 26.4598712,18.5025819 C27.6182065,18.1012606 28.5292834,17.208088 28.9387257,16.0728935 L31.3384371,16.0728935 L35.9670331,20.6096851 L35.9670331,26.1537667 L31.5024852,21.7777694 C30.9639059,21.2679783 30.1055345,21.282596 29.5854276,21.810493 C29.078031,22.3254335 29.078031,23.1418633 29.5854276,23.6568037 L35.9670331,29.9118354 L35.9670331,66.570281 C35.9670331,67.3041543 36.5740787,67.8991597 37.3228023,67.8991597 C38.0715258,67.8991597 38.6785714,67.3041543 38.6785714,66.570281 L38.6785714,20.0595293 C38.6785714,19.7072104 38.5357143,19.3691769 38.2813311,19.1200121 Z M25.1748259,15.8941844 C24.4261024,15.8941844 23.8190567,15.299179 23.8190567,14.5653058 C23.8190567,13.8314326 24.4261024,13.2364272 25.1748259,13.2364272 C25.9235494,13.2364272 26.5305951,13.8314326 26.5305951,14.5653058 C26.5305951,15.299179 25.9237189,15.8941844 25.1748259,15.8941844 Z" id="Shape" fill="url(#linearGradient-5)"></path>
                        <path d="M32.8523571,33.1196986 L26.0666429,26.512918 L26.0544286,26.5049899 C26.3211071,25.9754564 26.4612321,25.3940597 26.4642857,24.8044045 C26.4642857,22.6150826 24.6414732,20.8403361 22.3928571,20.8403361 C20.1442411,20.8403361 18.3214286,22.6150826 18.3214286,24.8044045 C18.3214286,26.9937265 20.1442411,28.7684729 22.3928571,28.7684729 C22.9983125,28.7661605 23.5954554,28.6307215 24.1395,28.3720661 L24.1476429,28.3839583 L30.5357143,34.6009389 L30.5357143,37.4709244 L27.4237857,34.4410548 C26.8846607,33.9341495 26.0254196,33.9486844 25.5047857,34.4735932 C24.996875,34.9856187 24.996875,35.7974268 25.5047857,36.3094523 L30.5357143,41.2077195 L30.5357143,57.8383077 C30.5357143,58.5680267 31.143375,59.1596639 31.8928571,59.1596639 C32.6423393,59.1596639 33.25,58.5680267 33.25,57.8383077 L33.25,34.0538974 C33.25,33.7035729 33.1069911,33.3674529 32.8523571,33.1196986 Z M22.464734,26.1957422 C21.7152518,26.1957422 21.1075911,25.6041049 21.1075911,24.874386 C21.1075911,24.1446671 21.7152518,23.5530299 22.464734,23.5530299 C23.2142161,23.5530299 23.8218768,24.1446671 23.8218768,24.874386 C23.8218768,25.6041049 23.2143858,26.1957422 22.464734,26.1957422 Z" id="Shape" fill="url(#linearGradient-6)"></path>
                        <path d="M49.1383581,12.9914156 L45.7454136,9.69471235 L45.7359134,9.68680026 C46.0015809,9.15817388 46.1408613,8.5779541 46.1430667,7.9896574 C46.1430667,5.80476729 44.3202073,4.03361345 42.0715334,4.03361345 C39.8228594,4.03361345 38,5.80476729 38,7.9896574 C38,10.1745475 39.8228594,11.9457014 42.0715334,11.9457014 C42.6770043,11.9433937 43.2741625,11.8082288 43.8182212,11.550097 L43.8263642,11.5619651 L46.259784,13.9237233 L41.1120087,18.9254816 C40.8575378,19.1727343 40.7143556,19.508009 40.7143556,19.8577893 L40.7143556,37.0006464 C40.7143556,37.7288882 41.3220319,38.3193277 42.0715334,38.3193277 C42.8210348,38.3193277 43.4287111,37.7288882 43.4287111,37.0006464 L43.4287111,20.4037233 L49.1383581,14.856031 C49.6681664,14.341086 49.6681664,13.5063607 49.1383581,12.9914156 Z M41.890118,9.13206924 C41.1406166,9.13206924 40.5329402,8.54162968 40.5329402,7.81338792 C40.5329402,7.08514617 41.1406166,6.49470661 41.890118,6.49470661 C42.6396194,6.49470661 43.2472958,7.08514617 43.2472958,7.81338792 C43.2472958,8.54162968 42.6397891,9.13206924 41.890118,9.13206924 Z" id="Shape" fill="url(#linearGradient-7)"></path>
                        <path d="M42.0714286,41.0084034 C41.3219464,41.0084034 40.7142857,41.6104202 40.7142857,42.3529412 L40.7142857,70.5882353 C40.7142857,71.3307563 41.3219464,71.9327731 42.0714286,71.9327731 C42.8209107,71.9327731 43.4285714,71.3307563 43.4285714,70.5882353 L43.4285714,42.3529412 C43.4285714,41.6104202 42.8210804,41.0084034 42.0714286,41.0084034 Z" id="Shape" fill="url(#linearGradient-8)"></path>
                    </g>
                </g>
            </g>
        </g>
    </g>
</svg>