<?xml version="1.0" encoding="UTF-8"?>
<svg width="132px" height="139px" viewBox="0 0 132 139" version="1.1" xmlns="http://www.w3.org/2000/svg" xmlns:xlink="http://www.w3.org/1999/xlink">
    <!-- Generator: Sketch 51.2 (57519) - http://www.bohemiancoding.com/sketch -->
    <title>neurology</title>
    <desc>Created with Sketch.</desc>
    <defs>
        <filter x="-17.1%" y="-12.4%" width="134.2%" height="124.8%" filterUnits="objectBoundingBox" id="filter-1">
            <feOffset dx="0" dy="0" in="SourceAlpha" result="shadowOffsetOuter1"></feOffset>
            <feGaussianBlur stdDeviation="15" in="shadowOffsetOuter1" result="shadowBlurOuter1"></feGaussianBlur>
            <feColorMatrix values="0 0 0 0 0.215686275   0 0 0 0 0.215686275   0 0 0 0 0.215686275  0 0 0 0.1 0" type="matrix" in="shadowBlurOuter1" result="shadowMatrixOuter1"></feColorMatrix>
            <feMerge>
                <feMergeNode in="shadowMatrixOuter1"></feMergeNode>
                <feMergeNode in="SourceGraphic"></feMergeNode>
            </feMerge>
        </filter>
        <linearGradient x1="25%" y1="25%" x2="25%" y2="75%" id="linearGradient-2">
            <stop stop-color="#F13C5B" offset="0%"></stop>
            <stop stop-color="#F45D77" offset="100%"></stop>
        </linearGradient>
    </defs>
    <g id="Main" stroke="none" stroke-width="1" fill="none" fill-rule="evenodd">
        <g transform="translate(-891.000000, -1244.000000)" fill="url(#linearGradient-2)" fill-rule="nonzero" id="Bespoke">
            <g filter="url(#filter-1)" transform="translate(825.000000, 1219.000000)">
                <g id="neurology" transform="translate(93.000000, 54.000000)">
                    <g id="Bespoke-Icon">
                        <path d="M65.8184063,9.79907714 L65.8157344,9.79907714 C52.7702695,-3.26956594 31.6229495,-3.26588421 18.5819936,9.80727736 C13.416445,14.9854663 10.0878626,21.718183 9.10625473,28.9735383 L0.11781289,48.983418 C-0.184785516,49.6578444 0.11564193,50.4502536 0.788639489,50.7534945 C0.959978322,50.8306435 1.14567889,50.8708078 1.33355042,50.8711425 L8.80165236,50.8711425 L8.80165236,65.5980713 C8.80165236,66.33743 9.3998353,66.936883 10.1376277,66.936883 L24.833356,66.936883 L24.833356,78.9861883 C24.833356,79.7255471 25.4315389,80.325 26.1693313,80.325 L58.2327386,80.325 C58.9705309,80.325 59.5687139,79.7255471 59.5687139,78.9861883 L59.5687139,62.0395098 C61.8425438,60.663044 63.941194,59.0149668 65.8184063,57.1314261 C78.8605312,44.0607748 78.8605312,22.8698958 65.8184063,9.79907714 Z M63.7677413,55.0732872 C61.8731614,56.9732284 59.7335969,58.6109298 57.4058269,59.9425454 C56.9911736,60.18236 56.7365033,60.6261761 56.7378393,61.1059727 L56.7378393,77.4809787 L27.3463826,77.4809787 L27.3463826,65.4316733 C27.3463826,64.6923146 26.7481997,64.0928616 26.0104073,64.0928616 L11.314679,64.0928616 L11.314679,49.3659329 C11.314679,48.6265741 10.7164961,48.0271212 9.9787037,48.0271212 L3.24138025,48.0271212 L11.4643082,29.7255652 C11.5190832,29.6054069 11.5551546,29.4777177 11.5711863,29.3466815 C13.746989,12.4808337 29.1544582,0.575785387 45.9847411,2.7562076 C62.815024,4.9366298 74.6946833,20.3768105 72.5188806,37.2428256 C71.6481587,43.9921101 68.5709065,50.2622673 63.7677413,55.0732872 Z" id="Shape"></path>
                        <path d="M69.1843165,29.6483219 C67.7255122,28.0061721 65.1852184,27.8345943 63.5104199,29.265126 C62.9792093,29.7189716 62.5787763,30.3015418 62.3494513,30.9547617 L58.6087024,30.9547617 L54.9543512,27.3716487 C54.4180782,26.8636991 53.5635513,26.8782592 53.0455028,27.4040781 C52.540279,27.9169914 52.540279,28.7302071 53.0455028,29.2432859 L56.1409691,32.2784089 L51.6955393,36.6371791 C51.4424211,36.8853629 51.3,37.2219002 51.3,37.5729977 L51.3,58.7513528 C51.3,59.482337 51.9044462,60.075 52.6499635,60.075 C53.3954808,60.075 53.999927,59.482337 53.999927,58.7513528 L53.999927,38.1209876 L58.6087024,33.6020561 L62.3332517,33.6020561 C62.8723934,35.1052229 64.2777054,36.1452787 65.8998553,36.2414086 C65.984903,36.2414086 66.0713007,36.2493505 66.1563484,36.2493505 C68.3930691,36.2460413 70.2033702,34.465405 70.1999953,32.272287 C70.1984766,31.3056936 69.8373613,30.3726878 69.1843165,29.6483219 Z M67.6014257,32.3566366 C67.5789825,32.7062449 67.4161432,33.0330203 67.1486817,33.2651549 L67.1473317,33.2678022 C66.8778452,33.4986132 66.5271922,33.6169141 66.1699581,33.5973903 C65.4259595,33.5512282 64.860831,32.9223303 64.907911,32.1926698 C64.952966,31.4961004 65.5417189,30.9534051 66.2534871,30.9525778 L66.3385348,30.9525778 C67.0827022,30.9984091 67.6479994,31.626976 67.6014257,32.3566366 Z" id="Shape"></path>
                        <path d="M58.05,12.15 C55.8132188,12.15 54,13.9416328 54,16.1517857 C54.0021938,16.7468846 54.1407375,17.3338132 54.405,17.8685518 L54.39285,17.8765554 L52.65,19.601325 L50.90445,17.8765554 C50.3681625,17.3646603 49.5136125,17.3793335 48.99555,17.9092366 C48.4901438,18.4261339 48.4901438,19.245833 48.99555,19.7627304 L50.7411,21.4875 L46.29555,25.8801268 C46.042425,26.1302384 45.9,26.4693897 45.9,26.8232143 L45.9,66.8410714 C45.9,67.5777335 46.5044625,68.175 47.25,68.175 C47.9955375,68.175 48.6,67.5777335 48.6,66.8410714 L48.6,27.3754607 L56.30445,19.7627304 L56.31255,19.750725 C56.8535625,20.012842 57.4475625,20.1505701 58.05,20.1535714 C60.2867813,20.1535714 62.1,18.3619386 62.1,16.1517857 C62.1,13.9416328 60.2867813,12.15 58.05,12.15 Z M58.0840397,17.5563616 C57.3385022,17.5563616 56.7340397,16.9590951 56.7340397,16.2224331 C56.7340397,15.485771 57.3385022,14.8885045 58.0840397,14.8885045 C58.8295772,14.8885045 59.4340397,15.485771 59.4340397,16.2224331 C59.4340397,16.9590951 58.829746,17.5563616 58.0840397,17.5563616 Z" id="Shape"></path>
                        <path d="M38.0798504,19.1976872 L32.6853162,13.8605784 C32.4324474,13.6104015 32.0895573,13.4696352 31.7318323,13.4696352 L28.7864166,13.4696352 C28.0416337,11.3853275 25.7299073,10.2930548 23.6233417,11.0300762 C21.5167761,11.7670975 20.4125824,14.0540486 21.1575338,16.1381896 C21.9024853,18.2223306 24.2140432,19.31477 26.3206088,18.5777486 C27.4728475,18.1747969 28.3791293,17.2779959 28.7864166,16.1381896 L31.173498,16.1381896 L35.7777329,20.6934119 L35.7777329,26.2600164 L31.3366827,21.8662416 C30.800938,21.3543795 29.9470844,21.3690565 29.4297148,21.8990981 C28.9249887,22.4161306 28.9249887,23.2358771 29.4297148,23.7529095 L35.7777329,30.0333522 L35.7777329,66.8407228 C35.7777329,67.5775774 36.3815836,68.175 37.1263665,68.175 C37.8711493,68.175 38.475,67.5775774 38.475,66.8407228 L38.475,20.1410212 C38.475,19.7872709 38.3328877,19.4478642 38.0798504,19.1976872 Z M25.0423268,15.9587546 C24.2975439,15.9587546 23.6936933,15.361332 23.6936933,14.6244774 C23.6936933,13.8876228 24.2975439,13.2902002 25.0423268,13.2902002 C25.7871097,13.2902002 26.3909603,13.8876228 26.3909603,14.6244774 C26.3909603,15.361332 25.7872782,15.9587546 25.0423268,15.9587546 Z" id="Shape"></path>
                        <path d="M32.67945,33.2542474 L25.92945,26.6206267 L25.9173,26.6126664 C26.182575,26.0809817 26.3219625,25.4972231 26.325,24.9051724 C26.325,22.7069564 24.5117813,20.925 22.275,20.925 C20.0382188,20.925 18.225,22.7069564 18.225,24.9051724 C18.225,27.1033885 20.0382188,28.8853448 22.275,28.8853448 C22.8772688,28.8830231 23.4712688,28.7470338 24.01245,28.4873276 L24.02055,28.4992681 L30.375,34.7415052 L30.375,37.62315 L27.27945,34.5809716 C26.7431625,34.072007 25.8884438,34.086601 25.37055,34.6136421 C24.8653125,35.1277477 24.8653125,35.9428539 25.37055,36.4569595 L30.375,41.3751259 L30.375,58.0732759 C30.375,58.8059593 30.9794625,59.4 31.725,59.4 C32.4705375,59.4 33.075,58.8059593 33.075,58.0732759 L33.075,34.1922414 C33.075,33.8404936 32.9327438,33.5030082 32.67945,33.2542474 Z M22.3464985,26.3021624 C21.600961,26.3021624 20.9964985,25.7081216 20.9964985,24.9754382 C20.9964985,24.2427548 21.600961,23.6487141 22.3464985,23.6487141 C23.092036,23.6487141 23.6964985,24.2427548 23.6964985,24.9754382 C23.6964985,25.7081216 23.0922048,26.3021624 22.3464985,26.3021624 Z" id="Shape"></path>
                        <path d="M48.8797351,13.0441933 L45.5046483,9.73409712 L45.495198,9.72615288 C45.7594673,9.19537897 45.8980147,8.61280204 45.9002085,8.02211538 C45.9002085,5.82834916 44.086943,4.05 41.8501042,4.05 C39.6132654,4.05 37.8,5.82834916 37.8,8.02211538 C37.8,10.2158816 39.6132654,11.9942308 41.8501042,11.9942308 C42.4523885,11.9919137 43.0464038,11.8561998 43.5875989,11.5970192 L43.5956992,11.6089356 L46.0163114,13.9802885 L40.8956297,19.0023663 C40.6424982,19.2506236 40.5000695,19.5872603 40.5000695,19.9384615 L40.5000695,37.1509615 C40.5000695,37.8821618 41.1045475,38.475 41.8501042,38.475 C42.5956609,38.475 43.200139,37.8821618 43.200139,37.1509615 L43.200139,20.4866135 L48.8797351,14.9163837 C49.406755,14.3993466 49.406755,13.5612303 48.8797351,13.0441933 Z M41.6696437,9.16916827 C40.924087,9.16916827 40.319609,8.57633005 40.319609,7.84512981 C40.319609,7.11392957 40.924087,6.52109135 41.6696437,6.52109135 C42.4152004,6.52109135 43.0196785,7.11392957 43.0196785,7.84512981 C43.0196785,8.57633005 42.4153692,9.16916827 41.6696437,9.16916827 Z" id="Shape"></path>
                        <path d="M41.85,41.175 C41.1044625,41.175 40.5,41.7794625 40.5,42.525 L40.5,70.875 C40.5,71.6205375 41.1044625,72.225 41.85,72.225 C42.5955375,72.225 43.2,71.6205375 43.2,70.875 L43.2,42.525 C43.2,41.7794625 42.5957062,41.175 41.85,41.175 Z" id="Shape"></path>
                    </g>
                </g>
            </g>
        </g>
    </g>
</svg>