<?xml version="1.0" encoding="UTF-8"?>
<svg width="120px" height="119px" viewBox="0 0 120 119" version="1.1" xmlns="http://www.w3.org/2000/svg" xmlns:xlink="http://www.w3.org/1999/xlink">
    <title>Collaborate Icon</title>
    <defs>
        <linearGradient x1="25%" y1="25%" x2="25%" y2="75%" id="linearGradient-1">
            <stop stop-color="#F13C5B" offset="0%"></stop>
            <stop stop-color="#F45D77" offset="100%"></stop>
        </linearGradient>
        <linearGradient x1="25%" y1="25%" x2="25%" y2="75%" id="linearGradient-2">
            <stop stop-color="#F13C5B" offset="0%"></stop>
            <stop stop-color="#F45D77" offset="100%"></stop>
        </linearGradient>
        <linearGradient x1="25%" y1="25%" x2="25%" y2="75%" id="linearGradient-3">
            <stop stop-color="#F13C5B" offset="0%"></stop>
            <stop stop-color="#F45D77" offset="100%"></stop>
        </linearGradient>
    </defs>
    <g id="Collaborate-Icon" stroke="none" stroke-width="1" fill="none" fill-rule="evenodd">
        <path d="M22.1991768,30 L40,30 L40,26 L22.1991768,26 C16.7461913,26 12.3098305,30.486 12.3098305,36 L12.3098305,67.172 L5.79670711,60.586 L3,63.414 L12.8893462,73.414 C13.2750307,73.804 13.7813653,74 14.2876998,74 C14.7940343,74 15.3003688,73.804 15.6860533,73.414 L25.5753996,63.414 L22.7786925,60.586 L16.265569,67.172 L16.265569,36 C16.265569,32.692 18.927781,30 22.1991768,30 Z" id="Shape" fill="url(#linearGradient-1)" fill-rule="nonzero"></path>
        <path d="M104.000071,40 L104.000071,97.6898235 C104.000071,100.980133 101.308119,103.657736 98.0001786,103.657736 L86.8283781,103.657736 L93.4142605,97.1069574 L90.586311,94.2940812 L80.5864895,104.240602 C79.8045035,105.01842 79.8045035,106.275661 80.5864895,107.053479 L90.586311,117 L93.4142605,114.187124 L86.8283781,107.636345 L98.0001786,107.636345 C103.51408,107.636345 108,103.174335 108,97.6898235 L108,40 L104.000071,40 Z" id="Shape" fill="url(#linearGradient-2)" fill-rule="nonzero"></path>
        <path d="M113.42,16.642 C115.006,14.87 116,12.558 116,10 C116,4.486 111.514,0 106,0 C100.486,0 96,4.486 96,10 C96,12.558 96.994,14.87 98.58,16.642 C95.3,17.846 92.824,20.692 92.182,24.202 C91.354,23.544 90.432,23.014 89.42,22.642 C91.006,20.87 92,18.558 92,16 C92,10.486 87.514,6 82,6 C76.486,6 72,10.486 72,16 C72,18.558 72.994,20.87 74.58,22.642 C73.568,23.012 72.646,23.544 71.818,24.202 C71.176,20.692 68.7,17.846 65.42,16.642 C67.006,14.87 68,12.558 68,10 C68,4.486 63.514,0 58,0 C52.486,0 48,4.486 48,10 C48,12.558 48.994,14.87 50.58,16.642 C46.754,18.046 44,21.692 44,26 L44,34 C44,35.106 44.894,36 46,36 L68,36 L68,40 C68,41.106 68.894,42 70,42 L94,42 C95.106,42 96,41.106 96,40 L96,36 L118,36 C119.106,36 120,35.106 120,34 L120,26 C120,21.692 117.246,18.046 113.42,16.642 Z M58,4 C61.308,4 64,6.692 64,10 C64,13.308 61.308,16 58,16 C54.692,16 52,13.308 52,10 C52,6.692 54.692,4 58,4 Z M68,32 L48,32 L48,26 C48,22.692 50.692,20 54,20 L62,20 C65.308,20 68,22.692 68,26 L68,32 Z M82,10 C85.308,10 88,12.692 88,16 C88,19.308 85.308,22 82,22 C78.692,22 76,19.308 76,16 C76,12.692 78.692,10 82,10 Z M92,34 L92,38 L72,38 L72,34 L72,32 C72,28.692 74.692,26 78,26 L86,26 C89.308,26 92,28.692 92,32 L92,34 Z M106,4 C109.308,4 112,6.692 112,10 C112,13.308 109.308,16 106,16 C102.692,16 100,13.308 100,10 C100,6.692 102.692,4 106,4 Z M116,32 L96,32 L96,26 C96,22.692 98.692,20 102,20 L110,20 C113.308,20 116,22.692 116,26 L116,32 Z" id="Shape" fill="url(#linearGradient-3)" fill-rule="nonzero"></path>
        <path d="M69.42,93.642 C71.006,91.87 72,89.558 72,87 C72,81.486 67.514,77 62,77 C56.486,77 52,81.486 52,87 C52,89.558 52.994,91.87 54.58,93.642 C51.3,94.846 48.824,97.692 48.182,101.202 C47.354,100.544 46.432,100.014 45.42,99.642 C47.006,97.87 48,95.558 48,93 C48,87.486 43.514,83 38,83 C32.486,83 28,87.486 28,93 C28,95.558 28.994,97.87 30.58,99.642 C29.568,100.012 28.646,100.544 27.818,101.202 C27.176,97.692 24.7,94.846 21.42,93.642 C23.006,91.87 24,89.558 24,87 C24,81.486 19.514,77 14,77 C8.486,77 4,81.486 4,87 C4,89.558 4.994,91.87 6.58,93.642 C2.754,95.046 0,98.692 0,103 L0,111 C0,112.106 0.894,113 2,113 L24,113 L24,117 C24,118.106 24.894,119 26,119 L50,119 C51.106,119 52,118.106 52,117 L52,113 L74,113 C75.106,113 76,112.106 76,111 L76,103 C76,98.692 73.246,95.046 69.42,93.642 Z M14,81 C17.308,81 20,83.692 20,87 C20,90.308 17.308,93 14,93 C10.692,93 8,90.308 8,87 C8,83.692 10.692,81 14,81 Z M24,109 L4,109 L4,103 C4,99.692 6.692,97 10,97 L18,97 C21.308,97 24,99.692 24,103 L24,109 Z M38,87 C41.308,87 44,89.692 44,93 C44,96.308 41.308,99 38,99 C34.692,99 32,96.308 32,93 C32,89.692 34.692,87 38,87 Z M48,111 L48,115 L28,115 L28,111 L28,109 C28,105.692 30.692,103 34,103 L42,103 C45.308,103 48,105.692 48,109 L48,111 Z M62,81 C65.308,81 68,83.692 68,87 C68,90.308 65.308,93 62,93 C58.692,93 56,90.308 56,87 C56,83.692 58.692,81 62,81 Z M72,109 L52,109 L52,103 C52,99.692 54.692,97 58,97 L66,97 C69.308,97 72,99.692 72,103 L72,109 Z" id="Shape" fill="url(#linearGradient-3)" fill-rule="nonzero"></path>
    </g>
</svg>