<?xml version="1.0" encoding="UTF-8"?>
<svg width="139px" height="137px" viewBox="0 0 139 137" version="1.1" xmlns="http://www.w3.org/2000/svg" xmlns:xlink="http://www.w3.org/1999/xlink">
    <title>Collaborate Icon</title>
    <defs>
        <filter x="-22.1%" y="-16.0%" width="144.1%" height="132.0%" filterUnits="objectBoundingBox" id="filter-1">
            <feOffset dx="0" dy="0" in="SourceAlpha" result="shadowOffsetOuter1"></feOffset>
            <feGaussianBlur stdDeviation="15" in="shadowOffsetOuter1" result="shadowBlurOuter1"></feGaussianBlur>
            <feColorMatrix values="0 0 0 0 0.215686275   0 0 0 0 0.215686275   0 0 0 0 0.215686275  0 0 0 0.1 0" type="matrix" in="shadowBlurOuter1" result="shadowMatrixOuter1"></feColorMatrix>
            <feMerge>
                <feMergeNode in="shadowMatrixOuter1"></feMergeNode>
                <feMergeNode in="SourceGraphic"></feMergeNode>
            </feMerge>
        </filter>
        <linearGradient x1="25%" y1="25%" x2="25%" y2="75%" id="linearGradient-2">
            <stop stop-color="#F13C5B" offset="0%"></stop>
            <stop stop-color="#F45D77" offset="100%"></stop>
        </linearGradient>
        <linearGradient x1="25%" y1="25%" x2="25%" y2="75%" id="linearGradient-3">
            <stop stop-color="#F13C5B" offset="0%"></stop>
            <stop stop-color="#F45D77" offset="100%"></stop>
        </linearGradient>
        <linearGradient x1="25%" y1="25%" x2="25%" y2="75%" id="linearGradient-4">
            <stop stop-color="#F13C5B" offset="0%"></stop>
            <stop stop-color="#F45D77" offset="100%"></stop>
        </linearGradient>
    </defs>
    <g id="Desktop" stroke="none" stroke-width="1" fill="none" fill-rule="evenodd">
        <g id="Main" transform="translate(-1172.000000, -1245.000000)" fill-rule="nonzero">
            <g id="Collaborate" filter="url(#filter-1)" transform="translate(1110.000000, 1219.000000)">
                <g id="network" transform="translate(91.000000, 54.000000)">
                    <g id="Collaborate-Icon">
                        <path d="M14.9844443,20.1680672 L27,20.1680672 L27,17.4789916 L14.9844443,17.4789916 C11.3036791,17.4789916 8.30913562,20.4947899 8.30913562,24.2016807 L8.30913562,45.1576471 L3.9127773,40.730084 L2.025,42.6312605 L8.70030871,49.3539496 C8.96064575,49.6161345 9.30242155,49.7478992 9.64419736,49.7478992 C9.98597317,49.7478992 10.327749,49.6161345 10.588086,49.3539496 L17.2633947,42.6312605 L15.3756174,40.730084 L10.9792591,45.1576471 L10.9792591,24.2016807 C10.9792591,21.9778151 12.7762522,20.1680672 14.9844443,20.1680672 Z" id="Shape" fill="url(#linearGradient-2)"></path>
                        <path d="M70.2000482,26.8907563 L70.2000482,65.673831 C70.2000482,67.8858036 68.3829807,69.6858732 66.1501205,69.6858732 L58.6091552,69.6858732 L63.0546258,65.2819882 L61.1457599,63.3909789 L54.3958804,70.0777159 C53.8680399,70.6006188 53.8680399,71.4458223 54.3958804,71.9687252 L61.1457599,78.6554622 L63.0546258,76.764453 L58.6091552,72.360568 L66.1501205,72.360568 C69.8720041,72.360568 72.9,69.3608977 72.9,65.673831 L72.9,26.8907563 L70.2000482,26.8907563 Z" id="Shape" fill="url(#linearGradient-3)"></path>
                        <path d="M76.5585,11.1878992 C77.62905,9.99663866 78.3,8.44235294 78.3,6.72268908 C78.3,3.01579832 75.27195,0 71.55,0 C67.82805,0 64.8,3.01579832 64.8,6.72268908 C64.8,8.44235294 65.47095,9.99663866 66.5415,11.1878992 C64.3275,11.9973109 62.6562,13.9105882 62.22285,16.2702521 C61.66395,15.8278992 61.0416,15.4715966 60.3585,15.2215126 C61.42905,14.0302521 62.1,12.4759664 62.1,10.7563025 C62.1,7.04941176 59.07195,4.03361345 55.35,4.03361345 C51.62805,4.03361345 48.6,7.04941176 48.6,10.7563025 C48.6,12.4759664 49.27095,14.0302521 50.3415,15.2215126 C49.6584,15.4702521 49.03605,15.8278992 48.47715,16.2702521 C48.0438,13.9105882 46.3725,11.9973109 44.1585,11.1878992 C45.22905,9.99663866 45.9,8.44235294 45.9,6.72268908 C45.9,3.01579832 42.87195,0 39.15,0 C35.42805,0 32.4,3.01579832 32.4,6.72268908 C32.4,8.44235294 33.07095,9.99663866 34.1415,11.1878992 C31.55895,12.1317647 29.7,14.5828571 29.7,17.4789916 L29.7,22.8571429 C29.7,23.6006723 30.30345,24.2016807 31.05,24.2016807 L45.9,24.2016807 L45.9,26.8907563 C45.9,27.6342857 46.50345,28.2352941 47.25,28.2352941 L63.45,28.2352941 C64.19655,28.2352941 64.8,27.6342857 64.8,26.8907563 L64.8,24.2016807 L79.65,24.2016807 C80.39655,24.2016807 81,23.6006723 81,22.8571429 L81,17.4789916 C81,14.5828571 79.14105,12.1317647 76.5585,11.1878992 Z M39.15,2.68907563 C41.3829,2.68907563 43.2,4.49882353 43.2,6.72268908 C43.2,8.94655462 41.3829,10.7563025 39.15,10.7563025 C36.9171,10.7563025 35.1,8.94655462 35.1,6.72268908 C35.1,4.49882353 36.9171,2.68907563 39.15,2.68907563 Z M45.9,21.512605 L32.4,21.512605 L32.4,17.4789916 C32.4,15.2551261 34.2171,13.4453782 36.45,13.4453782 L41.85,13.4453782 C44.0829,13.4453782 45.9,15.2551261 45.9,17.4789916 L45.9,21.512605 Z M55.35,6.72268908 C57.5829,6.72268908 59.4,8.53243697 59.4,10.7563025 C59.4,12.9801681 57.5829,14.789916 55.35,14.789916 C53.1171,14.789916 51.3,12.9801681 51.3,10.7563025 C51.3,8.53243697 53.1171,6.72268908 55.35,6.72268908 Z M62.1,22.8571429 L62.1,25.5462185 L48.6,25.5462185 L48.6,22.8571429 L48.6,21.512605 C48.6,19.2887395 50.4171,17.4789916 52.65,17.4789916 L58.05,17.4789916 C60.2829,17.4789916 62.1,19.2887395 62.1,21.512605 L62.1,22.8571429 Z M71.55,2.68907563 C73.7829,2.68907563 75.6,4.49882353 75.6,6.72268908 C75.6,8.94655462 73.7829,10.7563025 71.55,10.7563025 C69.3171,10.7563025 67.5,8.94655462 67.5,6.72268908 C67.5,4.49882353 69.3171,2.68907563 71.55,2.68907563 Z M78.3,21.512605 L64.8,21.512605 L64.8,17.4789916 C64.8,15.2551261 66.6171,13.4453782 68.85,13.4453782 L74.25,13.4453782 C76.4829,13.4453782 78.3,15.2551261 78.3,17.4789916 L78.3,21.512605 Z" id="Shape" fill="url(#linearGradient-4)"></path>
                        <path d="M46.8585,62.952605 C47.92905,61.7613445 48.6,60.2070588 48.6,58.487395 C48.6,54.7805042 45.57195,51.7647059 41.85,51.7647059 C38.12805,51.7647059 35.1,54.7805042 35.1,58.487395 C35.1,60.2070588 35.77095,61.7613445 36.8415,62.952605 C34.6275,63.7620168 32.9562,65.6752941 32.52285,68.034958 C31.96395,67.592605 31.3416,67.2363025 30.6585,66.9862185 C31.72905,65.794958 32.4,64.2406723 32.4,62.5210084 C32.4,58.8141176 29.37195,55.7983193 25.65,55.7983193 C21.92805,55.7983193 18.9,58.8141176 18.9,62.5210084 C18.9,64.2406723 19.57095,65.794958 20.6415,66.9862185 C19.9584,67.234958 19.33605,67.592605 18.77715,68.034958 C18.3438,65.6752941 16.6725,63.7620168 14.4585,62.952605 C15.52905,61.7613445 16.2,60.2070588 16.2,58.487395 C16.2,54.7805042 13.17195,51.7647059 9.45,51.7647059 C5.72805,51.7647059 2.7,54.7805042 2.7,58.487395 C2.7,60.2070588 3.37095,61.7613445 4.4415,62.952605 C1.85895,63.8964706 0,66.347563 0,69.2436975 L0,74.6218487 C0,75.3653782 0.60345,75.9663866 1.35,75.9663866 L16.2,75.9663866 L16.2,78.6554622 C16.2,79.3989916 16.80345,80 17.55,80 L33.75,80 C34.49655,80 35.1,79.3989916 35.1,78.6554622 L35.1,75.9663866 L49.95,75.9663866 C50.69655,75.9663866 51.3,75.3653782 51.3,74.6218487 L51.3,69.2436975 C51.3,66.347563 49.44105,63.8964706 46.8585,62.952605 Z M9.45,54.4537815 C11.6829,54.4537815 13.5,56.2635294 13.5,58.487395 C13.5,60.7112605 11.6829,62.5210084 9.45,62.5210084 C7.2171,62.5210084 5.4,60.7112605 5.4,58.487395 C5.4,56.2635294 7.2171,54.4537815 9.45,54.4537815 Z M16.2,73.2773109 L2.7,73.2773109 L2.7,69.2436975 C2.7,67.0198319 4.5171,65.210084 6.75,65.210084 L12.15,65.210084 C14.3829,65.210084 16.2,67.0198319 16.2,69.2436975 L16.2,73.2773109 Z M25.65,58.487395 C27.8829,58.487395 29.7,60.2971429 29.7,62.5210084 C29.7,64.7448739 27.8829,66.5546218 25.65,66.5546218 C23.4171,66.5546218 21.6,64.7448739 21.6,62.5210084 C21.6,60.2971429 23.4171,58.487395 25.65,58.487395 Z M32.4,74.6218487 L32.4,77.3109244 L18.9,77.3109244 L18.9,74.6218487 L18.9,73.2773109 C18.9,71.0534454 20.7171,69.2436975 22.95,69.2436975 L28.35,69.2436975 C30.5829,69.2436975 32.4,71.0534454 32.4,73.2773109 L32.4,74.6218487 Z M41.85,54.4537815 C44.0829,54.4537815 45.9,56.2635294 45.9,58.487395 C45.9,60.7112605 44.0829,62.5210084 41.85,62.5210084 C39.6171,62.5210084 37.8,60.7112605 37.8,58.487395 C37.8,56.2635294 39.6171,54.4537815 41.85,54.4537815 Z M48.6,73.2773109 L35.1,73.2773109 L35.1,69.2436975 C35.1,67.0198319 36.9171,65.210084 39.15,65.210084 L44.55,65.210084 C46.7829,65.210084 48.6,67.0198319 48.6,69.2436975 L48.6,73.2773109 Z" id="Shape" fill="url(#linearGradient-4)"></path>
                    </g>
                </g>
            </g>
        </g>
    </g>
</svg>