<?xml version="1.0" encoding="UTF-8"?>
<svg width="139px" height="137px" viewBox="0 0 139 137" version="1.1" xmlns="http://www.w3.org/2000/svg" xmlns:xlink="http://www.w3.org/1999/xlink">
    <!-- Generator: Sketch 51.2 (57519) - http://www.bohemiancoding.com/sketch -->
    <title>network</title>
    <desc>Created with Sketch.</desc>
    <defs>
        <filter x="-17.1%" y="-12.4%" width="134.2%" height="124.8%" filterUnits="objectBoundingBox" id="filter-1">
            <feOffset dx="0" dy="0" in="SourceAlpha" result="shadowOffsetOuter1"></feOffset>
            <feGaussianBlur stdDeviation="15" in="shadowOffsetOuter1" result="shadowBlurOuter1"></feGaussianBlur>
            <feColorMatrix values="0 0 0 0 0.215686275   0 0 0 0 0.215686275   0 0 0 0 0.215686275  0 0 0 0.1 0" type="matrix" in="shadowBlurOuter1" result="shadowMatrixOuter1"></feColorMatrix>
            <feMerge>
                <feMergeNode in="shadowMatrixOuter1"></feMergeNode>
                <feMergeNode in="SourceGraphic"></feMergeNode>
            </feMerge>
        </filter>
        <linearGradient x1="25%" y1="25%" x2="25%" y2="75%" id="linearGradient-2">
            <stop stop-color="#F13C5B" offset="0%"></stop>
            <stop stop-color="#F45D77" offset="100%"></stop>
        </linearGradient>
    </defs>
    <g id="Main" stroke="none" stroke-width="1" fill="none" fill-rule="evenodd">
        <g transform="translate(-1172.000000, -1245.000000)" fill="url(#linearGradient-2)" fill-rule="nonzero" id="Collaborate">
            <g filter="url(#filter-1)" transform="translate(1110.000000, 1219.000000)">
                <g id="network" transform="translate(91.000000, 54.000000)">
                    <g id="Collaborate-Icon">
                        <path d="M14.9844443,20.25 L27,20.25 L27,17.55 L14.9844443,17.55 C11.3036791,17.55 8.30913562,20.57805 8.30913562,24.3 L8.30913562,45.3411 L3.9127773,40.89555 L2.025,42.80445 L8.70030871,49.55445 C8.96064575,49.8177 9.30242155,49.95 9.64419736,49.95 C9.98597317,49.95 10.327749,49.8177 10.588086,49.55445 L17.2633947,42.80445 L15.3756174,40.89555 L10.9792591,45.3411 L10.9792591,24.3 C10.9792591,22.0671 12.7762522,20.25 14.9844443,20.25 Z" id="Shape"></path>
                        <path d="M70.2000482,27 L70.2000482,65.9406309 C70.2000482,68.1615896 68.3829807,69.968972 66.1501205,69.968972 L58.6091552,69.968972 L63.0546258,65.5471962 L61.1457599,63.6485048 L54.3958804,70.3624067 C53.8680399,70.8874338 53.8680399,71.736071 54.3958804,72.2610981 L61.1457599,78.975 L63.0546258,77.0763085 L58.6091552,72.6545328 L66.1501205,72.6545328 C69.8720041,72.6545328 72.9,69.6426764 72.9,65.9406309 L72.9,27 L70.2000482,27 Z" id="Shape"></path>
                        <path d="M76.5585,11.23335 C77.62905,10.03725 78.3,8.47665 78.3,6.75 C78.3,3.02805 75.27195,0 71.55,0 C67.82805,0 64.8,3.02805 64.8,6.75 C64.8,8.47665 65.47095,10.03725 66.5415,11.23335 C64.3275,12.04605 62.6562,13.9671 62.22285,16.33635 C61.66395,15.8922 61.0416,15.53445 60.3585,15.28335 C61.42905,14.08725 62.1,12.52665 62.1,10.8 C62.1,7.07805 59.07195,4.05 55.35,4.05 C51.62805,4.05 48.6,7.07805 48.6,10.8 C48.6,12.52665 49.27095,14.08725 50.3415,15.28335 C49.6584,15.5331 49.03605,15.8922 48.47715,16.33635 C48.0438,13.9671 46.3725,12.04605 44.1585,11.23335 C45.22905,10.03725 45.9,8.47665 45.9,6.75 C45.9,3.02805 42.87195,0 39.15,0 C35.42805,0 32.4,3.02805 32.4,6.75 C32.4,8.47665 33.07095,10.03725 34.1415,11.23335 C31.55895,12.18105 29.7,14.6421 29.7,17.55 L29.7,22.95 C29.7,23.69655 30.30345,24.3 31.05,24.3 L45.9,24.3 L45.9,27 C45.9,27.74655 46.50345,28.35 47.25,28.35 L63.45,28.35 C64.19655,28.35 64.8,27.74655 64.8,27 L64.8,24.3 L79.65,24.3 C80.39655,24.3 81,23.69655 81,22.95 L81,17.55 C81,14.6421 79.14105,12.18105 76.5585,11.23335 Z M39.15,2.7 C41.3829,2.7 43.2,4.5171 43.2,6.75 C43.2,8.9829 41.3829,10.8 39.15,10.8 C36.9171,10.8 35.1,8.9829 35.1,6.75 C35.1,4.5171 36.9171,2.7 39.15,2.7 Z M45.9,21.6 L32.4,21.6 L32.4,17.55 C32.4,15.3171 34.2171,13.5 36.45,13.5 L41.85,13.5 C44.0829,13.5 45.9,15.3171 45.9,17.55 L45.9,21.6 Z M55.35,6.75 C57.5829,6.75 59.4,8.5671 59.4,10.8 C59.4,13.0329 57.5829,14.85 55.35,14.85 C53.1171,14.85 51.3,13.0329 51.3,10.8 C51.3,8.5671 53.1171,6.75 55.35,6.75 Z M62.1,22.95 L62.1,25.65 L48.6,25.65 L48.6,22.95 L48.6,21.6 C48.6,19.3671 50.4171,17.55 52.65,17.55 L58.05,17.55 C60.2829,17.55 62.1,19.3671 62.1,21.6 L62.1,22.95 Z M71.55,2.7 C73.7829,2.7 75.6,4.5171 75.6,6.75 C75.6,8.9829 73.7829,10.8 71.55,10.8 C69.3171,10.8 67.5,8.9829 67.5,6.75 C67.5,4.5171 69.3171,2.7 71.55,2.7 Z M78.3,21.6 L64.8,21.6 L64.8,17.55 C64.8,15.3171 66.6171,13.5 68.85,13.5 L74.25,13.5 C76.4829,13.5 78.3,15.3171 78.3,17.55 L78.3,21.6 Z" id="Shape"></path>
                        <path d="M46.8585,63.20835 C47.92905,62.01225 48.6,60.45165 48.6,58.725 C48.6,55.00305 45.57195,51.975 41.85,51.975 C38.12805,51.975 35.1,55.00305 35.1,58.725 C35.1,60.45165 35.77095,62.01225 36.8415,63.20835 C34.6275,64.02105 32.9562,65.9421 32.52285,68.31135 C31.96395,67.8672 31.3416,67.50945 30.6585,67.25835 C31.72905,66.06225 32.4,64.50165 32.4,62.775 C32.4,59.05305 29.37195,56.025 25.65,56.025 C21.92805,56.025 18.9,59.05305 18.9,62.775 C18.9,64.50165 19.57095,66.06225 20.6415,67.25835 C19.9584,67.5081 19.33605,67.8672 18.77715,68.31135 C18.3438,65.9421 16.6725,64.02105 14.4585,63.20835 C15.52905,62.01225 16.2,60.45165 16.2,58.725 C16.2,55.00305 13.17195,51.975 9.45,51.975 C5.72805,51.975 2.7,55.00305 2.7,58.725 C2.7,60.45165 3.37095,62.01225 4.4415,63.20835 C1.85895,64.15605 0,66.6171 0,69.525 L0,74.925 C0,75.67155 0.60345,76.275 1.35,76.275 L16.2,76.275 L16.2,78.975 C16.2,79.72155 16.80345,80.325 17.55,80.325 L33.75,80.325 C34.49655,80.325 35.1,79.72155 35.1,78.975 L35.1,76.275 L49.95,76.275 C50.69655,76.275 51.3,75.67155 51.3,74.925 L51.3,69.525 C51.3,66.6171 49.44105,64.15605 46.8585,63.20835 Z M9.45,54.675 C11.6829,54.675 13.5,56.4921 13.5,58.725 C13.5,60.9579 11.6829,62.775 9.45,62.775 C7.2171,62.775 5.4,60.9579 5.4,58.725 C5.4,56.4921 7.2171,54.675 9.45,54.675 Z M16.2,73.575 L2.7,73.575 L2.7,69.525 C2.7,67.2921 4.5171,65.475 6.75,65.475 L12.15,65.475 C14.3829,65.475 16.2,67.2921 16.2,69.525 L16.2,73.575 Z M25.65,58.725 C27.8829,58.725 29.7,60.5421 29.7,62.775 C29.7,65.0079 27.8829,66.825 25.65,66.825 C23.4171,66.825 21.6,65.0079 21.6,62.775 C21.6,60.5421 23.4171,58.725 25.65,58.725 Z M32.4,74.925 L32.4,77.625 L18.9,77.625 L18.9,74.925 L18.9,73.575 C18.9,71.3421 20.7171,69.525 22.95,69.525 L28.35,69.525 C30.5829,69.525 32.4,71.3421 32.4,73.575 L32.4,74.925 Z M41.85,54.675 C44.0829,54.675 45.9,56.4921 45.9,58.725 C45.9,60.9579 44.0829,62.775 41.85,62.775 C39.6171,62.775 37.8,60.9579 37.8,58.725 C37.8,56.4921 39.6171,54.675 41.85,54.675 Z M48.6,73.575 L35.1,73.575 L35.1,69.525 C35.1,67.2921 36.9171,65.475 39.15,65.475 L44.55,65.475 C46.7829,65.475 48.6,67.2921 48.6,69.525 L48.6,73.575 Z" id="Shape"></path>
                    </g>
                </g>
            </g>
        </g>
    </g>
</svg>