<?xml version="1.0" encoding="UTF-8"?>
<svg width="54px" height="53px" viewBox="0 0 54 53" version="1.1" xmlns="http://www.w3.org/2000/svg" xmlns:xlink="http://www.w3.org/1999/xlink">
    <!-- Generator: Sketch 51.2 (57519) - http://www.bohemiancoding.com/sketch -->
    <title>Connect Icon@2x</title>
    <desc>Created with Sketch.</desc>
    <defs></defs>
    <g id="Main" stroke="none" stroke-width="1" fill="none" fill-rule="evenodd">
        <g transform="translate(-1265.000000, -2082.000000)" fill="#FFFFFF" id="BP-Services">
            <g transform="translate(528.000000, 1841.000000)">
                <g id="Connect" transform="translate(670.000000, 216.000000)">
                    <g id="Connect-Icon" transform="translate(67.590361, 25.061224)">
                        <g id="chat">
                            <path d="M10.875,0 C4.8761731,0 0,3.88763131 0,8.66290099 C0,13.4381707 4.8761731,17.325802 10.875,17.325802 C11.5467495,17.3266447 12.2176486,17.2777684 12.8821689,17.1797349 L16.8398071,20.7752321 C16.9971487,20.9197542 17.2036773,20.9999507 17.4181439,20.9999507 C17.535087,21.0012147 17.6508961,20.978181 17.758342,20.9325351 C18.0693398,20.7981253 18.2697732,20.4933507 18.2686392,20.157256 L18.2686392,15.0112007 C20.3850968,13.5668221 21.6785584,11.2082602 21.75,8.66290099 C21.75,3.88763131 16.8738269,0 10.875,0 Z M16.9418665,13.8876078 C16.6909704,14.033394 16.5327783,14.2961743 16.5222888,14.5842354 L16.5222888,18.2359122 L13.7326642,15.7078283 C13.5753226,15.5633061 13.368794,15.4831097 13.1543274,15.4831097 L13.0069082,15.4831097 C12.3035486,15.6100757 11.5899831,15.6741205 10.875,15.6741205 C5.8173879,15.6404127 1.70099062,12.5055886 1.70099062,8.66290099 C1.70099062,4.82021339 5.8173879,1.6853893 10.875,1.6853893 C15.9326121,1.6853893 20.0490094,4.82021339 20.0490094,8.66290099 C19.9598491,10.8095252 18.7938201,12.7700543 16.9418665,13.8876078 Z" id="Shape" fill-rule="nonzero"></path>
                            <path d="M41.6363518,0 C35.631263,0 30.75,3.87519092 30.75,8.63517977 C30.8215162,11.1723938 32.116328,13.5234083 34.2349948,14.9631649 L34.2349948,20.1599528 C34.2338596,20.494972 34.4345022,20.7987713 34.7458246,20.932751 C34.8533827,20.9782509 34.9693127,21.0012108 35.0863779,20.9999508 C35.3010683,20.9999508 35.5078125,20.920011 35.6653184,20.7759513 L39.6270877,17.1919597 C40.2923017,17.2896795 40.963901,17.3383994 41.6363518,17.3375594 C47.6300887,17.2927595 52.5,13.4399685 52.5,8.65757972 C52.5,3.87519092 47.6300887,0 41.6363518,0 Z M41.6363518,15.6127634 L41.6363518,15.5903635 C40.9206224,15.5903635 40.206312,15.5265236 39.5022182,15.3999639 C39.2414111,15.349984 38.9719484,15.4247439 38.7757046,15.6015635 L35.937761,18.1663574 L35.937761,14.5599659 C35.9371934,14.2815065 35.796999,14.0215272 35.5631524,13.8655675 C33.7092657,12.7515901 32.5420195,10.7973347 32.4527662,8.65757972 C32.4527662,4.82718869 36.5734603,1.70239601 41.6363518,1.70239601 C46.6992432,1.70239601 50.8199374,4.82718869 50.8199374,8.65757972 C50.8199374,12.4879707 46.6992432,15.6127634 41.6363518,15.6127634 Z" id="Shape" fill-rule="nonzero"></path>
                            <path d="M16.125,22.5 C12.6067058,22.5061621 9.75616213,25.3567058 9.75,28.875 C9.75,32.395815 12.604185,35.25 16.125,35.25 C19.645815,35.25 22.5,32.395815 22.5,28.875 C22.5,25.354185 19.645815,22.5 16.125,22.5 Z M16.1362039,33.5806239 C13.5434891,33.586786 11.4367421,31.4901225 11.43058,28.8974077 C11.4244178,26.304693 13.5210814,24.197946 16.1137961,24.1917838 C16.1212187,24.1917838 16.1287813,24.1917838 16.1362039,24.1917838 C18.7219162,24.197946 20.8182996,26.2892877 20.8306239,28.875 L20.81942,28.875 C20.8255822,31.4677147 18.7289186,33.5744618 16.1362039,33.5806239 Z" id="Shape" fill-rule="nonzero"></path>
                            <path d="M23.379017,36 L23.1748582,36 L16.6077505,37.6455224 L9.80245747,36 L9.59829868,36 C8.43572779,36.0123134 7.5,36.9458955 7.5,38.0932836 L7.5,50.4067164 C7.5,51.5627799 8.44962193,52.5 9.62098299,52.5 L23.379017,52.5 C24.5503781,52.5 25.5,51.5627799 25.5,50.4067164 L25.5,38.0932836 C25.5,36.9372201 24.5503781,36 23.379017,36 Z M23.379017,50.8208955 L9.65500945,50.8208955 C9.42320416,50.8208955 9.23534972,50.6354944 9.23534972,50.4067164 L9.23534972,38.0932836 C9.23719282,37.8961287 9.37953686,37.7275187 9.57561437,37.6902985 L16.3809074,39.358209 C16.5148866,39.3913713 16.6552457,39.3913713 16.789225,39.358209 L23.4243856,37.7014925 C23.6204631,37.7387127 23.7628072,37.9073228 23.7646503,38.1044776 L23.7986767,50.4067164 C23.7986767,50.6354944 23.6108223,50.8208955 23.379017,50.8208955 Z" id="Shape" fill-rule="nonzero"></path>
                            <path d="M37.125,22.5 C33.604185,22.5 30.75,25.354185 30.75,28.875 C30.75,32.395815 33.604185,35.25 37.125,35.25 C40.6432942,35.2438379 43.4938379,32.3932942 43.5,28.875 C43.5,25.354185 40.645815,22.5 37.125,22.5 Z M37.125,33.56942 C34.5349462,33.5632579 32.4367421,31.4650538 32.43058,28.875 C32.43058,26.2822853 34.5322853,24.18058 37.125,24.18058 C39.7177147,24.18058 41.81942,26.2822853 41.81942,28.875 C41.81942,31.4677147 39.7177147,33.56942 37.125,33.56942 Z" id="Shape" fill-rule="nonzero"></path>
                            <path d="M43.6303526,36 L43.4263224,36 L36.8746851,37.6455224 L30.0736776,36 L29.8696474,36 C28.6990239,36 27.75,36.9372201 27.75,38.0932836 L27.75,50.4067164 C27.75,51.5627799 28.6990239,52.5 29.8696474,52.5 L43.6303526,52.5 C44.8009761,52.5 45.75,51.5627799 45.75,50.4067164 L45.75,38.0932836 C45.75,36.9372201 44.8009761,36 43.6303526,36 Z M43.6303526,50.8208955 L29.8923174,50.8208955 C29.6606581,50.8208955 29.4729219,50.6354944 29.4729219,50.4067164 L29.4729219,38.0932836 C29.4747639,37.8961287 29.6170183,37.7275187 29.8129723,37.6902985 L36.6139798,39.358209 C36.7478747,39.3913713 36.8881455,39.3913713 37.0220403,39.358209 L43.6530227,37.7014925 C43.8489767,37.7387127 43.9912311,37.9073228 43.993073,38.1044776 L44.0497481,50.4067164 C44.0497481,50.6354944 43.862012,50.8208955 43.6303526,50.8208955 Z" id="Shape" fill-rule="nonzero"></path>
                        </g>
                    </g>
                </g>
            </g>
        </g>
    </g>
</svg>