<?xml version="1.0" encoding="UTF-8"?>
<svg width="54px" height="54px" viewBox="0 0 54 54" version="1.1" xmlns="http://www.w3.org/2000/svg" xmlns:xlink="http://www.w3.org/1999/xlink">
    <!-- Generator: Sketch 51.2 (57519) - http://www.bohemiancoding.com/sketch -->
    <title>Design Icon</title>
    <desc>Created with Sketch.</desc>
    <defs></defs>
    <g id="Main" stroke="none" stroke-width="1" fill="none" fill-rule="evenodd">
        <g transform="translate(-818.000000, -2082.000000)" fill="#FFFFFF" fill-rule="nonzero" id="BP-Services">
            <g transform="translate(528.000000, 1841.000000)">
                <g id="Design" transform="translate(223.000000, 216.000000)">
                    <g id="Design-Icon" transform="translate(66.839357, 25.061224)">
                        <g id="BP-Design-Icon">
                            <path d="M50.6849593,13.7419413 L42.8327317,13.7419413 C42.9284315,13.4723005 42.9900169,13.185345 42.9900169,12.8830587 C42.9900169,11.4625296 41.8391062,10.3064109 40.4249762,10.3064109 L39.5699627,10.3064109 L39.5699627,2.57664781 C39.5699627,1.15611875 38.4190519,0 37.004922,0 L16.4851353,0 C15.0710054,0 13.9200947,1.15611875 13.9200947,2.57664781 L13.9200947,9.44752828 C13.9200947,9.9216993 13.5362184,10.3064109 13.0650811,10.3064109 L5.37031823,10.3064109 L5.37031823,8.58864568 C5.37031823,7.16811662 4.2194075,6.01199787 2.80527757,6.01199787 L0.240236904,6.01199787 L0.240236904,16.3184088 L2.80527757,16.3184088 C4.2194075,16.3184088 5.37031823,15.16229 5.37031823,13.7417609 L5.37031823,12.0239957 L13.0652607,12.0239957 C14.4793906,12.0239957 15.6303013,10.867877 15.6303013,9.44734792 L15.6303013,2.57664781 C15.6303013,2.1024768 16.0141776,1.71776521 16.4853149,1.71776521 L37.0051016,1.71776521 C37.4762388,1.71776521 37.8601151,2.1024768 37.8601151,2.57664781 L37.8601151,10.3064109 L37.0051016,10.3064109 C35.5909716,10.3064109 34.4400609,11.4625296 34.4400609,12.8830587 C34.4400609,13.185345 34.5016463,13.4723005 34.597346,13.7419413 L26.7451185,13.7419413 C25.3309885,13.7419413 24.1800778,14.8980601 24.1800778,16.3185891 L7.63515254,16.3185891 L2.2914076,20.6130021 L7.63515254,24.9074152 L24.1802573,24.9074152 L24.1802573,26.6251804 L11.4090983,26.6251804 L4.14669006,25.713091 L0,30.9192327 L4.14669006,36.125735 L11.4090983,35.2136457 L24.1802573,35.2136457 L24.1802573,37.7902935 L0.240236904,37.7902935 L0.240236904,50.6733522 L30.4883613,50.6733522 C32.8302223,52.2948042 35.6627913,53.25 38.7151287,53.25 C46.7298483,53.25 53.25,46.7003438 53.25,38.6493565 L53.25,16.3184088 C53.25,14.8978797 52.0992688,13.7419413 50.6849593,13.7419413 Z M3.80357143,13.5977679 C3.80357143,14.070239 3.46203276,14.4535714 3.04285714,14.4535714 L2.28214286,14.4535714 L2.28214286,7.60714286 L3.04285714,7.60714286 C3.46203276,7.60714286 3.80357143,7.99047528 3.80357143,8.46294643 L3.80357143,13.5977679 Z M7.60714286,22.0607143 L5.325,20.5397018 L7.60714286,19.0178571 L7.60714286,22.0607143 Z M24.3428571,22.8214286 L9.12857143,22.8214286 L9.12857143,21.3 L24.3428571,21.3 L24.3428571,22.8214286 Z M24.3428571,19.7785714 L9.12857143,19.7785714 L9.12857143,18.2571429 L24.3428571,18.2571429 L24.3428571,19.7785714 Z M10.65,33.5239357 L5.04714074,34.2321429 L3.04285714,31.6776688 L3.98445847,31.6776688 C4.33677535,32.686864 5.27497351,33.4160619 6.38547917,33.4160619 C7.79617958,33.4160619 8.94429914,32.2460598 8.94429914,30.8084723 C8.94429914,29.3708847 7.79617958,28.2008826 6.38547917,28.2008826 C5.27497351,28.2008826 4.33677535,28.9300805 3.9835629,29.9392757 L3.04285714,29.9392757 L5.04714074,27.3857143 L10.65,28.0993973 L10.65,33.5239357 Z M5.325,30.4285714 C5.325,30.0085971 5.66653867,29.6678571 6.08571429,29.6678571 C6.5048899,29.6678571 6.84642857,30.0085971 6.84642857,30.4285714 C6.84642857,30.8485458 6.5048899,31.1892857 6.08571429,31.1892857 C5.66653867,31.1892857 5.325,30.848386 5.325,30.4285714 Z M24.3428571,33.4712424 L15.6490318,33.4712424 L15.6490318,28.1527579 L13.9102302,28.1527579 L13.9102302,33.4714286 L12.1714286,33.4714286 L12.1714286,28.1464286 L24.3428571,28.1525717 L24.3428571,33.4712424 Z M36.6410714,12.1714286 L40.1910714,12.1714286 C40.6801096,12.1714286 41.0785714,12.5121685 41.0785714,12.9321429 C41.0785714,13.3521172 40.6801096,13.6928571 40.1910714,13.6928571 L36.6410714,13.6928571 C36.1520332,13.6928571 35.7535714,13.3519575 35.7535714,12.9321429 C35.7535714,12.5121685 36.1520332,12.1714286 36.6410714,12.1714286 Z M2.28214286,49.4464286 L2.28214286,39.5571429 L4.00149207,39.5571429 L4.00149207,42.2542723 L5.72084129,42.2542723 L5.72084129,39.5571429 L7.44019051,39.5571429 L7.44019051,43.1533154 L9.15953973,43.1533154 L9.15953973,39.5571429 L10.8788889,39.5571429 L10.8788889,42.2542723 L12.5982382,42.2542723 L12.5982382,39.5571429 L14.3175874,39.5571429 L14.3175874,43.1533154 L16.0369366,43.1533154 L16.0369366,39.5571429 L17.7562858,39.5571429 L17.7562858,42.2542723 L19.475635,42.2542723 L19.475635,39.5571429 L21.1949843,39.5571429 L21.1949843,43.1533154 L22.9143335,43.1533154 L22.9143335,39.5571429 L24.677551,39.5571429 C24.893282,43.4049795 26.4588213,46.8797567 28.9071429,49.4464286 L2.28214286,49.4464286 Z M51.7285714,38.7964286 C51.7285714,45.9272211 45.9273615,51.7285714 38.7965191,51.7285714 C31.6656767,51.7285714 25.8642857,45.9272211 25.8642857,38.7964286 L25.8642857,35.3478089 L25.8642857,26.7264406 L25.8642857,25.8642857 L51.7285714,25.8642857 L51.7285714,38.7964286 Z M51.7285714,23.5821429 L39.6585835,23.5821429 L39.6585835,16.8878923 L37.9342736,16.8878923 L37.9342736,23.5821429 L25.8642857,23.5821429 L25.8642857,16.051089 C25.8642857,15.5892832 26.2513683,15.2142857 26.7264406,15.2142857 L37.0721187,15.2142857 L40.5207384,15.2142857 L50.8664165,15.2142857 C51.3414889,15.2142857 51.7285714,15.5891075 51.7285714,16.051089 L51.7285714,23.5821429 Z" id="Shape"></path>
                        </g>
                    </g>
                </g>
            </g>
        </g>
    </g>
</svg>