<?xml version="1.0" encoding="UTF-8"?>
<svg width="61px" height="55px" viewBox="0 0 61 55" version="1.1" xmlns="http://www.w3.org/2000/svg" xmlns:xlink="http://www.w3.org/1999/xlink">
    <!-- Generator: Sketch 51.2 (57519) - http://www.bohemiancoding.com/sketch -->
    <title>Flerr Footer Icon@2x</title>
    <desc>Created with Sketch.</desc>
    <defs></defs>
    <g id="Main" stroke="none" stroke-width="1" fill="none" fill-rule="evenodd">
        <g transform="translate(-926.000000, -6841.000000)" fill="#FFFFFF" id="Bottom-Banner">
            <g transform="translate(-4.000000, 5563.000000)">
                <g id="Flerr-Footer-Icon" transform="translate(930.000000, 1278.000000)">
                    <g id="Flerr-Icon">
                        <path d="M10,55 L13.763081,42.6951532 C13.763081,42.6951532 14.5057636,40.0149964 18.0760159,40.0149964 C21.6462683,40.0149964 32,40 32,40 C32,40 29.9922444,55 10,55 Z" id="Shape" fill-rule="nonzero"></path>
                        <path d="M0,37 C0,37 0.312663043,20 16.5597826,20 L55,20 C55,20 54.3722826,37 36.6646739,37" id="Shape" fill-rule="nonzero"></path>
                        <path d="M52.6774971,17 L21,17 L24.5973769,3.69334535 C25.1493554,1.65360474 27.2644798,0 29.3230977,0 L61,0 L57.4026231,13.3066546 C56.8512394,15.3463953 54.7355202,17 52.6774971,17 Z" id="Shape" fill-rule="nonzero"></path>
                    </g>
                </g>
            </g>
        </g>
    </g>
</svg>