<?xml version="1.0" encoding="UTF-8"?>
<svg width="1302px" height="243px" viewBox="0 0 1302 243" version="1.1" xmlns="http://www.w3.org/2000/svg" xmlns:xlink="http://www.w3.org/1999/xlink">
    <!-- Generator: Sketch 64 (93537) - https://sketch.com -->
    <title>flerr-logo-white</title>
    <desc>Created with Sketch.</desc>
    <g id="Desktop" stroke="none" stroke-width="1" fill="none" fill-rule="evenodd">
        <g id="Main" transform="translate(-473.000000, -1760.000000)" fill="#FFFFFF" fill-rule="nonzero">
            <g id="flerr-logo-white" transform="translate(473.000000, 1760.000000)">
                <g id="Group" transform="translate(308.000000, 0.000000)">
                    <polygon id="Path" points="0.8 0.7 185 0.7 185 49.1 54 49.1 54 100.6 169.4 100.6 169.4 149 54 149 54 242.7 0.8 242.7"></polygon>
                    <polygon id="Path" points="196.4 0.7 249.6 0.7 249.6 194.3 370.2 194.3 370.2 242.7 196.4 242.7"></polygon>
                    <polygon id="Path" points="379.2 0.7 561.4 0.7 561.4 48 431.8 48 431.8 97.1 545.9 97.1 545.9 144.5 431.8 144.5 431.8 195.3 563.2 195.3 563.2 242.7 379.2 242.7"></polygon>
                    <path d="M572.8,0.7 L683.4,0.7 C714.1,0.7 737.6,8.9 753.9,25.2 C767.7,39 774.6,57.5 774.6,80.5 L774.6,81.2 C774.6,100.8 769.8,116.7 760.3,129.1 C750.7,141.4 738.2,150.5 722.8,156.2 L781.9,242.6 L719.7,242.6 L667.8,165.2 L626,165.2 L626,242.6 L572.8,242.6 L572.8,0.7 L572.8,0.7 Z M680,118.2 C693.1,118.2 703.2,115.1 710.2,108.9 C717.2,102.7 720.7,94.5 720.7,84.1 L720.7,83.4 C720.7,71.9 717,63.3 709.6,57.6 C702.2,51.9 692,49 678.8,49 L625.9,49 L625.9,118.1 L680,118.2 Z" id="Shape"></path>
                    <path d="M784.7,0.7 L895.3,0.7 C926,0.7 949.5,8.9 965.8,25.2 C979.6,39 986.5,57.5 986.5,80.5 L986.5,81.2 C986.5,100.8 981.7,116.7 972.2,129.1 C962.6,141.4 950.1,150.5 934.7,156.2 L993.8,242.6 L931.6,242.6 L879.8,165.2 L838,165.2 L838,242.6 L784.8,242.6 L784.7,0.7 Z M891.9,118.2 C905,118.2 915.1,115.1 922.1,108.9 C929.1,102.7 932.6,94.5 932.6,84.1 L932.6,83.4 C932.6,71.9 928.9,63.3 921.5,57.6 C914.1,51.9 903.9,49 890.7,49 L838,49 L838,118.1 L891.9,118.2 Z" id="Shape"></path>
                </g>
                <path d="M45,242.6 L62.1,188.1 C62.1,188.1 65.5,176.2 81.7,176.2 C97.9,176.2 145.1,176.1 145.1,176.1 C145.1,176.1 136,242.6 45,242.6 Z" id="Path"></path>
                <path d="M0,163.6 C0,163.6 1.4,89.4 73.7,89.4 L244.6,89.4 C244.6,89.4 241.8,163.6 163.1,163.6" id="Path"></path>
                <path d="M232.2,76.7 L90.6,76.7 L106.7,16.7 C109.2,7.5 118.6,0 127.8,0 L269.4,0 L253.3,60 C250.9,69.2 241.5,76.7 232.2,76.7 Z" id="Path"></path>
            </g>
        </g>
    </g>
</svg>