<?xml version="1.0" encoding="UTF-8"?>
<svg width="58px" height="53px" viewBox="0 0 58 53" version="1.1" xmlns="http://www.w3.org/2000/svg" xmlns:xlink="http://www.w3.org/1999/xlink">
    <!-- Generator: Sketch 51.2 (57519) - http://www.bohemiancoding.com/sketch -->
    <title>Flerr</title>
    <desc>Created with Sketch.</desc>
    <defs></defs>
    <g id="Main" stroke="none" stroke-width="1" fill="none" fill-rule="evenodd">
        <g transform="translate(-251.000000, -5285.000000)" fill="#F13C5B" fill-rule="nonzero" id="Flerr">
            <g transform="translate(251.000000, 5285.000000)">
                <path d="M9.66666667,53 L13.3868129,40.8672847 C13.3868129,40.8672847 14.121836,38.2241763 17.6502371,38.2241763 C21.1786382,38.2241763 31.4166667,38.2093023 31.4166667,38.2093023 C31.4166667,38.2093023 29.4309424,53 9.66666667,53 Z" id="Shape"></path>
                <path d="M0,35.744186 C0,35.744186 0.302281507,19.7209302 16.010747,19.7209302 L53.1666667,19.7209302 C53.1666667,19.7209302 52.5621037,35.744186 35.44396,35.744186" id="Shape"></path>
                <path d="M49.9552282,17.255814 L19.3333333,17.255814 L22.8120754,3.74969379 C23.3441524,1.67923687 25.390046,0 27.379551,0 L58,0 L54.5299331,13.5061202 C53.989181,15.5765771 51.9447332,17.255814 49.9552282,17.255814 Z" id="Shape"></path>
            </g>
        </g>
    </g>
</svg>