<?xml version="1.0" encoding="utf-8"?>
<!-- Generator: Adobe Illustrator 24.0.1, SVG Export Plug-In . SVG Version: 6.00 Build 0)  -->
<svg version="1.1" id="Layer_6" xmlns="http://www.w3.org/2000/svg" xmlns:xlink="http://www.w3.org/1999/xlink" x="0px" y="0px"
	 viewBox="0 0 1307.4 242.6" style="enable-background:new 0 0 1307.4 242.6;" xml:space="preserve">
<style type="text/css">
	.st0{fill:#FFFFFF;}
</style>
<g id="Layer_2">
</g>
<title>LOGO White</title>
<g>
	<path class="st0" d="M308.8,0.7H493v48.4H362v51.5h115.4V149H362v93.7h-53.2V0.7z"/>
	<path class="st0" d="M504.4,0.7h53.2v193.6h120.6v48.4H504.4V0.7z"/>
	<path class="st0" d="M687.2,0.7h182.2V48H739.8v49.1h114.1v47.4H739.8v50.8h131.4v47.4H687.2V0.7z"/>
	<path class="st0" d="M880.8,0.7h110.6c30.7,0,54.2,8.2,70.5,24.5c13.8,13.8,20.7,32.3,20.7,55.3v0.7c0,19.6-4.8,35.5-14.3,47.9
		c-9.6,12.3-22.1,21.4-37.5,27.1l59.1,86.4h-62.2l-51.9-77.4h-41.8v77.4h-53.2V0.7z M988,118.2c13.1,0,23.2-3.1,30.2-9.3
		c7-6.2,10.5-14.4,10.5-24.8v-0.7c0-11.5-3.7-20.1-11.1-25.8c-7.4-5.7-17.6-8.6-30.8-8.6h-52.9v69.1L988,118.2z"/>
	<path class="st0" d="M1092.7,0.7h110.6c30.7,0,54.2,8.2,70.5,24.5c13.8,13.8,20.7,32.3,20.7,55.3v0.7c0,19.6-4.8,35.5-14.3,47.9
		c-9.6,12.3-22.1,21.4-37.5,27.1l59.1,86.4h-62.2l-51.8-77.4H1146v77.4h-53.2L1092.7,0.7z M1199.9,118.2c13.1,0,23.2-3.1,30.2-9.3
		s10.5-14.4,10.5-24.8v-0.7c0-11.5-3.7-20.1-11.1-25.8s-17.6-8.6-30.8-8.6H1146v69.1L1199.9,118.2z"/>
</g>
<path class="st0" d="M45,242.6l17.1-54.5c0,0,3.4-11.9,19.6-11.9s63.4-0.1,63.4-0.1S136,242.6,45,242.6z"/>
<path class="st0" d="M0,163.6c0,0,1.4-74.2,73.7-74.2h170.9c0,0-2.8,74.2-81.5,74.2"/>
<path class="st0" d="M232.2,76.7H90.6l16.1-60C109.2,7.5,118.6,0,127.8,0h141.6l-16.1,60C250.9,69.2,241.5,76.7,232.2,76.7z"/>
</svg>
