<svg id="Layer_6" data-name="Layer 6" xmlns="http://www.w3.org/2000/svg" xmlns:xlink="http://www.w3.org/1999/xlink" width="178px" height="43" viewBox="0 0 1285.85 242.65">
  <defs>
    <style>
      .cls-1 {
        fill: #303742;
      }

      .cls-2 {
        fill: url(#New_Gradient_Swatch_9);
      }

      .cls-3 {
        fill: url(#linear-gradient);
      }

      .cls-4 {
        fill: url(#linear-gradient-2);
      }
    </style>
    <linearGradient id="New_Gradient_Swatch_9" data-name="New Gradient Swatch 9" x1="79.93" y1="263.55" x2="180.03" y2="263.55" gradientUnits="userSpaceOnUse">
      <stop offset="0" stop-color="#ff1d41"/>
      <stop offset="1" stop-color="#f13c5b"/>
    </linearGradient>
    <linearGradient id="linear-gradient" x1="34.94" y1="180.6" x2="279.54" y2="180.6" xlink:href="#New_Gradient_Swatch_9"/>
    <linearGradient id="linear-gradient-2" x1="125.59" y1="92.49" x2="304.39" y2="92.49" xlink:href="#New_Gradient_Swatch_9"/>
  </defs>
  <title>LOGO</title>
  <g>
    <path class="cls-1" d="M327.69,54.83H511.94v48.39h-131v51.51H496.38v48.39H380.93V296.8H327.69Z" transform="translate(-34.94 -54.15)"/>
    <path class="cls-1" d="M523.34,54.83h53.23V248.4H697.21v48.4H523.34Z" transform="translate(-34.94 -54.15)"/>
    <path class="cls-1" d="M706.19,54.83H888.36v47.36H758.74v49.08H872.81v47.36H758.74v50.81H890.09V296.8H706.19Z" transform="translate(-34.94 -54.15)"/>
    <path class="cls-1" d="M899.77,54.83h110.61q46,0,70.52,24.54,20.73,20.75,20.74,55.31v.69q0,29.38-14.35,47.88t-37.5,27.13l59.11,86.42h-62.22l-51.85-77.43H953V296.8H899.77Zm107.16,117.53q19.7,0,30.24-9.29t10.54-24.76v-.69q0-17.19-11.06-25.8t-30.76-8.6H953v69.14Z" transform="translate(-34.94 -54.15)"/>
    <path class="cls-1" d="M1111.66,54.83h110.61q46,0,70.52,24.54,20.74,20.75,20.74,55.31v.69q0,29.38-14.34,47.88t-37.51,27.13l59.11,86.42h-62.22l-51.85-77.43h-41.83V296.8h-53.23Zm107.16,117.53q19.7,0,30.24-9.29t10.54-24.76v-.69q0-17.19-11.06-25.8t-30.76-8.6h-52.89v69.14Z" transform="translate(-34.94 -54.15)"/>
  </g>
  <path class="cls-2" d="M79.93,296.8l17.12-54.54s3.38-11.88,19.62-11.88,63.36-.07,63.36-.07S170.9,296.8,79.93,296.8Z" transform="translate(-34.94 -54.15)"/>
  <path class="cls-3" d="M34.94,217.71s1.39-74.23,73.66-74.23H279.54s-2.78,74.23-81.53,74.23" transform="translate(-34.94 -54.15)"/>
  <path class="cls-4" d="M267.19,130.83H125.59l16.08-60c2.46-9.2,11.92-16.66,21.12-16.66h141.6l-16.08,60C285.85,123.37,276.39,130.83,267.19,130.83Z" transform="translate(-34.94 -54.15)"/>
</svg>
