<?xml version="1.0" encoding="UTF-8"?>
<svg width="231px" height="43px" viewBox="0 0 231 43" version="1.1" xmlns="http://www.w3.org/2000/svg" xmlns:xlink="http://www.w3.org/1999/xlink">
    <!-- Generator: Sketch 64 (93537) - https://sketch.com -->
    <title>flerr-logo-white</title>
    <desc>Created with Sketch.</desc>
    <g id="Desktop" stroke="none" stroke-width="1" fill="none" fill-rule="evenodd">
        <g id="Main" transform="translate(-473.000000, -1960.000000)" fill-rule="nonzero">
            <g id="flerr-logo-white" transform="translate(473.000000, 1960.000000)">
                <g id="Group" transform="translate(54.502058, 0.000000)" fill="#FFFFFF">
                    <polygon id="Path" points="0.141563786 0.123868313 32.7366255 0.123868313 32.7366255 8.68847737 9.55555556 8.68847737 9.55555556 17.8016461 29.9761317 17.8016461 29.9761317 26.3662551 9.55555556 26.3662551 9.55555556 42.9469136 0.141563786 42.9469136"></polygon>
                    <polygon id="Path" points="34.7539095 0.123868313 44.1679012 0.123868313 44.1679012 34.3823045 65.508642 34.3823045 65.508642 42.9469136 34.7539095 42.9469136"></polygon>
                    <polygon id="Path" points="67.1012346 0.123868313 99.3423868 0.123868313 99.3423868 8.49382716 76.4090535 8.49382716 76.4090535 17.1823045 96.5995885 17.1823045 96.5995885 25.5699588 76.4090535 25.5699588 76.4090535 34.5592593 99.6609053 34.5592593 99.6609053 42.9469136 67.1012346 42.9469136"></polygon>
                    <path d="M101.359671,0.123868313 L120.930864,0.123868313 C126.363374,0.123868313 130.521811,1.57489712 133.406173,4.45925926 C135.848148,6.90123457 137.069136,10.1748971 137.069136,14.244856 L137.069136,14.3687243 C137.069136,17.837037 136.219753,20.6506173 134.538683,22.844856 C132.839918,25.0213992 130.627984,26.6316872 127.902881,27.6403292 L138.360905,42.9292181 L127.354321,42.9292181 L118.17037,29.2329218 L110.773663,29.2329218 L110.773663,42.9292181 L101.359671,42.9292181 L101.359671,0.123868313 L101.359671,0.123868313 Z M120.329218,20.9160494 C122.647325,20.9160494 124.434568,20.3674897 125.673251,19.2703704 C126.911934,18.173251 127.531276,16.7222222 127.531276,14.881893 L127.531276,14.7580247 C127.531276,12.7230453 126.876543,11.2012346 125.567078,10.1925926 C124.257613,9.18395062 122.452675,8.67078189 120.116872,8.67078189 L110.755967,8.67078189 L110.755967,20.8983539 L120.329218,20.9160494 Z" id="Shape"></path>
                    <path d="M138.856379,0.123868313 L158.427572,0.123868313 C163.860082,0.123868313 168.018519,1.57489712 170.902881,4.45925926 C173.344856,6.90123457 174.565844,10.1748971 174.565844,14.244856 L174.565844,14.3687243 C174.565844,17.837037 173.716461,20.6506173 172.035391,22.844856 C170.336626,25.0213992 168.124691,26.6316872 165.399588,27.6403292 L175.857613,42.9292181 L164.851029,42.9292181 L155.684774,29.2329218 L148.288066,29.2329218 L148.288066,42.9292181 L138.874074,42.9292181 L138.856379,0.123868313 Z M157.825926,20.9160494 C160.144033,20.9160494 161.931276,20.3674897 163.169959,19.2703704 C164.408642,18.173251 165.027984,16.7222222 165.027984,14.881893 L165.027984,14.7580247 C165.027984,12.7230453 164.373251,11.2012346 163.063786,10.1925926 C161.754321,9.18395062 159.949383,8.67078189 157.61358,8.67078189 L148.288066,8.67078189 L148.288066,20.8983539 L157.825926,20.9160494 Z" id="Shape"></path>
                </g>
                <path d="M7.96296296,42.9292181 L10.9888889,33.2851852 C10.9888889,33.2851852 11.590535,31.1794239 14.4572016,31.1794239 C17.3238683,31.1794239 25.6761317,31.1617284 25.6761317,31.1617284 C25.6761317,31.1617284 24.0658436,42.9292181 7.96296296,42.9292181 Z" id="Path" fill="#F13C5B"></path>
                <path d="M0,28.9497942 C0,28.9497942 0.247736626,15.8197531 13.0415638,15.8197531 L43.2831276,15.8197531 C43.2831276,15.8197531 42.7876543,28.9497942 28.8613169,28.9497942" id="Path" fill="#F13C5B"></path>
                <path d="M41.0888889,13.572428 L16.0320988,13.572428 L18.88107,2.95514403 C19.3234568,1.32716049 20.9868313,0 22.6148148,0 L47.6716049,0 L44.8226337,10.617284 C44.3979424,12.2452675 42.7345679,13.572428 41.0888889,13.572428 Z" id="Path" fill="#F13C5B"></path>
            </g>
        </g>
    </g>
</svg>