<svg width="165" height="31" viewBox="0 0 165 31" fill="none" xmlns="http://www.w3.org/2000/svg">
<path d="M37.1245 0.0867615H60.6655V6.25997H43.9281V12.8312H58.6775V19.0044H43.9268V30.9554H37.1245V0.0867615Z" fill="white"/>
<path d="M62.1221 0.0867615H68.9231V24.7809H84.3368V30.9554H62.1221V0.0867615Z" fill="white"/>
<path d="M85.4844 0.0867615H108.76V6.12857H92.1985V12.3898H106.773V18.4316H92.1985V24.9136H108.981V30.9554H85.4844V0.0867615Z" fill="white"/>
<path fill-rule="evenodd" clip-rule="evenodd" d="M124.35 0.0867615H110.217V30.9554H117.018V21.0775H122.363L128.987 30.9554H136.937L129.385 19.9306C131.357 19.1966 132.954 18.0429 134.176 16.4696C135.398 14.8962 136.01 12.8601 136.01 10.3614V10.2734C136.009 7.33413 135.125 4.98213 133.36 3.21738C131.271 1.1303 128.268 0.0867615 124.35 0.0867615ZM127.772 13.8952C126.875 14.6853 125.587 15.0803 123.909 15.0803H117.018V6.25997H123.776C125.454 6.25912 126.764 6.62483 127.706 7.35709C128.648 8.08935 129.119 9.18647 129.119 10.6484V10.7365C129.119 12.0522 128.67 13.1051 127.772 13.8952Z" fill="white"/>
<path fill-rule="evenodd" clip-rule="evenodd" d="M151.422 0.0867615H137.29V30.9554H144.091V21.0775H149.436L156.06 30.9554H164.01L156.458 19.9306C158.431 19.1966 160.029 18.0429 161.25 16.4696C162.472 14.8962 163.082 12.8601 163.082 10.3614V10.2734C163.082 7.33413 162.199 4.98213 160.432 3.21738C158.344 1.1303 155.34 0.0867615 151.422 0.0867615ZM154.845 13.8952C153.947 14.6853 152.66 15.0803 150.982 15.0803H144.091V6.25997H150.849C152.527 6.25912 153.837 6.62483 154.779 7.35709C155.721 8.08935 156.192 9.18647 156.192 10.6484V10.7365C156.192 12.0522 155.743 13.1051 154.845 13.8952Z" fill="white"/>
<path d="M6.02881 31L8.25219 24.4378C8.25219 24.4378 8.69115 23.0084 10.8002 23.0084C12.9093 23.0084 19.0288 23 19.0288 23C19.0288 23 17.8431 31 6.02881 31Z" fill="white"/>
<path d="M0.0288086 21C0.0288086 21 0.204973 12 9.3643 12H31.0288C31.0288 12 30.6765 21 20.6959 21" fill="white"/>
<path d="M29.2436 10H11.0288L13.0973 2.17323C13.4137 0.973128 14.6306 0 15.814 0H34.0288L31.9604 7.82677C31.6439 9.02687 30.427 10 29.2436 10Z" fill="white"/>
</svg>
