<?xml version="1.0" encoding="UTF-8"?>
<svg width="526px" height="685px" viewBox="0 0 526 685" version="1.1" xmlns="http://www.w3.org/2000/svg" xmlns:xlink="http://www.w3.org/1999/xlink">
    <!-- Generator: Sketch 64 (93537) - https://sketch.com -->
    <title>MKT MGMT</title>
    <desc>Created with Sketch.</desc>
    <defs>
        <path d="M25,0 L501,0 C514.807119,-6.08904025e-15 526,11.1928813 526,25 L526,660 C526,673.807119 514.807119,685 501,685 L25,685 C11.1928813,685 1.69088438e-15,673.807119 0,660 L0,25 C-1.69088438e-15,11.1928813 11.1928813,2.53632657e-15 25,0 Z" id="path-1"></path>
        <filter x="-8.6%" y="-6.6%" width="117.1%" height="113.1%" filterUnits="objectBoundingBox" id="filter-2">
            <feOffset dx="0" dy="0" in="SourceAlpha" result="shadowOffsetOuter1"></feOffset>
            <feGaussianBlur stdDeviation="15" in="shadowOffsetOuter1" result="shadowBlurOuter1"></feGaussianBlur>
            <feColorMatrix values="0 0 0 0 0.215686275   0 0 0 0 0.215686275   0 0 0 0 0.215686275  0 0 0 0.1 0" type="matrix" in="shadowBlurOuter1"></feColorMatrix>
        </filter>
        <linearGradient x1="384.270866%" y1="31.6100782%" x2="-86.3752928%" y2="196.806357%" id="linearGradient-3">
            <stop stop-color="#454CE0" offset="0%"></stop>
            <stop stop-color="#454CE0" offset="100%"></stop>
        </linearGradient>
        <linearGradient x1="94.2906574%" y1="161.668632%" x2="15.2173678%" y2="9.52431136%" id="linearGradient-4">
            <stop stop-color="#454CE0" offset="0%"></stop>
            <stop stop-color="#0D7CDE" offset="100%"></stop>
        </linearGradient>
        <linearGradient x1="95.9201389%" y1="161.668632%" x2="13.9376926%" y2="9.52431136%" id="linearGradient-5">
            <stop stop-color="#454CE0" offset="0%"></stop>
            <stop stop-color="#0D7CDE" offset="100%"></stop>
        </linearGradient>
        <linearGradient x1="100%" y1="161.668632%" x2="10.7336691%" y2="9.52431136%" id="linearGradient-6">
            <stop stop-color="#454CE0" offset="0%"></stop>
            <stop stop-color="#0D7CDE" offset="100%"></stop>
        </linearGradient>
        <linearGradient x1="100%" y1="127.547661%" x2="10.7336691%" y2="21.8918829%" id="linearGradient-7">
            <stop stop-color="#454CE0" offset="0%"></stop>
            <stop stop-color="#0D7CDE" offset="100%"></stop>
        </linearGradient>
        <linearGradient x1="106.013796%" y1="290.73285%" x2="29.2310316%" y2="9.52431136%" id="linearGradient-8">
            <stop stop-color="#454CE0" offset="0%"></stop>
            <stop stop-color="#0D7CDE" offset="100%"></stop>
        </linearGradient>
        <linearGradient x1="145.575728%" y1="290.73285%" x2="14.5621364%" y2="9.52431136%" id="linearGradient-9">
            <stop stop-color="#454CE0" offset="0%"></stop>
            <stop stop-color="#0D7CDE" offset="100%"></stop>
        </linearGradient>
        <linearGradient x1="155.901084%" y1="290.73285%" x2="10.7336691%" y2="9.52431136%" id="linearGradient-10">
            <stop stop-color="#454CE0" offset="0%"></stop>
            <stop stop-color="#0D7CDE" offset="100%"></stop>
        </linearGradient>
        <linearGradient x1="155.901084%" y1="290.73285%" x2="10.7336691%" y2="9.52431136%" id="linearGradient-11">
            <stop stop-color="#454CE0" offset="0%"></stop>
            <stop stop-color="#0D7CDE" offset="100%"></stop>
        </linearGradient>
        <linearGradient x1="104.031165%" y1="290.73285%" x2="29.9661577%" y2="9.52431136%" id="linearGradient-12">
            <stop stop-color="#454CE0" offset="0%"></stop>
            <stop stop-color="#0D7CDE" offset="100%"></stop>
        </linearGradient>
        <linearGradient x1="155.901084%" y1="172.822883%" x2="10.7336691%" y2="29.3491384%" id="linearGradient-13">
            <stop stop-color="#454CE0" offset="0%"></stop>
            <stop stop-color="#0D7CDE" offset="100%"></stop>
        </linearGradient>
        <linearGradient x1="155.901084%" y1="83.8530571%" x2="10.7336691%" y2="44.3081063%" id="linearGradient-14">
            <stop stop-color="#454CE0" offset="0%"></stop>
            <stop stop-color="#0D7CDE" offset="100%"></stop>
        </linearGradient>
        <linearGradient x1="109.56936%" y1="290.73285%" x2="27.9126889%" y2="9.52431136%" id="linearGradient-15">
            <stop stop-color="#454CE0" offset="0%"></stop>
            <stop stop-color="#0D7CDE" offset="100%"></stop>
        </linearGradient>
        <linearGradient x1="155.901084%" y1="185.412228%" x2="10.7336691%" y2="27.2324251%" id="linearGradient-16">
            <stop stop-color="#454CE0" offset="0%"></stop>
            <stop stop-color="#0D7CDE" offset="100%"></stop>
        </linearGradient>
        <linearGradient x1="155.901084%" y1="94.2162378%" x2="10.7336691%" y2="42.5656898%" id="linearGradient-17">
            <stop stop-color="#454CE0" offset="0%"></stop>
            <stop stop-color="#0D7CDE" offset="100%"></stop>
        </linearGradient>
        <linearGradient x1="155.901084%" y1="238.852465%" x2="10.7336691%" y2="18.2472353%" id="linearGradient-18">
            <stop stop-color="#454CE0" offset="0%"></stop>
            <stop stop-color="#0D7CDE" offset="100%"></stop>
        </linearGradient>
    </defs>
    <g id="MKT-MGMT" stroke="none" stroke-width="1" fill="none" fill-rule="evenodd">
        <g id="MKT-&amp;-MGMT">
            <g id="Comp-3">
                <use fill="black" fill-opacity="1" filter="url(#filter-2)" xlink:href="#path-1"></use>
                <use fill="#FFFFFF" fill-rule="evenodd" xlink:href="#path-1"></use>
            </g>
            <path d="M25,0 L501,0 C514.807119,4.56910079e-15 526,11.1928813 526,25 L526,319 L526,319 L0,319 L0,25 C-1.69088438e-15,11.1928813 11.1928813,2.53632657e-15 25,0 Z" id="Comp-3" fill="url(#linearGradient-3)"></path>
            <text id="Connect-your-brand-w" font-family="Nunito-SemiBold, Nunito" font-size="15" font-weight="500" fill="#FFFFFF">
                <tspan x="147" y="247">Connect your brand with your key </tspan>
                <tspan x="147" y="267">audiences, for mutual benefit.</tspan>
            </text>
            <text id="Marketing-&amp;-Manageme" font-family="Avenir-Book, Avenir" font-size="39" font-weight="300" letter-spacing="-0.975" fill="#FFFFFF">
                <tspan x="145" y="97"></tspan>
                <tspan x="145" y="150" font-family="Avenir-Heavy, Avenir" font-weight="600">Marketing &amp;</tspan>
                <tspan x="145" y="203" font-family="Avenir-Heavy, Avenir" font-weight="600">Management</tspan>
            </text>
            <g id="GET-SOCIAL" transform="translate(144.000000, 47.000000)">
                <rect id="Rectangle" fill="#545BF4" x="0" y="0" width="238" height="47" rx="23.5"></rect>
                <text font-family="Quicksand-Bold, Quicksand" font-size="18" font-weight="bold" letter-spacing="4.23529412" fill="#DADDFD">
                    <tspan x="66" y="30">GET SOCIAL</tspan>
                </text>
                <circle id="Oval" fill="#54EA41" cx="37.5" cy="23.5" r="7.5"></circle>
            </g>
            <g id="Social-Media-Marketing" transform="translate(50.000000, 366.000000)">
                <path d="M56.5107375,7 L53.5789171,7 C52.2901683,7 52.2901683,8.99247325 53.5789171,8.99247325 L56.5107375,8.99247325 C59.5384647,8.99247325 62.0018066,11.4400274 62.0018066,14.4483963 L62.0018066,37.5042341 C62.0018066,40.5127358 59.5385979,42.96029 56.5107375,42.96029 L53.1855657,42.96029 C52.9661787,42.96029 52.752919,43.0322847 52.578555,43.165249 L46.4770119,47.8194009 L46.4770119,43.9565266 C46.4770119,43.4063383 46.029846,42.96029 45.4779818,42.96029 L33.3191194,42.96029 C32.3234193,42.96029 31.3664817,42.6982133 30.5225011,42.1999622 L30.5225011,31.0166083 C30.5225011,28.9218548 29.4526064,27.0711128 27.8279171,25.9761824 L27.8279171,14.4483963 C27.8279171,11.4400274 30.2912589,8.99247325 33.3191194,8.99247325 L47.3183285,8.99247325 C48.6069441,8.99247325 48.6069441,7 47.3183285,7 L33.3191194,7 C29.1895285,7 25.8298568,10.3413776 25.8298568,14.4483963 L25.8298568,25.1005568 C25.3724343,24.9916349 24.8958303,24.9322592 24.4053731,24.9322592 L6.11699475,24.9322592 C2.7441359,24.9322592 0,27.6616819 0,31.0166083 L0,33.1678153 C0,34.4528277 1.99806022,34.4528277 1.99806022,33.1678153 L1.99806022,31.0166083 C1.99806022,28.7603316 3.8457331,26.9247325 6.11699475,26.9247325 L24.4055063,26.9247325 C26.676768,26.9247325 28.5245741,28.7603316 28.5245741,31.0166083 L28.5245741,42.5965972 C28.5125857,42.6845317 28.5131185,42.7731303 28.5245741,42.8604006 L28.5245741,49.1980595 C28.5245741,49.3233197 28.5169814,49.4480485 28.5056591,49.5721132 L26.4453926,49.5721132 C24.1751966,49.5721132 22.2826339,51.2060741 21.8902149,53.3535617 C21.7993698,53.3876994 21.7121211,53.435386 21.6312663,53.4975511 L17.1629376,56.9380211 L17.1629376,54.286172 C17.1629376,53.7359838 16.7157718,53.2899354 16.1639075,53.2899354 L6.11699475,53.2899354 C3.8457331,53.2899354 1.99806022,51.4543362 1.99806022,49.1980595 L1.99806022,39.145235 C1.99806022,37.8602226 0,37.8602226 0,39.145235 L0,49.1981924 C0,52.5531188 2.7441359,55.2825415 6.11699475,55.2825415 L15.1650106,55.2825415 L15.1650106,58.9659604 C15.1650106,59.765075 16.138066,60.244464 16.7746479,59.7545813 L21.8144218,55.8741732 L21.8144218,67.0818352 C21.8144218,69.6222386 23.8920048,71.6888319 26.4455258,71.6888319 L32.5762406,71.6888319 L32.5762406,74.0135168 C32.5762406,74.8123657 33.5492959,75.2922861 34.1857447,74.8021377 L38.2292857,71.6888319 L39.4238593,71.6888319 C41.9773803,71.6888319 44.0549633,69.6221058 44.0549633,67.0818352 L44.0549633,65.3130503 C44.0549633,64.0280379 42.0569031,64.0280379 42.0569031,65.3130503 L42.0569031,67.0818352 C42.0569031,68.5235889 40.8757831,69.6963586 39.4238593,69.6963586 L37.8884167,69.6963586 C37.6674312,69.6963586 37.4527063,69.769416 37.2779427,69.9039743 L34.5741676,71.9855775 L34.5741676,70.6924624 C34.5741676,70.1422741 34.1270017,69.6962258 33.5751375,69.6962258 L26.4453926,69.6962258 C24.993602,69.6962258 23.8123488,68.5233232 23.8123488,67.0817024 L23.8123488,54.1792426 C23.8123488,52.737489 24.9934688,51.5647193 26.4453926,51.5647193 L39.4238593,51.5647193 C40.8756499,51.5647193 42.0569031,52.7376218 42.0569031,54.1792426 L42.0569031,59.0699675 C42.0569031,60.3549799 44.0549633,60.3549799 44.0549633,59.0699675 L44.0549633,54.1793755 C44.0549633,51.6389721 41.9773803,49.5723788 39.4238593,49.5723788 L30.5111787,49.5723788 C30.5187714,49.4479157 30.5226343,44.4161237 30.5226343,44.4161237 C31.4035124,44.7693228 32.3479289,44.952896 33.3192526,44.952896 L44.4790849,44.952896 L44.4790849,49.8357838 C44.4790849,50.6329059 45.4480109,51.1128263 46.0851257,50.6270613 L53.5240371,44.952896 L56.5108707,44.952896 C60.6403283,44.952896 64,41.6115184 64,37.5043669 L64,14.4483963 C64,10.3413776 60.6401951,7 56.5107375,7 Z" id="Path" fill="url(#linearGradient-4)" fill-rule="nonzero"></path>
                <path d="M47.9972712,13.1217535 C46.7282808,12.7864852 45.4351713,13.8241482 45.4351713,15.1812194 C45.4351713,16.6639299 44.913077,18.0928542 43.965765,19.2040251 L41.2121772,22.4288621 C41.0338816,22.1457252 40.7257953,21.9583004 40.3749341,21.9583004 L34.9994148,21.9583004 C34.4473381,21.9583004 34,22.4214147 34,22.9926534 L34,35.5103937 C34,36.0816324 34.4473381,36.5447468 34.9994148,36.5447468 L40.3749341,36.5447468 C40.7788309,36.5447468 41.1258278,36.2963641 41.2834688,35.9397192 C42.3717649,36.6279087 43.6328932,37 44.9160086,37 L54.4160463,37 C55.8677296,37 57.0652951,35.6963014 56.9972016,34.1977308 C56.9669527,33.5340899 57,24.6230696 57,24.4251634 C57,22.9505897 55.840812,21.7507402 54.4189779,21.7507402 L49.4788037,21.7354318 L49.6833506,21.2341153 C50.6181366,18.9429544 50.4642267,16.2861842 49.2721247,14.1268688 C48.9938876,13.6223804 48.5409528,13.2655976 47.9972712,13.1217535 C47.453323,12.9780474 48.5409528,13.2655976 47.9972712,13.1217535 C46.7284141,12.7864852 48.5409528,13.2655976 47.9972712,13.1217535 L47.9972712,13.1217535 Z M39.3755193,34.4760407 L35.9988297,34.4760407 L35.9988297,24.0270064 L39.3755193,24.0270064 L39.3755193,34.4760407 Z M54.4160463,23.8193083 C54.7387906,23.8193083 55.0013036,24.0909984 55.0013036,24.4250255 C55.0013036,24.6218284 54.9993048,25.1559683 54.9966396,25.8801533 C54.9818483,29.8785484 54.9719874,33.6653838 55.0005041,34.2948221 C55.010898,34.521966 54.9041605,34.6733953 54.8396649,34.7434554 C54.7279969,34.8645437 54.5775517,34.931156 54.4160463,34.931156 L44.9160086,34.931156 C43.783605,34.931156 42.6753205,34.5250001 41.7950359,33.7875753 L41.3743489,33.4350678 L41.3743489,25.3628389 L45.4640877,20.5732327 C46.7344106,19.0832127 47.434001,17.1682805 47.434001,15.1810814 C47.434001,15.122606 47.5111558,15.1074355 47.5367408,15.152947 C48.4218226,16.7559184 48.5358891,18.7282228 47.8420287,20.4291129 L47.0532905,22.3625255 C46.9231001,22.68152 46.9558809,23.0465777 47.140173,23.335369 C47.3247316,23.6241604 47.636549,23.7982075 47.9708866,23.7993109 L54.4160463,23.8193083 Z" id="Shape" fill="url(#linearGradient-5)" fill-rule="nonzero"></path>
                <path d="M9.03716508,41.2648928 C8.46423509,41.2648928 8,41.7292494 8,42.3020205 C8,42.8747915 8.46423509,43.3391482 9.03716508,43.3391482 L12.0944512,43.3391482 L11.5233189,46.7933365 C11.4298358,47.3583637 11.8123423,47.892277 12.3773898,47.9857568 C12.4347796,47.9952984 12.4916162,48 12.5477615,48 C13.0461538,48 13.4857736,47.6396327 13.5698531,47.1317167 L14.1968539,43.3392865 L16.698911,43.3392865 L16.1277787,46.7934748 C16.0342956,47.358502 16.4168021,47.8924153 16.9818496,47.9858951 C17.0392394,47.9954366 17.0960761,48 17.1522213,48 C17.6506137,48 18.0902334,47.639771 18.1743129,47.131855 L18.8013137,43.3394247 L22.9628349,43.3394247 C23.5357649,43.3394247 24,42.8750681 24,42.302297 C24,41.729526 23.5357649,41.2651694 22.9628349,41.2651694 L19.1442697,41.2651694 L19.5625929,38.7351309 L22.9628349,38.7351309 C23.5357649,38.7351309 24,38.2707743 24,37.6980032 C24,37.1252322 23.5357649,36.6608756 22.9628349,36.6608756 L19.9055488,36.6608756 L20.4766811,33.2066872 C20.5701642,32.6416601 20.1876577,32.1077467 19.6226102,32.0142669 C19.0568712,31.9205106 18.5236301,32.3032799 18.4301469,32.868307 L17.8031461,36.6607373 L15.301089,36.6607373 L15.8722213,33.2065489 C15.9657044,32.6415218 15.5831979,32.1076084 15.0181504,32.0141287 C14.45172,31.9203723 13.9193086,32.3031416 13.8256871,32.8681687 L13.1986863,36.660599 L9.03716508,36.660599 C8.46423509,36.660599 8,37.1249556 8,37.6977267 C8,38.2704977 8.46423509,38.7348544 9.03716508,38.7348544 L12.8557303,38.7348544 L12.4374071,41.2648928 L9.03716508,41.2648928 Z M14.9582714,38.7348544 L17.4603284,38.7348544 L17.0420052,41.2648928 L14.5399481,41.2648928 L14.9582714,38.7348544 Z" id="Shape" fill="url(#linearGradient-6)" fill-rule="nonzero"></path>
                <path d="M32.9873995,56.7572031 C32.1442097,56.0993969 31.0224164,55.8398893 29.8971423,56.099133 C28.455115,56.4309386 27,57.7082911 27,59.8137722 C27,61.1242392 27.5047165,62.2617452 28.5429705,63.291332 C29.3910335,64.1323898 30.6148839,64.9321534 32.5109471,65.8846926 C32.6639632,65.9616082 32.8320164,66 33.0000696,66 C33.1681228,66 33.336176,65.9616082 33.4891921,65.8846926 C36.7970692,64.2230262 39,62.5547632 39,59.8137722 C39,57.6968131 37.4932298,56.4325217 35.999826,56.1186587 C34.8778934,55.8827668 33.790212,56.1331711 32.9873995,56.7572031 L32.9873995,56.7572031 Z M36.9113787,59.8137722 C36.9113787,61.292187 35.8764663,62.3854962 32.9999304,63.8859434 C30.1233945,62.3853643 29.0883428,61.292055 29.0883428,59.8137722 C29.0883428,58.7137345 29.7605555,58.1670139 30.3897456,58.0221541 C30.5057259,57.9955041 30.629921,57.980464 30.7575969,57.980464 C31.2308469,57.980464 31.7511574,58.1875951 32.0719482,58.7769293 C32.25476,59.112297 32.6242821,59.3202196 33.020676,59.3124357 C33.4187406,59.3049157 33.7778203,59.0835361 33.946152,58.7415718 C34.2840684,58.0552686 34.9947092,57.9345521 35.5471823,58.050783 C36.2068641,58.1891782 36.9113787,58.7252124 36.9113787,59.8137722 L36.9113787,59.8137722 Z" id="Shape" fill="url(#linearGradient-7)" fill-rule="nonzero"></path>
                <text id="Social-Media-Marketi" font-family="Quicksand-Bold, Quicksand" font-size="22" font-weight="bold" fill="#023068">
                    <tspan x="94" y="22">Social Media Marketing</tspan>
                    <tspan x="94" y="50" font-family="Quicksand-Light, Quicksand" font-size="20" font-weight="300">Get better results by reaching the </tspan>
                    <tspan x="94" y="75" font-family="Quicksand-Light, Quicksand" font-size="20" font-weight="300">right audiences with the right formats </tspan>
                    <tspan x="94" y="100" font-family="Quicksand-Light, Quicksand" font-size="20" font-weight="300">on the right channels</tspan>
                </text>
            </g>
            <g id="Creative-Campaigns" transform="translate(50.000000, 503.000000)">
                <path d="M56,14.2 L58,14.2 C58.5522847,14.2 59,13.7075132 59,13.1 C59,12.4924868 58.5522847,12 58,12 L56,12 C54.3431458,12 53,13.4774603 53,15.3 L53,16.4 L52,16.4 C51.4477153,16.4 51,16.8924868 51,17.5 C51,18.1075132 51.4477153,18.6 52,18.6 L53,18.6 L53,21.9 C53,22.5075132 53.4477153,23 54,23 C54.5522847,23 55,22.5075132 55,21.9 L55,18.6 L56,18.6 C56.5522847,18.6 57,18.1075132 57,17.5 C57,16.8924868 56.5522847,16.4 56,16.4 L55,16.4 L55,15.3 C55,14.6924868 55.4477153,14.2 56,14.2 Z" id="Path" fill="url(#linearGradient-8)" fill-rule="nonzero"></path>
                <path d="M60.8333333,8 L48.1666667,8 C46.417765,8 45,9.49238417 45,11.3333333 L45,13.5555556 C45,14.1692053 45.4725883,14.6666667 46.0555556,14.6666667 C46.6385228,14.6666667 47.1111111,14.1692053 47.1111111,13.5555556 L47.1111111,11.3333333 C47.1111111,10.7196836 47.5836994,10.2222222 48.1666667,10.2222222 L60.8333333,10.2222222 C61.4163006,10.2222222 61.8888889,10.7196836 61.8888889,11.3333333 L61.8888889,24.6666667 C61.8888889,25.2803164 61.4163006,25.7777778 60.8333333,25.7777778 L48.1666667,25.7777778 C47.5836994,25.7777778 47.1111111,25.2803164 47.1111111,24.6666667 L47.1111111,18 C47.1111111,17.3863503 46.6385228,16.8888889 46.0555556,16.8888889 C45.4725883,16.8888889 45,17.3863503 45,18 L45,24.6666667 C45,26.5076158 46.417765,28 48.1666667,28 L60.8333333,28 C62.582235,28 64,26.5076158 64,24.6666667 L64,11.3333333 C64,9.49238417 62.582235,8 60.8333333,8 L60.8333333,8 Z" id="Path" fill="url(#linearGradient-9)" fill-rule="nonzero"></path>
                <path d="M50,54 C50,56.209139 51.790861,58 54,58 C56.209139,58 58,56.209139 58,54 C58,51.790861 56.209139,50 54,50 C51.790861,50 50,51.790861 50,54 Z M56,54 C56,55.1045695 55.1045695,56 54,56 C52.8954305,56 52,55.1045695 52,54 C52,52.8954305 52.8954305,52 54,52 C55.1045695,52 56,52.8954305 56,54 Z" id="Shape" fill="url(#linearGradient-10)" fill-rule="nonzero"></path>
                <path d="M59.8333333,43 L47.1666667,43 C45.417765,43 44,44.4923842 44,46.3333333 L44,59.6666667 C44,61.5076158 45.417765,63 47.1666667,63 L59.8333333,63 C61.582235,63 63,61.5076158 63,59.6666667 L63,57.4444444 C63,56.8307947 62.5274117,56.3333333 61.9444444,56.3333333 C61.3614772,56.3333333 60.8888889,56.8307947 60.8888889,57.4444444 L60.8888889,59.6666667 C60.8888889,60.2803164 60.4163006,60.7777778 59.8333333,60.7777778 L47.1666667,60.7777778 C46.5836994,60.7777778 46.1111111,60.2803164 46.1111111,59.6666667 L46.1111111,46.3333333 C46.1111111,45.7196836 46.5836994,45.2222222 47.1666667,45.2222222 L59.8333333,45.2222222 C60.4163006,45.2222222 60.8888889,45.7196836 60.8888889,46.3333333 L60.8888889,53 C60.8888889,53.6136497 61.3614772,54.1111111 61.9444444,54.1111111 C62.5274117,54.1111111 63,53.6136497 63,53 L63,46.3333333 C63,44.4923842 61.582235,43 59.8333333,43 L59.8333333,43 Z" id="Path" fill="url(#linearGradient-9)" fill-rule="nonzero"></path>
                <path d="M24.4703539,19.8499332 C24.6296136,19.9485995 24.8133838,20.0005908 25.0007484,20 C25.1574072,19.9990508 25.3116573,19.9613591 25.4510833,19.8899483 L31.4555496,16.8888172 C31.7897644,16.7176567 32.000002,16.3738661 32.000002,15.9984817 C32.000002,15.6230972 31.7897644,15.2793066 31.4555496,15.1081461 L25.4510833,12.107015 C25.1413347,11.950987 24.772851,11.9664168 24.4772411,12.1477935 C24.1816313,12.3291701 24.0010537,12.6506267 24.000002,12.9973506 L24.000002,18.9996128 C23.9993121,19.3452445 24.1771503,19.6667487 24.4703539,19.8499332 L24.4703539,19.8499332 Z M26.0014927,14.6179614 L28.7635472,15.9984817 L26.0014927,17.379002 L26.0014927,14.6179614 Z" id="Shape" fill="url(#linearGradient-11)" fill-rule="nonzero"></path>
                <path d="M26.5,27 C31.7467051,27 36,22.5228475 36,17 C36,11.4771525 31.7467051,7 26.5,7 C21.2532949,7 17,11.4771525 17,17 C17,22.5228475 21.2532949,27 26.5,27 Z M26.5,9.22222222 C30.5807707,9.22222222 33.8888889,12.7044519 33.8888889,17 C33.8888889,21.2955481 30.5807707,24.7777778 26.5,24.7777778 C22.4192293,24.7777778 19.1111111,21.2955481 19.1111111,17 C19.1111111,12.7044519 22.4192293,9.22222222 26.5,9.22222222 L26.5,9.22222222 Z" id="Shape" fill="url(#linearGradient-9)" fill-rule="nonzero"></path>
                <path d="M37.0000353,31 C37.3147852,31 37.6111665,30.8271085 37.8000165,30.5333379 L40.7999459,25.866717 C41.1313089,25.3512563 41.041768,24.6199952 40.5999506,24.2333997 C40.1581332,23.8468042 39.5313466,23.95127 39.1999835,24.4667307 L36.2000541,29.1333516 C35.8686911,29.6488124 35.958232,30.3800734 36.4000494,30.766669 C36.5731415,30.9181266 36.7836702,31 37.0000353,31 Z" id="Path" fill="url(#linearGradient-12)" fill-rule="nonzero"></path>
                <path d="M39.2333974,34.6000047 C39.4537232,34.8518076 39.7995028,35 40.1667124,35 C40.4191394,35 40.6647571,34.929823 40.8666987,34.8000024 L45.5332738,31.8000377 C46.0487295,31.4686707 46.1531943,30.8418767 45.7666026,30.4000541 C45.3800108,29.9582315 44.6487569,29.8686895 44.1333013,30.2000565 L39.4667262,33.2000212 C38.9512705,33.5313881 38.8468057,34.1581821 39.2333974,34.6000047 L39.2333974,34.6000047 Z" id="Path" fill="url(#linearGradient-13)" fill-rule="nonzero"></path>
                <path d="M49.9735791,37.8157645 C49.9196836,37.5504098 49.7455849,37.3159067 49.4914569,37.1663678 C49.2373289,37.0168288 48.9251267,36.9651732 48.6268922,37.0233207 L43.0156968,38.0138755 C42.3959012,38.0685823 41.943702,38.5564175 42.0056816,39.1034858 C42.0676611,39.6505541 42.6203491,40.0496919 43.2401446,39.9949851 L43.4645924,39.9949851 L49.0757878,39.0044303 C49.3764188,38.9568589 49.6420967,38.8031891 49.8115153,38.5788806 C49.980934,38.3545722 50.0394567,38.079004 49.9735791,37.8157645 L49.9735791,37.8157645 Z" id="Path" fill="url(#linearGradient-14)" fill-rule="nonzero"></path>
                <path d="M1.07142857,37 L13.9285714,37 C14.5203051,37 15,36.5025386 15,35.8888889 L15,18.1111111 C15,17.4974614 14.5203051,17 13.9285714,17 L1.07142857,17 C0.479694911,17 0,17.4974614 0,18.1111111 L0,35.8888889 C0,36.5025386 0.479694911,37 1.07142857,37 Z M2.14285714,19.2222222 L12.8571429,19.2222222 L12.8571429,34.7777778 L2.14285714,34.7777778 L2.14285714,19.2222222 Z" id="Shape" fill="url(#linearGradient-15)" fill-rule="nonzero"></path>
                <path d="M10,21 L8,21 C7.44771525,21 7,21.6715729 7,22.5 C7,23.3284271 7.44771525,24 8,24 L10,24 C10.5522847,24 11,23.3284271 11,22.5 C11,21.6715729 10.5522847,21 10,21 Z" id="Path" fill="url(#linearGradient-16)" fill-rule="nonzero"></path>
                <path d="M9.83333333,25 L5.16666667,25 C4.52233446,25 4,25.6715729 4,26.5 C4,27.3284271 4.52233446,28 5.16666667,28 L9.83333333,28 C10.4776655,28 11,27.3284271 11,26.5 C11,25.6715729 10.4776655,25 9.83333333,25 Z" id="Path" fill="url(#linearGradient-17)" fill-rule="nonzero"></path>
                <path d="M9.83333333,30 L5.16666667,30 C4.52233446,30 4,30.6715729 4,31.5 C4,32.3284271 4.52233446,33 5.16666667,33 L9.83333333,33 C10.4776655,33 11,32.3284271 11,31.5 C11,30.6715729 10.4776655,30 9.83333333,30 Z" id="Path" fill="url(#linearGradient-17)" fill-rule="nonzero"></path>
                <path d="M35.4458353,35.0764498 C35.2516403,34.7449446 34.8919295,34.5402624 34.5022026,34.5395052 C34.1124757,34.538748 33.7519414,34.7420306 33.5564095,35.0727786 C33.3608776,35.4035266 33.360054,35.8114914 33.5542491,36.1429966 L38.3484418,44.2807489 L20.9545451,50.6800298 C20.9545451,50.6800298 20.9545451,50.6800298 20.8784469,50.6800298 L20.7914774,50.6800298 L17.9649692,52.2798501 L16.0842541,53.3463969 C15.5841941,53.6300153 14.9896547,53.7067639 14.4318339,53.5597063 C13.876967,53.4126471 13.4040252,53.056025 13.1164205,52.5678177 L10.9421834,48.8775657 C10.4111635,47.8752578 10.7686887,46.640584 11.7575223,46.0618821 L15.5189524,43.9287884 L18.2367488,48.5469362 C18.4317137,48.8782421 18.7926091,49.0817284 19.1825419,49.0802096 C19.5717035,49.0817288 19.9320082,48.8790463 20.1272592,48.548777 C20.3225101,48.2185078 20.3229205,47.8110365 20.1283351,47.4803894 L17.3235692,42.7235905 L30.9669069,31.6848309 L31.4126255,32.4420791 C31.712825,32.9545418 32.3796308,33.1312202 32.9019779,32.8367014 C33.4243251,32.5421827 33.6044113,31.887995 33.3042118,31.3755323 L32.2170932,29.5304063 C32.0558445,29.2599442 31.7815298,29.0727277 31.4669815,29.0184638 C31.1506916,28.9599758 30.8242437,29.0419963 30.5755442,29.2424386 L15.3558847,41.550389 L10.7247597,44.1740942 C9.01554841,45.1508063 8.19357607,47.1361724 8.72446155,49.0055513 L7.63734301,49.613483 C6.49180387,50.258868 5.85622333,51.5184562 6.02768945,52.8034811 C6.19915557,54.0885059 7.1437995,55.1451429 8.42006836,55.4794906 C8.69672483,55.5513899 8.98182439,55.5872494 9.26802082,55.5861452 C9.83992264,55.5838239 10.4015559,55.4368892 10.8986986,55.1595265 L11.9858172,54.5515948 C12.5080398,55.0808613 13.1647979,55.4637775 13.8882746,55.6608035 C14.2597653,55.7627543 14.644009,55.8130174 15.0297491,55.8101201 C15.7938846,55.8118521 16.5445802,55.6129998 17.2039862,55.2341848 L18.1497793,54.7009114 L20.3240164,58.4018289 C21.2236503,59.927779 23.2118638,60.4523876 24.7703312,59.5750304 C25.5203357,59.1510681 26.0677853,58.451985 26.2920852,57.6317783 C26.5163851,56.8115716 26.3991344,55.9375289 25.9661616,55.2021884 L23.9876059,51.8212349 L40.294384,45.8165763 C40.5937104,45.7061963 40.8283212,45.4721239 40.935784,45.1766482 C41.0428484,44.8847547 41.015068,44.5615926 40.8596857,44.2914143 L35.4458353,35.0764498 Z M9.76809535,53.303735 C9.51806538,53.4455442 9.22079568,53.4839185 8.94188526,53.4103897 C8.66336401,53.3394058 8.42489201,53.1629774 8.27874295,52.9197782 C8.1341985,52.6744796 8.09508407,52.3828351 8.17003109,52.1092026 C8.24499484,51.8341176 8.42896734,51.5998631 8.68097681,51.458609 L9.62676994,50.9253356 L10.7138885,52.7704616 L9.76809535,53.303735 Z M24.0745754,56.2900661 C24.2191198,56.5353647 24.2582342,56.8270092 24.1832872,57.1006417 C24.1057553,57.3717603 23.9220843,57.601797 23.6723415,57.7405698 C23.1555545,58.0318247 22.4960915,57.8605642 22.1938603,57.356613 L20.0196232,53.6556955 L21.82424,52.642476 L21.9112095,52.642476 L24.0745754,56.2900661 Z" id="Shape" fill="url(#linearGradient-18)" fill-rule="nonzero"></path>
                <text id="Creative-Campaigns-I" font-family="Quicksand-Bold, Quicksand" font-size="22" font-weight="bold" fill="#003E84">
                    <tspan x="94" y="22">Creative Campaigns</tspan>
                    <tspan x="94" y="50" font-family="Quicksand-Light, Quicksand" font-size="20" font-weight="300">Imaginative, innovative and impactful </tspan>
                    <tspan x="94" y="75" font-family="Quicksand-Light, Quicksand" font-size="20" font-weight="300">content creation, curration and </tspan>
                    <tspan x="94" y="100" font-family="Quicksand-Light, Quicksand" font-size="20" font-weight="300">audience outreach </tspan>
                </text>
            </g>
        </g>
    </g>
</svg>