<?xml version="1.0" encoding="UTF-8"?>
<svg width="116px" height="119px" viewBox="0 0 116 119" version="1.1" xmlns="http://www.w3.org/2000/svg" xmlns:xlink="http://www.w3.org/1999/xlink">
    <title>fingerprint-scan</title>
    <g id="Desktop" stroke="none" stroke-width="1" fill="none" fill-rule="evenodd">
        <g id="Fingerprint-Icon" fill="#FFFFFF" fill-rule="nonzero">
            <g id="fingerprint-scan">
                <path d="M59.1298918,0 L14.8701082,0 C6.67066154,0 0,6.63758984 0,14.7963855 L0,96.2036145 C0,104.36241 6.67066154,111 14.8701082,111 L59.1298918,111 C67.3293385,111 74,104.36241 74,96.2036145 L74,14.7963855 C74,6.63758984 67.3293385,0 59.1298918,0 Z M14.8701082,3.88175982 L59.1298918,3.88175982 C64.21235,3.88175982 68.4974632,7.33958551 69.7366821,12.0149955 L4.26331789,12.0149955 C5.50253683,7.33958551 9.78765003,3.88175982 14.8701082,3.88175982 Z M3.90110063,15.8967553 L70.0988994,15.8967553 L70.0988994,89.6803991 L3.90110063,89.6803991 L3.90110063,15.8967553 Z M59.1298918,107.11824 L14.8701082,107.11824 C8.82191032,107.11824 3.90110063,102.221827 3.90110063,96.2036145 L3.90110063,93.562159 L70.0988994,93.562159 L70.0988994,96.2036145 C70.0988994,102.221827 65.1780897,107.11824 59.1298918,107.11824 Z" id="XMLID_1678_"></path>
                <path d="M42.0374783,97 L31.9625217,97 C30.8786709,97 30,97.6716329 30,98.4999002 C30,99.3281676 30.8784099,100 31.9625217,100 L42.0374783,100 C43.1213291,100 44,99.3283671 44,98.4999002 C44,97.6714333 43.1213291,97 42.0374783,97 Z" id="XMLID_1684_"></path>
                <path d="M101.392282,38 L96.6072157,38 C88.5527063,38 82,44.6904176 82,52.9142002 L82,117.0713 C82,118.136472 82.8455024,119 83.8890006,119 L114.110999,119 C115.154246,119 116,118.136472 116,117.0713 L116,52.9142002 C115.999497,44.6904176 109.446791,38 101.392282,38 Z M112.221748,115.142857 L85.7774986,115.142857 L85.7774986,52.9142002 C85.7774986,46.8171695 90.6356824,41.8571429 96.6069644,41.8571429 L101.392031,41.8571429 C107.363313,41.8571429 112.221748,46.817426 112.221748,52.9142002 L112.221748,115.142857 L112.221748,115.142857 Z" id="XMLID_1687_"></path>
                <path d="M103.361956,45 L94.6377918,45 C90.9776845,45 88,48.0718694 88,51.8477469 L88,64.0433522 C88,65.123959 88.8489289,66 89.8966561,66 L108.103344,66 C109.150819,66 110,65.123959 110,64.0433522 L110,51.8477469 C109.999748,48.0718694 107.022315,45 103.361956,45 Z M106.206688,62.0869646 L91.79306,62.0869646 L91.79306,51.8477469 C91.79306,50.2294393 93.0693546,48.9130354 94.6377918,48.9130354 L103.361956,48.9130354 C104.930645,48.9130354 106.206688,50.2296996 106.206688,51.8477469 L106.206688,62.0869646 L106.206688,62.0869646 Z" id="XMLID_1691_"></path>
                <path d="M108.103344,69 L89.8966561,69 C88.8491812,69 88,69.6715882 88,70.5 C88,71.3284118 88.8489289,72 89.8966561,72 L108.103344,72 C109.150819,72 110,71.3284118 110,70.5 C110,69.6715882 109.150819,69 108.103344,69 Z" id="XMLID_1692_"></path>
                <path d="M53.0889401,32.7263911 C49.2779941,28.9948341 44.2144977,26.9533214 38.8484839,27.0008103 C27.9040505,27.0808048 19,36.0305484 19,46.9512063 L19,56.9091356 C19,63.5761131 24.498864,69 31.2580022,69 L33.8385394,69 C34.9075198,69 35.7741354,68.1452007 35.7741354,67.0907959 C35.7741354,66.036391 34.9077773,65.1815917 33.8385394,65.1815917 L31.2580022,65.1815917 C26.6332203,65.1815917 22.8709345,61.4703508 22.8709345,56.9088817 L22.8709345,46.9509523 C22.8709345,38.1200578 30.0512799,30.8832142 38.8770621,30.8187106 C38.9185134,30.8184567 38.9591923,30.8182027 39.0003862,30.8182027 C43.2871211,30.8182027 47.3179393,32.4554253 50.3621647,35.435795 C53.4359983,38.4453692 55.128808,42.4552565 55.128808,46.7269675 L55.128808,64.5449364 C55.128808,65.5993412 55.9951662,66.4541405 57.064404,66.4541405 C58.1333844,66.4541405 59,65.5993412 59,64.5449364 L59,46.7269675 C59,41.430564 56.9006585,36.458202 53.0889401,32.7263911 Z" id="XMLID_1693_"></path>
                <path d="M39.0908052,37.8573994 C40.1452049,37.8573994 41,36.9938714 41,35.9286997 C41,34.863528 40.1454588,34 39.0908052,34 C32.4238604,34 27,39.4792722 27,46.2143285 L27,54.3570431 C27,58.0199819 29.9498812,61 33.5755229,61 L33.999873,61 C35.0542727,61 35.9090678,60.136472 35.9090678,59.0713003 C35.9090678,58.0061286 35.0545267,57.1426006 33.999873,57.1426006 L33.5755229,57.1426006 C32.0548713,57.1426006 30.8181356,55.8929735 30.8181356,54.3567865 L30.8181356,46.2140719 C30.8181356,41.6065371 34.5291045,37.8573994 39.0908052,37.8573994 Z" id="XMLID_1694_"></path>
                <path d="M38.4998781,42 C35.4674219,42 33,44.556939 33,47.6999747 L33,51.4998736 C33,52.5492371 33.8206043,53.3999495 34.833374,53.3999495 C35.8461436,53.3999495 36.666748,52.5492371 36.666748,51.4998736 L36.666748,47.6999747 C36.666748,46.6523804 37.4890593,45.7998989 38.5001219,45.7998989 C39.5109407,45.7998989 40.3334959,46.6521276 40.3334959,47.6999747 L40.3334959,55.2997725 C40.3334959,56.3473669 39.5111845,57.1998484 38.5001219,57.1998484 C37.4875962,57.1998484 36.666748,58.0505607 36.666748,59.0999242 C36.666748,60.1492877 37.4873523,61 38.5001219,61 C41.5325781,61 44,58.443061 44,55.3000253 L44,47.7002275 C43.9995123,44.556939 41.5323342,42 38.4998781,42 Z" id="XMLID_1695_"></path>
                <path d="M46.9102367,39.4112716 C46.1269803,38.753148 44.990458,38.8995411 44.3814445,39.7453682 C43.772192,40.5914534 43.9058021,41.8046833 44.6890584,42.462807 C44.7514417,42.5178013 46.210875,43.8270775 46.4061513,46.1993177 L46.4061513,59.0589354 C46.4061513,60.1309359 47.2104411,61 48.2030757,61 C49.1957102,61 50,60.1309359 50,59.0589354 L50,46.1192791 C50,46.0697068 49.9980879,46.0198764 49.9945026,45.9703041 C49.6971664,41.7979704 47.0240084,39.5068016 46.9102367,39.4112716 Z" id="XMLID_1696_"></path>
            </g>
        </g>
    </g>
</svg>