<?xml version="1.0" encoding="UTF-8"?>
<svg width="53px" height="53px" viewBox="0 0 53 53" version="1.1" xmlns="http://www.w3.org/2000/svg" xmlns:xlink="http://www.w3.org/1999/xlink">
    <!-- Generator: Sketch 51.2 (57519) - http://www.bohemiancoding.com/sketch -->
    <title>Optimised Icon@2x</title>
    <desc>Created with Sketch.</desc>
    <defs>
        <linearGradient x1="-2.22044605e-14%" y1="50%" x2="100%" y2="50%" id="linearGradient-1">
            <stop stop-color="#93C934" offset="0%"></stop>
            <stop stop-color="#5DBD37" offset="100%"></stop>
        </linearGradient>
    </defs>
    <g id="Main" stroke="none" stroke-width="1" fill="none" fill-rule="evenodd">
        <g transform="translate(-824.000000, -2669.000000)" fill="url(#linearGradient-1)" id="WD-Services">
            <g transform="translate(-57.000000, 2378.000000)">
                <g id="WD-Optimised" transform="translate(814.000000, 266.000000)">
                    <g id="Optimised-Icon" transform="translate(67.500000, 25.000000)">
                        <g id="optimzation">
                            <path d="M48.125,0 L4.375,0 C1.962625,0 0,1.962625 0,4.375 L0,31.5 L0,35 C0,37.412375 1.962625,39.375 4.375,39.375 L19.07675,39.375 L17.644375,47.25 L14.2065,47.25 C13.2055,47.25 12.306,47.8065 11.858,48.70075 C11.447625,49.520625 11.491375,50.47525 11.972625,51.254875 C12.45475,52.0345 13.2895,52.5 14.2065,52.5 L38.292625,52.5 C39.209625,52.5 40.044375,52.0345 40.5265,51.254875 C41.00775,50.47525 41.0515,49.520625 40.641125,48.70075 C40.194,47.8065 39.293625,47.25 38.2935,47.25 L34.855625,47.25 L33.42325,39.375 L48.125,39.375 C50.537375,39.375 52.5,37.412375 52.5,35 L52.5,31.5 L52.5,4.375 C52.5,1.962625 50.537375,0 48.125,0 Z M34.125,49 L38.2935,49 C38.62775,49 38.927875,49.1855 39.076625,49.483875 C39.274375,49.877625 39.116,50.210125 39.038125,50.33525 C38.96025,50.4595 38.7345,50.75 38.2935,50.75 L14.2065,50.75 C13.7655,50.75 13.538875,50.4595 13.461875,50.334375 C13.384,50.20925 13.225625,49.877625 13.423375,49.483 C13.573,49.1855 13.87225,49 14.2065,49 L18.375,49 L25.375,49 C25.858875,49 26.25,48.608875 26.25,48.125 C26.25,47.641125 25.858875,47.25 25.375,47.25 L19.42325,47.25 L20.855625,39.375 L31.644375,39.375 L33.07675,47.25 L30.625,47.25 C30.141125,47.25 29.75,47.641125 29.75,48.125 C29.75,48.608875 30.141125,49 30.625,49 L34.125,49 Z M50.75,35 C50.75,36.44725 49.57225,37.625 48.125,37.625 L32.375,37.625 L20.125,37.625 L4.375,37.625 C2.92775,37.625 1.75,36.44725 1.75,35 L1.75,32.375 L50.75,32.375 L50.75,35 Z M50.75,30.625 L1.75,30.625 L1.75,4.375 C1.75,2.92775 2.92775,1.75 4.375,1.75 L48.125,1.75 C49.57225,1.75 50.75,2.92775 50.75,4.375 L50.75,30.625 Z" id="Shape" fill-rule="nonzero"></path>
                            <path d="M27.625,33.75 L24.125,33.75 C23.641125,33.75 23.25,34.08525 23.25,34.5 C23.25,34.91475 23.641125,35.25 24.125,35.25 L27.625,35.25 C28.108875,35.25 28.5,34.91475 28.5,34.5 C28.5,34.08525 28.108875,33.75 27.625,33.75 Z" id="Shape" fill-rule="nonzero"></path>
                            <path d="M41.8815789,25.26 L40.0370526,25.26 C40.6753421,23.58438 41.0131579,21.83655 41.0131579,20.04 C41.0131579,11.88462 34.3905789,5.25 26.25,5.25 C18.1094211,5.25 11.4868421,11.88462 11.4868421,20.04 C11.4868421,21.83655 11.8246579,23.58438 12.4629474,25.26 L10.6184211,25.26 C10.1381842,25.26 9.75,25.64889 9.75,26.13 C9.75,26.61111 10.1381842,27 10.6184211,27 L13.7699211,27 L14.0921053,27 L18.3725526,27 L34.1283158,27 L38.4078947,27 L38.7300789,27 L41.8815789,27 C42.3618158,27 42.75,26.61111 42.75,26.13 C42.75,25.64889 42.3618158,25.26 41.8815789,25.26 Z M27.7627895,24.37173 C27.7601842,24.37695 27.7567105,24.38304 27.7541053,24.38739 C27.7211053,24.44394 27.6802895,24.4944 27.6412105,24.54747 C27.6090789,24.59097 27.5786842,24.63621 27.5430789,24.67536 C27.5013947,24.72234 27.4536316,24.7641 27.4067368,24.80673 C27.3693947,24.83979 27.3337895,24.87546 27.2947105,24.90504 C27.2478158,24.94071 27.1965789,24.97029 27.1462105,25.00074 C27.0993158,25.02945 27.0524211,25.05903 27.0029211,25.08252 C26.9551579,25.10601 26.9039211,25.12341 26.8535526,25.14168 C26.7971053,25.16256 26.7415263,25.18431 26.6842105,25.19997 C26.6303684,25.21389 26.5747895,25.22085 26.5192105,25.22955 C26.4618947,25.23825 26.4054474,25.25043 26.3472632,25.25304 C26.2934211,25.25565 26.2404474,25.2513 26.1866053,25.24956 C26.1266842,25.24782 26.0667632,25.24782 26.0068421,25.23999 C25.9634211,25.2339 25.9217368,25.22085 25.8791842,25.21128 C25.8105789,25.19649 25.7419737,25.18257 25.6742368,25.15908 C25.6386316,25.1469 25.6047632,25.12776 25.5700263,25.11297 C25.5005526,25.08339 25.4302105,25.05294 25.3633421,25.01292 C25.3242632,24.98943 25.2877895,24.95985 25.2495789,24.93288 C25.194,24.89286 25.1375526,24.85371 25.0880526,24.80847 C25.0489737,24.7728 25.0142368,24.73278 24.9786316,24.69363 C24.9369474,24.64752 24.8935263,24.60315 24.8570526,24.55356 C24.8292632,24.51615 24.8066842,24.47526 24.7823684,24.43611 C24.7467632,24.37869 24.7102895,24.32127 24.6816316,24.26037 C24.6642632,24.22383 24.6521053,24.18468 24.6373421,24.1464 C24.6121579,24.08028 24.5861053,24.01329 24.5687368,23.94456 C24.5583158,23.90193 24.5531053,23.85756 24.5461579,23.81406 C24.5348684,23.74794 24.5218421,23.68182 24.5183684,23.61396 C24.5157632,23.56698 24.5201053,23.52087 24.5218421,23.47389 C24.5235789,23.40777 24.5235789,23.34078 24.5331316,23.27466 C24.5383421,23.23464 24.5505,23.19636 24.5591842,23.15721 C24.5748158,23.085 24.5895789,23.01366 24.6138947,22.94319 C24.6260526,22.90752 24.6451579,22.87359 24.6599211,22.83879 C24.6894474,22.76919 24.7198421,22.70046 24.7589211,22.63347 C24.7997368,22.56387 24.8475,22.49862 24.8987368,22.43424 C24.9187105,22.40901 24.9465,22.37769 24.9708158,22.34985 C25.2704211,22.02099 25.6742368,21.81915 26.1197368,21.78522 C26.1640263,21.78174 26.2091842,21.78 26.2534737,21.78 C26.6685789,21.78 27.0654474,21.92703 27.3832895,22.20021 C27.7341316,22.50384 27.9477632,22.92579 27.9825,23.38863 C28.0085526,23.74359 27.9260526,24.08202 27.7627895,24.37173 Z M28.5148421,20.88129 C28.1075526,20.52981 27.6325263,20.29578 27.1271053,20.16441 C28.3915263,18.95163 29.9425263,17.517 31.2338684,16.34772 C30.5703947,17.96766 29.7566842,19.91646 29.0715,21.50682 C28.9099737,21.28062 28.7302105,21.0666 28.5148421,20.88129 Z M38.1751579,25.26 L35.6055,25.26 C36.3045789,23.77752 36.6710526,22.14975 36.6710526,20.475 C36.6710526,19.34748 36.5069211,18.23736 36.1821316,17.17335 C36.0414474,16.71399 35.5577368,16.45386 35.0974737,16.59654 C34.6398158,16.73661 34.3810263,17.22381 34.5217105,17.68317 C34.7952632,18.58014 34.9342105,19.51974 34.9342105,20.475 C34.9342105,22.17585 34.4895789,23.82102 33.6454737,25.26 L29.2547368,25.26 C29.3745789,25.05294 29.4727105,24.8337 29.5482632,24.60402 C30.6997895,22.06362 34.3740789,13.80036 34.1500263,13.11741 C34.0701316,12.87381 33.8868947,12.67719 33.6498158,12.58149 C33.0427895,12.33093 33.0054474,12.31962 28.3220526,16.64961 C26.646,18.19908 24.6555789,20.08698 23.7367895,21.13533 C23.6977105,21.17622 23.6525526,21.20841 23.6152105,21.25191 C23.5726579,21.3015 23.544,21.35892 23.5040526,21.41025 C23.4198158,21.51639 23.3381842,21.61905 23.2921579,21.69474 C23.2808684,21.71301 23.2756579,21.73302 23.2643684,21.75129 C23.1905526,21.87483 23.1349737,22.00533 23.0785263,22.1367 C23.0446579,22.21587 23.0029737,22.29156 22.9743158,22.37247 C22.9282895,22.50384 22.9013684,22.63956 22.8709737,22.77528 C22.8518684,22.86141 22.8258158,22.94667 22.8136579,23.03367 C22.7962895,23.15721 22.7971579,23.28249 22.7936842,23.40864 C22.7902105,23.51043 22.7815263,23.61222 22.7867368,23.71401 C22.7876053,23.73663 22.7832632,23.75925 22.785,23.78187 C22.7928158,23.88714 22.8214737,23.98719 22.8388421,24.08985 C22.8544737,24.18468 22.8648947,24.28038 22.8883421,24.37347 C22.9222105,24.50919 22.9725789,24.63708 23.0220789,24.76671 C23.0524737,24.84588 23.0776579,24.92592 23.1132632,25.00335 C23.1549474,25.09209 23.2053158,25.17561 23.2548158,25.26 L18.8536579,25.26 C18.0104211,23.82102 17.5657895,22.17585 17.5657895,20.475 C17.5657895,19.63458 17.6743421,18.80286 17.8871053,18.00246 C18.0112895,17.53875 17.736,17.06199 17.2722632,16.93758 C16.8163421,16.8123 16.3335,17.08896 16.2093158,17.55354 C15.9566053,18.49923 15.8289474,19.48233 15.8289474,20.475 C15.8289474,22.14975 16.1954211,23.77752 16.8945,25.26 L14.3248421,25.26 C13.5936316,23.59656 13.2236842,21.84264 13.2236842,20.04 C13.2236842,12.84423 19.0672895,6.99 26.25,6.99 C33.4327105,6.99 39.2763158,12.84423 39.2763158,20.04 C39.2763158,21.84264 38.9063684,23.59656 38.1751579,25.26 Z" id="Shape" fill-rule="nonzero"></path>
                            <path d="M30.1865796,10.4577478 C27.1180013,9.29865932 23.5227605,9.57463277 20.678602,11.2020398 C20.2532904,11.4453982 20.1229821,11.9605487 20.3854085,12.3536018 C20.556438,12.6095044 20.8532513,12.75 21.1563989,12.75 C21.3192843,12.75 21.4830745,12.7098584 21.6314811,12.6253938 C23.9878886,11.276469 26.9650701,11.0481637 29.5024613,12.0073805 C29.9630647,12.1821637 30.4933469,11.9772743 30.6824748,11.5490974 C30.8716028,11.1209204 30.6498978,10.632531 30.1865796,10.4577478 Z" id="Shape" fill-rule="nonzero"></path>
                        </g>
                    </g>
                </g>
            </g>
        </g>
    </g>
</svg>