<?xml version="1.0" encoding="UTF-8"?>
<svg width="55px" height="55px" viewBox="0 0 55 55" version="1.1" xmlns="http://www.w3.org/2000/svg" xmlns:xlink="http://www.w3.org/1999/xlink">
    <!-- Generator: Sketch 51.2 (57519) - http://www.bohemiancoding.com/sketch -->
    <title>Reinvent Icon@2x</title>
    <desc>Created with Sketch.</desc>
    <defs></defs>
    <g id="Main" stroke="none" stroke-width="1" fill="none" fill-rule="evenodd">
        <g transform="translate(-1041.000000, -2081.000000)" fill="#FFFFFF" id="BP-Services">
            <g transform="translate(528.000000, 1841.000000)">
                <g id="Reinvent" transform="translate(447.000000, 216.000000)">
                    <g id="Reinvent-Icon" transform="translate(66.839357, 24.302721)">
                        <g id="Reinvent">
                            <path d="M53.1290323,20.0322581 L47.6323548,20.0322581 C47.3212016,19.1104476 46.9482097,18.2107379 46.5157742,17.3392258 L50.4037742,13.4512258 C50.7437782,13.1111129 50.7437782,12.5597903 50.4037742,12.2196774 L41.7811935,3.59709677 C41.4410806,3.25709274 40.8897581,3.25709274 40.5496452,3.59709677 L36.6616452,7.48509677 C35.7899153,7.05233468 34.889879,6.67901613 33.9677419,6.36764516 L33.9677419,0.870967742 C33.9677419,0.389975806 33.5777661,0 33.0967742,0 L20.9032258,0 C20.4222339,0 20.0322581,0.389975806 20.0322581,0.870967742 L20.0322581,6.36764516 C19.1104476,6.67879839 18.2107379,7.05179032 17.3392258,7.48422581 L13.4512258,3.59622581 C13.1111129,3.25622177 12.5597903,3.25622177 12.2196774,3.59622581 L3.59709677,12.2188065 C3.25709274,12.5589194 3.25709274,13.1102419 3.59709677,13.4503548 L7.48509677,17.3383548 C7.05233468,18.2100847 6.67901613,19.110121 6.36764516,20.0322581 L0.870967742,20.0322581 C0.389975806,20.0322581 0,20.4222339 0,20.9032258 L0,33.0967742 C0,33.5777661 0.389975806,33.9677419 0.870967742,33.9677419 L6.36764516,33.9677419 C6.67879839,34.8895524 7.05179032,35.7892621 7.48422581,36.6607742 L3.59622581,40.5487742 C3.25622177,40.8888871 3.25622177,41.4402097 3.59622581,41.7803226 L12.2188065,50.4029032 C12.5589194,50.7429073 13.1102419,50.7429073 13.4503548,50.4029032 L17.3383548,46.5149032 C18.2100847,46.9476653 19.110121,47.3209839 20.0322581,47.6323548 L20.0322581,53.1290323 C20.0322581,53.6100242 20.4222339,54 20.9032258,54 L33.0967742,54 C33.5777661,54 33.9677419,53.6100242 33.9677419,53.1290323 L33.9677419,47.6323548 C34.8895524,47.3213105 35.7892621,46.9482097 36.6607742,46.5157742 L40.5487742,50.4037742 C40.8888871,50.7437782 41.4402097,50.7437782 41.7803226,50.4037742 L50.4029032,41.7811935 C50.7429073,41.4410806 50.7429073,40.8897581 50.4029032,40.5496452 L46.5149032,36.6616452 C46.9476653,35.7899153 47.3209839,34.889879 47.6323548,33.9677419 L53.1290323,33.9677419 C53.6100242,33.9677419 54,33.5777661 54,33.0967742 L54,20.9032258 C54,20.4222339 53.6100242,20.0322581 53.1290323,20.0322581 Z M52.2580645,32.2258065 L46.9974194,32.2258065 C46.6117984,32.2239556 46.2710323,32.4758831 46.1595484,32.8450645 C45.7826371,34.0804234 45.2867298,35.276371 44.6789032,36.4160323 C44.4982863,36.7542944 44.5602339,37.1708347 44.8313226,37.4420323 L48.5520968,41.1636774 L41.1619355,48.5538387 L37.4402903,44.8330645 C37.1690927,44.5619758 36.7525524,44.5000282 36.4142903,44.6806452 C35.274629,45.2884718 34.0786815,45.784379 32.8433226,46.1612903 C32.4755565,46.2732097 32.2245,46.612996 32.2258065,46.9974194 L32.2258065,52.2580645 L21.7741935,52.2580645 L21.7741935,46.9974194 C21.7741935,46.6126694 21.5217218,46.2734274 21.1531935,46.1630323 C19.9178347,45.786121 18.7218871,45.2902137 17.5822258,44.6823871 C17.2439637,44.5017702 16.8274234,44.5637177 16.5562258,44.8348065 L12.8345806,48.5555806 L5.44441935,41.1654194 L9.16432258,37.4402903 C9.43541129,37.1690927 9.49735887,36.7525524 9.31674194,36.4142903 C8.70891532,35.274629 8.21300806,34.0786815 7.83609677,32.8433226 C7.72450403,32.4764274 7.38602419,32.2256976 7.00258065,32.2258065 L1.74193548,32.2258065 L1.74193548,21.7741935 L7.00258065,21.7741935 C7.38733065,21.7741935 7.72657258,21.5217218 7.83696774,21.1531935 C8.21387903,19.9178347 8.70978629,18.7218871 9.3176129,17.5822258 C9.49822984,17.2439637 9.43628226,16.8274234 9.16519355,16.5562258 L5.44441935,12.8345806 L12.8345806,5.44441935 L16.5597097,9.16432258 C16.8309073,9.43541129 17.2474476,9.49735887 17.5857097,9.31674194 C18.725371,8.70891532 19.9213185,8.21300806 21.1566774,7.83609677 C21.5235726,7.72450403 21.7743024,7.38602419 21.7741935,7.00258065 L21.7741935,1.74193548 L32.2258065,1.74193548 L32.2258065,7.00258065 C32.2258065,7.38733065 32.4782782,7.72657258 32.8468065,7.83696774 C34.0821653,8.21387903 35.2781129,8.70978629 36.4177742,9.3176129 C36.7560363,9.49822984 37.1725766,9.43628226 37.4437742,9.16519355 L41.1654194,5.44441935 L48.5538387,12.8380645 L44.8330645,16.5597097 C44.5619758,16.8309073 44.5000282,17.2474476 44.6806452,17.5857097 C45.2884718,18.725371 45.784379,19.9213185 46.1612903,21.1566774 C46.2732097,21.5244435 46.612996,21.7755 46.9974194,21.7741935 L52.2580645,21.7741935 L52.2580645,32.2258065 Z" id="Shape" fill-rule="nonzero"></path>
                            <path d="M30.8437102,14.7643469 L30.8437102,12.9831957 C30.8440376,12.8649179 30.8200328,12.7478403 30.7730054,12.6392734 L28.1543073,6.52897798 C28.0660354,6.32319196 27.9020394,6.15919599 27.6962534,6.07092405 C27.253257,5.88085021 26.7399922,6.08598156 26.5499183,6.52897798 L23.9312203,12.6392734 C23.8841928,12.7478403 23.8601881,12.8649179 23.8605155,12.9831957 L23.8605155,14.7648924 C18.2088195,16.3218175 14.2461838,21.4746515 14.2500028,27.3946548 C14.2548037,34.6259713 20.1207964,40.484217 27.3521128,40.4795252 C33.5092175,40.4835623 38.8373951,36.1971901 40.1521997,30.1820407 C41.6457305,23.3494211 37.5084059,16.5973264 30.8437102,14.7643469 Z M23.8605155,38.1815085 C20.1533119,36.9789806 17.1641772,33.8975368 16.2682552,29.8159685 C15.0039696,24.0555966 18.3593947,18.357637 23.8605155,16.5858696 L23.8605155,38.1815085 Z M26.4792135,38.6994652 C26.1858102,38.676988 25.8946983,38.6432723 25.6063141,38.598318 L25.6063141,14.2925448 L26.4792135,14.2925448 L26.4792135,38.6994652 Z M25.870148,12.5467461 L27.3521128,9.08919176 L28.8341868,12.5467461 L25.870148,12.5467461 Z M29.0979115,38.5952628 C28.806254,38.6409809 28.5151421,38.675024 28.2250122,38.6977194 L28.2250122,14.2925448 L29.0979115,14.2925448 L29.0979115,38.5952628 Z M30.8437102,38.1805265 L30.8437102,16.5875063 C34.6541341,17.818949 37.565799,20.9860461 38.4359705,24.9504276 C39.7002561,30.7107995 36.344831,36.4087591 30.8437102,38.1805265 Z" id="Shape" fill-rule="nonzero"></path>
                            <path d="M12.3058936,32.0408645 C9.56062518,23.8053865 14.0112116,14.9037772 22.2466896,12.1585088 L21.696763,10.5 C17.8206535,11.7913455 14.5198937,14.400769 12.3688515,17.8742537 C7.29075954,26.0743793 9.8217312,36.8385376 18.0218568,41.9165204 L18.9418927,40.4334644 C15.8165857,38.4980283 13.4684864,35.5283156 12.3058936,32.0408645 Z" id="Shape" fill-rule="nonzero"></path>
                            <path d="M31.5224671,10.5 L31.0633221,12.1846957 C39.2739224,14.325154 44.3019318,22.5978394 42.4209428,30.8718341 C40.4972909,39.3335021 32.0782858,44.6336378 23.6166177,42.7099859 L23.25,44.4165041 C24.4578745,44.674555 25.6897537,44.8045079 26.9249062,44.8040714 C34.8081694,44.8112728 41.7182588,39.5345963 43.7870303,31.9276058 C46.3173472,22.6238081 40.8262648,13.030317 31.5224671,10.5 Z" id="Shape" fill-rule="nonzero"></path>
                        </g>
                    </g>
                </g>
            </g>
        </g>
    </g>
</svg>