<?xml version="1.0" encoding="UTF-8"?>
<svg width="64px" height="53px" viewBox="0 0 64 53" version="1.1" xmlns="http://www.w3.org/2000/svg" xmlns:xlink="http://www.w3.org/1999/xlink">
    <!-- Generator: Sketch 51.2 (57519) - http://www.bohemiancoding.com/sketch -->
    <title>Responsive Icon@2x</title>
    <desc>Created with Sketch.</desc>
    <defs>
        <linearGradient x1="-2.22044605e-14%" y1="50%" x2="100%" y2="50%" id="linearGradient-1">
            <stop stop-color="#93C934" offset="0%"></stop>
            <stop stop-color="#5DBD37" offset="100%"></stop>
        </linearGradient>
    </defs>
    <g id="Main" stroke="none" stroke-width="1" fill="none" fill-rule="evenodd">
        <g transform="translate(-1043.000000, -2669.000000)" fill="url(#linearGradient-1)" id="WD-Services">
            <g transform="translate(-57.000000, 2378.000000)">
                <g id="WD-Responsive" transform="translate(1038.000000, 266.000000)">
                    <g id="Responsive-Icon" transform="translate(62.250000, 25.000000)">
                        <g id="responsive-3">
                            <path d="M53.7113117,31.433889 C53.1507372,31.433889 52.6965822,31.8881667 52.6965822,32.4486184 L52.6965822,39.3857741 C52.6965822,40.5637539 51.7383153,41.5221436 50.5602127,41.5221436 L26.0907116,41.5221436 C25.5301371,41.5221436 25.0759821,41.9764213 25.0759821,42.5368731 C25.0759821,43.0973249 25.5301371,43.5516026 26.0907116,43.5516026 L26.1584666,43.5516026 L24.9899382,48.4191618 C24.9173961,48.721359 24.9873605,49.0401267 25.179824,49.2842656 C25.3721648,49.5282819 25.6658926,49.6707883 25.9766819,49.6707883 L39.6859018,49.6707883 C40.2464763,49.6707883 40.7006312,49.2165106 40.7006312,48.6560589 C40.7006312,48.0956071 40.2464763,47.6413294 39.6859018,47.6413294 L35.7054176,47.6413294 L34.7235837,43.5516026 L50.5603355,43.5516026 C52.8573776,43.5516026 54.7261639,41.682939 54.7261639,39.3857741 L54.7261639,32.4486184 C54.7260412,31.8882894 54.2718862,31.433889 53.7113117,31.433889 Z M27.2637816,47.6413294 L28.2456155,43.5516026 L32.6364348,43.5516026 L33.6182687,47.6413294 L27.2637816,47.6413294 Z" id="Shape" fill-rule="nonzero"></path>
                            <path d="M42.5399588,6.27063544 L9.24070329,6.27063544 C6.94292467,6.27063544 5.07352465,8.14003546 5.07352465,10.4378141 L5.0736474,20.12273 C5.0736474,20.6831818 5.52780236,21.1374595 6.08837687,21.1374595 C6.64895139,21.1374595 7.10310635,20.6831818 7.10310635,20.12273 L7.10298361,10.4378141 C7.10298361,9.25909784 8.06198705,8.3000944 9.24070329,8.3000944 L42.5398361,8.3000944 C43.1004106,8.3000944 43.5545656,7.8458167 43.5545656,7.28536492 C43.5546883,6.7250359 43.1004106,6.27063544 42.5399588,6.27063544 Z" id="Shape" fill-rule="nonzero"></path>
                            <path d="M50.7850808,37.1994476 L25.8201825,37.1994476 C25.259608,37.1994476 24.8054531,37.6537253 24.8054531,38.2141771 C24.8054531,38.7746288 25.259608,39.2289065 25.8201825,39.2289065 L50.7850808,39.2289065 C51.3456553,39.2289065 51.7998103,38.7746288 51.7998103,38.2141771 C51.7998103,37.6537253 51.3455326,37.1994476 50.7850808,37.1994476 Z" id="Shape" fill-rule="nonzero"></path>
                            <path d="M42.5399588,10.5933315 L9.01620345,10.5933315 C8.45562893,10.5933315 8.00147397,11.0476092 8.00147397,11.608061 C8.00147397,12.1685127 8.45562893,12.6227904 9.01620345,12.6227904 L42.5399588,12.6227904 C43.1005334,12.6227904 43.5546883,12.1685127 43.5546883,11.608061 C43.5546883,11.0477319 43.1004106,10.5933315 42.5399588,10.5933315 Z" id="Shape" fill-rule="nonzero"></path>
                            <path d="M61.8304977,19.9111184 C62.3910722,19.9111184 62.8452272,19.4568407 62.8452272,18.8963889 L62.8452272,3.30782667 C62.8452272,1.55086069 61.4159893,0.1215 59.6589005,0.1215 L47.7666687,0.1215 C46.0097028,0.1215 44.5803421,1.55086069 44.5803421,3.30782667 L44.5803421,27.3223136 C44.5803421,29.0792796 46.00958,30.5086403 47.7666687,30.5086403 L59.6589005,30.5086403 C61.4158665,30.5086403 62.8452272,29.0792796 62.8452272,27.3223136 L62.8452272,21.9407001 C62.8452272,21.3802483 62.3910722,20.9259706 61.8304977,20.9259706 C61.2699232,20.9259706 60.8157682,21.3802483 60.8157682,21.9407001 L60.8157682,27.3223136 C60.8157682,27.9602172 60.2968041,28.4791813 59.6589005,28.4791813 L47.7666687,28.4791813 C47.1287651,28.4791813 46.609801,27.9602172 46.609801,27.3223136 L46.609801,3.30782667 C46.609801,2.66992306 47.1287651,2.15095896 47.7666687,2.15095896 L59.6589005,2.15095896 C60.2968041,2.15095896 60.8157682,2.66992306 60.8157682,3.30782667 L60.8157682,18.8965116 C60.8157682,19.4568407 61.2699232,19.9111184 61.8304977,19.9111184 Z" id="Shape" fill-rule="nonzero"></path>
                            <path d="M40.4535464,20.8485188 L37.9333546,18.3283269 C37.5370123,17.9322302 36.8946899,17.9319847 36.4982249,18.3283269 C36.1020054,18.7246692 36.1020054,19.3671144 36.4982249,19.7634566 L37.2862451,20.5514769 L28.4319418,20.5514769 C27.8713673,20.5514769 27.4172123,21.0057546 27.4172123,21.5662063 C27.4172123,22.1266581 27.8713673,22.5809358 28.4319418,22.5809358 L37.2862451,22.5809358 L36.4982249,23.368956 C36.1020054,23.7652983 36.1020054,24.4077435 36.4982249,24.8040857 C36.6964574,25.0021955 36.956185,25.1013731 37.2157898,25.1013731 C37.4753945,25.1013731 37.7352448,25.0023182 37.9333546,24.8040857 L40.4535464,22.2838939 C40.8497659,21.8871834 40.8497659,21.2447383 40.4535464,20.8485188 Z" id="Shape" fill-rule="nonzero"></path>
                            <path d="M39.7358588,27.72197 L30.8815555,27.72197 L31.6695757,26.9339498 C32.065918,26.5376075 32.065918,25.8951623 31.6695757,25.4988201 C31.2732334,25.1027233 30.630911,25.1024778 30.234446,25.4988201 L27.7141315,28.0190119 C27.5238774,28.2093887 27.4169668,28.4673978 27.4169668,28.736454 C27.4169668,29.0055101 27.5238774,29.2637647 27.7141315,29.4538961 L30.234446,31.9740879 C30.4326785,32.1721976 30.6924061,32.2713753 30.9520109,32.2713753 C31.2116157,32.2713753 31.4714659,32.1723204 31.6695757,31.9740879 C32.065918,31.5777456 32.065918,30.9353005 31.6695757,30.5389582 L30.8815555,29.750938 L39.7358588,29.750938 C40.2963106,29.7511835 40.7504655,29.2969058 40.7504655,28.736454 C40.7504655,28.1760022 40.2964333,27.72197 39.7358588,27.72197 Z" id="Shape" fill-rule="nonzero"></path>
                            <path d="M58.9328663,5.61395192 L48.4924575,5.61395192 C47.9318829,5.61395192 47.477728,6.06822962 47.477728,6.6286814 C47.477728,7.18913317 47.9318829,7.64341088 48.4924575,7.64341088 L58.9328663,7.64341088 C59.4934408,7.64341088 59.9475958,7.18913317 59.9475958,6.6286814 C59.9475958,6.06822962 59.4934408,5.61395192 58.9328663,5.61395192 Z" id="Shape" fill-rule="nonzero"></path>
                            <path d="M58.9328663,22.9866067 L48.4924575,22.9866067 C47.9318829,22.9866067 47.477728,23.4408844 47.477728,24.0013361 C47.477728,24.5617879 47.9318829,25.0160656 48.4924575,25.0160656 L58.9328663,25.0160656 C59.4934408,25.0160656 59.9475958,24.5617879 59.9475958,24.0013361 C59.9475958,23.4408844 59.4934408,22.9866067 58.9328663,22.9866067 Z" id="Shape" fill-rule="nonzero"></path>
                            <path d="M20.6042742,22.2293953 L3.18632667,22.2293953 C1.42923794,22.2293953 0,23.6588788 0,25.4155992 L0,31.4562285 C0,32.0166803 0.454154962,32.470958 1.01472948,32.470958 C1.575304,32.470958 2.02945896,32.0166803 2.02945896,31.4562285 L2.02945896,25.4155992 C2.02945896,24.7776956 2.54842306,24.2587315 3.18632667,24.2587315 L20.6042742,24.2587315 C21.2421778,24.2587315 21.7611419,24.7776956 21.7611419,25.4155992 L21.7611419,49.4300862 C21.7611419,50.0679898 21.2421778,50.5869539 20.6042742,50.5869539 L3.18632667,50.5869539 C2.54842306,50.5869539 2.02945896,50.0679898 2.02945896,49.4300862 L2.02945896,34.5907569 C2.02945896,34.0303052 1.575304,33.5760275 1.01472948,33.5760275 C0.454154962,33.5760275 0,34.0304279 0,34.5907569 L0,49.4300862 C0,51.1870522 1.42923794,52.6164129 3.18632667,52.6164129 L20.6042742,52.6164129 C22.3612401,52.6164129 23.7906008,51.1870522 23.7906008,49.4300862 L23.7906008,25.4155992 C23.7907236,23.6588788 22.3612401,22.2293953 20.6042742,22.2293953 Z" id="Shape" fill-rule="nonzero"></path>
                            <path d="M20.1097362,27.72197 L3.68074185,27.72197 C3.12016733,27.72197 2.66601237,28.1762477 2.66601237,28.7366995 C2.66601237,29.2971512 3.12029008,29.7514289 3.68074185,29.7514289 L20.1097362,29.7514289 C20.6703108,29.7514289 21.1244657,29.2971512 21.1244657,28.7366995 C21.1244657,28.1762477 20.6703108,27.72197 20.1097362,27.72197 Z" id="Shape" fill-rule="nonzero"></path>
                            <path d="M20.1097362,45.094502 L3.68074185,45.094502 C3.12016733,45.094502 2.66601237,45.5487797 2.66601237,46.1092315 C2.66601237,46.6696832 3.12029008,47.123961 3.68074185,47.123961 L20.1097362,47.123961 C20.6703108,47.123961 21.1244657,46.6696832 21.1244657,46.1092315 C21.1244657,45.5489024 20.6703108,45.094502 20.1097362,45.094502 Z" id="Shape" fill-rule="nonzero"></path>
                            <circle id="Oval" fill-rule="nonzero" cx="53.7126619" cy="26.7301937" r="1.01472948"></circle>
                            <circle id="Oval" fill-rule="nonzero" cx="11.8953004" cy="48.895779" r="1.01472948"></circle>
                        </g>
                    </g>
                </g>
            </g>
        </g>
    </g>
</svg>