<?xml version="1.0" encoding="UTF-8"?>
<svg width="55px" height="55px" viewBox="0 0 55 55" version="1.1" xmlns="http://www.w3.org/2000/svg" xmlns:xlink="http://www.w3.org/1999/xlink">
    <!-- Generator: Sketch 51.2 (57519) - http://www.bohemiancoding.com/sketch -->
    <title>Retina Ready Icon@2x</title>
    <desc>Created with Sketch.</desc>
    <defs>
        <linearGradient x1="50%" y1="100%" x2="50%" y2="-2.48949813e-15%" id="linearGradient-1">
            <stop stop-color="#93C934" offset="0%"></stop>
            <stop stop-color="#5DBD37" offset="100%"></stop>
        </linearGradient>
    </defs>
    <g id="Main" stroke="none" stroke-width="1" fill="none" fill-rule="evenodd">
        <g transform="translate(-1270.000000, -2669.000000)" fill="url(#linearGradient-1)" id="WD-Services">
            <g transform="translate(-57.000000, 2378.000000)">
                <g id="WD-Retina" transform="translate(1261.000000, 266.000000)">
                    <g id="Retina-Ready-Icon" transform="translate(66.000000, 25.000000)">
                        <g id="resolution-2">
                            <path d="M49.2748918,10.9711942 L49.2748918,10.9500214 L49.2748918,8.21252272 C49.2732878,6.70133791 48.0485834,5.47662806 46.5374053,5.47502406 L43.7787461,5.47502406 C34.0610968,-1.82500802 20.6887962,-1.82500802 10.9712539,5.47502406 L8.21259469,5.47502406 C6.70141661,5.47662806 5.47671222,6.70133791 5.47510822,8.21252272 L5.47510822,10.9711942 C1.9047201,15.6929517 -0.018578012,21.4553864 0.000135274391,27.3750134 C0.000135274391,42.4938121 12.2562686,54.75 27.375,54.75 C42.4937314,54.75 54.7498647,42.4938121 54.7498647,27.3750134 C54.768578,21.4553864 52.8452799,15.6929517 49.2748918,10.9711942 Z M44.7124856,7.30005881 L46.5375122,7.30005881 C47.041167,7.30070041 47.4493305,7.70886574 47.4499721,8.21252272 L47.4499721,10.0375575 L44.7124856,10.0375575 L44.7124856,7.30005881 Z M44.7124856,11.8625922 L47.4499721,11.8625922 L47.4499721,14.6000909 L44.7124856,14.6000909 L44.7124856,11.8625922 Z M44.7124856,16.4250187 L47.4499721,16.4250187 L47.4499721,19.1625174 L44.7124856,19.1625174 L44.7124856,16.4250187 Z M44.7124856,20.9875521 L47.4499721,20.9875521 L47.4499721,23.7250508 L44.7124856,23.7250508 L44.7124856,20.9875521 Z M44.7124856,25.5500855 L47.4499721,25.5500855 L47.4499721,28.2875842 L44.7124856,28.2875842 L44.7124856,25.5500855 Z M44.7124856,30.112512 L47.4499721,30.112512 L47.4499721,32.8500107 L44.7124856,32.8500107 L44.7124856,30.112512 Z M27.375,1.82506149 C32.0177129,1.80827292 36.575414,3.07115805 40.5473358,5.47502406 L14.2026642,5.47502406 C18.1746929,3.07115805 22.7322871,1.80827292 27.375,1.82506149 Z M7.30013485,8.21252272 C7.30077644,7.70886574 7.70893995,7.30070041 8.21259469,7.30005881 L42.887459,7.30005881 L42.887459,10.0375575 L39.2375127,10.0375575 C38.7335371,10.0375575 38.3250528,10.4460436 38.3250528,10.9500214 L38.3250528,14.599984 L34.6751065,14.599984 C34.171131,14.599984 33.7626467,15.0084701 33.7626467,15.5124479 L33.7626467,19.1624104 L30.1127003,19.1624104 C29.6087248,19.1624104 29.2002405,19.5708966 29.2002405,20.0748744 L29.2002405,23.7248369 L25.5502942,23.7248369 C25.0463186,23.7248369 24.6378343,24.1333231 24.6378343,24.6373008 L24.6378343,28.2872634 L20.987888,28.2872634 C20.4839125,28.2872634 20.0754282,28.6958565 20.0754282,29.1997273 L20.0754282,32.8496899 L7.30013485,32.8496899 L7.30013485,8.21252272 Z M40.1499725,28.2875842 L40.1499725,25.5500855 L42.887459,25.5500855 L42.887459,28.2875842 L40.1499725,28.2875842 Z M42.887459,30.112512 L42.887459,32.8500107 L40.1499725,32.8500107 L40.1499725,30.112512 L42.887459,30.112512 Z M40.1499725,23.7250508 L40.1499725,20.9875521 L42.887459,20.9875521 L42.887459,23.7250508 L40.1499725,23.7250508 Z M40.1499725,19.1625174 L40.1499725,16.4250187 L42.887459,16.4250187 L42.887459,19.1625174 L40.1499725,19.1625174 Z M40.1499725,14.6000909 L40.1499725,11.8625922 L42.887459,11.8625922 L42.887459,14.6000909 L40.1499725,14.6000909 Z M35.5874594,28.2875842 L35.5874594,25.5500855 L38.3249459,25.5500855 L38.3249459,28.2875842 L35.5874594,28.2875842 Z M38.3249459,30.112512 L38.3249459,32.8500107 L35.5874594,32.8500107 L35.5874594,30.112512 L38.3249459,30.112512 Z M35.5874594,23.7250508 L35.5874594,20.9875521 L38.3249459,20.9875521 L38.3249459,23.7250508 L35.5874594,23.7250508 Z M35.5874594,19.1625174 L35.5874594,16.4250187 L38.3249459,16.4250187 L38.3249459,19.1625174 L35.5874594,19.1625174 Z M31.0250533,28.2875842 L31.0250533,25.5500855 L33.7625397,25.5500855 L33.7625397,28.2875842 L31.0250533,28.2875842 Z M33.7625397,30.112512 L33.7625397,32.8500107 L31.0250533,32.8500107 L31.0250533,30.112512 L33.7625397,30.112512 Z M31.0250533,23.7250508 L31.0250533,20.9875521 L33.7625397,20.9875521 L33.7625397,23.7250508 L31.0250533,23.7250508 Z M26.4625402,28.2875842 L26.4625402,25.5500855 L29.2000266,25.5500855 L29.2000266,28.2875842 L26.4625402,28.2875842 Z M29.2000266,30.112512 L29.2000266,32.8500107 L26.4625402,32.8500107 L26.4625402,30.112512 L29.2000266,30.112512 Z M24.6375135,30.112512 L24.6375135,32.8500107 L21.9000271,32.8500107 L21.9000271,30.112512 L24.6375135,30.112512 Z M7.30013485,34.6750454 L47.4499721,34.6750454 L47.4499721,35.5875094 C47.4493305,36.0911663 47.041167,36.4993317 46.5375122,36.4999733 L31.0250533,36.4999733 L8.21259469,36.4999733 C7.70893995,36.4993317 7.30077644,36.0911663 7.30013485,35.5875094 L7.30013485,34.6750454 Z M31.0250533,41.9750775 C33.1921588,41.9778578 35.059317,43.5023024 35.4957108,45.6250401 L19.2543961,45.6250401 C19.6907899,43.5023024 21.5579482,41.9778578 23.7250537,41.9750775 L31.0250533,41.9750775 Z M24.6375135,40.1500428 L24.6375135,38.325008 L30.1124865,38.325008 L30.1124865,40.1500428 L24.6375135,40.1500428 Z M27.375,52.9250722 C13.2707425,52.909246 1.84098799,41.4793336 1.8251619,27.3750134 C1.80837341,22.7322798 3.07125291,18.1745584 5.47510822,14.2026189 L5.47510822,35.5875094 C5.47671222,37.0986942 6.70141661,38.323404 8.21259469,38.325008 L22.8124869,38.325008 L22.8124869,40.2228645 C19.6735737,40.6778667 17.3429675,43.3657482 17.337514,46.537504 C17.337514,47.0414818 17.7459983,47.4499679 18.2499738,47.4499679 L36.4999193,47.4499679 C37.0038948,47.4499679 37.4123791,47.0414818 37.4123791,46.537504 C37.4069255,43.3657482 35.0763194,40.6777598 31.9374062,40.2228645 L31.9374062,38.325008 L46.5372984,38.325008 C48.0484765,38.323404 49.2731809,37.0986942 49.2747848,35.5875094 L49.2747848,14.2026189 C51.6786402,18.1746653 52.9415197,22.7322798 52.9247312,27.3750134 C52.9091189,41.4793336 41.4792575,52.909246 27.375,52.9250722 Z" id="Shape" fill-rule="nonzero"></path>
                        </g>
                    </g>
                </g>
            </g>
        </g>
    </g>
</svg>