<?xml version="1.0" encoding="UTF-8"?>
<svg width="284px" height="281px" viewBox="0 0 284 281" version="1.1" xmlns="http://www.w3.org/2000/svg" xmlns:xlink="http://www.w3.org/1999/xlink">
    <!-- Generator: Sketch 51.2 (57519) - http://www.bohemiancoding.com/sketch -->
    <title>Speech Mark@2x</title>
    <desc>Created with Sketch.</desc>
    <defs></defs>
    <g id="Main" stroke="none" stroke-width="1" fill="none" fill-rule="evenodd" fill-opacity="0.4">
        <g transform="translate(-404.000000, -4841.000000)" fill="#E4E8F6" id="Testimonials">
            <g transform="translate(-24.000000, 4771.000000)">
                <g id="Speech-Mark" transform="translate(428.000000, 70.000000)">
                    <g id="Group-5">
                        <path d="M15,0 L108.75,0 C117.034271,5.836115e-15 123.75,6.71572875 123.75,15 L123.75,141.675422 C123.75,144.950673 122.678005,148.135914 120.697727,150.744701 L26.9477267,274.249486 C21.9389021,280.848033 12.529268,282.136758 5.93072075,277.127933 C2.19440495,274.291771 -1.36363939e-14,269.871035 -1.42108547e-14,265.180207 L1.77635684e-15,15 C7.61826213e-16,6.71572875 6.71572875,3.29815278e-15 15,1.77635684e-15 Z" id="Rectangle-7-Copy-6"></path>
                        <path d="M174.75,0 L268.5,3.55271368e-15 C276.784271,-5.32699321e-15 283.5,6.71572875 283.5,15 L283.5,141.675422 C283.5,144.950673 282.428005,148.135914 280.447727,150.744701 L186.697727,274.249486 C181.688902,280.848033 172.279268,282.136758 165.680721,277.127933 C161.944405,274.291771 159.75,269.871035 159.75,265.180207 L159.75,15 C159.75,6.71572875 166.465729,1.52179594e-15 174.75,0 Z" id="Rectangle-7-Copy-7"></path>
                    </g>
                </g>
            </g>
        </g>
    </g>
</svg>