<?xml version="1.0" encoding="UTF-8"?>
<svg width="142px" height="128px" viewBox="0 0 142 128" version="1.1" xmlns="http://www.w3.org/2000/svg" xmlns:xlink="http://www.w3.org/1999/xlink">
    <title>Technology Icon</title>
    <defs>
        <filter x="-22.1%" y="-16.0%" width="144.1%" height="132.0%" filterUnits="objectBoundingBox" id="filter-1">
            <feOffset dx="0" dy="0" in="SourceAlpha" result="shadowOffsetOuter1"></feOffset>
            <feGaussianBlur stdDeviation="15" in="shadowOffsetOuter1" result="shadowBlurOuter1"></feGaussianBlur>
            <feColorMatrix values="0 0 0 0 0.215686275   0 0 0 0 0.215686275   0 0 0 0 0.215686275  0 0 0 0.1 0" type="matrix" in="shadowBlurOuter1" result="shadowMatrixOuter1"></feColorMatrix>
            <feMerge>
                <feMergeNode in="shadowMatrixOuter1"></feMergeNode>
                <feMergeNode in="SourceGraphic"></feMergeNode>
            </feMerge>
        </filter>
        <linearGradient x1="-2.22044605e-14%" y1="50%" x2="50%" y2="50%" id="linearGradient-2">
            <stop stop-color="#F13C5B" offset="0%"></stop>
            <stop stop-color="#F45D77" offset="100%"></stop>
        </linearGradient>
        <linearGradient x1="-2.22044605e-14%" y1="50%" x2="50%" y2="50%" id="linearGradient-3">
            <stop stop-color="#F13C5B" offset="0%"></stop>
            <stop stop-color="#F45D77" offset="100%"></stop>
        </linearGradient>
        <linearGradient x1="-2.22044605e-14%" y1="50%" x2="50%" y2="50%" id="linearGradient-4">
            <stop stop-color="#F13C5B" offset="0%"></stop>
            <stop stop-color="#F45D77" offset="100%"></stop>
        </linearGradient>
        <linearGradient x1="-2.22044605e-14%" y1="50%" x2="50%" y2="50%" id="linearGradient-5">
            <stop stop-color="#F13C5B" offset="0%"></stop>
            <stop stop-color="#F45D77" offset="100%"></stop>
        </linearGradient>
        <linearGradient x1="-2.22044605e-14%" y1="50%" x2="50%" y2="50%" id="linearGradient-6">
            <stop stop-color="#F13C5B" offset="0%"></stop>
            <stop stop-color="#F45D77" offset="100%"></stop>
        </linearGradient>
        <linearGradient x1="-2.22044605e-14%" y1="50%" x2="50%" y2="50%" id="linearGradient-7">
            <stop stop-color="#F13C5B" offset="0%"></stop>
            <stop stop-color="#F45D77" offset="100%"></stop>
        </linearGradient>
    </defs>
    <g id="Desktop" stroke="none" stroke-width="1" fill="none" fill-rule="evenodd">
        <g id="Main" transform="translate(-600.000000, -1249.000000)" fill-rule="nonzero">
            <g id="Technology" filter="url(#filter-1)" transform="translate(540.000000, 1219.000000)">
                <g id="technology-icon" transform="translate(90.000000, 54.000000)">
                    <g id="Shape">
                        <path d="M9.40983607,11.4285714 C7.18616997,11.4285714 5.37704918,13.087272 5.37704918,15.1260504 C5.37704918,17.1649807 7.18616997,18.8235294 9.40983607,18.8235294 C11.6335022,18.8235294 13.442623,17.1648288 13.442623,15.1260504 C13.4424573,13.087272 11.6335022,11.4285714 9.40983607,11.4285714 Z M9.40983607,16.5132886 C8.57544351,16.5132886 7.8967954,15.8909151 7.8967954,15.1260504 C7.8967954,14.3611857 8.57544351,13.7388122 9.40983607,13.7388122 C10.2442286,13.7388122 10.9228767,14.3611857 10.9228767,15.1260504 C10.922711,15.891067 10.2440629,16.5132886 9.40983607,16.5132886 Z" fill="url(#linearGradient-2)"></path>
                        <path d="M18.147541,11.4285714 C15.9238749,11.4285714 14.1147541,13.087424 14.1147541,15.1260504 C14.1147541,17.1649807 15.9237092,18.8235294 18.147541,18.8235294 C20.3712071,18.8235294 22.1803279,17.1648288 22.1803279,15.1260504 C22.1803279,13.087272 20.3712071,11.4285714 18.147541,11.4285714 Z M18.147541,16.5132886 C17.3131484,16.5132886 16.6345003,15.8909151 16.6345003,15.1260504 C16.6345003,14.3611857 17.3131484,13.7388122 18.147541,13.7388122 C18.9819335,13.7388122 19.6605817,14.3611857 19.6605817,15.1260504 C19.6605817,15.891067 18.9819335,16.5132886 18.147541,16.5132886 Z" fill="url(#linearGradient-2)"></path>
                        <path d="M27.5572942,11.4285714 C25.3336738,11.4285714 23.5245902,13.087272 23.5245902,15.1260504 C23.5245902,17.1649807 25.3338395,18.8235294 27.5572942,18.8235294 C29.7810803,18.8235294 31.5901639,17.1648288 31.5901639,15.1260504 C31.5901639,13.087272 29.7810803,11.4285714 27.5572942,11.4285714 Z M27.5572942,16.5132886 C26.7229188,16.5132886 26.0442846,15.8909151 26.0442846,15.1260504 C26.0442846,14.3611857 26.7229188,13.7388122 27.5572942,13.7388122 C28.3916696,13.7388122 29.0704695,14.3611857 29.0704695,15.1260504 C29.0704695,15.891067 28.3916696,16.5132886 27.5572942,16.5132886 Z" fill="url(#linearGradient-2)"></path>
                        <path d="M41.1228148,0 C40.4479988,0 39.9013673,0.538482523 39.9013673,1.2025319 L39.9013673,7.60470164 L6.4426375,7.60470164 C2.89073762,7.60470164 0.00128505784,10.4494076 0.00128505784,13.9461438 L0.00128505784,21.9906457 C0.00112442561,21.9990274 0,22.0070928 0,22.0154745 C0,22.0238561 0.00112442561,22.0319215 0.00128505784,22.0403032 L0.00128505784,63.2377744 C0.00128505784,66.7345107 2.89073762,69.5792166 6.4426375,69.5792166 L39.9013673,69.5792166 L39.9013673,78.7974681 C39.9013673,79.4616756 40.4481594,80 41.1228148,80 C41.7976308,80 42.3442623,79.4615175 42.3442623,78.7974681 L42.3442623,1.2025319 C42.3442623,0.538482523 41.7976308,0 41.1228148,0 Z M39.9013673,20.8131007 L15.5416502,20.8131007 C14.8668342,20.8131007 14.3202027,21.3515832 14.3202027,22.0156326 C14.3202027,22.6798401 14.8669948,23.2181645 15.5416502,23.2181645 L39.9013673,23.2181645 L39.9013673,67.1741528 L6.4426375,67.1741528 L6.4426375,67.1741528 C4.23796014,67.1741528 2.44418002,65.4081516 2.44418002,63.2376163 L2.44418002,23.2180063 L11.1565509,23.2180063 C11.8313669,23.2180063 12.3779984,22.6795238 12.3779984,22.0154745 C12.3779984,21.3512669 11.8312063,20.8129426 11.1565509,20.8129426 L2.44418002,20.8129426 L2.44418002,13.946302 C2.44418002,11.7757667 4.23796014,10.0099236 6.4426375,10.0099236 L39.9013673,10.0099236 L39.9013673,20.8131007 Z" fill="url(#linearGradient-3)"></path>
                        <path d="M82,13.7235304 C82,10.2338906 79.1071992,7.39495798 75.5516957,7.39495798 L44.9112666,7.39495798 C44.2357354,7.39495798 43.6885246,7.93234767 43.6885246,8.59504938 C43.6885246,9.2579089 44.2358962,9.79514077 44.9112666,9.79514077 L63.185503,9.79514077 L63.185503,16.650213 L44.9112666,16.650213 C44.2357354,16.650213 43.6885246,17.1876027 43.6885246,17.8503044 C43.6885246,18.513164 44.2358962,19.0503958 44.9112666,19.0503958 L64.408245,19.0503958 C65.0837762,19.0503958 65.630987,18.5130061 65.630987,17.8503044 L65.630987,9.79529859 L68.5656322,9.79529859 L68.5656322,16.2502878 C68.5656322,16.9131473 69.1130038,17.4503792 69.7883742,17.4503792 L79.5540693,17.4503792 L79.5540693,20.576551 L44.9112666,20.576551 C44.2357354,20.576551 43.6885246,21.1139407 43.6885246,21.7766424 C43.6885246,22.4395019 44.2358962,22.9767338 44.9112666,22.9767338 L56.203138,22.9767338 L56.203138,23.9939075 L51.6632017,28.4495861 C51.1225838,28.1809702 50.5216649,28.0376663 49.8980729,28.0376663 C48.8526961,28.0376663 47.8697105,28.4372759 47.1303408,29.1629492 C45.6044861,30.6606961 45.6044861,33.0976518 47.1303408,34.5955565 C47.8935093,35.34443 48.8956303,35.7189456 49.8980729,35.7189456 C50.9003548,35.7189456 51.9027974,35.3445878 52.6659659,34.5955565 C53.8898336,33.3942025 54.1295901,31.5894886 53.3903811,30.1490317 L58.2906757,25.3395123 C58.51998,25.1144557 58.6487828,24.8092247 58.6487828,24.4908943 L58.6487828,22.9767338 L60.4139116,22.9767338 L60.4139116,37.0052087 C58.8530019,37.5104024 57.7227214,38.9544892 57.7227214,40.6537769 C57.7227214,42.7720866 59.4785236,44.4952057 61.6366536,44.4952057 C63.7949444,44.4952057 65.5507466,42.7719288 65.5507466,40.6537769 C65.5507466,38.954647 64.420466,37.5105602 62.8593956,37.0052087 L62.8593956,22.9765759 L65.019616,22.9765759 L65.019616,32.0915257 C65.019616,32.4098561 65.1484188,32.7150872 65.3777231,32.9401438 L70.2780178,37.7496631 C69.5388088,39.19012 69.7784045,40.9946761 71.0024329,42.1961879 C71.7656014,42.9450614 72.7677225,43.319577 73.7701651,43.319577 C74.7726077,43.319577 75.7748895,42.9452192 76.5380581,42.1961879 C78.0639128,40.6982832 78.0639128,38.2613275 76.5380581,36.7635806 C75.7988491,36.0379073 74.8158636,35.6382977 73.7701651,35.6382977 C73.1467339,35.6382977 72.5458151,35.7814438 72.0051971,36.0502175 L67.4652609,31.5945389 L67.4652609,22.9765759 L79.5542301,22.9765759 L79.5542301,25.2909026 L70.9297502,25.2909026 C70.254219,25.2909026 69.7070082,25.8282923 69.7070082,26.490994 C69.7070082,27.1538536 70.2543798,27.6910854 70.9297502,27.6910854 L79.5542301,27.6910854 L79.5542301,30.0065169 L74.190342,30.0065169 C73.5148108,30.0065169 72.9675999,30.5439066 72.9675999,31.2066083 C72.9675999,31.8694678 73.5149716,32.4066997 74.190342,32.4066997 L79.5542301,32.4066997 L79.5542301,62.9151251 C79.5542301,65.0812553 77.7587097,66.8435147 75.5516957,66.8435147 L74.9927463,66.8435147 L74.9927463,52.8145663 C76.5536559,52.3093726 77.6839365,50.8652858 77.6839365,49.1661559 C77.6839365,47.048004 75.9281343,45.3247271 73.7700043,45.3247271 C71.6117135,45.3247271 69.8559113,47.048004 69.8559113,49.1661559 C69.8559113,50.8652858 70.9861919,52.3095304 72.5472623,52.8145663 L72.5472623,66.8435147 L44.9112666,66.8435147 C44.2357354,66.8435147 43.6885246,67.3809044 43.6885246,68.0436061 C43.6885246,68.7064656 44.2358962,69.2436975 44.9112666,69.2436975 L75.5516957,69.2436975 C79.1071992,69.2436975 82,66.4047648 82,62.9151251 L82,16.296688 L82,16.296688 C82,16.2810634 82,13.7235304 82,13.7235304 Z M50.9365353,32.8983205 C50.3640785,33.460015 49.4325498,33.4604885 48.8599322,32.8983205 C48.2873146,32.3363103 48.2873146,31.4218798 48.8599322,30.8600274 C49.1373164,30.5877816 49.5060365,30.437849 49.8980729,30.437849 C50.2902702,30.437849 50.6591511,30.5877816 50.9363745,30.8600274 C51.5091529,31.4220376 51.5091529,32.3363103 50.9365353,32.8983205 Z M63.1052626,40.6536191 C63.1052626,41.4482614 62.4464548,42.0948651 61.6366536,42.0948651 C60.8268523,42.0948651 60.1682054,41.4482614 60.1682054,40.6536191 C60.1682054,39.8589768 60.8268523,39.2123731 61.6366536,39.2123731 C62.4464548,39.2123731 63.1052626,39.8589768 63.1052626,40.6536191 Z M72.7318635,38.4606589 C73.0092478,38.188413 73.3779679,38.0384805 73.7700043,38.0384805 C74.1622015,38.0384805 74.5310824,38.188413 74.8083059,38.4606589 C75.3809235,39.022669 75.3809235,39.9369417 74.8083059,40.4989519 C74.2358491,41.0606464 73.3043203,41.0611199 72.7317027,40.4989519 C72.1592459,39.9369417 72.1592459,39.0225112 72.7318635,38.4606589 Z M73.7701651,50.607244 C72.9603638,50.607244 72.3015561,49.9606404 72.3015561,49.165998 C72.3015561,48.3713557 72.9603638,47.724752 73.7701651,47.724752 C74.5799664,47.724752 75.2386133,48.3713557 75.2386133,49.165998 C75.2386133,49.9607982 74.5799664,50.607244 73.7701651,50.607244 Z M79.5543909,15.0500386 L71.011277,15.0500386 L71.011277,9.79529859 L75.5518565,9.79529859 C77.7588705,9.79529859 79.5543909,11.557558 79.5543909,13.7236882 L79.5543909,15.0500386 Z" fill="url(#linearGradient-4)"></path>
                        <path d="M66.6756685,56.0232145 C64.9517728,56.0232145 63.4863414,57.155584 62.9737366,58.7193785 L59.6956926,58.7193785 L59.6956926,56.3510523 C59.6956926,55.6744337 59.1505796,55.1260504 58.4779961,55.1260504 C57.8052524,55.1260504 57.2602996,55.6745948 57.2602996,56.3510523 L57.2602996,58.7193785 L54.9872875,58.7193785 L54.9872875,56.3510523 C54.9872875,55.6744337 54.4421746,55.1260504 53.769591,55.1260504 C53.0970075,55.1260504 52.5518945,55.6745948 52.5518945,56.3510523 L52.5518945,58.7193785 L50.4412633,58.7193785 L50.4412633,56.3510523 C50.4412633,55.6744337 49.8961504,55.1260504 49.2235668,55.1260504 C48.5509833,55.1260504 48.0058704,55.6745948 48.0058704,56.3510523 L48.0058704,58.7193785 L44.9062211,58.7193785 C44.2334774,58.7193785 43.6885246,59.2679228 43.6885246,59.9443803 C43.6885246,60.6209989 44.2336375,61.1693822 44.9062211,61.1693822 L62.9740569,61.1693822 C63.4866616,62.7331767 64.9519329,63.8655462 66.6759887,63.8655462 C68.8252134,63.8655462 70.5737705,62.106499 70.5737705,59.9443803 C70.5737705,57.7821006 68.8248931,56.0232145 66.6756685,56.0232145 Z M66.6755083,61.4153814 C65.8690486,61.4153814 65.2131195,60.7553561 65.2131195,59.9442192 C65.2131195,59.1330824 65.8690486,58.4730571 66.6755083,58.4730571 C67.481968,58.4730571 68.1378971,59.1330824 68.1378971,59.9442192 C68.1378971,60.7553561 67.481968,61.4153814 66.6755083,61.4153814 Z" fill="url(#linearGradient-5)"></path>
                        <path d="M61.3460394,46.6657873 C59.6430448,46.6657873 58.1953807,47.7903109 57.6888328,49.3432703 L51.0005648,49.3432703 L51.0005648,44.5671244 C52.5363448,44.0550174 53.648314,42.5911688 53.648314,40.868787 C53.648314,38.7216492 51.920957,36.9747899 49.7976321,36.9747899 C47.6744653,36.9747899 45.9471083,38.7218092 45.9471083,40.868787 C45.9471083,42.5911688 47.0589194,44.0551774 48.5946993,44.5671244 L48.5946993,49.3434302 L44.8914573,49.3434302 L44.8914573,49.3432703 C44.2268702,49.3432703 43.6885246,49.8880139 43.6885246,50.5597844 C43.6885246,51.2315549 44.2270284,51.7762985 44.8914573,51.7762985 L57.6888328,51.7762985 C58.1953807,53.3294178 59.6427284,54.4537815 61.3460394,54.4537815 C63.4693643,54.4537815 65.1967213,52.7069222 65.1967213,50.5597844 C65.1967213,48.4126465 63.4693643,46.6657873 61.3460394,46.6657873 Z M49.7977903,42.3297559 C49.0011083,42.3297559 48.353132,41.6743037 48.353132,40.868787 C48.353132,40.0631104 49.0011083,39.4078182 49.7977903,39.4078182 C50.5944722,39.4078182 51.2426067,40.0632704 51.2426067,40.868787 C51.2426067,41.6743037 50.5944722,42.3297559 49.7977903,42.3297559 Z M61.3460394,52.0207532 C60.5493575,52.0207532 59.9013811,51.3653011 59.9013811,50.5597844 C59.9013811,49.7542677 60.5493575,49.0988155 61.3460394,49.0988155 C62.1427213,49.0988155 62.7908559,49.7542677 62.7908559,50.5597844 C62.7908559,51.3653011 62.1427213,52.0207532 61.3460394,52.0207532 Z" fill="url(#linearGradient-6)"></path>
                        <path d="M59.2982736,12.1008403 L44.8820543,12.1008403 C44.2226621,12.1008403 43.6885246,12.7029118 43.6885246,13.4453782 C43.6885246,14.1878445 44.2228191,14.789916 44.8820543,14.789916 L59.2982736,14.789916 C59.9576658,14.789916 60.4918033,14.1878445 60.4918033,13.4453782 C60.4918033,12.702735 59.9575088,12.1008403 59.2982736,12.1008403 Z" fill="url(#linearGradient-7)"></path>
                    </g>
                </g>
            </g>
        </g>
    </g>
</svg>