<?xml version="1.0" encoding="UTF-8"?>
<svg width="122px" height="119px" viewBox="0 0 122 119" version="1.1" xmlns="http://www.w3.org/2000/svg" xmlns:xlink="http://www.w3.org/1999/xlink">
    <title>Shape</title>
    <defs>
        <linearGradient x1="-2.22044605e-14%" y1="50%" x2="50%" y2="50%" id="linearGradient-1">
            <stop stop-color="#F13C5B" offset="0%"></stop>
            <stop stop-color="#F45D77" offset="100%"></stop>
        </linearGradient>
        <linearGradient x1="-2.22044605e-14%" y1="50%" x2="50%" y2="50%" id="linearGradient-2">
            <stop stop-color="#F13C5B" offset="0%"></stop>
            <stop stop-color="#F45D77" offset="100%"></stop>
        </linearGradient>
        <linearGradient x1="-2.22044605e-14%" y1="50%" x2="50%" y2="50%" id="linearGradient-3">
            <stop stop-color="#F13C5B" offset="0%"></stop>
            <stop stop-color="#F45D77" offset="100%"></stop>
        </linearGradient>
        <linearGradient x1="-2.22044605e-14%" y1="50%" x2="50%" y2="50%" id="linearGradient-4">
            <stop stop-color="#F13C5B" offset="0%"></stop>
            <stop stop-color="#F45D77" offset="100%"></stop>
        </linearGradient>
        <linearGradient x1="-2.22044605e-14%" y1="50%" x2="50%" y2="50%" id="linearGradient-5">
            <stop stop-color="#F13C5B" offset="0%"></stop>
            <stop stop-color="#F45D77" offset="100%"></stop>
        </linearGradient>
        <linearGradient x1="-2.22044605e-14%" y1="50%" x2="50%" y2="50%" id="linearGradient-6">
            <stop stop-color="#F13C5B" offset="0%"></stop>
            <stop stop-color="#F45D77" offset="100%"></stop>
        </linearGradient>
    </defs>
    <g id="Shape" stroke="none" stroke-width="1" fill="none" fill-rule="evenodd">
        <path d="M14,17 C10.6916187,17 8,19.4673172 8,22.5 C8,25.5329088 10.6916187,28 14,28 C17.3083813,28 20,25.5326828 20,22.5 C19.9997535,19.4673172 17.3083813,17 14,17 Z M14,24.5635168 C12.7585867,24.5635168 11.7488907,23.6377362 11.7488907,22.5 C11.7488907,21.3622638 12.7585867,20.4364832 14,20.4364832 C15.2414133,20.4364832 16.2511093,21.3622638 16.2511093,22.5 C16.2508628,23.6379622 15.2411668,24.5635168 14,24.5635168 Z" fill="url(#linearGradient-1)" fill-rule="nonzero"></path>
        <path d="M27,17 C23.6916187,17 21,19.4675431 21,22.5 C21,25.5329088 23.6913722,28 27,28 C30.3083813,28 33,25.5326828 33,22.5 C33,19.4673172 30.3083813,17 27,17 Z M27,24.5635168 C25.7585867,24.5635168 24.7488907,23.6377362 24.7488907,22.5 C24.7488907,21.3622638 25.7585867,20.4364832 27,20.4364832 C28.2414133,20.4364832 29.2511093,21.3622638 29.2511093,22.5 C29.2511093,23.6379622 28.2414133,24.5635168 27,24.5635168 Z" fill="url(#linearGradient-1)" fill-rule="nonzero"></path>
        <path d="M40.9998767,17 C37.6915634,17 35,19.4673172 35,22.5 C35,25.5329088 37.6918099,28 40.9998767,28 C44.3084366,28 47,25.5326828 47,22.5 C47,19.4673172 44.3084366,17 40.9998767,17 Z M40.9998767,24.5635168 C39.7584889,24.5635168 38.7488137,23.6377362 38.7488137,22.5 C38.7488137,21.3622638 39.7584889,20.4364832 40.9998767,20.4364832 C42.2412646,20.4364832 43.2511863,21.3622638 43.2511863,22.5 C43.2511863,23.6379622 42.2412646,24.5635168 40.9998767,24.5635168 Z" fill="url(#linearGradient-1)" fill-rule="nonzero"></path>
        <path d="M61.1827245,0 C60.1787299,0 59.365449,0.800992753 59.365449,1.7887662 L59.365449,11.3119937 L9.5853875,11.3119937 C4.30085353,11.3119937 0.00191191533,15.5434937 0.00191191533,20.744889 L0.00191191533,32.7110855 C0.00167292591,32.7235533 0,32.7355505 0,32.7480182 C0,32.760486 0.00167292591,32.7724832 0.00191191533,32.784951 L0.00191191533,94.0661895 C0.00191191533,99.2675847 4.30085353,103.499085 9.5853875,103.499085 L59.365449,103.499085 L59.365449,117.211234 C59.365449,118.199242 60.1789689,119 61.1827245,119 C62.186719,119 63,118.199007 63,117.211234 L63,1.7887662 C63,0.800992753 62.186719,0 61.1827245,0 Z M59.365449,30.9594873 L23.122943,30.9594873 C22.1189484,30.9594873 21.3056675,31.76048 21.3056675,32.7482535 C21.3056675,33.7362622 22.1191874,34.5370197 23.122943,34.5370197 L59.365449,34.5370197 L59.365449,99.9215523 L9.5853875,99.9215523 L9.5853875,99.9215523 C6.30525777,99.9215523 3.63646296,97.2946255 3.63646296,94.0659542 L3.63646296,34.5367844 L16.5987709,34.5367844 C17.6027654,34.5367844 18.4160464,33.7357917 18.4160464,32.7480182 C18.4160464,31.7600096 17.6025265,30.9592521 16.5987709,30.9592521 L3.63646296,30.9592521 L3.63646296,20.7451242 C3.63646296,17.516453 6.30525777,14.8897613 9.5853875,14.8897613 L59.365449,14.8897613 L59.365449,30.9594873 Z" fill="url(#linearGradient-2)" fill-rule="nonzero"></path>
        <path d="M122,20.4137515 C122,15.2229123 117.696077,11 112.406181,11 L66.8192015,11 C65.8141429,11 65,11.7993672 65,12.7851359 C65,13.7711395 65.8143822,14.5702719 66.8192015,14.5702719 L94.0076996,14.5702719 L94.0076996,24.7671919 L66.8192015,24.7671919 C65.8141429,24.7671919 65,25.5665591 65,26.5523279 C65,27.5383314 65.8143822,28.3374638 66.8192015,28.3374638 L95.8269011,28.3374638 C96.8319597,28.3374638 97.6461027,27.5380966 97.6461027,26.5523279 L97.6461027,14.5705067 L102.012282,14.5705067 L102.012282,24.1723031 C102.012282,25.1583066 102.826664,25.957439 103.831484,25.957439 L118.360932,25.957439 L118.360932,30.6076196 L66.8192015,30.6076196 C65.8141429,30.6076196 65,31.4069867 65,32.3927555 C65,33.3787591 65.8143822,34.1778915 66.8192015,34.1778915 L83.6193028,34.1778915 L83.6193028,35.6909374 L76.8647635,42.3187593 C76.0604295,41.9191931 75.1663795,41.7060286 74.2385963,41.7060286 C72.6832795,41.7060286 71.2207888,42.3004478 70.1207509,43.379887 C67.8505768,45.6077854 67.8505768,49.2327571 70.1207509,51.4608903 C71.2561968,52.5748396 72.7471573,53.1319316 74.2385963,53.1319316 C75.7297961,53.1319316 77.2212351,52.5750743 78.356681,51.4608903 C80.1775573,49.6738763 80.5342681,46.9893642 79.4344694,44.8466846 L86.7251516,37.6925246 C87.0663117,37.3577529 87.2579451,36.9037218 87.2579451,36.4302053 L87.2579451,34.1778915 L89.8841123,34.1778915 L89.8841123,55.045248 C87.5617834,55.7967235 85.8801464,57.9448027 85.8801464,60.4724932 C85.8801464,63.6234788 88.4924375,66.1866185 91.7033139,66.1866185 C94.9144295,66.1866185 97.5267206,63.6232441 97.5267206,60.4724932 C97.5267206,57.9450374 95.8450836,55.7969583 93.5225154,55.045248 L93.5225154,34.1776567 L96.7365019,34.1776567 L96.7365019,47.7361445 C96.7365019,48.209661 96.9281353,48.6636922 97.2692954,48.9984638 L104.559978,56.1526239 C103.460179,58.2953035 103.816651,60.9795807 105.637766,62.7668296 C106.773212,63.8807788 108.264172,64.4378708 109.755611,64.4378708 C111.247051,64.4378708 112.73825,63.8810136 113.873696,62.7668296 C116.14387,60.5386963 116.14387,56.9137247 113.873696,54.6858262 C112.773897,53.6063871 111.311407,53.0119678 109.755611,53.0119678 C108.828068,53.0119678 107.934018,53.2248976 107.129684,53.6246986 L100.375144,46.9968766 L100.375144,34.1776567 L118.361172,34.1776567 L118.361172,37.6202177 L105.529628,37.6202177 C104.52457,37.6202177 103.710427,38.4195848 103.710427,39.4053536 C103.710427,40.3913572 104.524809,41.1904896 105.529628,41.1904896 L118.361172,41.1904896 L118.361172,44.6346939 L110.380753,44.6346939 C109.375694,44.6346939 108.561551,45.434061 108.561551,46.4198298 C108.561551,47.4058333 109.375933,48.2049657 110.380753,48.2049657 L118.361172,48.2049657 L118.361172,93.5862485 C118.361172,96.8083673 115.689788,99.4297281 112.406181,99.4297281 L111.574574,99.4297281 L111.574574,78.5616673 C113.896903,77.8101918 115.57854,75.6621126 115.57854,73.1346569 C115.57854,69.983906 112.966249,67.4205315 109.755372,67.4205315 C106.544257,67.4205315 103.931966,69.983906 103.931966,73.1346569 C103.931966,75.6621126 105.613603,77.8104265 107.936171,78.5616673 L107.936171,99.4297281 L66.8192015,99.4297281 C65.8141429,99.4297281 65,100.229095 65,101.214864 C65,102.200868 65.8143822,103 66.8192015,103 L112.406181,103 C117.696077,103 122,98.7770877 122,93.5862485 L122,24.2413233 L122,24.2413233 C122,24.2180818 122,20.4137515 122,20.4137515 Z M75.7836257,48.9362517 C74.9319217,49.7717723 73.5459887,49.7724766 72.6940454,48.9362517 C71.8421021,48.1002616 71.8421021,46.7400462 72.6940454,45.9042908 C73.1067391,45.4993251 73.6553226,45.2763004 74.2385963,45.2763004 C74.8221093,45.2763004 75.3709321,45.4993251 75.7833865,45.9042908 C76.635569,46.7402809 76.635569,48.1002616 75.7836257,48.9362517 Z M93.8883175,60.4722584 C93.8883175,61.6542889 92.9081401,62.6161119 91.7033139,62.6161119 C90.4984876,62.6161119 89.5185495,61.6542889 89.5185495,60.4722584 C89.5185495,59.290228 90.4984876,58.328405 91.7033139,58.328405 C92.9081401,58.328405 93.8883175,59.290228 93.8883175,60.4722584 Z M108.210821,57.21023 C108.623515,56.8052643 109.172099,56.5822397 109.755372,56.5822397 C110.338885,56.5822397 110.887708,56.8052643 111.300162,57.21023 C112.152106,58.0462202 112.152106,59.4062008 111.300162,60.2421909 C110.448458,61.0777116 109.062525,61.0784159 108.210582,60.2421909 C107.358878,59.4062008 107.358878,58.0459854 108.210821,57.21023 Z M109.755611,75.2782755 C108.550785,75.2782755 107.570608,74.3164525 107.570608,73.1344221 C107.570608,71.9523916 108.550785,70.9905687 109.755611,70.9905687 C110.960438,70.9905687 111.940376,71.9523916 111.940376,73.1344221 C111.940376,74.3166873 110.960438,75.2782755 109.755611,75.2782755 Z M118.361411,22.3869324 L105.650924,22.3869324 L105.650924,14.5705067 L112.406421,14.5705067 C115.690027,14.5705067 118.361411,17.1918675 118.361411,20.4139862 L118.361411,22.3869324 Z" fill="url(#linearGradient-3)" fill-rule="nonzero"></path>
        <path d="M99.2003848,83.3345315 C96.6355644,83.3345315 94.4552884,85.0189312 93.6926325,87.3450755 L88.8155426,87.3450755 L88.8155426,83.8221903 C88.8155426,82.8157201 88.0045209,82 87.0038478,82 C86.0029365,82 85.1921531,82.8159597 85.1921531,83.8221903 L85.1921531,87.3450755 L81.8103546,87.3450755 L81.8103546,83.8221903 C81.8103546,82.8157201 80.9993329,82 79.9986598,82 C78.9979867,82 78.186965,82.8159597 78.186965,83.8221903 L78.186965,87.3450755 L75.0467576,87.3450755 L75.0467576,83.8221903 C75.0467576,82.8157201 74.2357359,82 73.2350629,82 C72.2343898,82 71.4233681,82.8159597 71.4233681,83.8221903 L71.4233681,87.3450755 L66.8116948,87.3450755 C65.8107834,87.3450755 65,88.1610352 65,89.1672658 C65,90.1737359 65.8110217,90.989456 66.8116948,90.989456 L93.6931091,90.989456 C94.4557649,93.3156003 96.6358027,95 99.2008613,95 C102.398488,95 105,92.3834172 105,89.1672658 C105,85.9508747 102.398012,83.3345315 99.2003848,83.3345315 Z M99.2001465,91.3553798 C98.0002919,91.3553798 97.0243974,90.3735921 97.0243974,89.1670261 C97.0243974,87.9604601 98.0002919,86.9786724 99.2001465,86.9786724 C100.400001,86.9786724 101.375896,87.9604601 101.375896,89.1670261 C101.375896,90.3735921 100.400001,91.3553798 99.2001465,91.3553798 Z" fill="url(#linearGradient-4)" fill-rule="nonzero"></path>
        <path d="M91.2709366,69.4153586 C88.737213,69.4153586 86.5833713,71.0880875 85.8297268,73.3981145 L75.8788891,73.3981145 L75.8788891,66.2935975 C78.16383,65.5318384 79.8182233,63.3543636 79.8182233,60.7923207 C79.8182233,57.5984532 77.2482531,55 74.0891599,55 C70.930302,55 68.3603319,57.5986911 68.3603319,60.7923207 C68.3603319,63.3543636 70.0144898,65.5320763 72.2994307,66.2935975 L72.2994307,73.3983525 L66.7897292,73.3983525 L66.7897292,73.3981145 C65.8009532,73.3981145 65,74.2084207 65,75.2076793 C65,76.2069379 65.8011886,77.0172441 66.7897292,77.0172441 L85.8297268,77.0172441 C86.5833713,79.327509 88.7367422,81 91.2709366,81 C94.4300299,81 97,78.4015468 97,75.2076793 C97,72.0138117 94.4300299,69.4153586 91.2709366,69.4153586 Z M74.0893953,62.9655119 C72.904088,62.9655119 71.9400256,61.9905267 71.9400256,60.7923207 C71.9400256,59.5938767 72.904088,58.6191296 74.0893953,58.6191296 C75.2747025,58.6191296 76.2390003,59.5941147 76.2390003,60.7923207 C76.2390003,61.9905267 75.2747025,62.9655119 74.0893953,62.9655119 Z M91.2709366,77.3808704 C90.0856294,77.3808704 89.121567,76.4058853 89.121567,75.2076793 C89.121567,74.0094733 90.0856294,73.0344881 91.2709366,73.0344881 C92.4562438,73.0344881 93.4205416,74.0094733 93.4205416,75.2076793 C93.4205416,76.4058853 92.4562438,77.3808704 91.2709366,77.3808704 Z" fill="url(#linearGradient-5)" fill-rule="nonzero"></path>
        <path d="M88.2242607,18 L66.7757393,18 C65.7946924,18 65,18.8955813 65,20 C65,21.1044187 65.7949259,22 66.7757393,22 L88.2242607,22 C89.2053076,22 90,21.1044187 90,20 C90,18.8953183 89.2050741,18 88.2242607,18 Z" fill="url(#linearGradient-6)" fill-rule="nonzero"></path>
    </g>
</svg>