<?xml version="1.0" encoding="UTF-8"?>
<svg width="142px" height="129px" viewBox="0 0 142 129" version="1.1" xmlns="http://www.w3.org/2000/svg" xmlns:xlink="http://www.w3.org/1999/xlink">
    <!-- Generator: Sketch 51.2 (57519) - http://www.bohemiancoding.com/sketch -->
    <title>technology icon</title>
    <desc>Created with Sketch.</desc>
    <defs>
        <filter x="-17.1%" y="-12.4%" width="134.2%" height="124.8%" filterUnits="objectBoundingBox" id="filter-1">
            <feOffset dx="0" dy="0" in="SourceAlpha" result="shadowOffsetOuter1"></feOffset>
            <feGaussianBlur stdDeviation="15" in="shadowOffsetOuter1" result="shadowBlurOuter1"></feGaussianBlur>
            <feColorMatrix values="0 0 0 0 0.215686275   0 0 0 0 0.215686275   0 0 0 0 0.215686275  0 0 0 0.1 0" type="matrix" in="shadowBlurOuter1" result="shadowMatrixOuter1"></feColorMatrix>
            <feMerge>
                <feMergeNode in="shadowMatrixOuter1"></feMergeNode>
                <feMergeNode in="SourceGraphic"></feMergeNode>
            </feMerge>
        </filter>
        <linearGradient x1="-2.22044605e-14%" y1="50%" x2="50%" y2="50%" id="linearGradient-2">
            <stop stop-color="#F13C5B" offset="0%"></stop>
            <stop stop-color="#F45D77" offset="100%"></stop>
        </linearGradient>
    </defs>
    <g id="Main" stroke="none" stroke-width="1" fill="none" fill-rule="evenodd">
        <g transform="translate(-600.000000, -1249.000000)" fill="url(#linearGradient-2)" fill-rule="nonzero" id="Technology">
            <g filter="url(#filter-1)" transform="translate(540.000000, 1219.000000)">
                <g id="technology-icon" transform="translate(90.000000, 54.000000)">
                    <g id="Shape">
                        <path d="M9.45,11.475 C7.21684265,11.475 5.4,13.1404391 5.4,15.1875 C5.4,17.2347134 7.21684265,18.9 9.45,18.9 C11.6831574,18.9 13.5,17.2345609 13.5,15.1875 C13.4998336,13.1404391 11.6831574,11.475 9.45,11.475 Z M9.45,16.5803739 C8.61204601,16.5803739 7.93050123,15.955472 7.93050123,15.1875 C7.93050123,14.419528 8.61204601,13.7946261 9.45,13.7946261 C10.287954,13.7946261 10.9694988,14.419528 10.9694988,15.1875 C10.9693324,15.9556245 10.2877876,16.5803739 9.45,16.5803739 Z"></path>
                        <path d="M18.225,11.475 C15.9918426,11.475 14.175,13.1405916 14.175,15.1875 C14.175,17.2347134 15.9916763,18.9 18.225,18.9 C20.4581574,18.9 22.275,17.2345609 22.275,15.1875 C22.275,13.1404391 20.4581574,11.475 18.225,11.475 Z M18.225,16.5803739 C17.387046,16.5803739 16.7055012,15.955472 16.7055012,15.1875 C16.7055012,14.419528 17.387046,13.7946261 18.225,13.7946261 C19.062954,13.7946261 19.7444988,14.419528 19.7444988,15.1875 C19.7444988,15.9556245 19.062954,16.5803739 18.225,16.5803739 Z"></path>
                        <path d="M27.6749168,11.475 C25.4418053,11.475 23.625,13.1404391 23.625,15.1875 C23.625,17.2347134 25.4419717,18.9 27.6749168,18.9 C29.9081947,18.9 31.725,17.2345609 31.725,15.1875 C31.725,13.1404391 29.9081947,11.475 27.6749168,11.475 Z M27.6749168,16.5803739 C26.83698,16.5803739 26.1554493,15.955472 26.1554493,15.1875 C26.1554493,14.419528 26.83698,13.7946261 27.6749168,13.7946261 C28.5128536,13.7946261 29.1945507,14.419528 29.1945507,15.1875 C29.1945507,15.9556245 28.5128536,16.5803739 27.6749168,16.5803739 Z"></path>
                        <path d="M41.298339,0 C40.6206427,0 40.071678,0.540670108 40.071678,1.20741718 L40.071678,7.63559574 L6.47013657,7.63559574 C2.90307614,7.63559574 0.00129054285,10.4918583 0.00129054285,14.0028 L0.00129054285,22.0799827 C0.00112922499,22.0883985 0,22.0964966 0,22.1049123 C0,22.113328 0.00112922499,22.1214262 0.00129054285,22.1298419 L0.00129054285,63.4946779 C0.00129054285,67.0056197 2.90307614,69.8618822 6.47013657,69.8618822 L40.071678,69.8618822 L40.071678,79.1175828 C40.071678,79.7844887 40.620804,80.325 41.298339,80.325 C41.9760353,80.325 42.525,79.7843299 42.525,79.1175828 L42.525,1.20741718 C42.525,0.540670108 41.9760353,0 41.298339,0 Z M40.071678,20.8976539 L15.6079865,20.8976539 C14.9302902,20.8976539 14.3813255,21.438324 14.3813255,22.1050711 C14.3813255,22.771977 14.9304515,23.3124883 15.6079865,23.3124883 L40.071678,23.3124883 L40.071678,67.4470478 L6.47013657,67.4470478 L6.47013657,67.446889 C4.25604899,67.446889 2.4546125,65.6738722 2.4546125,63.4945191 L2.4546125,23.3123295 L11.2041704,23.3123295 C11.8818667,23.3123295 12.4308313,22.7716594 12.4308313,22.1049123 C12.4308313,21.4380065 11.8817054,20.8974951 11.2041704,20.8974951 L2.4546125,20.8974951 L2.4546125,14.0029588 C2.4546125,11.8236058 4.25604899,10.0505889 6.47013657,10.0505889 L40.071678,10.0505889 L40.071678,20.8976539 Z"></path>
                        <path d="M82.3497129,13.7792823 C82.3497129,10.2754658 79.4448519,7.425 75.8741725,7.425 L45.102961,7.425 C44.4245465,7.425 43.875,7.96457283 43.875,8.62996676 C43.875,9.29551916 44.424708,9.83493353 45.102961,9.83493353 L63.4551972,9.83493353 L63.4551972,16.7178545 L45.102961,16.7178545 C44.4245465,16.7178545 43.875,17.2574274 43.875,17.9228213 C43.875,18.5883737 44.424708,19.1277881 45.102961,19.1277881 L64.6831583,19.1277881 C65.3615728,19.1277881 65.9111193,18.5882152 65.9111193,17.9228213 L65.9111193,9.83509199 L68.8582904,9.83509199 L68.8582904,16.3163046 C68.8582904,16.981857 69.4079984,17.5212714 70.0862514,17.5212714 L79.8936293,17.5212714 L79.8936293,20.6601432 L45.102961,20.6601432 C44.4245465,20.6601432 43.875,21.1997161 43.875,21.86511 C43.875,22.5306624 44.424708,23.0700767 45.102961,23.0700767 L56.4430294,23.0700767 L56.4430294,24.0913827 L51.8837154,28.5651625 C51.3407899,28.2954554 50.7373062,28.1515693 50.1110525,28.1515693 C49.0612137,28.1515693 48.0740325,28.5528023 47.3315068,29.2814237 C45.7991394,30.7852552 45.7991394,33.232111 47.3315068,34.736101 C48.0979328,35.4880167 49.1043312,35.8640538 50.1110525,35.8640538 C51.1176124,35.8640538 52.1243337,35.4881752 52.8907597,34.736101 C54.1198512,33.5298665 54.360631,31.7178209 53.6182669,30.2715121 L58.5394774,25.4424541 C58.7697604,25.2164832 58.899113,24.9100122 58.899113,24.5903886 L58.899113,23.0700767 L60.6717758,23.0700767 L60.6717758,37.1555424 C59.1042038,37.6627884 57.9690988,39.1127418 57.9690988,40.8189329 C57.9690988,42.9458482 59.7323953,44.6759675 61.8997369,44.6759675 C64.0672399,44.6759675 65.8305364,42.9456897 65.8305364,40.8189329 C65.8305364,39.1129003 64.6954314,37.6629468 63.1276979,37.1555424 L63.1276979,23.0699183 L65.2971388,23.0699183 L65.2971388,32.2218976 C65.2971388,32.5415212 65.4264913,32.8479922 65.6567744,33.0739631 L70.5779849,37.9030211 C69.8356208,39.3493298 70.0762391,41.161217 71.3054921,42.3676099 C72.071918,43.1195257 73.0783164,43.4955628 74.0850377,43.4955628 C75.0917591,43.4955628 76.0983189,43.1196842 76.8647449,42.3676099 C78.3971124,40.86362 78.3971124,38.4167642 76.8647449,36.9129327 C76.1223808,36.1843113 75.1351996,35.7830783 74.0850377,35.7830783 C73.4589456,35.7830783 72.8554618,35.9268059 72.3125364,36.1966715 L67.7532223,31.7228917 L67.7532223,23.0699183 L79.8937908,23.0699183 L79.8937908,25.3936469 L71.2324991,25.3936469 C70.5540846,25.3936469 70.0045381,25.9332198 70.0045381,26.5986137 C70.0045381,27.2641661 70.554246,27.8035805 71.2324991,27.8035805 L79.8937908,27.8035805 L79.8937908,30.1284183 L74.5070081,30.1284183 C73.8285935,30.1284183 73.279047,30.6679912 73.279047,31.3333851 C73.279047,31.9989375 73.828755,32.5383519 74.5070081,32.5383519 L79.8937908,32.5383519 L79.8937908,63.1707177 C79.8937908,65.3456479 78.0906066,67.1150665 75.8741725,67.1150665 L75.3128373,67.1150665 L75.3128373,53.0291254 C76.8804093,52.5218794 78.0155143,51.071926 78.0155143,49.3658934 C78.0155143,47.2391365 76.2522178,45.5088588 74.0848763,45.5088588 C71.9173732,45.5088588 70.1540767,47.2391365 70.1540767,49.3658934 C70.1540767,51.071926 71.2891817,52.5220379 72.8569152,53.0291254 L72.8569152,67.1150665 L45.102961,67.1150665 C44.4245465,67.1150665 43.875,67.6546393 43.875,68.3200332 C43.875,68.9855856 44.424708,69.525 45.102961,69.525 L75.8741725,69.525 C79.4448519,69.525 82.3497129,66.6745342 82.3497129,63.1707177 L82.3497129,16.3628933 C82.3503589,16.3472052 82.3497129,13.7792823 82.3497129,13.7792823 Z M51.1539474,33.0319699 C50.5790471,33.5959463 49.6435424,33.5964217 49.0684807,33.0319699 C48.4934189,32.4676766 48.4934189,31.5495312 49.0684807,30.9853963 C49.3470489,30.7120444 49.7173428,30.5615028 50.1110525,30.5615028 C50.5049238,30.5615028 50.8753791,30.7120444 51.1537859,30.9853963 C51.7290091,31.5496896 51.7290091,32.4676766 51.1539474,33.0319699 Z M63.3746143,40.8187744 C63.3746143,41.616645 62.7129946,42.2658755 61.8997369,42.2658755 C61.0864791,42.2658755 60.4250209,41.616645 60.4250209,40.8187744 C60.4250209,40.0209039 61.0864791,39.3716734 61.8997369,39.3716734 C62.7129946,39.3716734 63.3746143,40.0209039 63.3746143,40.8187744 Z M73.0423044,38.6169053 C73.3208726,38.3435534 73.6911665,38.1930118 74.0848763,38.1930118 C74.4787475,38.1930118 74.8492029,38.3435534 75.1276096,38.6169053 C75.7026713,39.1811986 75.7026713,40.0991855 75.1276096,40.6634789 C74.5527094,41.2274553 73.6172046,41.2279307 73.0421429,40.6634789 C72.4672427,40.0991855 72.4672427,39.1810402 73.0423044,38.6169053 Z M74.0850377,50.812836 C73.27178,50.812836 72.6101603,50.1636055 72.6101603,49.3657349 C72.6101603,48.5678644 73.27178,47.9186338 74.0850377,47.9186338 C74.8982955,47.9186338 75.5597537,48.5678644 75.5597537,49.3657349 C75.5597537,50.1637639 74.8982955,50.812836 74.0850377,50.812836 Z M79.8939523,15.1111794 L71.314374,15.1111794 L71.314374,9.83509199 L75.8743339,9.83509199 C78.0907681,9.83509199 79.8939523,11.6045106 79.8939523,13.7794407 L79.8939523,15.1111794 Z"></path>
                        <path d="M66.9602597,56.2508088 C65.229006,56.2508088 63.7573197,57.3877786 63.242527,58.957926 L59.9504913,58.957926 L59.9504913,56.5799784 C59.9504913,55.9006111 59.4030516,55.35 58.7275973,55.35 C58.0519821,55.35 57.5047033,55.9007728 57.5047033,56.5799784 L57.5047033,58.957926 L55.2219893,58.957926 L55.2219893,56.5799784 C55.2219893,55.9006111 54.6745497,55.35 53.9990954,55.35 C53.3236411,55.35 52.7762014,55.9007728 52.7762014,56.5799784 L52.7762014,58.957926 L50.6565614,58.957926 L50.6565614,56.5799784 C50.6565614,55.9006111 50.1091218,55.35 49.4336674,55.35 C48.7582131,55.35 48.2107735,55.9007728 48.2107735,56.5799784 L48.2107735,58.957926 L45.097894,58.957926 C44.4222788,58.957926 43.875,59.5086988 43.875,60.1879044 C43.875,60.8672717 44.4224396,61.4178828 45.097894,61.4178828 L63.2428486,61.4178828 C63.7576413,62.9880302 65.2291668,64.125 66.9605814,64.125 C69.1189796,64.125 70.875,62.3588066 70.875,60.1879044 C70.8748392,58.0168404 69.1186579,56.2508088 66.9602597,56.2508088 Z M66.9600989,61.6648814 C66.150197,61.6648814 65.4914682,61.0021747 65.4914682,60.1877426 C65.4914682,59.3733106 66.150197,58.7106039 66.9600989,58.7106039 C67.7700008,58.7106039 68.4287296,59.3733106 68.4287296,60.1877426 C68.4287296,61.0021747 67.7700008,61.6648814 66.9600989,61.6648814 Z"></path>
                        <path d="M61.6078822,46.855367 C59.8976187,46.855367 58.4437757,47.9844591 57.9350656,49.5437273 L51.2182501,49.5437273 L51.2182501,44.7481783 C52.7605853,44.2339909 53.8773007,42.7641955 53.8773007,41.0348165 C53.8773007,38.8789559 52.1425709,37.125 50.0101829,37.125 C47.8779539,37.125 46.143224,38.8791165 46.143224,41.0348165 C46.143224,42.7641955 47.2597806,44.2341515 48.8021157,44.7481783 L48.8021157,49.5438879 L45.0830672,49.5438879 L45.0830672,49.5437273 C44.4156434,49.5437273 43.875,50.090684 43.875,50.7651835 C43.875,51.4396831 44.4158023,51.9866397 45.0830672,51.9866397 L57.9350656,51.9866397 C58.4437757,53.5460686 59.897301,54.675 61.6078822,54.675 C63.7402702,54.675 65.475,52.9210441 65.475,50.7651835 C65.475,48.6093229 63.7402702,46.855367 61.6078822,46.855367 Z M50.0103418,42.5017205 C49.2102594,42.5017205 48.5595173,41.8436056 48.5595173,41.0348165 C48.5595173,40.2258668 49.2102594,39.5679125 50.0103418,39.5679125 C50.8104242,39.5679125 51.4613252,40.2260274 51.4613252,41.0348165 C51.4613252,41.8436056 50.8104242,42.5017205 50.0103418,42.5017205 Z M61.6078822,52.2320875 C60.8077998,52.2320875 60.1570577,51.5739726 60.1570577,50.7651835 C60.1570577,49.9563944 60.8077998,49.2982795 61.6078822,49.2982795 C62.4079646,49.2982795 63.0588656,49.9563944 63.0588656,50.7651835 C63.0588656,51.5739726 62.4079646,52.2320875 61.6078822,52.2320875 Z"></path>
                        <path d="M59.5513759,12.15 L45.0736241,12.15 C44.4114174,12.15 43.875,12.7545174 43.875,13.5 C43.875,14.2454826 44.411575,14.85 45.0736241,14.85 L59.5513759,14.85 C60.2135826,14.85 60.75,14.2454826 60.75,13.5 C60.75,12.7543398 60.213425,12.15 59.5513759,12.15 Z"></path>
                    </g>
                </g>
            </g>
        </g>
    </g>
</svg>