<?xml version="1.0" encoding="UTF-8"?>
<svg width="27px" height="15px" viewBox="0 0 27 15" version="1.1" xmlns="http://www.w3.org/2000/svg" xmlns:xlink="http://www.w3.org/1999/xlink">
    <!-- Generator: Sketch 51.2 (57519) - http://www.bohemiancoding.com/sketch -->
    <title>Tell more ARROW@2x</title>
    <desc>Created with Sketch.</desc>
    <defs></defs>
    <g id="Main" stroke="none" stroke-width="1" fill="none" fill-rule="evenodd">
        <g transform="translate(-943.000000, -922.000000)" fill="#FFFFFF" fill-rule="nonzero" id="Down-Arrow-Circle">
            <g transform="translate(919.000000, 880.000000)">
                <path d="M50.6995968,54.7247314 C50.6995968,54.5037273 50.6104198,54.3082238 50.4320657,54.1382207 L37.9651198,42.2550046 C37.7867657,42.0850015 37.5816586,42 37.3497984,42 C37.1179382,42 36.912831,42.0850015 36.734477,42.2550046 L24.267531,54.1382207 C24.089177,54.3082238 24,54.5037273 24,54.7247314 C24,54.9457354 24.089177,55.1412389 24.267531,55.311242 L25.6051862,56.5862652 C25.7835402,56.7562683 25.9886473,56.8412698 26.2205075,56.8412698 C26.4523678,56.8412698 26.6574749,56.7562683 26.8358289,56.5862652 L37.3497984,46.564583 L47.8637679,56.5862652 C48.0421219,56.7562683 48.247229,56.8412698 48.4790892,56.8412698 C48.7109495,56.8412698 48.9160566,56.7562683 49.0944106,56.5862652 L50.4320657,55.311242 C50.6104198,55.1412389 50.6995968,54.9457354 50.6995968,54.7247314 Z" id="Tell-more-ARROW" transform="translate(37.349798, 49.420635) scale(1, -1) translate(-37.349798, -49.420635) "></path>
            </g>
        </g>
    </g>
</svg>