<?xml version="1.0" encoding="UTF-8"?>
<svg width="68px" height="59px" viewBox="0 0 68 59" version="1.1" xmlns="http://www.w3.org/2000/svg" xmlns:xlink="http://www.w3.org/1999/xlink">
    <!-- Generator: Sketch 64 (93537) - https://sketch.com -->
    <title>INSTA COMMENT</title>
    <desc>Created with Sketch.</desc>
    <defs>
        <polygon id="path-1" points="0 0 68 0 68 59 0 59"></polygon>
    </defs>
    <g id="Desktop" stroke="none" stroke-width="1" fill="none" fill-rule="evenodd">
        <g id="Main" transform="translate(-1388.000000, -297.000000)">
            <g id="EMOJIS" transform="translate(333.000000, 297.000000)">
                <g id="INSTA-COMMENT" transform="translate(1055.000000, 0.000000)">
                    <mask id="mask-2" fill="white">
                        <use xlink:href="#path-1"></use>
                    </mask>
                    <g id="Clip-2"></g>
                    <path d="M67.9879122,13.7434719 C67.9693931,5.87263743 62.0925961,0.0154304383 54.2219728,0.00648962125 C47.5118157,-0.0008962711 40.8014636,0.00493469654 34.0913065,0.00454596537 C27.3485947,0.00415723419 20.6058829,-0.0123638408 13.863561,0.0200952124 C12.7066038,0.0255374489 11.5204058,0.112807598 10.3995121,0.378894088 C4.31861495,1.82225294 0.0350465143,7.25399367 0.0136033302,13.4999318 C-0.00686516376,19.4146711 -0.00277146497,25.3296046 0.0161375247,31.2443438 C0.0219856658,32.9864426 0.0237401081,34.7367047 0.185733617,36.4685021 C0.725127167,42.2466023 5.88533196,47.4989436 11.689807,48.0274236 C14.5203073,48.284958 17.3858964,48.1448204 20.2327715,48.2536652 C20.7583245,48.2738792 21.3836857,48.4987602 21.7720023,48.843176 C25.1378024,51.8288258 28.4622757,54.8607346 31.7941566,57.8844801 C33.4454768,59.3828444 34.6115961,59.3707937 36.2820201,57.854159 C39.6129264,54.8296361 42.9424681,51.8031695 46.3072935,48.8163536 C46.673972,48.4907912 47.2626849,48.2694088 47.7556831,48.2554145 C49.861014,48.1949668 51.9690739,48.2392821 54.0761591,48.2299526 C62.0711529,48.1941893 67.9652994,42.3435907 67.9863527,34.3967593 C68.0046769,27.5123302 68.0038971,20.6279011 67.9879122,13.7434719" id="Fill-1" fill="#FF005B" mask="url(#mask-2)"></path>
                    <path d="M33.5512919,15.8951612 C31.6296174,14.8807012 29.3114913,15.1219107 27.8361096,16.7273978 C27.528598,17.0620271 26.6509959,17.9289276 26.3383238,18.2534349 C26.0246024,17.9289276 25.1590186,17.0783784 24.8739011,16.7273978 C23.7473732,15.3406386 21.0465056,14.8807012 19.1248311,15.8951612 C17.9129643,16.5351895 17.1265625,17.6979244 16.7037207,18.9130797 C15.4771646,22.4332358 17.0541652,26.3727552 19.7559461,29.1310679 C21.6010264,31.0147083 23.9019994,32.445037 26.3383238,33.6801619 C28.7735989,32.445037 31.0745719,31.0147083 32.9201768,29.1310679 C35.6214331,26.3727552 37.1989584,22.4332358 35.9724023,18.9130797 C35.5490359,17.6979244 34.762634,16.5351895 33.5512919,15.8951612 Z" id="Fill-4" fill="#FFFFFF" mask="url(#mask-2)"></path>
                    <text id="1" mask="url(#mask-2)" font-family="ArialMT, Arial" font-size="21.6" font-weight="normal" fill="#FFFFFF">
                        <tspan x="40.4647887" y="32.3620108">1</tspan>
                    </text>
                </g>
            </g>
        </g>
    </g>
</svg>