<?xml version="1.0" encoding="UTF-8"?>
<svg width="52px" height="52px" viewBox="0 0 52 52" version="1.1" xmlns="http://www.w3.org/2000/svg" xmlns:xlink="http://www.w3.org/1999/xlink">
    <!-- Generator: Sketch 64 (93537) - https://sketch.com -->
    <title>LIKE GREEN</title>
    <desc>Created with Sketch.</desc>
    <defs>
        <polygon id="path-1" points="-5.36459765e-13 52.3368537 52.3368537 52.3368537 52.3368537 4.97379915e-14 -5.36459765e-13 4.97379915e-14"></polygon>
    </defs>
    <g id="Desktop" stroke="none" stroke-width="1" fill="none" fill-rule="evenodd">
        <g id="Main" transform="translate(-333.000000, -1467.000000)">
            <g id="EMOJIS" transform="translate(333.000000, 297.000000)">
                <g id="LIKE-GREEN" transform="translate(0.000000, 1170.000000)">
                    <path d="M52,26 C52,40.3608161 40.3595317,52 26,52 C11.6404683,52 0,40.3608161 0,26 C0,11.6404683 11.6404683,0 26,0 C40.3595317,0 52,11.6404683 52,26" id="Fill-1" fill="#7BCC34"></path>
                    <path d="M41.6754512,20.5690415 C41.6754512,19.0281634 40.4280122,17.7807244 38.8884268,17.7807244 L29.5487927,17.7807244 C29.5785244,17.7070415 31.2900366,13.5019439 31.2900366,9.82943171 C31.2900366,6.12460244 26.8548415,6.56152927 26.8548415,8.6867 C26.8548415,10.810578 25.6112805,14.492139 23.1176951,15.9321878 C20.6254024,17.3709439 19.767061,21.1623829 19.767061,21.1623829 L19.767061,22.5649439 L19.767061,23.3560659 L19.767061,27.0699439 L19.767061,28.1389927 L19.767061,31.2983098 L19.767061,32.6439927 L19.767061,36.8736512 L36.2358415,36.8736512 C37.7754268,36.8736512 39.0241585,35.6262122 39.0241585,34.0866268 C39.0241585,33.4402854 38.8018171,32.8469439 38.4321098,32.3725293 C39.3731829,31.9265537 40.0259878,30.9699683 40.0259878,29.8569683 C40.0259878,29.1227244 39.7390122,28.4557 39.274939,27.9580171 C40.3297683,27.5611634 41.0834024,26.5451146 41.0834024,25.3519683 C41.0834024,24.4457976 40.649061,23.6443341 39.9794512,23.1337244 C40.9761098,22.7097244 41.6754512,21.720822 41.6754512,20.5690415 Z" id="Fill-3" fill="#FFFFFF"></path>
                    <mask id="mask-2" fill="white">
                        <use xlink:href="#path-1"></use>
                    </mask>
                    <g id="Clip-6"></g>
                    <polygon id="Fill-5" fill="#FFFFFF" mask="url(#mask-2)" points="10.6607561 36.8737805 18.6585854 36.8737805 18.6585854 20.5691707 10.6607561 20.5691707"></polygon>
                </g>
            </g>
        </g>
    </g>
</svg>