<?xml version="1.0" encoding="UTF-8"?>
<svg width="41px" height="41px" viewBox="0 0 41 41" version="1.1" xmlns="http://www.w3.org/2000/svg" xmlns:xlink="http://www.w3.org/1999/xlink">
    <!-- Generator: Sketch 64 (93537) - https://sketch.com -->
    <title>LIKE BLUE</title>
    <desc>Created with Sketch.</desc>
    <defs>
        <polygon id="path-1" points="-4.156675e-13 40.4866 40.487 40.4866 40.487 -0.0004 -4.156675e-13 -0.0004"></polygon>
    </defs>
    <g id="Desktop" stroke="none" stroke-width="1" fill="none" fill-rule="evenodd">
        <g id="Main" transform="translate(-483.000000, -356.000000)">
            <g id="EMOJIS" transform="translate(333.000000, 297.000000)">
                <g id="LIKE-BLUE" transform="translate(150.000000, 59.000000)">
                    <path d="M40.4861,20.2431 C40.4861,31.4241 31.4231,40.4861 20.2431,40.4861 C9.0631,40.4861 0.0001,31.4241 0.0001,20.2431 C0.0001,9.0631 9.0631,0.0001 20.2431,0.0001 C31.4231,0.0001 40.4861,9.0631 40.4861,20.2431" id="Fill-1" fill="#3488CC"></path>
                    <path d="M32.2395,15.9115 C32.2395,14.7195 31.2745,13.7545 30.0835,13.7545 L22.8585,13.7545 C22.8815,13.6975 24.2055,10.4445 24.2055,7.6035 C24.2055,4.7375 20.7745,5.0755 20.7745,6.7195 C20.7745,8.3625 19.8125,11.2105 17.8835,12.3245 C15.9555,13.4375 15.2915,16.3705 15.2915,16.3705 L15.2915,17.4555 L15.2915,18.0675 L15.2915,20.9405 L15.2915,21.7675 L15.2915,24.2115 L15.2915,25.2525 L15.2915,28.5245 L28.0315,28.5245 C29.2225,28.5245 30.1885,27.5595 30.1885,26.3685 C30.1885,25.8685 30.0165,25.4095 29.7305,25.0425 C30.4585,24.6975 30.9635,23.9575 30.9635,23.0965 C30.9635,22.5285 30.7415,22.0125 30.3825,21.6275 C31.1985,21.3205 31.7815,20.5345 31.7815,19.6115 C31.7815,18.9105 31.4455,18.2905 30.9275,17.8955 C31.6985,17.5675 32.2395,16.8025 32.2395,15.9115 Z" id="Fill-3" fill="#FFFFFF"></path>
                    <mask id="mask-2" fill="white">
                        <use xlink:href="#path-1"></use>
                    </mask>
                    <g id="Clip-6"></g>
                    <polygon id="Fill-5" fill="#FFFFFF" mask="url(#mask-2)" points="8.247 28.5246 14.434 28.5246 14.434 15.9116 8.247 15.9116"></polygon>
                </g>
            </g>
        </g>
    </g>
</svg>