<?xml version="1.0" encoding="UTF-8"?>
<svg width="40px" height="40px" viewBox="0 0 40 40" version="1.1" xmlns="http://www.w3.org/2000/svg" xmlns:xlink="http://www.w3.org/1999/xlink">
    <!-- Generator: Sketch 64 (93537) - https://sketch.com -->
    <title>LOVE</title>
    <desc>Created with Sketch.</desc>
    <defs>
        <polygon id="path-1" points="0.0003125 0.478125 39.5221875 0.478125 39.5221875 39.9996875 0.0003125 39.9996875"></polygon>
    </defs>
    <g id="Desktop" stroke="none" stroke-width="1" fill="none" fill-rule="evenodd">
        <g id="Main" transform="translate(-1140.000000, -467.000000)">
            <g id="EMOJIS" transform="translate(333.000000, 297.000000)">
                <g id="LOVE" transform="translate(807.000000, 170.000000)">
                    <mask id="mask-2" fill="white">
                        <use xlink:href="#path-1"></use>
                    </mask>
                    <g id="Clip-2"></g>
                    <path d="M39.5221875,20.2390625 C39.5221875,31.1528125 30.6753125,39.9996875 19.7615625,39.9996875 C8.8471875,39.9996875 0.0003125,31.1528125 0.0003125,20.2390625 C0.0003125,9.3253125 8.8471875,0.4778125 19.7615625,0.4778125 C30.6753125,0.4778125 39.5221875,9.3253125 39.5221875,20.2390625" id="Fill-1" fill="#FF2842" mask="url(#mask-2)"></path>
                    <path d="M28.6074239,10.7599407 C26.3143334,9.49136332 23.548166,9.79299461 21.7876266,11.8006486 C21.4206799,12.2191011 20.3734573,13.303156 20.0003528,13.7089509 C19.6259962,13.303156 18.5931147,12.2395482 18.2528903,11.8006486 C16.9086302,10.0665129 13.6857461,9.49136332 11.3926556,10.7599407 C9.94656248,11.5602932 9.00816699,13.0142876 8.50359943,14.5338335 C7.03997791,18.9357721 8.92177701,23.8621225 12.1457509,27.3113794 C14.3474433,29.6668629 17.0931422,31.4554821 20.0003528,33 C22.9063113,31.4554821 25.6520102,29.6668629 27.8543287,27.3113794 C31.0776765,23.8621225 32.9601016,18.9357721 31.4964801,14.5338335 C30.9912865,13.0142876 30.052891,11.5602932 28.6074239,10.7599407 Z" id="Fill-4" fill="#FFFFFF" mask="url(#mask-2)"></path>
                </g>
            </g>
        </g>
    </g>
</svg>