<?xml version="1.0" encoding="UTF-8"?>
<svg width="52px" height="52px" viewBox="0 0 52 52" version="1.1" xmlns="http://www.w3.org/2000/svg" xmlns:xlink="http://www.w3.org/1999/xlink">
    <!-- Generator: Sketch 64 (93537) - https://sketch.com -->
    <title>OMG1</title>
    <desc>Created with Sketch.</desc>
    <g id="Desktop" stroke="none" stroke-width="1" fill="none" fill-rule="evenodd">
        <g id="Main" transform="translate(-766.000000, -476.000000)">
            <g id="EMOJIS" transform="translate(333.000000, 297.000000)">
                <g id="OMG1" transform="translate(433.000000, 179.000000)">
                    <path d="M52,25.9970605 C52,40.3580554 40.358538,52 25.9992651,52 C11.6370523,52 0,40.3580554 0,25.9970605 C0,11.6404748 11.6370523,0 25.9992651,0 C40.358538,0 52,11.6404748 52,25.9970605" id="Fill-1" fill="#FFDA60"></path>
                    <path d="M33,37.5022371 C33,43.3006889 30.0863585,48 26.5014656,48 C22.9092446,48 20,43.3006889 20,37.5022371 C20,31.6993111 22.9092446,27 26.5014656,27 C30.0863585,27 33,31.6993111 33,37.5022371" id="Fill-3" fill="#000000"></path>
                    <path d="M41.8994603,20.9069105 C42.389109,23.9331559 41.0433261,26.643594 38.8834647,26.9680933 C36.7311133,27.2925926 34.5892758,25.1051198 34.0996271,22.0832204 C33.6114804,19.0627696 34.9647732,16.3508829 37.1171247,16.0321782 C39.2679741,15.7062303 41.4098116,17.8937031 41.8994603,20.9069105" id="Fill-5" fill="#000000"></path>
                    <path d="M11.1004461,20.9069105 C10.6105651,23.9331559 11.9599918,26.643594 14.114867,26.9680933 C16.2742503,27.2925926 18.411093,25.1051198 18.8994713,22.0832204 C19.3893523,19.0627696 18.0414282,16.3508829 15.8880558,16.0321782 C13.7331806,15.7062303 11.590327,17.8937031 11.1004461,20.9069105" id="Fill-7" fill="#000000"></path>
                    <path d="M11.1661967,8.28551234 C11.1661967,8.28551234 10.2134384,10.6023284 12.8703172,9.84954137 C12.8703172,9.84954137 14.7154149,7.40155791 17.0996343,8.15719637 L18.5341939,9.47314788 C18.5341939,9.47314788 22.0090505,8.53358987 18.2584363,6.65019665 C18.2584363,6.65019665 14.6410533,4.39468714 11.1661967,8.28551234" id="Fill-9" fill="#000000"></path>
                    <path d="M41.8340373,8.28551234 C41.8340373,8.28551234 42.7867467,10.6023284 40.126906,9.84954137 C40.126906,9.84954137 38.2850012,7.40155791 35.8947075,8.15719637 L34.466418,9.47314788 C34.466418,9.47314788 30.9901906,8.53358987 34.7421615,6.65019665 C34.7421615,6.65019665 38.3516134,4.39468714 41.8340373,8.28551234" id="Fill-11" fill="#000000"></path>
                </g>
            </g>
        </g>
    </g>
</svg>