<?xml version="1.0" encoding="UTF-8"?>
<svg width="66px" height="66px" viewBox="0 0 66 66" version="1.1" xmlns="http://www.w3.org/2000/svg" xmlns:xlink="http://www.w3.org/1999/xlink">
    <!-- Generator: Sketch 64 (93537) - https://sketch.com -->
    <title>YOUTUBE</title>
    <desc>Created with Sketch.</desc>
    <g id="Desktop" stroke="none" stroke-width="1" fill="none" fill-rule="evenodd">
        <g id="Main" transform="translate(-1529.000000, -1538.000000)" fill-rule="nonzero">
            <g id="EMOJIS" transform="translate(333.000000, 297.000000)">
                <g id="YOUTUBE" transform="translate(1196.000000, 1241.000000)">
                    <path d="M33,0 C14.7773896,0 0,14.7773896 0,33 C0,51.2226104 14.7773896,66 33,66 C51.2226104,66 66,51.2226104 66,33 C66,14.7773896 51.2226104,0 33,0 Z" id="Path" fill="#C4302B"></path>
                    <path d="M25.9712859,46.3492856 L46.8530338,34.7483146 C47.8186013,34.2118882 48.1664889,32.9942816 47.6300625,32.0287141 C47.4486846,31.702234 47.1795139,31.4330633 46.8530338,31.2516854 L25.9712859,19.6507144 C25.0057184,19.114288 23.7881118,19.4621756 23.2516854,20.4277431 C23.086621,20.7248591 23,21.0591404 23,21.3990289 L23,44.6009711 C23,45.7055406 23.8954305,46.6009711 25,46.6009711 C25.3398885,46.6009711 25.6741699,46.5143501 25.9712859,46.3492856 Z" id="Path" fill="#FFFFFF"></path>
                </g>
            </g>
        </g>
    </g>
</svg>