<?xml version="1.0" encoding="UTF-8"?>
<svg width="40px" height="40px" viewBox="0 0 40 40" version="1.1" xmlns="http://www.w3.org/2000/svg" xmlns:xlink="http://www.w3.org/1999/xlink">
    <!-- Generator: Sketch 64 (93537) - https://sketch.com -->
    <title>RETWEET</title>
    <desc>Created with Sketch.</desc>
    <g id="Desktop" stroke="none" stroke-width="1" fill="none" fill-rule="evenodd">
        <g id="Main" transform="translate(-1302.000000, -1114.000000)" fill-rule="nonzero">
            <g id="EMOJIS" transform="translate(333.000000, 297.000000)">
                <g id="RETWEET" transform="translate(969.000000, 817.000000)">
                    <path d="M40,20 C40,31.0458374 31.0458374,40 20,40 C8.95416258,40 0,31.0458374 0,20 C0,8.95416258 8.95416258,0 20,0 C31.0458374,0 40,8.95416258 40,20 Z" id="Path" fill="#00ACEE"></path>
                    <g id="Group" transform="translate(7.000000, 12.000000)" fill="#FFFFFF">
                        <path d="M24.3085007,11.2519353 L22.9815384,12.5752308 L22.9815384,3.25269886 C22.9872814,2.4087358 22.6620396,1.61397374 22.0662667,1.01541193 C21.4689825,0.414737255 20.6722006,0.0839133909 19.8234282,0.0839133909 L7.01778737,0.0839133909 L9.2911551,2.40209521 L19.8234282,2.40209521 C20.0492234,2.40209521 20.2608119,2.48993251 20.4195033,2.64900568 C20.5760789,2.80656956 20.6616211,3.01544748 20.6601098,3.24485089 L20.6601098,12.5528942 L19.3319382,11.2320135 L17.6939406,12.8746626 L21.8356353,16.9933593 L25.9486143,12.8924716 L24.3085007,11.2519353 Z" id="Path"></path>
                        <path d="M6.17657176,14.5979048 C5.95077662,14.5979048 5.73888575,14.5103693 5.58049669,14.3509943 C5.42392113,14.1934304 5.33837889,13.9845525 5.33989021,13.7551491 L5.33989021,4.44740771 L6.66806176,5.76798649 L8.30605936,4.12533738 L4.16436475,0.00633875909 L0.0510835,4.10752841 L1.69149926,5.74806465 L3.01846164,4.4247692 L3.01846164,13.747603 C3.01302083,14.591566 3.3379604,15.3860263 3.9337333,15.9848899 C4.53131977,16.5855646 5.32779944,16.9160866 6.17657176,16.9160866 L18.9822126,16.9160866 L16.6084914,14.5979048 L6.17657176,14.5979048 Z" id="Path"></path>
                    </g>
                </g>
            </g>
        </g>
    </g>
</svg>