<?xml version="1.0" encoding="UTF-8"?>
<svg width="53px" height="53px" viewBox="0 0 53 53" version="1.1" xmlns="http://www.w3.org/2000/svg" xmlns:xlink="http://www.w3.org/1999/xlink">
    <!-- Generator: Sketch 64 (93537) - https://sketch.com -->
    <title>TIKTOK</title>
    <desc>Created with Sketch.</desc>
    <g id="Desktop" stroke="none" stroke-width="1" fill="none" fill-rule="evenodd">
        <g id="Main" transform="translate(-557.000000, -964.000000)">
            <g id="EMOJIS" transform="translate(333.000000, 297.000000)">
                <g id="TIKTOK" transform="translate(224.000000, 667.000000)">
                    <path d="M26.5,53 L26.5,53 C11.8642876,53 0,41.1356277 0,26.5001893 L0,26.4998107 C0,11.8643723 11.8642876,0 26.5,0 C41.1357124,0 53,11.8643723 53,26.4998107 L53,26.5001893 C53,41.1356277 41.1357124,53 26.5,53" id="Fill-1" fill="#000000"></path>
                    <path d="M41,17.9740384 C36.6969524,17.9740384 33.209219,14.4040572 33.209219,10 L27.3657651,10 L27.3657651,33.1464583 C27.3657651,35.8378894 25.2339429,38.0197539 22.6046095,38.0197539 C19.9749079,38.0197539 17.843454,35.8378894 17.843454,33.1464583 C17.843454,30.4554041 19.9749079,28.2739164 22.6046095,28.2739164 C23.0977016,28.2739164 23.6559746,28.3504268 24.1034032,28.4928944 L24.1034032,22.4007095 C23.6136254,22.3298526 23.1135365,22.2932934 22.6046095,22.2932934 C16.7478984,22.2932934 12,27.1526438 12,33.1464583 C12,39.1410265 16.7478984,44 22.6046095,44 C28.4613206,44 33.209219,39.1410265 33.209219,33.1464583 L33.209219,20.8957544 C35.3333079,22.6690611 38.0451302,23.7330451 41,23.7330451 L41,17.9740384 Z" id="Fill-3" fill="#FF0F53"></path>
                    <path d="M40,15.9740384 C35.697266,15.9740384 32.2091201,12.4040572 32.2091201,8 L26.3659602,8 L26.3659602,31.1464583 C26.3659602,33.8378894 24.2337427,36.0197539 21.6043759,36.0197539 C18.9746409,36.0197539 16.8431599,33.8378894 16.8431599,31.1464583 C16.8431599,28.4554041 18.9746409,26.2735395 21.6043759,26.2735395 C22.0974743,26.2735395 22.6561226,26.3504268 23.1031886,26.4928944 L23.1031886,20.4007095 C22.6137729,20.3298526 22.1133094,20.2929165 21.6043759,20.2929165 C15.7479587,20.2929165 11,25.1526438 11,31.1464583 C11,37.1406496 15.7479587,42 21.6043759,42 C27.4611614,42 32.2091201,37.1406496 32.2091201,31.1464583 L32.2091201,18.8957544 C34.333236,20.6690611 37.0454609,21.7330451 40,21.7330451 L40,15.9740384 Z" id="Fill-5" fill="#00F1EA"></path>
                    <path d="M40,17.9594237 C38.0716181,17.5332322 36.4030436,16.3959517 35.2710525,14.8286298 C33.7359639,13.6728694 32.6220726,11.9692586 32.2046462,10 L27.7339977,10 L27.7339977,33.643808 C27.7339977,36.3930701 25.5514645,38.6218165 22.8587435,38.6218165 C21.0777995,38.6218165 19.5204633,37.6462346 18.6697731,36.1905617 C17.2440374,35.322009 16.2885193,33.7319722 16.2885193,31.9136324 C16.2885193,29.1643703 18.4710525,26.9356239 21.1637735,26.9356239 C21.6686822,26.9356239 22.2407111,27.0141632 22.698485,27.159692 L22.698485,22.5593653 C16.7757053,22.6471446 12,27.5758735 12,33.643808 C12,36.2644811 12.8910376,38.6722511 14.3804996,40.5699003 C16.2387449,42.0902526 18.5969968,43 21.1637735,43 C27.1608377,43 32.022517,38.0362364 32.022517,31.9136324 L32.022517,19.3993117 C34.1975086,21.2107216 36.9746953,22.2975675 40,22.2975675 L40,17.9594237 Z" id="Fill-7" fill="#FFFFFF"></path>
                </g>
            </g>
        </g>
    </g>
</svg>