<?xml version="1.0" encoding="UTF-8"?>
<svg width="80px" height="80px" viewBox="0 0 80 80" version="1.1" xmlns="http://www.w3.org/2000/svg" xmlns:xlink="http://www.w3.org/1999/xlink">
    <!-- Generator: Sketch 50.2 (55047) - http://www.bohemiancoding.com/sketch -->
    <title>ASP.NET@2x</title>
    <desc>Created with Sketch.</desc>
    <defs></defs>
    <g id="Main" stroke="none" stroke-width="1" fill="none" fill-rule="evenodd">
        <g transform="translate(-453.000000, -3602.000000)" id="Webtech-Icons">
            <g transform="translate(0.000000, 3188.000000)">
                <g id="ASP.NET" transform="translate(453.000000, 414.000000)">
                    <g>
                        <circle id="Oval-2" fill="#3080BF" cx="40" cy="40" r="40"></circle>
                        <path d="M42,52.4678878 C39.8242745,52.379843 38.1810235,51.7624681 37.2535578,50.3325346 C36.1231407,48.5870185 35.1607587,46.6728382 34.5257174,44.7066796 C33.4345813,41.3386981 32.6527822,37.8747159 31.7329545,34.4536954 C31.6238409,34.0421121 31.4601704,33.6443191 31.2343053,32.9951207 C30.651093,33.4984616 30.1546261,33.8400333 29.7678183,34.2738929 C26.5364186,37.9022962 24.7971476,42.2721859 23.4763273,46.7858114 C22.2471624,50.9870368 18.8111747,52.6466295 15.0647588,52.9765326 C14.4739086,53.0295717 13.8601445,53.0767765 14.0281795,52.1130564 C15.154232,45.6216037 17.0833607,39.4367168 21.1713022,34.0569631 C22.6557929,32.1024731 24.3786969,30.3850677 26.6815397,29.3264077 C27.5724524,28.916946 28.463365,28.7557072 29.3259082,29.6759352 C21.762698,34.1031071 20.1401786,41.6325346 18.1417627,48.9641264 L18.5580311,49.1662052 C18.7347952,48.7477269 18.9175605,48.3319005 19.0877777,47.9113007 C20.9525294,43.3064479 22.8521974,38.7079598 25.9357482,34.7162388 C26.9248631,33.4364059 28.1998557,32.3623645 29.3695536,31.218842 C30.0678807,30.5362291 30.7291092,30.5685829 31.1497422,31.5063138 C32.2954352,34.059615 33.480409,36.5980653 34.5229896,39.1911458 C35.6026688,41.8749232 36.4804878,44.6350768 37.5438,47.3252188 C38.3577876,49.3948037 39.5422158,51.241094 42,52.4678878 Z" id="Shape" fill="#FFFFFF" fill-rule="nonzero"></path>
                        <path d="M67.8618189,28.1235625 L59.4194267,45.7157335 L59.7122053,45.910878 C59.9583697,45.5720265 60.2359594,45.2527956 60.445461,44.8916722 C63.4533807,39.6800413 66.4827744,34.4806069 69.4273199,29.2323863 C70.051111,28.11879 70.7508465,27.7513032 72,28.1649247 C71.8952492,28.4454449 71.8428738,28.6983904 71.7161253,28.9073222 C68.2692996,34.7187044 64.8654218,40.5566007 61.3285104,46.3112424 C60.4512223,47.7382366 59.2078301,48.9626623 58.0000532,50.1436047 C57.272035,50.8547155 56.3240401,51.3722727 55.4100892,51.8405135 C54.5123747,52.2992091 53.8775847,51.6851403 53.2831238,51.0530418 C52.5886259,50.3148865 53.3517356,49.9617173 53.6623218,49.5327176 C55.9144644,46.4241929 57.2788438,42.8946227 58.5997516,39.3183876 C59.5509,36.7441842 60.6464563,34.2270713 61.881071,31.7793403 C63.0432813,29.4752564 65.0953498,28.340979 67.8618189,28.1235625 Z" id="Shape" fill="#FFFFFF" fill-rule="nonzero"></path>
                        <path d="M31,30.1168949 C34.1938575,28.2161861 36.9421989,28.7110075 38.6100421,31.8349657 C39.9633715,34.3706599 40.850073,37.1442081 41.9256992,39.8237828 C43.1972876,42.9880913 44.3806388,46.1890335 45.7399229,49.3161773 C46.3689504,50.7629458 45.8573919,52.0010612 44.2003753,51.9999993 C43.496644,51.9999993 42.6337612,51.5922495 42.119496,51.0974281 C39.34084,48.4088278 37.842975,44.9955158 36.7489435,41.3969113 C35.5536829,37.4627627 33.9567542,33.7372673 31.23169,30.5570311 C31.125589,30.4290784 31.0747038,30.2597135 31,30.1168949 Z" id="Shape" fill="#FFFFFF" fill-rule="nonzero"></path>
                        <path d="M64,28 C61.5394213,28.891782 60.01654,30.6043328 58.994088,32.6827561 C57.8836426,34.9402563 57.0247613,37.3089075 56.0104069,39.6106623 C54.9782378,41.9515258 53.9012623,44.2743786 52.8183485,46.594144 C52.6067323,47.0474965 52.2785111,47.450934 51.9254575,48 C51.127038,46.9996398 50.7739844,46.1145474 51.1518705,44.9870838 C52.4366835,41.1564864 53.6529371,37.3042762 54.9415289,33.474708 C56.0212036,30.265219 58.6178214,28.8434107 61.8962538,28.2840529 C62.5931838,28.1662121 63.2987513,28.0936551 64,28 Z" id="Shape" fill="#FFFFFF" fill-rule="nonzero"></path>
                        <path d="M46.791888,48 C45.8369676,45.2116413 44.882385,42.4232826 43.9281402,39.6349239 C43.2339905,37.5932694 42.6280028,35.5176817 41.8507578,33.5099606 C41.1414077,31.6811606 40.1280503,30.0297393 38,29.0117399 C40.9726837,28.8718935 43.0890804,29.9808959 44.1115579,32.3680532 C45.3012394,35.1444153 46.057204,38.1202641 46.9530118,41.0246473 C47.3016067,42.1557578 47.4348632,43.3531925 47.8143655,44.4693929 C48.2612561,45.78508 47.8939141,46.8627198 46.791888,48 Z" id="Shape" fill="#FFFFFF" fill-rule="nonzero"></path>
                        <path d="M9,52.9583538 C10.9500272,43.3060131 18.3764259,30.629567 24,29 C18.0336773,33.4030112 15.0412819,39.700805 13.1629549,46.6654114 C12.7474199,48.2071122 12.302553,49.7644456 12.1548072,51.3411851 C12.0249864,52.711466 11.4551874,53.1324689 10.1912004,52.9653615 C9.84410646,52.9195417 9.48506247,52.9583538 9,52.9583538 Z" id="Shape" fill="#FFFFFF" fill-rule="nonzero"></path>
                        <path d="M50,49.0992709 C49.9410555,49.7330342 49.8818826,50.3666106 49.8224812,51 C49.5359836,50.9685923 49,50.9366237 49,50.9068985 C49.0047978,50.2714526 49.0685401,49.6371284 49.1220014,49 L50,49.0992709 Z" id="Shape" fill="#FFFFFF" fill-rule="nonzero"></path>
                    </g>
                </g>
            </g>
        </g>
    </g>
</svg>