<?xml version="1.0" encoding="UTF-8"?>
<svg width="80px" height="80px" viewBox="0 0 80 80" version="1.1" xmlns="http://www.w3.org/2000/svg" xmlns:xlink="http://www.w3.org/1999/xlink">
    <!-- Generator: Sketch 50.2 (55047) - http://www.bohemiancoding.com/sketch -->
    <title>Bootstrap@2x</title>
    <desc>Created with Sketch.</desc>
    <defs></defs>
    <g id="Main" stroke="none" stroke-width="1" fill="none" fill-rule="evenodd">
        <g transform="translate(-713.000000, -3472.000000)" id="Webtech-Icons">
            <g transform="translate(0.000000, 3188.000000)">
                <g id="Bootstrap" transform="translate(713.000000, 284.000000)">
                    <g>
                        <circle id="Oval-2" fill="#563D7C" cx="40" cy="40" r="40"></circle>
                        <path d="M23.5294118,18.2352941 L44.684462,18.2352941 C48.586258,18.2352941 51.719888,19.1253913 54.0731587,20.9177789 C56.4264294,22.7101664 57.6091613,25.4048443 57.6091613,29.0261987 C57.6091613,31.220959 57.0726644,33.0986983 55.9996705,34.6594167 C54.9266766,36.2201351 53.3903444,37.4394464 51.3906739,38.2929642 L51.3906739,38.4148954 C54.0731587,38.9879717 56.1094085,40.2560554 57.4872302,42.2191465 C58.8650519,44.1944307 59.5600593,46.6574394 59.5600593,49.6325589 C59.5600593,51.3395947 59.2552315,52.9368924 58.6455759,54.412259 C58.0359203,55.8998188 57.0848575,57.1800956 55.7801944,58.2530895 C54.4755314,59.3260834 52.8172681,60.1796013 50.7810183,60.8136431 C48.7447685,61.447685 46.3305322,61.7647059 43.5261163,61.7647059 L23.5294118,61.7647059 L23.5294118,18.2352941 Z M31.1501071,36.4639974 L43.5870819,36.4639974 C45.4160488,36.4639974 46.9401878,35.9518866 48.1594991,34.903279 C49.3788103,33.8546713 49.988466,32.3671116 49.988466,30.4162135 C49.988466,28.2214533 49.4397759,26.672928 48.3423958,25.7828308 C47.2450157,24.8927336 45.659911,24.4415884 43.5870819,24.4415884 L31.1501071,24.4415884 L31.1501071,36.4639974 Z M31.1501071,55.5462185 L44.6234965,55.5462185 C46.9401878,55.5462185 48.7447685,54.948756 50.0128522,53.7416378 C51.293129,52.5467128 51.939364,50.839677 51.939364,48.6449168 C51.939364,46.4867359 51.3053221,44.8406657 50.0128522,43.6701269 C48.7203823,42.4995881 46.9401878,41.9387049 44.6234965,41.9387049 L31.1501071,41.9387049 L31.1501071,55.5462185 Z" id="Shape" fill="#FFFFFF" fill-rule="nonzero"></path>
                    </g>
                </g>
            </g>
        </g>
    </g>
</svg>