<?xml version="1.0" encoding="UTF-8"?>
<svg width="80px" height="80px" viewBox="0 0 80 80" version="1.1" xmlns="http://www.w3.org/2000/svg" xmlns:xlink="http://www.w3.org/1999/xlink">
    <!-- Generator: Sketch 50.2 (55047) - http://www.bohemiancoding.com/sketch -->
    <title>C#@2x</title>
    <desc>Created with Sketch.</desc>
    <defs></defs>
    <g id="Main" stroke="none" stroke-width="1" fill="none" fill-rule="evenodd">
        <g transform="translate(-583.000000, -3602.000000)" id="Webtech-Icons">
            <g transform="translate(0.000000, 3188.000000)">
                <g id="C#" transform="translate(583.000000, 414.000000)">
                    <g>
                        <circle id="Oval-2" fill="#3F8F2B" cx="40" cy="40" r="40"></circle>
                        <path d="M40.5,15 C54.0275,15 65,25.9725 65,39.5 C65,53.0275 54.0275,64 40.5,64 C26.9725,64 16,53.0275 16,39.5 C16,25.9725 26.9725,15 40.5,15 Z M40.5,51.75 C47.255,51.75 52.75,46.255 52.75,39.5 C52.75,32.745 47.255,27.25 40.5,27.25 C33.745,27.25 28.25,32.745 28.25,39.5 C28.25,46.255 33.745,51.75 40.5,51.75 Z" id="Shape" fill="#FFFFFF" fill-rule="nonzero"></path>
                        <path d="M73.7601017,20.5815953 C74.6808598,21.4397864 74.6630156,22.7332917 74.6630156,23.7513942 C74.6630156,30.4943241 74.6059144,49.673029 74.6790754,56.4159589 C74.686213,57.119569 74.4524547,57.8604917 74.1027093,58.4184047 L40.0489342,39.762077 L73.7601017,20.5815953 Z" id="Shape" fill="#3F8F2B" fill-rule="nonzero"></path>
                        <rect id="Rectangle-path" fill="#FFFFFF" fill-rule="nonzero" x="58.646688" y="32.7663305" width="1.92390557" height="14.1086408"></rect>
                        <rect id="Rectangle-path" fill="#FFFFFF" fill-rule="nonzero" x="63.7771029" y="32.7663305" width="1.92390557" height="14.1086408"></rect>
                        <rect id="Rectangle-path" fill="#FFFFFF" fill-rule="nonzero" x="55.4401788" y="41.7445565" width="14.1086408" height="1.92390557"></rect>
                        <rect id="Rectangle-path" fill="#FFFFFF" fill-rule="nonzero" x="55.4401788" y="35.9728398" width="14.1086408" height="1.92390557"></rect>
                    </g>
                </g>
            </g>
        </g>
    </g>
</svg>