<?xml version="1.0" encoding="UTF-8"?>
<svg width="80px" height="80px" viewBox="0 0 80 80" version="1.1" xmlns="http://www.w3.org/2000/svg" xmlns:xlink="http://www.w3.org/1999/xlink">
    <!-- Generator: Sketch 50.2 (55047) - http://www.bohemiancoding.com/sketch -->
    <title>Firebase@2x</title>
    <desc>Created with Sketch.</desc>
    <defs></defs>
    <g id="Main" stroke="none" stroke-width="1" fill="none" fill-rule="evenodd">
        <g transform="translate(-1103.000000, -3602.000000)" id="Webtech-Icons">
            <g transform="translate(0.000000, 3188.000000)">
                <g id="Firebase" transform="translate(1103.000000, 414.000000)">
                    <g>
                        <circle id="Oval-2" fill="#FFC24A" cx="40" cy="40" r="40"></circle>
                        <g id="firebase-seeklogo.com" transform="translate(18.000000, 10.000000)" fill="#FFFFFF" fill-rule="nonzero">
                            <path d="M0,48 L0.371864404,47.4959075 L17.962847,15.182356 L18,14.8402816 L10.245517,0.739192376 C9.59584214,-0.44202808 7.76686728,-0.143374591 7.5536561,1.17890968 L0,48 Z" id="Shape"></path>
                            <path d="M23.9660114,26 L30,20.3278264 L23.9642625,9.75189787 C23.3912958,8.75081272 21.7915276,8.74792309 21.2246242,9.75189783 L18,15.3967671 L18,15.8775244 L23.9660114,26 Z" id="Shape"></path>
                            <path d="M23.9679542,59.4854542 L44,48.5643546 L38.2795207,14.1251022 C38.1005808,13.0475886 36.748274,12.6216024 35.9593368,13.3942119 L0,48.6139029 L19.9171777,59.4844889 C21.1759004,60.1715151 22.7089025,60.1718369 23.9679542,59.4854542" id="Shape"></path>
                            <path d="M43,48.567843 L37.4008678,14.1390963 C37.2257238,13.0619114 36.11661,12.6161667 35.3444084,13.3885405 L0,48.642649 L19.4280409,59.4846463 C20.6600625,60.1714628 22.1605454,60.1717844 23.3928893,59.4856112 L43,48.567843 Z" id="Shape"></path>
                            <path d="M23.9679541,59.1445125 C22.7089023,59.8466534 21.1759003,59.8463242 19.9171776,59.1435251 L0.160421252,48.1830914 L0,48.3524968 L19.9171776,59.4726536 C21.1759003,60.1754528 22.7089023,60.175782 23.9679541,59.4736411 L44,48.301811 L43.9509588,48 L23.9679541,59.1445125 Z" id="Shape"></path>
                        </g>
                    </g>
                </g>
            </g>
        </g>
    </g>
</svg>