<?xml version="1.0" encoding="UTF-8"?>
<svg width="80px" height="80px" viewBox="0 0 80 80" version="1.1" xmlns="http://www.w3.org/2000/svg" xmlns:xlink="http://www.w3.org/1999/xlink">
    <!-- Generator: Sketch 50.2 (55047) - http://www.bohemiancoding.com/sketch -->
    <title>Java@2x</title>
    <desc>Created with Sketch.</desc>
    <defs></defs>
    <g id="Main" stroke="none" stroke-width="1" fill="none" fill-rule="evenodd">
        <g transform="translate(-1493.000000, -3472.000000)" id="Webtech-Icons">
            <g transform="translate(0.000000, 3188.000000)">
                <g id="Java" transform="translate(1493.000000, 284.000000)">
                    <g>
                        <circle id="Oval-2" fill="#F89820" cx="40" cy="40" r="40"></circle>
                        <g id="Java_Logo" transform="translate(18.823529, 9.411765)" fill="#FFFFFF" fill-rule="nonzero">
                            <path d="M12.5983721,42.9411765 C12.5983721,42.9411765 10.5327581,44.2070561 14.0683992,44.6354132 C18.351729,45.1503629 20.5408894,45.0765135 25.261148,44.1350491 C25.261148,44.1350491 26.5021481,44.9550689 28.2352941,45.6653126 C17.6537211,50.4444881 4.28710956,45.3884926 12.5983721,42.9411765" id="Shape"></path>
                            <path d="M11.1975837,36.4705882 C11.1975837,36.4705882 8.83853283,38.3142827 12.4413444,38.7077378 C17.1004031,39.2152198 20.7797629,39.2567268 27.1464706,37.9623346 C27.1464706,37.9623346 28.0270722,38.9049353 29.4117647,39.4204054 C16.3846176,43.4423565 1.87471911,39.7375816 11.1975837,36.4705882" id="Shape"></path>
                            <path d="M22.9215268,26.0394544 C25.4654173,29.0529448 22.2531443,31.7647059 22.2531443,31.7647059 C22.2531443,31.7647059 28.7125167,28.3337965 25.7460185,24.0374812 C22.9754011,20.0309021 20.8507066,18.0401907 32.3529412,11.1764706 C32.3529412,11.1764706 14.2982269,15.8160523 22.9215268,26.0394544" id="Shape"></path>
                            <path d="M36.6002058,47.5266486 C36.6002058,47.5266486 38.1354525,48.8154848 34.9094151,49.8125624 C28.7750129,51.7059366 9.37737836,52.2776759 3.988797,49.8879992 C2.05174057,49.0294212 5.68427009,47.8379372 6.82692561,47.5879224 C8.01860015,47.324639 8.69959883,47.3736878 8.69959883,47.3736878 C6.54539542,45.8275317 -5.22429289,50.4096462 2.72117954,51.7218886 C24.3896389,55.3021548 42.220713,50.109688 36.6002058,47.5266486" id="Shape"></path>
                            <path d="M14.3692949,30.5969388 C14.3692949,30.5969388 4.36727205,32.9051791 10.827329,33.7433862 C13.5549646,34.0982118 18.9924363,34.0179365 24.0573037,33.6056066 C28.1965935,33.266346 32.3529412,32.5450209 32.3529412,32.5450209 C32.3529412,32.5450209 30.8933765,33.1523464 29.8374171,33.8529181 C19.680538,36.4483913 0.0593313456,35.2409464 5.70802459,32.5860954 C10.4851323,30.3424213 14.3692949,30.5969388 14.3692949,30.5969388" id="Shape"></path>
                            <path d="M32.5483367,40.3238968 C42.2703487,35.0790366 37.775273,30.038774 34.6377704,30.7178174 C33.8687583,30.8839895 33.5258733,31.0279763 33.5258733,31.0279763 C33.5258733,31.0279763 33.8113547,30.5636805 34.3566187,30.362708 C40.5636055,28.0971998 45.3371793,37.044536 32.3529412,40.5882352 C32.3529412,40.5883801 32.5033636,40.4487433 32.5483367,40.3238968" id="Shape"></path>
                            <path d="M25.5990377,0 C25.5990377,0 31.2886657,5.79529389 20.2026729,14.7068187 C11.3128322,21.8553948 18.1755123,25.9313215 20.1989831,30.5882353 C15.0098358,25.8210151 11.2016963,21.6244126 13.7564942,17.7186042 C17.5063353,11.9852262 27.8946661,9.20547486 25.5990377,0" id="Shape"></path>
                            <path d="M14.899743,55.1184767 C24.8875613,55.7625783 40.2249875,54.7611111 40.5882353,50 C40.5882353,50 39.8899924,51.8049001 32.3338412,53.2382784 C23.8090294,54.8544809 13.2948756,54.6657834 7.05882353,53.6299801 C7.05897301,53.6298295 8.33542262,54.6943968 14.899743,55.1184767" id="Shape"></path>
                        </g>
                    </g>
                </g>
            </g>
        </g>
    </g>
</svg>