<?xml version="1.0" encoding="UTF-8"?>
<svg width="80px" height="80px" viewBox="0 0 80 80" version="1.1" xmlns="http://www.w3.org/2000/svg" xmlns:xlink="http://www.w3.org/1999/xlink">
    <!-- Generator: Sketch 50.2 (55047) - http://www.bohemiancoding.com/sketch -->
    <title>JQuery@2x</title>
    <desc>Created with Sketch.</desc>
    <defs></defs>
    <g id="Main" stroke="none" stroke-width="1" fill="none" fill-rule="evenodd">
        <g transform="translate(-843.000000, -3602.000000)" id="Webtech-Icons">
            <g transform="translate(0.000000, 3188.000000)">
                <g id="JQuery" transform="translate(843.000000, 414.000000)">
                    <g>
                        <circle id="Oval-2" fill="#21ACE2" cx="40" cy="40" r="40"></circle>
                        <g id="g12" transform="translate(40.500000, 40.500000) scale(-1, 1) rotate(-180.000000) translate(-40.500000, -40.500000) translate(15.000000, 16.000000)" fill="#FFFFFF" fill-rule="nonzero">
                            <path d="M30.4692217,48.7546093 L29.0297055,46.7895051 C27.1056072,43.9781301 26.9236112,40.486203 28.2585362,37.3808246 C29.6655604,34.0855746 32.5437564,31.494019 35.9102499,30.269019 C36.0490604,30.2171607 36.1903112,30.170546 36.3301088,30.1244009 L36.5186168,30.0648523 C36.7183394,30.003194 36.9130991,29.9335051 37.1184152,29.8947134 C46.4237765,28.1102968 48.9487015,34.6323329 49.6199273,35.5943662 C47.4084193,32.4334579 43.6912596,31.6793343 39.1320241,32.7785676 C38.7736257,32.8643176 38.3803225,32.9890634 38.0352499,33.1103384 C37.5881362,33.2691801 37.1503176,33.4506162 36.724262,33.6547829 C35.9142257,34.0402496 35.1436596,34.5133718 34.427891,35.0499218 C30.3489193,38.1226301 27.8083789,43.9803759 30.4692217,48.7546093 Z M19.9127701,46.4662412 L17.2479515,42.7316926 C13.9834991,38.0685259 14.1628217,31.8240238 16.708133,26.8917621 C17.1353402,26.0644787 17.6128072,25.2657107 18.1476491,24.5013107 C18.6370023,23.805919 19.1875418,22.9753009 19.8356531,22.4171093 C20.0719805,22.1594509 20.3143265,21.9078496 20.5639797,21.6599912 L20.7610564,21.4728384 C21.0039644,21.2380468 21.2500805,21.0083593 21.5065201,20.7837759 L21.532212,20.7582551 L21.5407668,20.7497482 C21.8236934,20.5039315 22.1173959,20.2687315 22.4147588,20.0351648 L22.6118354,19.8820398 C22.9103499,19.6550065 23.2169943,19.4308315 23.5286701,19.2184982 L23.554362,19.1929773 C23.6909104,19.098244 23.8355749,19.0109968 23.9742209,18.9207551 L24.1712975,18.7931509 C24.3942991,18.6510509 24.6196176,18.5167093 24.8482128,18.3848176 L24.9424668,18.325269 C25.1400918,18.2129773 25.3403217,18.1012982 25.5422652,17.9934982 L25.7564789,17.8829079 C25.8962765,17.8114496 26.0354297,17.7396509 26.1763378,17.6702343 L26.2363176,17.6362065 C26.5235628,17.4953315 26.8152088,17.3650051 27.1103096,17.2363801 L27.3073862,17.1598176 C27.5448241,17.0605926 27.7777652,16.9608232 28.0185757,16.8705815 C28.1206168,16.8321982 28.2237273,16.7963329 28.3270434,16.7599912 C28.5444104,16.6795496 28.7660822,16.6042121 28.9868217,16.5303037 C29.0867652,16.4984537 29.1880934,16.4677607 29.2867209,16.4367273 C29.6008233,16.3399523 29.9117176,16.2184051 30.2378297,16.1645051 C47.0907797,13.3926976 50.9823265,26.2707143 50.9823265,26.2707143 C47.4748426,21.2547476 40.6809983,18.8641601 33.4339394,20.7326934 C33.1110354,20.8164018 32.7893104,20.9056907 32.474262,21.0049157 L32.1914999,21.0984921 C31.9673878,21.1707671 31.7450031,21.2489629 31.5231531,21.3281796 C31.4220991,21.3657462 31.3231975,21.4003865 31.2232539,21.4387698 C30.9814564,21.5302365 30.7398233,21.6279643 30.5034959,21.7280059 L30.3064193,21.8045684 C30.0112773,21.9344184 29.7209475,22.0708018 29.4324273,22.2129018 C29.2838281,22.2843601 29.1333644,22.360174 28.9868628,22.4340823 L28.7383749,22.5616865 C28.5495926,22.6633615 28.3569854,22.7694601 28.1728507,22.8764434 L28.0443225,22.9530059 C27.8156862,23.0865309 27.5894217,23.2200559 27.3674072,23.3613393 L27.161762,23.4974504 C27.0152193,23.5921837 26.8679362,23.6895032 26.724766,23.7866865 C26.4130902,23.9994282 26.1138628,24.2252365 25.8164999,24.4502282 L25.6108547,24.6033532 C22.4373386,27.0888782 19.9189668,30.4903629 18.7217418,34.3438046 C17.4689104,38.3405712 17.741116,42.8250921 19.9127701,46.4662004 L19.9127701,46.4662412 Z M6.76004829,41.7448871 L3.23837353,37.3042621 C-1.27553776,30.8640287 -0.714767399,22.4819662 2.73282917,15.6370746 C2.81492272,15.4741496 2.9044195,15.3130621 2.98988563,15.1521787 C3.04421708,15.0484621 3.08867756,14.9459704 3.1441195,14.8459287 L3.24694208,14.6672829 C3.30571546,14.5582579 3.36695659,14.4582843 3.42688159,14.3525259 C3.53562675,14.1642843 3.64893724,13.9772676 3.76105498,13.7910676 C3.82324208,13.6885759 3.8778203,13.5873093 3.9409945,13.4848176 C4.06643804,13.2855509 4.19677595,13.0865565 4.32657917,12.8893315 L4.48938159,12.6426301 C4.67026708,12.3759919 4.8577195,12.1136343 5.04633724,11.8514843 L5.05490579,11.8259634 L5.14915982,11.6983593 C5.31338804,11.4733676 5.4838953,11.2536843 5.65470554,11.0348176 L5.84321361,10.7966232 C5.99629587,10.6059315 6.15687732,10.4161246 6.31448377,10.2266579 L6.48585474,10.0139843 C6.69890313,9.76612595 6.9163249,9.52371206 7.13706442,9.28238706 L7.15420151,9.26537317 L7.17989345,9.23985234 C7.3951628,9.00628567 7.61667006,8.77904817 7.83967167,8.55078984 L8.04531684,8.33811623 C8.21949829,8.16539123 8.3990128,7.99715789 8.57656684,7.82769956 L8.79079425,7.62350567 C9.0284378,7.402189 9.26521764,7.18080428 9.51055232,6.96847095 L9.52768942,6.959964 L9.64764909,6.84937373 C9.86295958,6.66439873 10.0855362,6.48541261 10.3074273,6.30492928 L10.5730523,6.09225567 C10.7528273,5.94893067 10.9361943,5.80574178 11.1214394,5.66690845 L11.4127701,5.44571428 C11.6158652,5.29708095 11.8232789,5.14545317 12.0297055,5.00335317 L12.2524878,4.85022817 L12.3124676,4.80769345 C12.508941,4.67457678 12.7125846,4.54540734 12.912266,4.416374 L13.1693225,4.24623511 C13.4766386,4.05350178 13.7880814,3.86042817 14.1032943,3.67626984 L14.3603507,3.53165178 C14.5923184,3.39935178 14.8192273,3.26691567 15.0544031,3.14033234 C15.1819854,3.07173234 15.3198636,3.01082261 15.4485564,2.94467261 C15.6150055,2.85769761 15.7758749,2.77439761 15.9455322,2.68946428 L16.0654918,2.62991567 L16.2625684,2.53633928 C16.5254241,2.41179761 16.7919402,2.288549 17.0594434,2.17054067 L17.2308144,2.09397817 C17.5359096,1.96045317 17.8443773,1.83325734 18.1562176,1.71116567 L18.3789999,1.62609623 C18.6685072,1.51584623 18.960112,1.40450734 19.2529918,1.30283234 L19.364383,1.26029761 C19.6873281,1.14923095 20.0137693,1.04680734 20.3411975,0.94554067 L20.5725483,0.877485115 C20.9054467,0.777035115 21.2320523,0.659639281 21.5750684,0.596755948 C43.4034797,-3.35591072 49.7484555,13.6208879 49.7484555,13.6208879 C44.4247136,6.73230456 34.9705338,4.91154623 26.0135765,6.93442956 C25.6740975,7.01037956 25.3418572,7.11920039 25.0110564,7.21515873 L24.7625684,7.29172123 C24.4396233,7.38972123 24.1214765,7.48853789 23.802891,7.59797123 L23.6743628,7.64901289 C23.3892152,7.74782956 23.1056305,7.8555615 22.8260765,7.96376984 L22.5861572,8.05734623 C22.2776894,8.17862123 21.9712096,8.30057678 21.6693225,8.43165178 L21.4808144,8.50821428 C21.2211668,8.62499761 20.9670305,8.74341428 20.7096451,8.86550595 L20.4868628,8.97609623 C20.2860297,9.07205456 20.093258,9.17134761 19.895633,9.27383928 C19.7615112,9.34203095 19.6249765,9.41505456 19.4929112,9.48651289 C19.2509491,9.61677123 19.010591,9.74954761 18.7731531,9.88633928 L18.5332338,10.0139434 C18.2169104,10.1976934 17.9065781,10.3907671 17.599262,10.5839087 L17.3507741,10.7540476 C17.1277725,10.8973726 16.9022209,11.0388601 16.6824273,11.1879018 L16.4767822,11.3410268 C16.2626233,11.4896601 16.0491773,11.6387698 15.8427096,11.7918948 L15.568516,11.9960615 C15.3787467,12.1402032 15.1904991,12.2889726 15.0029918,12.4384226 L14.7459354,12.6425893 C14.5073459,12.8365476 14.2762693,13.0290768 14.0433144,13.2295684 L13.9661975,13.2891171 C13.7153926,13.5083921 13.4647934,13.7365823 13.2207338,13.9611657 L13.0150886,14.1653323 C12.8353136,14.3360157 12.6590894,14.5078559 12.4838386,14.6842559 L12.2696249,14.8884226 C12.0476104,15.1146393 11.8314225,15.3451434 11.6184152,15.5774851 L11.584141,15.6115129 C11.3589184,15.8569212 11.1407838,16.1069573 10.9243628,16.360124 L10.7529918,16.5642907 C10.5908612,16.757024 10.4296491,16.9548615 10.2731531,17.1512698 L10.1017822,17.3639434 C9.9129999,17.6052684 9.72233942,17.850949 9.54482651,18.0955407 C4.57253079,24.8289573 2.78546063,34.1184046 6.76004829,41.7448462 L6.76004829,41.7448871 Z" id="signet"></path>
                        </g>
                    </g>
                </g>
            </g>
        </g>
    </g>
</svg>