<?xml version="1.0" encoding="UTF-8"?>
<svg width="80px" height="80px" viewBox="0 0 80 80" version="1.1" xmlns="http://www.w3.org/2000/svg" xmlns:xlink="http://www.w3.org/1999/xlink">
    <!-- Generator: Sketch 50.2 (55047) - http://www.bohemiancoding.com/sketch -->
    <title>MongoDB@2x</title>
    <desc>Created with Sketch.</desc>
    <defs></defs>
    <g id="Main" stroke="none" stroke-width="1" fill="none" fill-rule="evenodd">
        <g transform="translate(-1233.000000, -3602.000000)" id="Webtech-Icons">
            <g transform="translate(0.000000, 3188.000000)">
                <g id="MongoDB" transform="translate(1233.000000, 414.000000)">
                    <g>
                        <circle id="Oval-2" fill="#499D4A" cx="40" cy="40" r="40"></circle>
                        <path d="M40,0 L40,80 C17.90861,80 0,62.09139 0,40 C0,17.90861 17.90861,0 40,0 Z" id="Combined-Shape" fill="#58AA50"></path>
                        <g id="leaf" transform="translate(25.000000, 8.000000)" fill-rule="nonzero">
                            <path d="M15.565802,63.4173483 C15.565802,63.4173483 15.7705556,54.7266912 12.702798,54.1030331 C10.6583649,51.6908643 13.0307582,-48.1935635 20.3921355,53.7700249 C20.3921355,53.7700249 17.8562053,55.0587981 17.406368,57.2632311 C16.915314,59.4257564 17.2423878,64 17.2423878,64 L15.565802,63.4173483 Z" id="Shape" fill="#E7E7E7"></path>
                            <path d="M29.4551455,25.4803093 C25.9913977,10.4945412 17.8228108,5.58298674 16.9246648,3.69378737 C15.9412459,2.3504679 15,0 15,0 L15.6418639,41.6842995 C15.6418639,41.7266051 14.3159631,54.4460619 17.6949015,56 C17.694438,55.9995451 33.048193,46.0922797 29.4551455,25.4803093 Z" id="Shape" fill="#F3F3F3"></path>
                            <path d="M14.2413165,55.361624 C14.2413165,55.361624 0.158032523,45.9364887 1.00941128,29.3407016 C1.81865107,12.7444704 11.7776764,4.58978556 13.702462,3.11462422 C14.9583076,1.80332035 15.0004367,1.31130387 15.0854424,0 C15.9619127,1.84417371 15.7715554,27.5786786 15.8938855,30.610708 C16.259458,42.2894387 15.2048099,53.1493261 14.2413165,55.361624 Z" id="Shape" fill="#FFFFFF"></path>
                        </g>
                    </g>
                </g>
            </g>
        </g>
    </g>
</svg>