<?xml version="1.0" encoding="UTF-8"?>
<svg width="80px" height="80px" viewBox="0 0 80 80" version="1.1" xmlns="http://www.w3.org/2000/svg" xmlns:xlink="http://www.w3.org/1999/xlink">
    <!-- Generator: Sketch 50.2 (55047) - http://www.bohemiancoding.com/sketch -->
    <title>Node JS@2x</title>
    <desc>Created with Sketch.</desc>
    <defs></defs>
    <g id="Main" stroke="none" stroke-width="1" fill="none" fill-rule="evenodd">
        <g transform="translate(-973.000000, -3472.000000)" id="Webtech-Icons">
            <g transform="translate(0.000000, 3188.000000)">
                <g id="Node-JS" transform="translate(973.000000, 284.000000)">
                    <g>
                        <circle id="Oval-2" fill="#689F63" cx="40" cy="40" r="40"></circle>
                        <g id="Node.js_logo" transform="translate(11.764706, 7.647059)" fill="#FFFFFF" fill-rule="nonzero">
                            <path d="M28.4552941,64.1314706 C27.5964706,64.1314706 26.7435294,63.9061765 25.9905882,63.4726471 L18.1452941,58.8279412 C16.9735294,58.1726471 17.5452941,57.9408824 17.9317647,57.8073529 C19.4941176,57.2602941 19.8111765,57.1367647 21.4788235,56.1897059 C21.6541176,56.0897059 21.8835294,56.125 22.0629412,56.2308824 L28.09,59.8073529 C28.3076471,59.925 28.6164706,59.925 28.8182353,59.8073529 L52.3182353,46.2426471 C52.5358824,46.1191176 52.6770588,45.8661765 52.6770588,45.6073529 L52.6770588,18.4897059 C52.6770588,18.2191176 52.5358824,17.9779412 52.3135294,17.8426471 L28.8229412,4.28970588 C28.6052941,4.16029412 28.3170588,4.16029412 28.0994118,4.28970588 L4.61352941,17.8426471 C4.38588235,17.9720588 4.24117647,18.225 4.24117647,18.4838235 L4.24117647,45.6014706 C4.24117647,45.8602941 4.38235294,46.1073529 4.60588235,46.2308824 L11.0411765,49.9485294 C14.5352941,51.6955882 16.6705882,49.6367647 16.6705882,47.5661765 L16.6705882,20.8014706 C16.6705882,20.4191176 16.9705882,20.125 17.3529412,20.125 L20.3294118,20.125 C20.7,20.125 21.0058824,20.4191176 21.0058824,20.8014706 L21.0058824,47.5779412 C21.0058824,52.2367647 18.4647059,54.9132353 14.0470588,54.9132353 C12.6882353,54.9132353 11.6176471,54.9132353 8.62941176,53.4426471 L2.46470588,49.8897059 C0.941176471,49.0073529 0,47.3602941 0,45.6014706 L0,18.4838235 C0,16.7191176 0.941176471,15.0720588 2.46470588,14.2014706 L25.9882353,0.630882353 C27.4764706,-0.210294118 29.4529412,-0.210294118 30.9294118,0.630882353 L54.4235294,14.2073529 C55.9411765,15.0838235 56.8882353,16.725 56.8882353,18.4897059 L56.8882353,45.6073529 C56.8882353,47.3661765 55.9411765,49.0073529 54.4235294,49.8897059 L30.9294118,63.4602941 C30.1764706,63.8955882 29.3235294,64.1191176 28.4529412,64.1191176" id="Shape"></path>
                            <path d="M35.3794118,45.4370588 C25.0970588,45.4370588 22.9411765,40.7170588 22.9411765,36.7582353 C22.9411765,36.3817647 23.2447059,36.0817647 23.6217647,36.0817647 L26.6570588,36.0817647 C26.9923529,36.0817647 27.2747059,36.3258824 27.3276471,36.6570588 C27.7864706,39.75 29.1511765,41.31 35.3688235,41.31 C40.3217647,41.31 42.4276471,40.1911765 42.4276471,37.5647059 C42.4276471,36.0529412 41.8276471,34.9294118 34.1335294,34.1764706 C27.6982353,33.5411765 23.7217647,32.1235294 23.7217647,26.9764706 C23.7217647,22.2352941 27.7217647,19.4117647 34.4217647,19.4117647 C41.9452941,19.4117647 45.6747059,22.0235294 46.1452941,27.6352941 C46.1629412,27.8294118 46.0923529,28.0176471 45.9629412,28.1588235 C45.8335294,28.2941176 45.6511765,28.3764706 45.4629412,28.3764706 L42.41,28.3764706 C42.0923529,28.3764706 41.8158824,28.1529412 41.7511765,27.8470588 C41.0158824,24.5941176 39.2394118,23.5529412 34.41,23.5529412 C29.0041176,23.5529412 28.3747059,25.4352941 28.3747059,26.8470588 C28.3747059,28.5588235 29.1158824,29.0588235 36.41,30.0235294 C43.6335294,30.9823529 47.0629412,32.3352941 47.0629412,37.4117647 C47.0629412,42.5294118 42.7923529,45.4647059 35.3452941,45.4647059 L35.3794118,45.4370588 Z" id="Shape"></path>
                        </g>
                    </g>
                </g>
            </g>
        </g>
    </g>
</svg>