<?xml version="1.0" encoding="UTF-8"?>
<svg width="80px" height="80px" viewBox="0 0 80 80" version="1.1" xmlns="http://www.w3.org/2000/svg" xmlns:xlink="http://www.w3.org/1999/xlink">
    <!-- Generator: Sketch 50.2 (55047) - http://www.bohemiancoding.com/sketch -->
    <title>PHP@2x</title>
    <desc>Created with Sketch.</desc>
    <defs></defs>
    <g id="Main" stroke="none" stroke-width="1" fill="none" fill-rule="evenodd">
        <g transform="translate(-843.000000, -3472.000000)" id="Webtech-Icons">
            <g transform="translate(0.000000, 3188.000000)">
                <g id="PHP" transform="translate(843.000000, 284.000000)">
                    <g>
                        <circle id="Oval-2" fill="#777BB3" cx="40" cy="40" r="40"></circle>
                        <g id="php-logo" transform="translate(11.764706, 25.882353)" fill="#FFFFFF" fill-rule="nonzero">
                            <path d="M4.45823529,5.95470588 L12.8135294,5.95470588 C15.2658824,5.97529412 17.0429412,6.68235294 18.1447059,8.07470588 C19.2464706,9.46705882 19.61,11.3688235 19.2358824,13.78 C19.0905882,14.8817647 18.7682353,15.9623529 18.2694118,17.0223529 C17.7911765,18.0823529 17.1264706,19.0382353 16.2741176,19.8905882 C15.2347059,20.9711765 14.1229412,21.6570588 12.9382353,21.9482353 C11.7535294,22.2394118 10.5270588,22.3847059 9.25941176,22.3847059 L5.51823529,22.3847059 L4.33352941,28.3082353 L0,28.3082353 L4.45823529,5.95470588 M8.10588235,9.50882353 L6.23529412,18.8617647 C6.36,18.8823529 6.48470588,18.8929412 6.60941176,18.8929412 C6.75470588,18.8929412 6.90058824,18.8929412 7.04588235,18.8929412 C9.04117647,18.9135294 10.7041176,18.7164706 12.0341176,18.3005882 C13.3641176,17.8641176 14.2582353,16.3470588 14.7152941,13.7488235 C15.0894118,11.5664706 14.7152941,10.3088235 13.5929412,9.97647059 C12.4911765,9.64411765 11.1094118,9.48823529 9.44647059,9.50882353 C9.19705882,9.52941176 8.95823529,9.54 8.72941176,9.54 C8.52176471,9.54 8.30352941,9.54 8.07470588,9.54 L8.10588235,9.50882353" id="Shape"></path>
                            <path d="M24.1723529,0 L28.4747059,0 L27.2588235,5.95470588 L31.1247059,5.95470588 C33.2447059,5.99647059 34.8241176,6.43294118 35.8635294,7.26411765 C36.9235294,8.09529412 37.2352941,9.67529412 36.7988235,12.0029412 L34.71,22.3847059 L30.3452941,22.3847059 L32.3405882,12.4705882 C32.5482353,11.4311765 32.4858824,10.6935294 32.1535294,10.2570588 C31.8211765,9.82058824 31.1041176,9.60235294 30.0023529,9.60235294 L26.5417647,9.57117647 L23.9852941,22.3847059 L19.6829412,22.3847059 L24.1723529,0" id="Shape"></path>
                            <path d="M41.4188235,5.95470588 L49.7741176,5.95470588 C52.2264706,5.97529412 54.0035294,6.68235294 55.1052941,8.07470588 C56.2070588,9.46705882 56.5705882,11.3688235 56.1964706,13.78 C56.0511765,14.8817647 55.7288235,15.9623529 55.23,17.0223529 C54.7517647,18.0823529 54.0870588,19.0382353 53.2347059,19.8905882 C52.1952941,20.9711765 51.0835294,21.6570588 49.8988235,21.9482353 C48.7141176,22.2394118 47.4876471,22.3847059 46.22,22.3847059 L42.4788235,22.3847059 L41.2941176,28.3082353 L36.9605882,28.3082353 L41.4188235,5.95470588 M45.0664706,9.50882353 L43.1958824,18.8617647 C43.3205882,18.8823529 43.4452941,18.8929412 43.57,18.8929412 C43.7152941,18.8929412 43.8611765,18.8929412 44.0064706,18.8929412 C46.0017647,18.9135294 47.6647059,18.7164706 48.9947059,18.3005882 C50.3247059,17.8641176 51.2188235,16.3470588 51.6758824,13.7488235 C52.05,11.5664706 51.6758824,10.3088235 50.5535294,9.97647059 C49.4517647,9.64411765 48.07,9.48823529 46.4070588,9.50882353 C46.1576471,9.52941176 45.9188235,9.54 45.69,9.54 C45.4823529,9.54 45.2641176,9.54 45.0352941,9.54 L45.0664706,9.50882353" id="Shape"></path>
                        </g>
                    </g>
                </g>
            </g>
        </g>
    </g>
</svg>