<?xml version="1.0" encoding="UTF-8"?>
<svg width="80px" height="80px" viewBox="0 0 80 80" version="1.1" xmlns="http://www.w3.org/2000/svg" xmlns:xlink="http://www.w3.org/1999/xlink">
    <!-- Generator: Sketch 50.2 (55047) - http://www.bohemiancoding.com/sketch -->
    <title>React Native@2x</title>
    <desc>Created with Sketch.</desc>
    <defs></defs>
    <g id="Main" stroke="none" stroke-width="1" fill="none" fill-rule="evenodd">
        <g transform="translate(-1103.000000, -3472.000000)" id="Webtech-Icons">
            <g transform="translate(0.000000, 3188.000000)">
                <g id="React-Native" transform="translate(1103.000000, 284.000000)">
                    <g>
                        <circle id="Oval-2" fill="#61DAFB" cx="40" cy="40" r="40"></circle>
                        <path d="M72,40.5065232 C72,36.2664225 66.690583,32.2481117 58.5503465,29.7562371 C60.4288626,21.4586862 59.5939666,14.8571756 55.9152059,12.7436484 C55.0672646,12.2478828 54.0758255,12.0130465 52.9930697,12.0130465 L52.9930697,14.9224079 C53.5931512,14.9224079 54.0758255,15.039826 54.4802283,15.2616159 C56.2543824,16.2792401 57.0240522,20.1540398 56.4239706,25.137789 C56.2804729,26.3641566 56.0456584,27.6557565 55.7586629,28.9734493 C53.2017937,28.347219 50.4101101,27.8644999 47.4749287,27.5513848 C45.7138198,25.137789 43.8874847,22.9459831 42.0481044,21.0281529 C46.3008561,17.0750744 50.2927028,14.9093614 53.006115,14.9093614 L53.006115,12 C53.006115,12 53.006115,12 53.006115,12 C49.418671,12 44.7223808,14.5571069 39.9739095,18.9929046 C35.2254382,14.5831998 30.529148,12.0521859 26.941704,12.0521859 L26.941704,14.9615473 C29.6420709,14.9615473 33.6469629,17.1142138 37.8997146,21.0411994 C36.0733795,22.9590295 34.2470444,25.137789 32.5120261,27.5513848 C29.5637994,27.8644999 26.7721158,28.347219 24.2152466,28.9864958 C23.9152059,27.6818494 23.6934366,26.4163424 23.5368936,25.2030213 C22.9237668,20.2192721 23.6803914,16.3444724 25.4415002,15.3138018 C25.8328577,15.0789654 26.3416225,14.9745937 26.941704,14.9745937 L26.941704,12.0652323 C26.941704,12.0652323 26.941704,12.0652323 26.941704,12.0652323 C25.845903,12.0652323 24.8544639,12.3000687 23.9934774,12.7958343 C20.3277619,14.9093614 19.5059111,21.4978256 21.3974725,29.7692836 C13.2833265,32.2742046 8,36.279469 8,40.5065232 C8,44.7466239 13.309417,48.7649348 21.4496535,51.2568093 C19.5711374,59.5543603 20.4060334,66.1558709 24.0847941,68.269398 C24.9327354,68.7651637 25.9241745,69 27.0199755,69 C30.6074195,69 35.3037097,66.4428931 40.052181,62.0070954 C44.8006523,66.4168002 49.4969425,68.9478141 53.0843865,68.9478141 C54.1801875,68.9478141 55.1716266,68.7129778 56.0326131,68.2172122 C59.6983286,66.1036851 60.5201794,59.5152209 58.628618,51.2437629 C66.7166735,48.7518883 72,44.7335775 72,40.5065232 Z M55.0150836,31.8045319 C54.5324093,33.4875257 53.9323278,35.2227054 53.2539747,36.9578851 C52.7191194,35.914168 52.1581737,34.8704509 51.5450469,33.8267338 C50.9449653,32.7830167 50.3057481,31.7653925 49.6665308,30.7738613 C51.5189564,31.047837 53.3061557,31.3870451 55.0150836,31.8045319 Z M49.0403587,45.6990158 C48.0228292,47.4602884 46.9792091,49.1302358 45.8964533,50.6827649 C43.952711,50.852369 41.9828781,50.9436942 40,50.9436942 C38.0301671,50.9436942 36.0603343,50.852369 34.1296372,50.6958114 C33.0468814,49.1432822 31.9902161,47.4863813 30.9726865,45.7381552 C29.9812475,44.0290684 29.0811252,42.2938888 28.2592744,40.5456626 C29.0680799,38.7974365 29.9812475,37.0492103 30.9596413,35.3401236 C31.9771708,33.578851 33.0207909,31.9089036 34.1035467,30.3563745 C36.047289,30.1867704 38.0171219,30.0954452 40,30.0954452 C41.9698329,30.0954452 43.9396657,30.1867704 45.8703628,30.343328 C46.9531186,31.8958572 48.0097839,33.5527581 49.0273135,35.3009842 C50.0187525,37.010071 50.9188748,38.7452506 51.7407256,40.4934768 C50.9188748,42.2417029 50.0187525,43.989929 49.0403587,45.6990158 Z M53.2539747,44.0029755 C53.9584183,45.7512016 54.5584998,47.4994278 55.0542193,49.1954681 C53.3452915,49.6129549 51.5450469,49.9652094 49.679576,50.2391852 C50.3187933,49.2346075 50.9580106,48.2039368 51.5580921,47.1471733 C52.1581737,46.1034562 52.7191194,45.0466926 53.2539747,44.0029755 Z M40.0260905,57.9235523 C38.8128822,56.6710918 37.5996739,55.2751202 36.3995108,53.7486839 C37.5735834,53.8008698 38.7737464,53.8400092 39.9869547,53.8400092 C41.2132083,53.8400092 42.4264166,53.8139162 43.6135344,53.7486839 C42.4394619,55.2751202 41.2262536,56.6710918 40.0260905,57.9235523 Z M30.320424,50.2391852 C28.4679984,49.9652094 26.680799,49.6260014 24.9718712,49.2085145 C25.4545455,47.5255207 26.054627,45.790341 26.73298,44.0551614 C27.2678353,45.0988785 27.8287811,46.1425956 28.4419079,47.1863127 C29.0550347,48.2300298 29.6812067,49.2476539 30.320424,50.2391852 Z M39.9608642,23.0894942 C41.1740726,24.3419547 42.3872809,25.7379263 43.5874439,27.2643626 C42.4133714,27.2121767 41.2132083,27.1730373 40,27.1730373 C38.7737464,27.1730373 37.5605381,27.1991302 36.3734203,27.2643626 C37.5474929,25.7379263 38.7607012,24.3419547 39.9608642,23.0894942 Z M30.3073787,30.7738613 C29.6681614,31.778439 29.0289442,32.8091096 28.4288626,33.8658732 C27.8287811,34.9095903 27.2678353,35.9533074 26.73298,36.9970245 C26.0285365,35.2487984 25.428455,33.5005722 24.9327354,31.8045319 C26.6416633,31.4000916 28.4419079,31.047837 30.3073787,30.7738613 Z M18.5014268,47.1080339 C13.8834081,45.1380179 10.8960457,42.554818 10.8960457,40.5065232 C10.8960457,38.4582284 13.8834081,35.8619821 18.5014268,33.9050126 C19.6233184,33.4222934 20.849572,32.9917601 22.1149613,32.5873198 C22.8585406,35.1444266 23.8369344,37.8059052 25.0501427,40.5326162 C23.8499796,43.2462806 22.8846311,45.8947127 22.154097,48.4387732 C20.8626172,48.0343328 19.6363636,47.590753 18.5014268,47.1080339 Z M25.5197717,65.7514305 C23.7456176,64.7338064 22.9759478,60.8590066 23.5760294,55.8752575 C23.7195271,54.6488899 23.9543416,53.35729 24.2413371,52.0395972 C26.7982063,52.6658274 29.5898899,53.1485466 32.5250713,53.4616617 C34.2861802,55.8752575 36.1125153,58.0670634 37.9518956,59.9848936 C33.6991439,63.9379721 29.7072972,66.1036851 26.993885,66.1036851 C26.4068488,66.0906386 25.9111292,65.9732204 25.5197717,65.7514305 Z M56.4631064,55.8100252 C57.0762332,60.7937743 56.3196086,64.668574 54.5584998,65.6992447 C54.1671423,65.934081 53.6583775,66.0384527 53.058296,66.0384527 C50.3579291,66.0384527 46.3530371,63.8857862 42.1002854,59.9588006 C43.9266205,58.0409705 45.7529556,55.862211 47.4879739,53.4486152 C50.4362006,53.1355001 53.2278842,52.652781 55.7847534,52.0135042 C56.0847941,53.3311971 56.3196086,54.5967041 56.4631064,55.8100252 Z M61.4855279,47.1080339 C60.3636364,47.590753 59.1373828,48.0212863 57.8719935,48.4257267 C57.1284142,45.8686198 56.1500204,43.2071412 54.9368121,40.4804303 C56.1369751,37.7667659 57.1023237,35.1183337 57.8328577,32.5742733 C59.1243375,32.9787137 60.3505911,33.4222934 61.4985732,33.9050126 C66.1165919,35.8750286 69.1039543,38.4582284 69.1039543,40.5065232 C69.0909091,42.554818 66.1035467,45.1510643 61.4855279,47.1080339 Z" id="Shape" fill="#FFFFFF" fill-rule="nonzero"></path>
                        <circle id="Oval" fill="#FFFFFF" fill-rule="nonzero" cx="40" cy="41" r="6"></circle>
                    </g>
                </g>
            </g>
        </g>
    </g>
</svg>