<?xml version="1.0" encoding="UTF-8"?>
<svg width="80px" height="80px" viewBox="0 0 80 80" version="1.1" xmlns="http://www.w3.org/2000/svg" xmlns:xlink="http://www.w3.org/1999/xlink">
    <!-- Generator: Sketch 50.2 (55047) - http://www.bohemiancoding.com/sketch -->
    <title>Shopify@2x</title>
    <desc>Created with Sketch.</desc>
    <defs></defs>
    <g id="Main" stroke="none" stroke-width="1" fill="none" fill-rule="evenodd">
        <g transform="translate(-323.000000, -3602.000000)" id="Webtech-Icons">
            <g transform="translate(0.000000, 3188.000000)">
                <g id="Shopify" transform="translate(323.000000, 414.000000)">
                    <g>
                        <circle id="Oval-2" fill="#95BF46" cx="40" cy="40" r="40"></circle>
                        <g id="shopify-logo-svg-vector" transform="translate(15.000000, 10.000000)" fill-rule="nonzero">
                            <path d="M42.4303616,10.4490358 C42.2279916,10.4320718 37.9450377,10.1130335 37.9450377,10.1130335 C37.9450377,10.1130335 34.9704871,7.14530221 34.6440097,6.81681802 C34.3173405,6.4885266 33.6793477,6.58838271 33.4317082,6.66163622 C33.3952624,6.67243148 32.7818225,6.86269785 31.7670955,7.17826629 C30.7734686,4.30480072 29.0198514,1.66420423 25.9348126,1.66420423 C25.8496445,1.66420423 25.7619829,1.66767413 25.6743212,1.67268621 C24.7969371,0.506605897 23.7100858,0 22.7713194,0 C15.5847883,0 12.1514046,9.02849589 11.0749115,13.6164793 C8.28239798,14.4860756 6.29859697,15.1042968 6.04520294,15.1842973 C4.48647474,15.6756742 4.43717704,15.7250239 4.23250525,17.2010823 C4.0784739,18.3185839 0,50.0159588 0,50.0159588 L31.780331,56 L49,52.2563598 C49,52.2563598 42.9551807,11.1848481 42.9172004,10.9034004 C42.8784528,10.6219526 42.6331152,10.4661925 42.4303616,10.4490358 Z M30.010601,7.72419776 L27.3214783,8.56063725 C27.3224374,8.37017811 27.3233965,8.18280332 27.3233965,7.97788625 C27.3233965,6.19204263 27.0767162,4.75415321 26.6809918,3.61428994 C28.270603,3.81477325 29.3292568,5.63242432 30.010601,7.72419776 Z M24.7090836,3.96841286 C25.1510366,5.081288 25.4383828,6.67840742 25.4383828,8.83360299 C25.4383828,8.9438688 25.4374237,9.04468878 25.4364646,9.14666538 C23.6876429,9.69105467 21.7872835,10.2820949 19.8827041,10.8750628 C20.9520998,6.72737162 22.9566174,4.72408072 24.7090836,3.96841286 Z M23.4956312,2.24984681 C21.1924501,3.33901094 18.7237285,6.08216236 17.6811876,11.560176 L13.2911982,12.9265468 C14.5123234,8.74820481 17.4118725,1.93716996 22.573745,1.93716996 C22.8841095,1.93716996 23.196584,2.04300202 23.4956312,2.24984681 Z" id="Shape" fill="#FFFFFF"></path>
                            <path d="M37.8922983,10.4800436 C37.8922983,10.4800436 34.9671836,7.53602385 34.6466229,7.21016419 C34.526673,7.08892297 34.3649159,7.02677251 34.1958122,7 L31.7664644,56 L49.0341906,52.2866532 C49.0341906,52.2866532 42.8227651,11.5432946 42.7843697,11.2640956 C42.7454179,10.9848966 42.5035592,10.8303809 42.3040901,10.8133613 C42.1050022,10.7965328 37.8922983,10.4800436 37.8922983,10.4800436 Z" id="Shape" fill="#F5F5F5"></path>
                            <path d="M27,20.8242503 L24.8097395,27.0804205 C24.8097395,27.0804205 22.8907635,26.0969443 20.5384447,26.0969443 C17.0899074,26.0969443 16.9163725,28.1750507 16.9163725,28.69871 C16.9163725,31.5560351 24.673009,32.6508554 24.673009,39.3436616 C24.673009,44.6093253 21.1949886,48 16.5053894,48 C10.8778705,48 8,44.6368763 8,44.6368763 L9.5068058,39.8563004 C9.5068058,39.8563004 12.4650129,42.2950401 14.9611856,42.2950401 C16.5922559,42.2950401 17.2557253,41.0618948 17.2557253,40.1608816 C17.2557253,36.4337045 10.8921173,36.2674484 10.8921173,30.1429531 C10.8921173,24.9882535 14.7451078,20 22.522719,20 C25.5195114,20 27,20.8242503 27,20.8242503" id="Shape" fill="#95BF46"></path>
                        </g>
                    </g>
                </g>
            </g>
        </g>
    </g>
</svg>