<?xml version="1.0" encoding="UTF-8"?>
<svg width="80px" height="80px" viewBox="0 0 80 80" version="1.1" xmlns="http://www.w3.org/2000/svg" xmlns:xlink="http://www.w3.org/1999/xlink">
    <!-- Generator: Sketch 50.2 (55047) - http://www.bohemiancoding.com/sketch -->
    <title>SQL@2x</title>
    <desc>Created with Sketch.</desc>
    <defs>
        <linearGradient x1="25.8951071%" y1="81.4467075%" x2="38.3411716%" y2="73.4213015%" id="linearGradient-1">
            <stop stop-color="#FFFFFF" offset="0%"></stop>
            <stop stop-color="#EDEDEE" offset="100%"></stop>
        </linearGradient>
    </defs>
    <g id="Main" stroke="none" stroke-width="1" fill="none" fill-rule="evenodd">
        <g transform="translate(-713.000000, -3602.000000)" id="Webtech-Icons">
            <g transform="translate(0.000000, 3188.000000)">
                <g id="SQL" transform="translate(713.000000, 414.000000)">
                    <g>
                        <circle id="Oval-2" fill="#A91D22" cx="40" cy="40" r="40"></circle>
                        <g id="Group-2" transform="translate(15.000000, 10.000000)" fill="url(#linearGradient-1)" fill-rule="nonzero">
                            <path d="M33.2900304,27.0747727 L21.7326368,30.8673503 L11.6778655,35.3270082 L8.86489498,36.073314 C8.14848965,36.758126 7.39731949,37.4517228 6.58487783,38.1540235 C5.69384266,38.9265219 4.86395815,39.628944 4.22614633,40.1380189 C3.51860342,40.6999242 2.47030069,41.7533753 1.93746818,42.4204557 C1.14246936,43.4212382 0.513519946,44.4834741 0.24269263,45.300018 C-0.237811347,46.7749385 -0.00182943061,48.2673073 0.924131703,49.6457161 C2.11217859,51.4014273 4.47961137,53.1922779 7.24001164,54.4125597 C8.64655732,55.0359994 11.0139095,55.8348117 12.7959396,56.2824738 C15.757275,57.0375239 21.4879939,57.8539869 24.6415228,57.9769746 C25.2791332,58.0032886 26.1353229,58.0032886 26.1701683,57.9769746 C26.2401411,57.932929 26.7293464,56.9936807 27.297266,55.8261484 C29.2366039,51.8491703 30.6342871,48.1180866 31.3942392,44.931379 C31.8484782,43.0000926 32.2066003,40.4277969 32.4423808,37.3816061 C32.5036523,36.5300038 32.5297561,33.6768364 32.477347,32.7110717 C32.3986729,31.1308952 32.2588885,29.849241 32.0406717,28.5938198 C32.0057054,28.4094193 31.996843,28.2425885 32.0144067,28.2338441 C32.0492521,28.2075301 32.1540703,28.1724313 33.5780185,27.7597062 L33.2898692,27.0750561 L33.2898692,27.0748537 L33.2900304,27.0748537 L33.2900304,27.0747727 Z M30.6518508,28.6287567 C30.756669,28.6287567 31.0361171,31.3238376 31.105969,33.0270828 C31.1235327,33.3869775 31.1146703,33.624006 31.0972677,33.624006 C31.0274561,33.624006 29.6209104,32.7900947 28.6164766,32.1580322 C27.742844,31.6049117 26.0831153,30.4987112 25.8210698,30.2880372 C25.7335333,30.2266244 25.7422346,30.21788 26.4586802,29.9719857 C27.6728309,29.5593011 30.5557742,28.6287567 30.6518508,28.6287567 Z M24.7639449,30.5777342 C24.842619,30.5777342 25.043393,30.6917346 25.5238969,30.9902974 C27.3234101,32.1227714 29.769517,33.4923549 30.8177794,33.9489233 C31.1409352,34.0893591 31.1757806,34.0366096 30.4333923,34.5458869 C28.8434753,35.6344368 26.860349,36.705417 24.4318058,37.785263 C24.0038318,37.9784079 23.6457097,38.1275881 23.6370084,38.1275881 C23.6196059,38.1275881 23.6718538,37.9082507 23.7416655,37.6448272 C24.3269876,35.4586997 24.6590059,33.2464606 24.6765696,31.4730988 C24.6852709,30.5951419 24.6852709,30.5951419 24.7639449,30.5689494 C24.7463812,30.5777342 24.7550825,30.5777342 24.7639449,30.5777342 Z M23.5497136,31.0429659 C23.6019616,31.0955535 23.5671162,33.0621411 23.4971837,33.597611 C23.3399564,34.8793867 23.0953538,36.0732735 22.6936447,37.4165835 C22.5975278,37.7411769 22.5100316,38.0135067 22.4927499,38.0309954 C22.4576225,38.0748386 21.2608341,36.8984809 20.8677457,36.4419935 C20.1863067,35.6518445 19.6535547,34.861736 19.2604261,34.0892377 C19.059491,33.6941632 18.7450767,32.9217053 18.7712208,32.8953103 C18.910965,32.7987581 23.5147474,31.0079076 23.5497136,31.0429659 Z M17.8364376,33.2991291 C17.8451389,33.2991291 17.8538401,33.2991291 17.8627025,33.3078735 C17.8801051,33.3254432 17.9413766,33.46596 17.9937857,33.623925 C18.2732337,34.3877195 18.9021026,35.5114087 19.4438781,36.2313195 C20.0379015,37.0214685 20.8154575,37.8641646 21.4617289,38.4172446 C21.6714861,38.5928198 21.8635588,38.7595696 21.8897029,38.7859646 C21.9422329,38.8386736 21.9596757,38.8298078 20.5356872,39.3741839 C18.8848209,40.0062465 17.0851466,40.638309 15.0234671,41.3054703 C14.5309774,41.4650349 14.0389369,41.6259963 13.5473514,41.7883527 C13.4685968,41.8147476 13.4948618,41.770783 13.7219813,41.4109288 C14.744019,39.8043168 16.2989296,36.652708 17.1725622,34.4228183 C17.3210882,34.0365287 17.4695739,33.65032 17.4958389,33.5625121 C17.5308051,33.4395245 17.5743921,33.3956813 17.6879116,33.3341875 C17.7490622,33.3167798 17.8102934,33.2991291 17.8364376,33.2991291 Z M16.0894543,34.0277843 C16.1155985,34.045435 15.6700607,34.9846832 15.2332646,35.8450299 C14.3858567,37.5042294 13.4598955,39.1372364 12.2194395,41.1212318 C12.0098032,41.4635568 11.8089486,41.7796893 11.7826837,41.8147881 C11.7390564,41.8762819 11.7214927,41.8586313 11.5817486,41.5865445 C11.2847368,40.9983251 11.0400537,40.243275 10.9090511,39.5497186 C10.7779679,38.8649066 10.8042329,37.6710602 10.9527992,36.9336607 C11.0662381,36.389406 11.0576173,36.3981908 11.3196628,36.2664589 C12.4378175,35.6958497 16.0544881,33.9926855 16.0894543,34.0277843 Z M31.1584989,34.6423986 L31.1584989,35.0110782 C31.1584989,36.9688 30.9488626,39.6551366 30.6429884,41.6129394 C30.5905793,41.9552645 30.5467507,42.2360957 30.5381702,42.2450019 C30.5381702,42.2450019 30.2848663,42.1748448 29.9878546,42.0869155 C28.6775467,41.6742713 27.2535985,41.0685228 25.9693944,40.3575587 C25.1219059,39.8922461 23.890272,39.1283706 23.9252786,39.0932313 C23.933859,39.0845274 24.3008435,38.8913826 24.7288175,38.6630984 C26.4412374,37.7676934 28.0834024,36.8020097 29.5073506,35.8451108 C30.0402637,35.4851352 30.8438027,34.9058221 31.0187145,34.7477356 L31.1584989,34.6423986 Z M9.49384439,37.2408059 C9.52877036,37.2408059 9.52002879,37.3110441 9.4676197,37.6270956 C9.43265345,37.8554202 9.3890262,38.2768087 9.37166393,38.5663843 C9.30161057,39.84816 9.51140808,40.796355 10.1403575,42.0955789 C10.3150679,42.4555545 10.4549329,42.7540364 10.4460705,42.7627402 C10.3848796,42.8154897 4.60195297,44.5186944 2.78479553,45.0190249 C2.24322147,45.1682051 1.7715799,45.2999371 1.73645252,45.3086005 C1.67542271,45.3262511 1.66664087,45.3175067 1.69282527,45.1681241 C1.89372008,43.8777256 2.87217088,42.192131 4.23488789,40.769879 C5.14344647,39.8218055 5.86855307,39.268766 7.10900905,38.557559 C8.00004422,38.0484841 9.37154307,37.284811 9.47636126,37.2495908 C9.47644183,37.2408059 9.48514311,37.2408059 9.49384439,37.2408059 Z M23.1216188,39.6901545 C23.13032,39.6814101 23.3399564,39.7956129 23.5932603,39.9447931 C25.4627463,41.033424 28.0659596,42.0430318 30.2847052,42.560932 L30.4857611,42.6048966 L30.206152,42.7627402 C29.0443701,43.4124534 25.2268449,45.0101591 21.3220653,46.4763353 C20.7541457,46.6869283 20.1951288,46.8977238 20.0901495,46.941567 C19.9853313,46.9854101 19.8892144,47.0118051 19.8892144,47.0030608 C19.8892144,46.9941545 20.0465625,46.6869283 20.2473365,46.3095044 C21.3393067,44.2552304 22.4400991,41.7532538 22.9991563,40.0149908 C23.0692097,39.8482005 23.1127563,39.6990203 23.1216188,39.6901545 Z M21.7326368,40.1467228 C21.7414992,40.1556695 21.6715264,40.3398676 21.5841108,40.5505416 C20.8241588,42.402886 19.8281443,44.4221827 18.5528026,46.6870902 C18.2296468,47.2665652 17.9587792,47.7318779 17.9499168,47.7318779 C17.9413363,47.7318779 17.67917,47.5737509 17.3647154,47.3806466 C15.512632,46.2393472 13.8703864,44.8347459 12.7959799,43.4739877 L12.638672,43.2808428 L13.43355,43.0613435 C16.2814465,42.2801008 18.7011272,41.4373238 21.1035665,40.4014424 C21.4443263,40.2609256 21.7239355,40.1467228 21.7326368,40.1467228 Z M30.3635404,43.1754653 C30.3635404,43.1754653 30.372282,43.1842502 30.3635404,43.1754653 C30.3722417,43.377395 29.926704,45.1858962 29.5597597,46.493824 C29.2540467,47.5911991 28.9918401,48.4516268 28.5114973,49.970269 C28.3018609,50.6376328 28.1185298,51.1905509 28.1096674,51.1905509 C28.1009661,51.1905509 28.048557,51.1818065 27.9961479,51.1643583 C25.4016762,50.6901394 23.0779512,50.0317629 20.8940107,49.1539275 C20.2824236,48.9080332 19.4089118,48.5129587 19.3565027,48.4691155 C19.3391002,48.4513839 19.8632717,48.2057325 20.527147,47.915995 C24.5018995,46.1689876 28.6251376,44.1849113 30.0402637,43.3334709 C30.2061923,43.2280934 30.3372754,43.1754653 30.3635404,43.1754653 Z M10.4373692,43.8602773 C10.4548523,43.877766 9.34539895,45.484378 7.79036756,47.6703031 C7.24879349,48.4340976 6.61984408,49.3295026 6.3840233,49.6630833 C6.14812195,49.9967045 5.78999985,50.5234705 5.58906476,50.839522 L5.22199968,51.4101717 L4.82887105,51.076591 C4.3658502,50.6902204 3.56227095,49.8650535 3.20410857,49.4085256 C2.45277728,48.4692774 1.94620975,47.4772392 1.74527465,46.5730898 C1.64915774,46.1516204 1.64915774,45.9408249 1.73641223,45.9146323 C1.86741483,45.8795335 4.19988135,45.326413 6.38394273,44.8171357 C7.59821431,44.5363045 9.00455857,44.2027238 9.51124695,44.0798171 C10.0179756,43.9567081 10.4286679,43.8602773 10.4373692,43.8602773 Z M11.5554836,44.2904507 L11.8349316,44.6064617 C13.0930319,46.0198884 14.3771554,47.064757 15.9321062,47.9775698 C16.2117154,48.1356967 16.4213115,48.2760516 16.4037478,48.2849984 C16.3427583,48.3288416 11.0050874,50.2336925 8.532917,51.0940797 C7.14401559,51.5856659 5.99955566,51.9806999 5.99093495,51.9806999 C5.98223367,51.9806999 5.9035596,51.9281124 5.81606341,51.8666185 L5.65891669,51.7524562 L5.9122206,51.3838172 C6.73332326,50.1898493 7.764304,48.8818406 10.0093549,46.1603647 L11.5554836,44.2904507 Z M18.5266988,49.3031482 C18.5352792,49.2944443 18.9196663,49.4347992 19.3913481,49.6105768 C20.527147,50.0406691 21.4267626,50.312756 22.6324135,50.6200632 C24.1175124,50.9976085 26.2664464,51.3663285 27.5332076,51.471625 C27.7254012,51.4891137 27.8302193,51.5067643 27.7952531,51.5331188 C27.7339816,51.5682581 26.4499789,51.9984315 25.5064944,52.2969133 C24.0038318,52.7708894 19.4176534,54.1316071 15.6788023,55.2114936 C14.988662,55.4133828 14.3945982,55.5802136 14.3596723,55.5889174 C14.2724178,55.6065681 13.9840268,55.5274236 13.9840268,55.4923248 C13.9840268,55.4748766 14.1936631,55.2027492 14.4470476,54.9042269 C15.7049061,53.3942075 16.9542245,51.708694 17.9937857,50.1109073 C18.2819753,49.6718277 18.5266988,49.311933 18.5266988,49.3031482 Z M16.9890699,49.3471533 C16.9977712,49.3558976 16.3776037,50.3566397 15.2944958,52.0772925 C14.8313944,52.8059477 14.3159644,53.6311551 14.1324722,53.9208926 C13.9577618,54.2018048 13.6957163,54.6408439 13.5472709,54.8865763 L13.2938864,55.3343598 L13.1628838,55.2992204 C12.8483084,55.2114126 10.6382237,54.430008 10.0529016,54.1930199 C9.32779498,53.9032824 8.57654425,53.5522131 8.01740649,53.2537312 C7.31864543,52.8761859 6.44513367,52.3142806 6.51494532,52.2968324 C6.53238817,52.288088 7.7292169,51.9631302 9.17052741,51.5681772 C12.9968344,50.523349 15.1195437,49.9176815 16.5086465,49.4787638 C16.762031,49.3997408 16.9803687,49.338247 16.9890699,49.3471533 Z M27.8650647,51.9104617 L27.873766,51.9104617 C27.9087323,51.9983505 26.4936465,55.9488526 25.9780151,57.195408 C25.8646165,57.4763202 25.8210698,57.5466798 25.7597983,57.537733 C25.6112723,57.5291101 23.5584552,57.2393726 22.3090965,57.0549721 C20.1340184,56.7213915 16.4824218,56.0804227 15.5652426,55.8698296 L15.3556062,55.8259864 L16.6570517,55.5273022 C19.4525793,54.8952396 20.7978535,54.5529146 22.1605705,54.1315261 C23.8815708,53.6048006 25.5851282,52.9463431 27.3059673,52.1387459 C27.5767543,52.0157987 27.8039141,51.9192466 27.8650647,51.9104617 Z" id="Shape"></path>
                            <path d="M21.3745147,0.000449646569 C21.1823211,-0.0257429143 18.0810402,1.09794628 16.0806322,1.91428784 C13.3812215,3.02056931 11.2847771,4.07410131 9.99183149,4.98691408 C9.51144837,5.32944152 8.90856251,5.93510907 8.81260673,6.17209709 C8.77768077,6.25990492 8.76011707,6.36524193 8.76011707,6.47057893 L9.9307614,7.58552378 L12.7173864,8.48096931 L19.3478417,9.67493715 L26.930362,10.9830268 L27.0090361,10.3246098 C26.982892,10.3246098 26.9653283,10.3158655 26.9393453,10.3158655 L25.94321,10.157779 L25.742436,9.7978843 C24.7115761,7.97181345 23.5759383,5.70682491 22.9120629,4.17927638 C22.3967136,2.99409337 21.907468,1.62471228 21.6366004,0.64141845 C21.4880744,0.0444547681 21.4706719,0.00935592691 21.3747161,0.000611578939 L21.3747161,0.000409163476 L21.3745147,0.000409163476 L21.3745147,0.000449646569 Z M21.2345691,0.448314099 L21.2435524,0.448314099 C21.2521328,0.45697748 21.287099,0.70295275 21.3221056,0.992487827 C21.4704705,2.22171645 21.7414992,3.40669705 22.1694732,4.68847272 C22.4926291,5.65419689 22.4926291,5.60156887 22.1170641,5.48736607 C21.226029,5.2416337 17.2338337,4.54807736 14.34231,4.14425851 C13.8792891,4.08276469 13.4861605,4.02135184 13.4861605,4.01260749 C13.4512345,3.97750865 15.5739438,2.86248283 16.5086868,2.42364611 C17.7054753,1.87044465 20.9900873,0.492157288 21.2345691,0.448314099 Z M12.8133824,4.38124653 L13.1542228,4.49524692 C15.0060645,5.12743089 19.6620949,6.0229169 22.2305433,6.23359091 C22.5187329,6.2599454 22.7634564,6.28634038 22.7720368,6.28634038 C22.7807381,6.29508473 22.5362966,6.42677623 22.2217212,6.57595642 C20.981386,7.1992746 19.6185482,7.9630691 18.6750636,8.55128844 C18.3956156,8.72678264 18.1421506,8.86733994 18.1073052,8.86733994 C18.0723389,8.86733994 17.8889675,8.83220062 17.696774,8.80584612 L17.3473532,8.75309665 L16.4738817,7.89270949 C14.9363737,6.39159642 13.7308034,5.23280838 13.2677826,4.79376924 L12.8133824,4.38124653 Z M12.4640825,4.6533334 L13.6957969,6.19849207 C14.3683735,7.05005392 15.0497723,7.88400562 15.1984192,8.06828466 C15.346784,8.25276611 15.4691659,8.40206776 15.4604646,8.41081211 C15.4254984,8.43712612 13.6784749,8.09467964 12.7523526,7.88408659 C11.8001668,7.66454678 11.4070784,7.55920977 10.8217966,7.37493074 L10.3412926,7.21684426 L10.3412926,7.09385663 C10.3499939,6.50563729 11.0926239,5.62780191 12.3505227,4.73243736 L12.4640825,4.6533334 Z M22.9294252,6.76031643 C22.9644318,6.76031643 23.0079784,6.83929894 23.1127966,7.07632745 C23.4098083,7.73470398 24.3359709,9.50814681 24.562889,9.85047184 C24.6329826,9.96471513 24.7550825,9.97345948 23.523489,9.77152981 C20.5621536,9.28856652 19.6098469,9.13072294 19.6098469,9.11315328 C19.6098469,9.10440893 19.6972223,9.04291511 19.810782,8.98142129 C20.7280821,8.47234641 21.654003,7.82263326 22.4752265,7.12907692 C22.6761616,6.96224609 22.8596136,6.80424058 22.894459,6.77784561 C22.9031603,6.76031643 22.9207239,6.75157208 22.9294252,6.76031643 Z" id="Shape"></path>
                            <path d="M8.87355597,6.04919042 C8.87355597,6.04919042 8.68148329,6.35657855 8.86489498,6.81310638 C8.97857558,7.09393759 9.31047298,7.43626262 9.68603792,7.78749393 C9.68603792,7.78749393 13.573415,11.5975197 14.0451774,12.1418958 C16.1940711,14.6350471 17.1288544,17.0931805 17.2162297,20.4818987 C17.2686388,22.6590794 16.8579465,24.5728771 15.835949,26.793982 C14.0189124,30.7796639 10.1838639,35.1779495 4.26981386,40.0590769 L5.13478547,39.7693394 C5.69384266,39.3478699 6.45387523,38.9002889 8.23590528,37.916995 C12.3503616,35.651885 16.9803284,33.571297 22.6585979,31.4292556 C30.8350208,28.3389787 44.2794641,24.7219763 51.9317961,23.5457401 L52.7268754,23.4227525 L52.6044936,23.2296076 C51.9057728,22.1409768 51.425148,21.4650711 50.8485271,20.7452007 C49.1713958,18.6557874 47.1361021,16.9615294 44.6462875,15.5568471 C41.2218909,13.6343455 36.7927384,12.1331515 31.1845625,11.0182066 C30.1275585,10.8074112 27.8038335,10.4036328 25.916945,10.1139358 C21.9159276,9.49077956 19.3301572,9.06052526 16.4823816,8.56889858 C15.4603841,8.39324244 13.9314968,8.12994041 12.9181603,7.91052205 C12.3940291,7.79627876 11.3895148,7.55929074 10.6032978,7.28716339 C9.97434836,7.04122861 9.06574951,6.79541527 8.87355597,6.04919042 Z M11.1275096,8.24402177 C11.1361303,8.23535838 11.2758744,8.28786495 11.4594473,8.34935877 C11.7913849,8.46335916 12.2193993,8.59509114 12.7262085,8.73564844 C13.1096171,8.84163073 13.4939938,8.94404385 13.8792891,9.04287463 C14.4034204,9.17448516 14.8401359,9.29743231 14.8488372,9.29743231 C14.9101087,9.35892613 15.7924426,12.1943214 16.0894543,13.2829523 C16.202853,13.6956774 16.2903894,14.0467468 16.2816479,14.0467468 C16.2726646,14.0556531 16.1767088,13.9063109 16.0631894,13.7044218 C15.041071,11.8959206 13.4249696,10.0611459 11.5554836,8.58622535 C11.3110018,8.41081211 11.1275096,8.25276611 11.1275096,8.24402177 Z M15.4254581,9.43794913 C15.4691659,9.43794913 15.6613595,9.46430362 15.8970997,9.51693164 C17.3821986,9.85051232 20.0466431,10.3597087 21.7500393,10.6494462 C22.0383498,10.6932893 22.2655498,10.7460793 22.2655498,10.7635275 C22.2655498,10.7811781 22.1606108,10.84251 22.0295276,10.9128292 C21.7413783,11.0620093 20.5794353,11.7554847 20.1951691,12.0189082 C19.2254196,12.6685404 18.3519481,13.3708411 17.7229181,14.0029036 C17.4696142,14.2575423 17.2511154,14.4682163 17.2511154,14.4682163 C17.2511154,14.4682163 17.1988674,14.3190361 17.1549985,14.1345546 C16.8407051,12.9142728 16.1854101,11.1057716 15.5913867,9.83290218 C15.4952698,9.63105348 15.4165957,9.44665299 15.4165957,9.4291643 C15.4165957,9.44669348 15.4165957,9.43794913 15.4254581,9.43794913 Z M22.9905356,10.8864747 C23.0429447,10.9039634 23.13032,11.2024857 23.3049902,11.8608622 C23.6282669,13.1338935 23.7767929,14.5560646 23.7243838,15.8816834 C23.7068201,16.2504034 23.6894175,16.5927285 23.6718538,16.6367336 L23.6457097,16.72442 L23.1914707,16.5752398 C22.2567277,16.2767579 20.7367834,15.828934 19.4352171,15.4602949 C18.6925468,15.2583653 18.0899429,15.0740053 18.0899429,15.0564761 C18.0899429,15.0037266 19.1732119,13.9151767 19.6361522,13.5026135 C20.5182846,12.7211684 22.9118615,10.8600797 22.9905356,10.8864747 Z M23.5933006,10.974161 C23.6195656,10.9479685 27.2099309,11.5711247 28.8435155,11.8872167 C30.0578677,12.1242047 31.8224146,12.4929652 31.9271925,12.5369299 C31.9796016,12.5544186 31.7961093,12.6597556 31.2107872,12.9230981 C28.9046259,13.9678857 27.192327,14.9070935 25.4890515,16.0484738 C25.0435138,16.3469556 24.667828,16.5927285 24.6591267,16.5927285 C24.6504255,16.5927285 24.6416839,16.3382113 24.6416839,16.0309041 C24.6416839,14.3629602 24.3097059,12.6773657 23.6980785,11.2551947 C23.6369681,11.1147183 23.584559,10.9830673 23.5933006,10.974161 Z M32.879338,12.817842 C32.905603,12.844156 32.7919627,13.5553225 32.6871445,13.9766301 C32.3726899,15.2847198 31.5253626,17.2249934 30.4859223,19.0509023 C30.3023092,19.3757387 30.1363806,19.6391217 30.1187766,19.647866 C30.1014949,19.6566104 29.8655936,19.5248784 29.594726,19.3668729 C28.5814298,18.7699092 27.4283492,18.2080848 26.1703295,17.6812783 C25.8210295,17.5320982 25.5151957,17.4091105 25.5064541,17.3917028 C25.4451826,17.3389533 28.2581531,15.4690393 29.743252,14.5735938 C30.9225976,13.8537639 32.8443718,12.7826622 32.879338,12.817842 Z M33.5432134,12.9231386 C33.6218875,12.9231386 35.2118046,13.3621372 36.0415682,13.6079506 C38.0945464,14.2225244 40.4531168,15.0915749 41.9906248,15.7938756 L42.6282352,16.0836941 L42.1828586,16.1889501 C38.426605,17.0580007 35.2118046,18.0589451 32.1105639,19.3230702 C31.8572197,19.4284072 31.6300599,19.516215 31.6127782,19.516215 C31.5952145,19.516215 31.6825899,19.3143258 31.7961496,19.0684315 C32.7308926,17.0756513 33.3336576,14.9950227 33.4820225,13.2215799 C33.4909252,13.0547491 33.5169485,12.9231386 33.5432134,12.9231386 Z M17.7142168,16.5752398 C17.7403609,16.5488448 18.9546728,16.8386228 19.6098469,17.0228209 C20.6057003,17.3038545 22.719668,18.014859 22.719668,18.0676085 C22.719668,18.0763528 22.4838875,18.2782825 22.2044395,18.5241768 C21.0600601,19.4810757 19.9592677,20.4905216 18.6400974,21.7722973 C18.2469688,22.1499235 17.9151116,22.4571497 17.8977091,22.4571497 C17.8801454,22.4571497 17.871565,22.4043598 17.8801454,22.3341621 C18.0810402,20.8592416 18.0374935,18.963054 17.7579246,17.0404715 C17.7316194,16.7945772 17.7054753,16.5839841 17.7142168,16.5752398 Z M43.2312419,16.6016348 C43.2485236,16.619083 42.6720639,17.5320982 42.3052002,18.0499984 C41.7811496,18.8049675 41.012174,19.8059525 39.2737712,22.0006624 C38.3567128,23.1593695 37.325732,24.4675401 36.9851736,24.9064578 C36.6355917,25.3453755 36.3474424,25.7140145 36.33858,25.7140145 C36.3298787,25.7140145 36.2164801,25.55609 36.0940982,25.3629856 C35.1156474,23.8880651 33.9450031,22.5975451 32.5560211,21.4387571 C32.2939756,21.2192172 32.0058263,20.9821887 31.9097094,20.9119506 C31.8135925,20.8417529 31.7349184,20.7715147 31.7349184,20.7627704 C31.7349184,20.7364969 33.2198562,20.0954876 34.3469538,19.6390812 C36.321258,18.8313625 39.0115646,17.8657193 41.0296974,17.2423607 C42.0867417,16.9088205 43.2136782,16.5839841 43.2312419,16.6016348 Z M43.9038186,16.7770885 C43.938664,16.7683846 44.1484212,16.8737216 44.4017654,17.0228209 C46.5245955,18.2431027 48.6035567,19.8146159 50.2460038,21.4299722 C50.7089441,21.8865405 51.8533234,23.0804679 51.8357597,23.0892123 C51.8357597,23.0892123 51.4339298,23.1243111 50.9622882,23.1593695 C47.2845475,23.4404031 42.5761081,24.2216053 38.0509192,25.31894 C37.7452062,25.3890972 37.4744594,25.450591 37.4568958,25.450591 C37.439614,25.450591 37.7801724,25.108266 38.2083076,24.6957028 C40.8638897,22.1234881 42.0782418,20.4993874 43.5107705,17.6022554 C43.711625,17.1722035 43.886416,16.8034835 43.9038186,16.7770885 C43.8951173,16.7770885 43.8951173,16.7770885 43.9038186,16.7770885 Z M24.4493695,18.7788155 C24.5717514,18.805008 25.7073892,19.3407208 26.5634581,19.7707727 C27.3496751,20.1656853 28.529061,20.7979097 28.5901713,20.8504972 C28.5988726,20.8592416 28.179479,21.0787409 27.6642908,21.3333796 C26.0218438,22.1585869 24.6154592,22.9398296 23.1477629,23.8353157 C22.7284901,24.0899543 22.3790693,24.3007498 22.370368,24.3007498 C22.3354018,24.3007498 22.3441031,24.2654485 22.5800044,23.8353157 C23.3662617,22.3956964 23.9951305,20.675003 24.3534137,18.9981529 C24.3882189,18.8665018 24.4232254,18.7788155 24.4493695,18.7788155 Z M23.3136914,18.9894085 C23.3399564,19.0158035 23.0429447,20.0955281 22.8595733,20.6837474 C22.5012901,21.7986922 21.8985653,23.1945088 21.313364,24.2480003 C21.1734184,24.4936922 20.9638224,24.8536678 20.8502626,25.055557 L20.6319249,25.4067074 L20.1427197,24.9327718 C19.5749612,24.3796513 19.1118598,24.0372858 18.5179572,23.7299382 C18.281935,23.6071529 18.0985636,23.5016945 18.0985636,23.4842463 C18.0985636,23.4140081 19.5923638,22.0532904 20.7367431,21.0700371 C21.5578458,20.3589111 23.2875473,18.9630945 23.3136914,18.9894085 Z M30.2587625,21.8601861 L30.6868574,22.1410173 C31.6650262,22.7819861 32.8181068,23.633467 33.7006018,24.3796513 C34.1983875,24.792174 35.1592746,25.661427 35.3516293,25.872101 L35.4562864,25.9863443 L34.7488643,26.188193 C30.7478469,27.3030164 27.6554284,28.2950546 24.0475396,29.6295392 C23.6457097,29.7787194 23.3049902,29.9016261 23.2787252,29.9016261 C23.2264772,29.9016261 23.1826486,29.9454693 24.0825461,29.1114366 C26.3888283,26.978342 28.4328635,24.6254242 29.9529286,22.3341216 L30.2587625,21.8601861 Z M28.4329441,22.3166734 C28.4503466,22.3341621 27.2535985,24.0284605 26.5371931,24.9853998 C25.6811242,26.1266992 24.1610591,28.0404564 23.1127966,29.2869713 C22.6761213,29.8050334 22.3005564,30.2351663 22.2829927,30.2439916 C22.2567277,30.252736 22.2480264,30.1210849 22.2480264,29.9191553 C22.2480264,28.856798 21.9772797,27.7243239 21.505477,26.7587212 C21.3045419,26.3549024 21.2695756,26.2583097 21.3134043,26.2144665 C21.4793329,26.0651649 24.0213955,24.6078545 25.6287151,23.738804 C26.7119438,23.1594099 28.406518,22.2991037 28.4329441,22.3166734 Z M17.3908998,25.0381493 C17.4171648,25.0381493 17.6180999,25.1434053 17.8452597,25.266393 C18.4043169,25.5736192 18.9022637,25.9159847 19.3477612,26.2847856 C19.3651637,26.3022743 19.1381248,26.4867153 18.8411131,26.7060527 C18.0111883,27.3030164 16.7532894,28.2599962 16.0196024,28.8482155 C15.2506671,29.4627489 15.2246439,29.4802781 15.3118984,29.348627 C15.8885192,28.4619259 16.1766686,27.9615144 16.4825427,27.3207075 C16.7532894,26.7501388 17.0240362,26.0741116 17.2162297,25.4858923 C17.2860817,25.2312941 17.3734973,25.0381493 17.3908998,25.0381493 Z M20.3349535,27.3557254 C20.3785002,27.347062 20.4310704,27.4259635 20.6668106,27.7771948 C21.1647575,28.5232578 21.5491445,29.5242022 21.6453823,30.3318399 L21.662664,30.5074961 L20.4660367,30.9728087 C18.3256428,31.8067199 16.3514998,32.6320083 15.0147658,33.2464202 C14.6392411,33.4220763 13.9840268,33.7380468 13.5560527,33.9488828 C13.1279578,34.1682202 12.778537,34.335051 12.778537,34.3263066 C12.778537,34.3175623 13.0492838,34.1156326 13.3812215,33.8697383 C15.9933777,31.9648064 18.2558312,29.8753121 19.9505262,27.7859797 C20.1340184,27.5664399 20.3000678,27.3645102 20.3173898,27.3557659 L20.3349535,27.3557254 Z M18.9809378,27.689387 C19.015904,27.7244859 18.0200507,28.8569194 17.3386519,29.5504353 C15.6526582,31.2799944 13.9841073,32.6320083 11.9136863,33.9488828 C11.6516408,34.1156326 11.41582,34.2648128 11.389555,34.2824635 C11.3283641,34.3175623 11.4069576,34.229714 12.3155162,33.2376758 C12.8921371,32.6143576 13.3288527,32.0876321 13.8267995,31.4380809 C14.1587372,31.0079885 14.2199281,30.9464947 14.7004724,30.6039673 C15.9846362,29.6733824 18.9459715,27.6542072 18.9809378,27.689387 Z" id="Shape"></path>
                        </g>
                    </g>
                </g>
            </g>
        </g>
    </g>
</svg>