<?xml version="1.0" encoding="UTF-8"?>
<svg width="80px" height="80px" viewBox="0 0 80 80" version="1.1" xmlns="http://www.w3.org/2000/svg" xmlns:xlink="http://www.w3.org/1999/xlink">
    <!-- Generator: Sketch 50.2 (55047) - http://www.bohemiancoding.com/sketch -->
    <title>Swift@2x</title>
    <desc>Created with Sketch.</desc>
    <defs></defs>
    <g id="Main" stroke="none" stroke-width="1" fill="none" fill-rule="evenodd">
        <g transform="translate(-1233.000000, -3472.000000)" id="Webtech-Icons">
            <g transform="translate(0.000000, 3188.000000)">
                <g id="Swift" transform="translate(1233.000000, 284.000000)">
                    <g>
                        <circle id="Oval-2" fill="#FD2C23" cx="40" cy="40" r="40"></circle>
                        <g id="Swift_logo" transform="translate(15.882353, 18.235294)" fill="#FFFFFF" fill-rule="nonzero">
                            <path d="M35.0522754,38.8751016 C29.5783263,42.0465723 22.0517929,42.3724244 14.4795162,39.1174321 C8.34838818,36.501204 3.26114595,31.9216286 0,26.6891726 C1.56535944,27.9972866 3.39157302,29.0442484 5.34821367,29.9594576 C13.168208,33.6355874 20.9865603,33.383846 26.4886591,29.9688685 C26.4851404,29.9653394 26.4827946,29.9629867 26.4804488,29.9594576 C18.6536516,23.9411921 12.0009326,16.0913316 7.04423476,9.68133769 C6.00023174,8.63461121 5.21755202,7.32626193 4.4348723,6.14884168 C10.4353386,11.6436263 19.9582742,18.5771012 23.3491435,20.5404485 C16.1756545,12.9517404 9.78332055,3.53261365 10.0437055,3.79376591 C21.3927374,15.3068161 31.9594414,21.8485626 31.9594414,21.8485626 C32.3089672,22.0461913 32.5787354,22.2108819 32.7957229,22.3579271 C33.0244394,21.7744518 33.2250062,21.1686256 33.3939046,20.5404485 C35.2201182,13.868126 33.1335196,6.27941781 28.5673992,0 C39.1329303,6.41058212 45.3950718,18.446525 42.7853575,28.5208851 C42.717329,28.7926246 42.643436,29.0608351 42.5636784,29.32434 C42.5941739,29.3608072 42.6246695,29.3984508 42.655165,29.4372707 C47.8722479,35.9790172 46.4377847,42.912492 45.7856493,41.604378 C42.9554288,36.0495989 37.7160607,37.7482649 35.0523927,38.8752192 L35.0522754,38.8751016 Z" id="Shape"></path>
                        </g>
                    </g>
                </g>
            </g>
        </g>
    </g>
</svg>