<?xml version="1.0" encoding="UTF-8"?>
<svg width="80px" height="80px" viewBox="0 0 80 80" version="1.1" xmlns="http://www.w3.org/2000/svg" xmlns:xlink="http://www.w3.org/1999/xlink">
    <!-- Generator: Sketch 50.2 (55047) - http://www.bohemiancoding.com/sketch -->
    <title>Wordpress@2x</title>
    <desc>Created with Sketch.</desc>
    <defs></defs>
    <g id="Main" stroke="none" stroke-width="1" fill="none" fill-rule="evenodd">
        <g transform="translate(-323.000000, -3472.000000)" id="Webtech-Icons">
            <g transform="translate(0.000000, 3188.000000)">
                <g id="Wordpress" transform="translate(323.000000, 284.000000)">
                    <g>
                        <circle id="Oval-2" fill="#00749A" cx="40" cy="40" r="40"></circle>
                        <g id="WordPress_logo" transform="translate(8.823529, 8.823529)" fill="#FFFFFF" fill-rule="nonzero">
                            <g id="Group">
                                <path d="M4.70588235,31.578402 C4.70588235,42.2674541 10.9481791,51.5048875 20,55.8823529 L7.05532816,20.5882353 C5.5496174,23.9467414 4.70588235,27.6633992 4.70588235,31.578402 Z" id="Shape"></path>
                                <path d="M49.4061416,30.3087024 C49.4061416,26.9762311 48.2135277,24.6683857 47.1906299,22.8720837 C45.828811,20.6509492 44.5523614,18.7699886 44.5523614,16.5488541 C44.5523614,14.0701523 46.4253736,11.76282 49.0636421,11.76282 C49.1827501,11.76282 49.2957238,11.7776994 49.4117647,11.7843694 C44.6321075,7.38930417 38.2641728,4.70588235 31.2700264,4.70588235 C21.8845177,4.70588235 13.6272127,9.53912012 8.82352941,16.8597822 C9.45383073,16.8787662 10.0478373,16.8921064 10.5523851,16.8921064 C13.3624146,16.8921064 17.7121582,16.5498803 17.7121582,16.5498803 C19.1603687,16.4641955 19.3311073,18.5991321 17.8844303,18.7710147 C17.8844303,18.7710147 16.429063,18.9428974 14.8096027,19.0280691 L24.5928197,48.2352941 L30.4720537,30.5375372 L26.2864031,19.0270429 C24.8397261,18.9418712 23.4692169,18.7699886 23.4692169,18.7699886 C22.0215175,18.6848168 22.1912337,16.4631693 23.6389331,16.5488541 C23.6389331,16.5488541 28.0755796,16.8910802 30.7153817,16.8910802 C33.5248999,16.8910802 37.8751547,16.5488541 37.8751547,16.5488541 C39.3243877,16.4631693 39.4946151,18.5981059 38.0474269,18.7699886 C38.0474269,18.7699886 36.5889925,18.9418712 34.9725993,19.0270429 L44.6811821,48.0131294 L47.3608573,39.0254621 C48.5222884,35.2958649 49.4061416,32.6170608 49.4061416,30.3087024 Z" id="Shape"></path>
                                <path d="M31.5704123,33.5294118 L23.5294118,57.1323897 C25.9302889,57.8453368 28.4693643,58.2352941 31.100232,58.2352941 C34.2211683,58.2352941 37.2141054,57.6902811 40,56.7007065 C39.9280961,56.5848011 39.8628216,56.4616838 39.8092761,56.3277486 L31.5704123,33.5294118 Z" id="Shape"></path>
                                <path d="M54.9022533,18.2352941 C55.0192566,19.0856085 55.0855239,19.9984012 55.0855239,20.9802756 C55.0855239,23.6891923 54.5698811,26.7343744 53.0167401,30.5419949 L44.7058824,54.1176471 C52.7946409,49.4896815 58.235294,40.8915502 58.235294,31.0433451 C58.2358117,26.4021727 57.0274679,22.0378351 54.9022533,18.2352941 Z" id="Shape"></path>
                                <path d="M31.4698177,0 C14.1178055,0 0,14.117239 0,31.4698177 C0,48.8244512 14.1178055,62.9411765 31.4698177,62.9411765 C48.8213162,62.9411765 62.9411765,48.8244512 62.9411765,31.4698177 C62.9406628,14.117239 48.8213162,0 31.4698177,0 Z M31.4698177,61.4986814 C14.9135149,61.4986814 1.44296167,48.0276884 1.44296167,31.4698177 C1.44296167,14.9129743 14.9130012,1.44300878 31.4698177,1.44300878 C48.0256068,1.44300878 61.4951326,14.9129743 61.4951326,31.4698177 C61.4951326,48.0276884 48.0256068,61.4986814 31.4698177,61.4986814 Z" id="Shape"></path>
                            </g>
                        </g>
                    </g>
                </g>
            </g>
        </g>
    </g>
</svg>