<?xml version="1.0" encoding="utf-8"?>
<svg width="55px" height="55px" viewBox="0 0 55 55" version="1.1" xmlns:xlink="http://www.w3.org/1999/xlink" xmlns="http://www.w3.org/2000/svg">
  <desc>Created with Lunacy</desc>
  <g id="ASP.NET">
    <g id="ASP.NET">
      <path d="M27.5 55C42.6878 55 55 42.6878 55 27.5C55 12.3122 42.6878 0 27.5 0C12.3122 0 0 12.3122 0 27.5C0 42.6878 12.3122 55 27.5 55Z" id="Oval-2" fill="#3080BF" stroke="none" />
      <path d="M19.25 16.1342C17.7542 16.0736 16.6245 15.6492 15.9868 14.6661C15.2097 13.4661 14.548 12.1501 14.1114 10.7983C13.3613 8.48285 12.8238 6.10137 12.1914 3.74942C12.1164 3.46645 12.0039 3.19297 11.8486 2.74665C11.4476 3.09269 11.1063 3.32752 10.8404 3.6258C8.61879 6.12033 7.42304 9.12463 6.51498 12.2277C5.66992 15.1161 3.30768 16.2571 0.732022 16.4839C0.325812 16.5203 -0.0961507 16.5528 0.0193734 15.8902C0.793534 11.4274 2.11981 7.17524 4.93027 3.47666C5.95086 2.13295 7.13535 0.952234 8.71856 0.224405C9.33106 -0.0570996 9.94356 -0.167951 10.5366 0.464705C5.33685 3.50839 4.22137 8.68487 2.84746 13.7253L3.13365 13.8643C3.25517 13.5766 3.38082 13.2907 3.49785 13.0015C4.77986 9.83568 6.08589 6.67422 8.20583 3.92991C8.88584 3.05003 9.7624 2.31163 10.5666 1.52545C11.0467 1.05616 11.5013 1.0784 11.7904 1.72309C12.5781 3.47849 13.3928 5.22367 14.1096 7.00641C14.8518 8.85151 15.4553 10.7491 16.1864 12.5986C16.746 14.0214 17.5603 15.2908 19.25 16.1342Z" transform="translate(9.625 19.9375)" id="Shape" fill="#FFFFFF" stroke="none" />
      <path d="M10.2175 0.0849492L4.41336 12.1796L4.61464 12.3137C4.78388 12.0808 4.97472 11.8613 5.11875 11.613C7.1867 8.03003 9.26941 4.45542 11.2938 0.847266C11.7226 0.0816681 12.2037 -0.170979 13.0625 0.113386C12.9905 0.306243 12.9545 0.480143 12.8673 0.623784C10.4976 4.61911 8.15748 8.63266 5.72585 12.589C5.12272 13.57 4.26788 14.4118 3.43754 15.2237C2.93702 15.7126 2.28528 16.0684 1.65694 16.3904C1.03976 16.7057 0.603339 16.2835 0.194648 15.849C-0.28282 15.3415 0.241818 15.0987 0.455346 14.8037C2.00369 12.6666 2.94171 10.2401 3.84983 7.78139C4.50374 6.01163 5.25694 4.28111 6.10574 2.5983C6.90476 1.01424 8.31555 0.234423 10.2175 0.0849492Z" transform="translate(36.4375 19.25)" id="Shape" fill="#FFFFFF" stroke="none" />
      <path d="M0 0.767865C2.19578 -0.538872 4.08526 -0.198682 5.2319 1.94904C6.16232 3.69233 6.77192 5.59914 7.51142 7.44135C8.38564 9.61681 9.19919 11.8175 10.1337 13.9674C10.5662 14.962 10.2145 15.8132 9.07526 15.8125C8.59144 15.8125 7.99821 15.5322 7.64465 15.192C5.73433 13.3436 4.70455 10.9969 3.9524 8.52288C3.13066 5.81815 2.03277 3.25687 0.159287 1.07046C0.0863424 0.982491 0.0513588 0.866053 0 0.767865Z" transform="translate(21.3125 19.9375)" id="Shape" fill="#FFFFFF" stroke="none" />
      <path d="M8.9375 0C7.24585 0.6131 6.19887 1.79048 5.49594 3.21939C4.7325 4.77143 4.14202 6.39987 3.44465 7.98233C2.73504 9.59167 1.99462 11.1886 1.25011 12.7835C1.10463 13.0952 0.878976 13.3725 0.636252 13.75C0.0873386 13.0623 -0.155386 12.4538 0.104411 11.6786C0.98772 9.04508 1.82389 6.39669 2.7098 3.76386C3.45208 1.55734 5.23725 0.579845 7.49117 0.195286C7.97031 0.114271 8.45539 0.0643879 8.9375 0Z" transform="translate(35.0625 19.25)" id="Shape" fill="#FFFFFF" stroke="none" />
      <path d="M6.04442 13.0625C5.38792 11.1455 4.73164 9.22851 4.0756 7.31151C3.59837 5.90787 3.18175 4.48091 2.6474 3.1006C2.15972 1.8433 1.46303 0.707946 0 0.00807117C2.04372 -0.0880732 3.49874 0.674366 4.2017 2.31554C5.0196 4.22429 5.53933 6.27018 6.1552 8.26694C6.39486 9.04458 6.48647 9.86782 6.74738 10.6352C7.05461 11.5397 6.80207 12.2806 6.04442 13.0625Z" transform="translate(26.125 19.9375)" id="Shape" fill="#FFFFFF" stroke="none" />
      <path d="M0 16.4714C1.34064 9.83538 6.44629 1.12033 10.3125 0C6.21065 3.02707 4.15338 7.3568 2.86203 12.145C2.57635 13.2049 2.27051 14.2756 2.16893 15.3596C2.07968 16.3016 1.68794 16.5911 0.81895 16.4762C0.580323 16.4447 0.33348 16.4714 0 16.4714Z" transform="translate(6.1875 19.9375)" id="Shape" fill="#FFFFFF" stroke="none" />
      <path d="M0.6875 0.0682487C0.646976 0.503961 0.606294 0.939545 0.565456 1.375C0.368489 1.35341 0 1.33143 0 1.31099C0.00329849 0.874124 0.0471213 0.438026 0.0838759 0L0.6875 0.0682487Z" transform="translate(33.6875 33.6875)" id="Shape" fill="#FFFFFF" stroke="none" />
    </g>
  </g>
</svg>