<?xml version="1.0" encoding="utf-8"?>
<svg width="76px" height="80px" viewBox="0 0 76 80" version="1.1" xmlns:xlink="http://www.w3.org/1999/xlink" xmlns="http://www.w3.org/2000/svg">
  <desc>Created with Lunacy</desc>
  <defs>
    <linearGradient x1="0.25" y1="0.25" x2="0.25" y2="0.75" id="gradient_1">
      <stop offset="0" stop-color="#F13C5B" />
      <stop offset="1" stop-color="#F45D77" />
    </linearGradient>
  </defs>
  <g id="neurology">
    <g id="Bespoke-Icon">
      <path d="M66.164 9.75943L66.1666 9.75943C79.2778 22.7774 79.2778 43.8825 66.1666 56.9003C64.2795 58.7762 62.1698 60.4176 59.8839 61.7885L59.8839 78.6666C59.8839 79.403 59.2825 80 58.5409 80L26.3078 80C25.5661 80 24.9648 79.403 24.9648 78.6666L24.9648 66.666L10.1913 66.666C9.44957 66.666 8.84822 66.069 8.84822 65.3327L8.84822 50.6653L1.34061 50.6653C1.15174 50.665 0.965058 50.625 0.792812 50.5481C0.116254 50.2461 -0.185763 49.4569 0.118436 48.7852L9.15444 28.8563C10.1412 21.6303 13.4874 14.9248 18.6803 9.7676C31.7903 -3.25267 53.0495 -3.25634 66.164 9.75943ZM57.7096 59.7C60.0496 58.3738 62.2005 56.7427 64.1051 54.8505C68.9337 50.0589 72.0272 43.8141 72.9026 37.0921C75.0899 20.2944 63.1474 4.91666 46.228 2.74506C29.3087 0.573455 13.8197 12.4303 11.6324 29.2279C11.6163 29.3585 11.58 29.4856 11.525 29.6053L3.25853 47.8328L10.0315 47.8328C10.7732 47.8328 11.3745 48.4298 11.3745 49.1662L11.3745 63.8335L26.148 63.8335C26.8897 63.8335 27.4911 64.4306 27.4911 65.1669L27.4911 77.1675L57.038 77.1675L57.038 60.8587C57.0367 60.3809 57.2927 59.9389 57.7096 59.7Z" id="Shape" fill="url(#gradient_1)" fill-rule="evenodd" stroke="none" />
      <path d="M12.275 2.25596C13.9587 0.831218 16.5124 1.0021 17.9789 2.63761C18.6354 3.35904 18.9985 4.28827 19 5.25096C19.0034 7.4352 17.1835 9.20863 14.935 9.21193C14.8495 9.21193 14.7626 9.20402 14.6771 9.20402C13.0464 9.10828 11.6336 8.07243 11.0916 6.57534L7.34737 6.57534L2.71421 11.076L2.71421 31.6229C2.71421 32.3509 2.10657 32.9412 1.35711 32.9412C0.607644 32.9412 0 32.3509 0 31.6229L0 10.5302C0 10.1805 0.143175 9.84537 0.397632 9.59819L4.86658 5.25705L1.75474 2.23421C1.24684 1.72321 1.24684 0.913281 1.75474 0.402443C2.27553 -0.121248 3.13458 -0.135749 3.67369 0.370145L7.34737 3.93876L11.1079 3.93876C11.3385 3.28818 11.741 2.70797 12.275 2.25596ZM15.9325 6.23981C16.2014 6.00861 16.3651 5.68316 16.3877 5.33496C16.4345 4.60825 15.8662 3.98223 15.1181 3.93659L15.0326 3.93659C14.3171 3.93741 13.7252 4.47791 13.6799 5.17166C13.6326 5.89837 14.2007 6.52472 14.9486 6.5707C15.3078 6.59014 15.6603 6.47232 15.9312 6.24244L15.9325 6.23981Z" transform="translate(51.57143 26.89076)" id="Shape" fill="url(#gradient_1)" fill-rule="evenodd" stroke="none" />
      <path d="M8.14286 3.98559C8.14286 1.78438 9.96567 0 12.2143 0C14.4629 0 16.2857 1.78438 16.2857 3.98559C16.2857 6.1868 14.4629 7.97119 12.2143 7.97119C11.6087 7.9682 11.0115 7.83103 10.4676 7.56997L10.4595 7.58193L2.71429 15.1639L2.71429 54.4698C2.71429 55.2035 2.10662 55.7983 1.35714 55.7983C0.607661 55.7983 0 55.2035 0 54.4698L0 14.6138C0 14.2615 0.143179 13.9237 0.397643 13.6746L4.86671 9.29972L3.11193 7.58193C2.60385 7.06712 2.60385 6.25074 3.11193 5.73593C3.63273 5.20818 4.4918 5.19356 5.03093 5.70339L6.78571 7.42118L8.53778 5.70339L8.55 5.69541C8.28434 5.16284 8.14506 4.57829 8.14286 3.98559ZM10.8914 4.05596C10.8914 4.78964 11.499 5.38449 12.2485 5.38449C12.9982 5.38449 13.6056 4.78964 13.6056 4.05596C13.6056 3.32227 12.998 2.72742 12.2485 2.72742C11.499 2.72742 10.8914 3.32227 10.8914 4.05596Z" transform="translate(46.14286 12.10084)" id="Shape" fill="url(#gradient_1)" fill-rule="evenodd" stroke="none" />
      <path d="M11.8225 3.0482L17.2456 8.36371C17.5 8.61288 17.6429 8.95091 17.6429 9.30323L17.6429 55.814C17.6429 56.5479 17.0358 57.1429 16.2871 57.1429C15.5384 57.1429 14.9313 56.5479 14.9313 55.814L14.9313 19.1555L8.54971 12.9005C8.04232 12.3856 8.04232 11.5691 8.54971 11.0542C9.06982 10.5263 9.92819 10.5117 10.4668 11.0215L14.9313 15.3975L14.9313 9.85338L10.3027 5.31659L7.90301 5.31659C7.49357 6.45179 6.58249 7.34496 5.42416 7.74628C3.30645 8.48032 0.982657 7.3923 0.233764 5.31659C-0.515129 3.24088 0.594907 0.963185 2.71262 0.229145C4.83033 -0.504894 7.15429 0.582959 7.90301 2.65883L10.864 2.65883C11.2236 2.65883 11.5683 2.79903 11.8225 3.0482ZM2.78334 3.809C2.78334 4.54288 3.39039 5.13788 4.13911 5.13788C4.888 5.13788 5.49488 4.54288 5.49488 3.809C5.49488 3.07513 4.88784 2.48012 4.13911 2.48012C3.39039 2.48012 2.78334 3.07513 2.78334 3.809Z" transform="translate(21.03571 10.7563)" id="Shape" fill="url(#gradient_1)" fill-rule="evenodd" stroke="none" />
      <path d="M7.74521 5.67258L14.5309 12.2794C14.7856 12.5271 14.9286 12.8632 14.9286 13.2136L14.9286 36.998C14.9286 37.7277 14.3209 38.3193 13.5714 38.3193C12.8219 38.3193 12.2143 37.7277 12.2143 36.998L12.2143 20.3674L7.18336 15.4691C6.67545 14.9571 6.67545 14.1453 7.18336 13.6333C7.70399 13.1083 8.56323 13.0938 9.10236 13.6007L12.2143 16.6306L12.2143 13.7606L5.82621 7.54362L5.81807 7.53173C5.27403 7.79039 4.67688 7.92582 4.07143 7.92814C1.82281 7.92814 0 6.15339 0 3.96407C0 1.77475 1.82281 0 4.07143 0C6.32004 0 8.14286 1.77475 8.14286 3.96407C8.1398 4.55372 7.99968 5.13512 7.733 5.66465L7.74521 5.67258ZM2.78616 4.03405C2.78616 4.76377 3.39382 5.35541 4.14331 5.35541C4.89296 5.35541 5.50045 4.76377 5.50045 4.03405C5.50045 3.30433 4.89279 2.71269 4.14331 2.71269C3.39382 2.71269 2.78616 3.30433 2.78616 4.03405Z" transform="translate(18.32143 20.84034)" id="Shape" fill="url(#gradient_1)" fill-rule="evenodd" stroke="none" />
      <path d="M7.74541 5.6611L11.1384 8.9578C11.6682 9.47275 11.6682 10.3075 11.1384 10.8224L5.42871 16.3701L5.42871 32.967C5.42871 33.6953 4.82103 34.2857 4.07153 34.2857C3.32203 34.2857 2.71436 33.6953 2.71436 32.967L2.71436 15.8242C2.71436 15.4744 2.85754 15.1391 3.11201 14.8919L8.25978 9.89011L5.82636 7.52835L5.81822 7.51648C5.27416 7.77462 4.677 7.90978 4.07153 7.91209C1.82286 7.91209 0 6.14093 0 3.95604C0 1.77115 1.82286 0 4.07153 0C6.32021 0 8.14307 1.77115 8.14307 3.95604C8.14086 4.54434 8.00158 5.12456 7.73591 5.65319L7.74541 5.6611ZM2.53294 3.77977C2.53294 4.50802 3.14062 5.09846 3.89012 5.09846C4.63979 5.09846 5.2473 4.50802 5.2473 3.77977C5.2473 3.05153 4.63962 2.46109 3.89012 2.46109C3.14062 2.46109 2.53294 3.05153 2.53294 3.77977Z" transform="translate(38 4.033614)" id="Shape" fill="url(#gradient_1)" fill-rule="evenodd" stroke="none" />
      <path d="M1.35714 0C0.607661 0 0 0.602017 0 1.34454L0 29.5798C0 30.3224 0.607661 30.9244 1.35714 30.9244C2.10663 30.9244 2.71429 30.3224 2.71429 29.5798L2.71429 1.34454C2.71429 0.602017 2.1068 0 1.35714 0Z" transform="translate(40.71428 41.00841)" id="Shape" fill="url(#gradient_1)" stroke="none" />
    </g>
  </g>
</svg>