<?xml version="1.0" encoding="utf-8"?>
<svg width="55px" height="55px" viewBox="0 0 55 55" version="1.1" xmlns:xlink="http://www.w3.org/1999/xlink" xmlns="http://www.w3.org/2000/svg">
  <desc>Created with Lunacy</desc>
  <g id="Bootstrap">
    <g id="Bootstrap">
      <path d="M27.5 55C42.6878 55 55 42.6878 55 27.5C55 12.3122 42.6878 0 27.5 0C12.3122 0 0 12.3122 0 27.5C0 42.6878 12.3122 55 27.5 55Z" id="Oval-2" fill="#563D7C" stroke="none" />
      <path d="M14.5441 0L0 0L0 29.9265L13.7477 29.9265C15.6758 29.9265 17.3356 29.7085 18.7355 29.2726C20.1354 28.8367 21.2755 28.2499 22.1724 27.5122C23.0694 26.7745 23.7232 25.8944 24.1424 24.8717C24.5615 23.8573 24.7711 22.7592 24.7711 21.5856C24.7711 19.5402 24.2933 17.8469 23.346 16.4889C22.3987 15.1393 20.9988 14.2675 19.1546 13.8735L19.1546 13.7896C20.5294 13.2029 21.5856 12.3646 22.3233 11.2916C23.061 10.2186 23.4298 8.92764 23.4298 7.41875C23.4298 4.92907 22.6167 3.07647 20.9988 1.84421C19.381 0.611942 17.2266 0 14.5441 0ZM5.23923 12.5322L13.7896 12.5322C15.0471 12.5322 16.0949 12.1802 16.9332 11.4592C17.7715 10.7383 18.1906 9.71562 18.1906 8.37438C18.1906 6.86548 17.8134 5.80087 17.0589 5.18893C16.3045 4.57699 15.2147 4.26683 13.7896 4.26683L5.23923 4.26683L5.23923 12.5322ZM14.5022 25.6513L5.23923 25.6513L5.23923 16.2961L14.5022 16.2961C16.0949 16.2961 17.3188 16.6817 18.2074 17.4864C19.0959 18.2912 19.5318 19.4229 19.5318 20.9066C19.5318 22.4155 19.0876 23.5891 18.2074 24.4106C17.3356 25.2405 16.0949 25.6513 14.5022 25.6513Z" transform="translate(16.17647 12.53677)" id="Shape" fill="#FFFFFF" fill-rule="evenodd" stroke="none" />
    </g>
  </g>
</svg>