<svg width="92" height="94" viewBox="0 0 92 94" fill="none" xmlns="http://www.w3.org/2000/svg">
<path fill-rule="evenodd" clip-rule="evenodd" d="M11.7935 0H46.8961C53.3991 0 58.6897 5.24314 58.6897 11.6879V75.9928C58.6897 82.4375 53.3991 87.6807 46.8961 87.6807H11.7935C5.29052 87.6807 0 82.4375 0 75.9928V11.6879C0 5.24314 5.29052 0 11.7935 0ZM46.896 3.06626H11.7935C7.76255 3.06626 4.36401 5.79765 3.38118 9.49083H55.3083C54.3255 5.79765 50.927 3.06626 46.896 3.06626ZM3.09392 12.5571H55.5956V70.84H3.09392V12.5571ZM11.7935 84.6144H46.8961C51.6929 84.6144 55.5956 80.7467 55.5956 75.9928V73.9062H3.09392V75.9928C3.09392 80.7467 6.99663 84.6144 11.7935 84.6144Z" fill="white"/>
<path d="M33.3399 76.6221H25.3495C24.4898 76.6221 23.793 77.1526 23.793 77.8069C23.793 78.4611 24.4896 78.9918 25.3495 78.9918H33.3399C34.1995 78.9918 34.8964 78.4613 34.8964 77.8069C34.8964 77.1524 34.1995 76.6221 33.3399 76.6221Z" fill="white"/>
<path fill-rule="evenodd" clip-rule="evenodd" d="M76.6197 30.0166H80.4148C86.8028 30.0166 91.9998 35.3015 92.0002 41.7976V92.4763C92.0002 93.3177 91.3294 93.9998 90.502 93.9998H66.5328C65.7052 93.9998 65.0347 93.3177 65.0347 92.4763V41.7976C65.0347 35.3015 70.2316 30.0166 76.6197 30.0166ZM68.0306 90.953H89.0035V41.7976C89.0035 36.9816 85.1504 33.0634 80.4146 33.0634H76.6195C71.8837 33.0634 68.0306 36.9814 68.0306 41.7976V90.953Z" fill="white"/>
<path fill-rule="evenodd" clip-rule="evenodd" d="M75.0574 35.5464H81.9766C84.8796 35.5464 87.241 37.9729 87.2412 40.9555V50.589C87.2412 51.4426 86.5678 52.1346 85.737 52.1346H71.2972C70.4663 52.1346 69.793 51.4426 69.793 50.589V40.9555C69.793 37.9729 72.1546 35.5464 75.0574 35.5464ZM72.8013 49.0437H84.2328V40.9555C84.2328 39.6774 83.2207 38.6374 81.9766 38.6374H75.0574C73.8135 38.6374 72.8013 39.6772 72.8013 40.9555V49.0437Z" fill="white"/>
<path d="M85.737 54.5044H71.2972C70.4665 54.5044 69.793 55.0349 69.793 55.6893C69.793 56.3436 70.4663 56.8741 71.2972 56.8741H85.737C86.5678 56.8741 87.2412 56.3436 87.2412 55.6893C87.2412 55.0349 86.5678 54.5044 85.737 54.5044Z" fill="white"/>
<path d="M42.1049 25.851C39.0824 22.9034 35.0666 21.2908 30.8107 21.3283C22.1307 21.3915 15.0688 28.461 15.0688 37.0874V44.9533C15.0688 50.2197 19.43 54.5041 24.7907 54.5041H26.8373C27.6852 54.5041 28.3725 53.8289 28.3725 52.996C28.3725 52.1631 27.6854 51.4879 26.8373 51.4879H24.7907C21.1228 51.4879 18.1389 48.5563 18.1389 44.9531V37.0872C18.1389 30.1115 23.8337 24.395 30.8334 24.3441C30.8663 24.3439 30.8986 24.3437 30.9312 24.3437C34.331 24.3437 37.5279 25.637 39.9423 27.9912C42.3802 30.3685 43.7227 33.536 43.7227 36.9103V50.985C43.7227 51.8179 44.4098 52.4931 45.2579 52.4931C46.1057 52.4931 46.793 51.8179 46.793 50.985V36.9103C46.7928 32.7266 45.128 28.7988 42.1049 25.851Z" fill="white"/>
<path d="M31.0028 29.904C31.8391 29.904 32.517 29.2218 32.517 28.3804C32.517 27.539 31.8393 26.8569 31.0028 26.8569C25.7153 26.8569 21.4136 31.1851 21.4136 36.5052V42.9373C21.4136 45.8307 23.7531 48.1847 26.6286 48.1847H26.9652C27.8014 48.1847 28.4794 47.5025 28.4794 46.6612C28.4794 45.8198 27.8016 45.1376 26.9652 45.1376H26.6286C25.4226 45.1376 24.4418 44.1505 24.4418 42.9371V36.505C24.4418 32.8655 27.3849 29.904 31.0028 29.904Z" fill="white"/>
<path d="M30.5343 33.1763C28.1293 33.1763 26.1724 35.196 26.1724 37.6788V40.6804C26.1724 41.5093 26.8232 42.1813 27.6264 42.1813C28.4297 42.1813 29.0805 41.5093 29.0805 40.6804V37.6788C29.0805 36.8513 29.7327 36.1779 30.5345 36.1779C31.3362 36.1779 31.9886 36.8511 31.9886 37.6788V43.682C31.9886 44.5095 31.3364 45.1829 30.5345 45.1829C29.7315 45.1829 29.0805 45.8549 29.0805 46.6838C29.0805 47.5127 29.7313 48.1847 30.5345 48.1847C32.9396 48.1847 34.8965 46.1649 34.8965 43.6822V37.679C34.8961 35.196 32.9394 33.1763 30.5343 33.1763Z" fill="white"/>
<path d="M37.2046 31.1315C36.5834 30.6116 35.682 30.7273 35.199 31.3954C34.7158 32.0638 34.8218 33.0221 35.443 33.542C35.4925 33.5854 36.6499 34.6196 36.8048 36.4935V46.6515C36.8048 47.4983 37.4427 48.1848 38.23 48.1848C39.0172 48.1848 39.6551 47.4983 39.6551 46.6515V36.4303C39.6551 36.3911 39.6536 36.3518 39.6507 36.3126C39.4149 33.0168 37.2948 31.207 37.2046 31.1315Z" fill="white"/>
</svg>
