<?xml version="1.0" encoding="utf-8"?>
<svg width="81px" height="80px" viewBox="0 0 81 80" version="1.1" xmlns:xlink="http://www.w3.org/1999/xlink" xmlns="http://www.w3.org/2000/svg">
  <desc>Created with Lunacy</desc>
  <defs>
    <linearGradient x1="0.25" y1="0.25" x2="0.25" y2="0.75" id="gradient_1">
      <stop offset="0" stop-color="#F13C5B" />
      <stop offset="1" stop-color="#F45D77" />
    </linearGradient>
  </defs>
  <g id="network">
    <g id="Collaborate-Icon">
      <path d="M12.9594 2.68908L24.975 2.68908L24.975 0L12.9594 0C9.27868 0 6.28414 3.0158 6.28414 6.72269L6.28414 27.6787L1.88778 23.2511L0 25.1523L6.67531 31.875C6.93565 32.1371 7.27742 32.2689 7.6192 32.2689C7.96097 32.2689 8.30275 32.1371 8.56309 31.875L15.2384 25.1523L13.3506 23.2511L8.95426 27.6787L8.95426 6.72269C8.95426 4.49882 10.7513 2.68908 12.9594 2.68908Z" transform="translate(2.025 17.47899)" id="Shape" fill="url(#gradient_1)" stroke="none" />
      <path d="M16.2001 0L16.2001 38.7831C16.2001 40.995 14.383 42.7951 12.1501 42.7951L4.60916 42.7951L9.05463 38.3912L7.14576 36.5002L0.39588 43.187C-0.13196 43.7099 -0.13196 44.5551 0.39588 45.078L7.14576 51.7647L9.05463 49.8737L4.60916 45.4698L12.1501 45.4698C15.872 45.4698 18.9 42.4701 18.9 38.7831L18.9 0L16.2001 0Z" transform="translate(54 26.89076)" id="Shape" fill="url(#gradient_1)" stroke="none" />
      <path d="M48.6 6.72269C48.6 8.44235 47.929 9.99664 46.8585 11.1879C49.4411 12.1318 51.3 14.5829 51.3 17.479L51.3 22.8571C51.3 23.6007 50.6965 24.2017 49.95 24.2017L35.1 24.2017L35.1 26.8908C35.1 27.6343 34.4966 28.2353 33.75 28.2353L17.55 28.2353C16.8034 28.2353 16.2 27.6343 16.2 26.8908L16.2 24.2017L1.35 24.2017C0.60345 24.2017 0 23.6007 0 22.8571L0 17.479C0 14.5829 1.85895 12.1318 4.4415 11.1879C3.37095 9.99664 2.7 8.44235 2.7 6.72269C2.7 3.0158 5.72805 0 9.45 0C13.172 0 16.2 3.0158 16.2 6.72269C16.2 8.44235 15.529 9.99664 14.4585 11.1879C16.6725 11.9973 18.3438 13.9106 18.7771 16.2703C19.3361 15.8279 19.9584 15.4703 20.6415 15.2215C19.5709 14.0303 18.9 12.476 18.9 10.7563C18.9 7.04941 21.9281 4.03361 25.65 4.03361C29.3719 4.03361 32.4 7.04941 32.4 10.7563C32.4 12.476 31.729 14.0303 30.6585 15.2215C31.3416 15.4716 31.9639 15.8279 32.5229 16.2703C32.9562 13.9106 34.6275 11.9973 36.8415 11.1879C35.771 9.99664 35.1 8.44235 35.1 6.72269C35.1 3.0158 38.128 0 41.85 0C45.5719 0 48.6 3.0158 48.6 6.72269ZM9.45 2.68908C11.6829 2.68908 13.5 4.49882 13.5 6.72269C13.5 8.94656 11.6829 10.7563 9.45 10.7563C7.2171 10.7563 5.4 8.94656 5.4 6.72269C5.4 4.49882 7.2171 2.68908 9.45 2.68908ZM41.85 2.68908C44.0829 2.68908 45.9 4.49882 45.9 6.72269C45.9 8.94656 44.0829 10.7563 41.85 10.7563C39.6171 10.7563 37.8 8.94656 37.8 6.72269C37.8 4.49882 39.6171 2.68908 41.85 2.68908ZM25.65 6.72269C27.8829 6.72269 29.7 8.53244 29.7 10.7563C29.7 12.9802 27.8829 14.7899 25.65 14.7899C23.4171 14.7899 21.6 12.9802 21.6 10.7563C21.6 8.53244 23.4171 6.72269 25.65 6.72269ZM2.7 17.479L2.7 21.5126L16.2 21.5126L16.2 17.479C16.2 15.2551 14.3829 13.4454 12.15 13.4454L6.75 13.4454C4.5171 13.4454 2.7 15.2551 2.7 17.479ZM35.1 21.5126L48.6 21.5126L48.6 17.479C48.6 15.2551 46.7829 13.4454 44.55 13.4454L39.15 13.4454C36.9171 13.4454 35.1 15.2551 35.1 17.479L35.1 21.5126ZM18.9 21.5126L18.9 25.5462L32.4 25.5462L32.4 21.5126C32.4 19.2887 30.5829 17.479 28.35 17.479L22.95 17.479C20.7171 17.479 18.9 19.2887 18.9 21.5126Z" transform="translate(29.7 0)" id="Shape" fill="url(#gradient_1)" fill-rule="evenodd" stroke="none" />
      <path d="M48.6 6.72269C48.6 8.44235 47.929 9.99664 46.8585 11.1879C49.4411 12.1318 51.3 14.5829 51.3 17.479L51.3 22.8571C51.3 23.6007 50.6965 24.2017 49.95 24.2017L35.1 24.2017L35.1 26.8908C35.1 27.6343 34.4966 28.2353 33.75 28.2353L17.55 28.2353C16.8034 28.2353 16.2 27.6343 16.2 26.8908L16.2 24.2017L1.35 24.2017C0.60345 24.2017 0 23.6007 0 22.8571L0 17.479C0 14.5829 1.85895 12.1318 4.4415 11.1879C3.37095 9.99664 2.7 8.44235 2.7 6.72269C2.7 3.0158 5.72805 0 9.45 0C13.172 0 16.2 3.0158 16.2 6.72269C16.2 8.44235 15.529 9.99664 14.4585 11.1879C16.6725 11.9973 18.3438 13.9106 18.7771 16.2703C19.3361 15.8279 19.9584 15.4703 20.6415 15.2215C19.5709 14.0303 18.9 12.476 18.9 10.7563C18.9 7.04941 21.9281 4.03361 25.65 4.03361C29.3719 4.03361 32.4 7.04941 32.4 10.7563C32.4 12.476 31.729 14.0303 30.6585 15.2215C31.3416 15.4716 31.9639 15.8279 32.5229 16.2703C32.9562 13.9106 34.6275 11.9973 36.8415 11.1879C35.771 9.99664 35.1 8.44235 35.1 6.72269C35.1 3.0158 38.128 0 41.85 0C45.5719 0 48.6 3.0158 48.6 6.72269ZM9.45 2.68908C11.6829 2.68908 13.5 4.49882 13.5 6.72269C13.5 8.94655 11.6829 10.7563 9.45 10.7563C7.2171 10.7563 5.4 8.94655 5.4 6.72269C5.4 4.49882 7.2171 2.68908 9.45 2.68908ZM41.85 2.68908C44.0829 2.68908 45.9 4.49882 45.9 6.72269C45.9 8.94655 44.0829 10.7563 41.85 10.7563C39.6171 10.7563 37.8 8.94655 37.8 6.72269C37.8 4.49882 39.6171 2.68908 41.85 2.68908ZM25.65 6.72269C27.8829 6.72269 29.7 8.53244 29.7 10.7563C29.7 12.9802 27.8829 14.7899 25.65 14.7899C23.4171 14.7899 21.6 12.9802 21.6 10.7563C21.6 8.53244 23.4171 6.72269 25.65 6.72269ZM2.7 17.479L2.7 21.5126L16.2 21.5126L16.2 17.479C16.2 15.2551 14.3829 13.4454 12.15 13.4454L6.75 13.4454C4.5171 13.4454 2.7 15.2551 2.7 17.479ZM35.1 21.5126L48.6 21.5126L48.6 17.479C48.6 15.2551 46.7829 13.4454 44.55 13.4454L39.15 13.4454C36.9171 13.4454 35.1 15.2551 35.1 17.479L35.1 21.5126ZM18.9 21.5126L18.9 25.5462L32.4 25.5462L32.4 21.5126C32.4 19.2887 30.5829 17.479 28.35 17.479L22.95 17.479C20.7171 17.479 18.9 19.2887 18.9 21.5126Z" transform="translate(0 51.76471)" id="Shape" fill="url(#gradient_1)" fill-rule="evenodd" stroke="none" />
    </g>
  </g>
</svg>