<?xml version="1.0" encoding="utf-8"?>
<svg width="53px" height="53px" viewBox="0 0 53 53" version="1.1" xmlns:xlink="http://www.w3.org/1999/xlink" xmlns="http://www.w3.org/2000/svg">
  <desc>Created with Lunacy</desc>
  <g id="Connect-Icon">
    <g id="chat">
      <path d="M0 8.68254C0 3.89645 4.8827 0 10.8896 0C16.8964 0 21.7791 3.89645 21.7791 8.68254C21.7076 11.2337 20.4124 13.5976 18.2931 15.0452L18.2931 20.203C18.2942 20.5398 18.0935 20.8453 17.7821 20.98C17.6745 21.0258 17.5586 21.0488 17.4415 21.0476C17.2267 21.0476 17.0199 20.9672 16.8624 20.8223L12.8994 17.2187C12.234 17.3169 11.5622 17.3659 10.8896 17.3651C4.8827 17.3651 0 13.4686 0 8.68254ZM16.5444 14.6173C16.5549 14.3286 16.7133 14.0652 16.9645 13.9191C18.819 12.799 19.9866 10.834 20.0758 8.68254C20.0758 4.83114 15.9539 1.68921 10.8896 1.68921C5.82518 1.68921 1.70327 4.83114 1.70327 8.68254C1.70327 12.5339 5.82518 15.6759 10.8896 15.7097C11.6055 15.7097 12.32 15.6455 13.0243 15.5182L13.1719 15.5182C13.3867 15.5182 13.5935 15.5986 13.751 15.7434L16.5444 18.2773L16.5444 14.6173Z" id="Shape" fill="#FFFFFF" fill-rule="evenodd" stroke="none" />
      <path d="M0 8.65476C0 3.88398 4.8878 0 10.9009 0C16.9027 0 21.7791 3.88398 21.7791 8.67721C21.7791 13.4704 16.9027 17.332 10.9009 17.3769C10.2276 17.3777 9.55508 17.3289 8.88897 17.2309L4.9219 20.8231C4.76418 20.9674 4.55716 21.0476 4.34218 21.0476C4.22496 21.0488 4.10888 21.0258 4.00117 20.9802C3.68944 20.8459 3.48852 20.5414 3.48966 20.2057L3.48966 14.9971C1.36816 13.5541 0.0716119 11.1977 0 8.65476ZM10.9009 15.6257L10.9009 15.6482C15.9706 15.6482 20.0968 12.5163 20.0968 8.67721C20.0968 4.83813 15.9706 1.70626 10.9009 1.70626C5.83126 1.70626 1.70505 4.83813 1.70505 8.67721C1.79442 10.8218 2.96323 12.7805 4.8196 13.897C5.05376 14.0533 5.19414 14.3139 5.19471 14.593L5.19471 18.2076L8.03645 15.6369C8.23296 15.4597 8.50278 15.3848 8.76394 15.4349C9.46897 15.5617 10.1842 15.6257 10.9009 15.6257Z" transform="translate(30.79116 0)" id="Shape" fill="#FFFFFF" fill-rule="evenodd" stroke="none" />
      <path d="M0 6.38946C0.00617038 2.86318 2.86053 0.0061761 6.38353 0C9.90906 0 12.7671 2.86066 12.7671 6.38946C12.7671 9.91825 9.90906 12.7789 6.38353 12.7789C2.85801 12.7789 0 9.91825 0 6.38946ZM1.68283 6.41191C1.689 9.01051 3.79857 11.1119 6.39475 11.1057C8.99094 11.0996 11.0904 8.98805 11.0842 6.38946L11.0955 6.38946C11.0831 3.79788 8.98393 1.7018 6.39475 1.69562L6.37232 1.69562C3.77613 1.7018 1.67666 3.81332 1.68283 6.41191Z" transform="translate(9.763052 22.55102)" id="Shape" fill="#FFFFFF" fill-rule="evenodd" stroke="none" />
      <path d="M15.6958 0L15.9003 0C17.0732 0 18.0241 0.939345 18.0241 2.09803L18.0241 14.4394C18.0241 15.5981 17.0732 16.5374 15.9003 16.5374L2.12382 16.5374C0.950893 16.5374 0 15.5981 0 14.4394L0 2.09803C0 0.94804 0.93698 0.0123414 2.10111 0L2.30554 0L9.11994 1.64925L15.6958 0ZM2.15789 14.8545L15.9003 14.8545C16.1324 14.8545 16.3205 14.6687 16.3205 14.4394L16.2864 2.10925C16.2846 1.91165 16.142 1.74266 15.9457 1.70535L9.30166 3.36582C9.1675 3.39906 9.02695 3.39906 8.8928 3.36582L2.07839 1.69413C1.88205 1.73144 1.73952 1.90043 1.73767 2.09803L1.73767 14.4394C1.73767 14.6687 1.92578 14.8545 2.15789 14.8545Z" transform="translate(7.51004 36.08163)" id="Shape" fill="#FFFFFF" fill-rule="evenodd" stroke="none" />
      <path d="M0 6.38946C0 2.86066 2.85801 0 6.38353 0C9.90906 0 12.7671 2.86066 12.7671 6.38946C12.7609 9.91573 9.90654 12.7727 6.38353 12.7789C2.85801 12.7789 0 9.91825 0 6.38946ZM1.68283 6.38946C1.689 8.98538 3.79001 11.0883 6.38353 11.0945C8.97972 11.0945 11.0842 8.98805 11.0842 6.38946C11.0842 3.79086 8.97972 1.68439 6.38353 1.68439C3.78735 1.68439 1.68283 3.79086 1.68283 6.38946Z" transform="translate(30.79116 22.55102)" id="Shape" fill="#FFFFFF" fill-rule="evenodd" stroke="none" />
      <path d="M15.6973 0L15.9016 0C17.0738 0 18.0241 0.939345 18.0241 2.09803L18.0241 14.4394C18.0241 15.5981 17.0738 16.5374 15.9016 16.5374L2.12249 16.5374C0.950295 16.5374 0 15.5981 0 14.4394L0 2.09803C0 0.939345 0.950295 0 2.12249 0L2.32679 0L9.1369 1.64925L15.6973 0ZM2.14519 14.8545L15.9016 14.8545C16.1336 14.8545 16.3216 14.6687 16.3216 14.4394L16.2648 2.10925C16.263 1.91165 16.1205 1.74266 15.9243 1.70535L9.28445 3.36582C9.15038 3.39906 9.00992 3.39906 8.87585 3.36582L2.06573 1.69413C1.86952 1.73144 1.72707 1.90043 1.72523 2.09803L1.72523 14.4394C1.72523 14.6687 1.91322 14.8545 2.14519 14.8545Z" transform="translate(27.78715 36.08163)" id="Shape" fill="#FFFFFF" fill-rule="evenodd" stroke="none" />
    </g>
  </g>
</svg>