<svg width="104" height="104" viewBox="0 0 104 104" fill="none" xmlns="http://www.w3.org/2000/svg">
<rect x="0.5" y="0.5" width="103" height="103" rx="19.5" stroke="#FF1D41"/>
<path d="M30.6665 81.0002L34.3867 68.8675C34.3867 68.8675 35.1217 66.2243 38.6501 66.2243C42.1785 66.2243 52.4165 66.2095 52.4165 66.2095C52.4165 66.2095 50.4308 81.0002 30.6665 81.0002Z" fill="#F13C5B"/>
<path d="M21 63.744C21 63.744 21.3023 47.7207 37.0107 47.7207H74.1667C74.1667 47.7207 73.5621 63.744 56.444 63.744" fill="#F13C5B"/>
<path d="M70.9554 45.2558H40.3335L43.8122 31.7497C44.3443 29.6792 46.3902 28 48.3797 28H79.0002L75.5301 41.5061C74.9893 43.5766 72.9449 45.2558 70.9554 45.2558Z" fill="#F13C5B"/>
</svg>
