<?xml version="1.0" encoding="utf-8"?>
<svg width="54px" height="54px" viewBox="0 0 54 54" version="1.1" xmlns:xlink="http://www.w3.org/1999/xlink" xmlns="http://www.w3.org/2000/svg">
  <desc>Created with Lunacy</desc>
  <g id="BP-Design-Icon">
    <path d="M50.7528 13.7731L42.8901 13.7731C42.9859 13.5028 43.0476 13.2152 43.0476 12.9123C43.0476 11.4885 41.8951 10.3298 40.4791 10.3298L39.6229 10.3298L39.6229 2.58249C39.6229 1.15874 38.4705 0 37.0545 0L16.5072 0C15.0912 0 13.9387 1.15874 13.9387 2.58249L13.9387 9.46895C13.9387 9.9442 13.5543 10.3298 13.0826 10.3298L5.37751 10.3298L5.37751 8.60812C5.37751 7.18437 4.22506 6.02563 2.80903 6.02563L0.240559 6.02563L0.240559 16.3554L2.80903 16.3554C4.22506 16.3554 5.37751 15.1967 5.37751 13.7729L5.37751 12.0513L13.0828 12.0513C14.4988 12.0513 15.6512 10.8925 15.6512 9.46877L15.6512 2.58249C15.6512 2.10724 16.0356 1.72166 16.5074 1.72166L37.0546 1.72166C37.5264 1.72166 37.9108 2.10724 37.9108 2.58249L37.9108 10.3298L37.0546 10.3298C35.6386 10.3298 34.4862 11.4885 34.4862 12.9123C34.4862 13.2152 34.5478 13.5028 34.6437 13.7731L26.7809 13.7731C25.3649 13.7731 24.2125 14.9318 24.2125 16.3556L7.64537 16.3556L2.29448 20.6597L7.64537 24.9639L24.2126 24.9639L24.2126 26.6856L11.4244 26.6856L4.15224 25.7714L0 30.9893L4.15224 36.2077L11.4244 35.2935L24.2126 35.2935L24.2126 37.876L0.240559 37.876L0.240559 50.7883L30.5292 50.7883C32.8742 52.4134 35.7105 53.3707 38.767 53.3707C46.7924 53.3707 53.3213 46.8062 53.3213 38.737L53.3213 16.3554C53.3213 14.9317 52.169 13.7731 50.7528 13.7731ZM3.04693 14.4863C3.46667 14.4863 3.80866 14.1021 3.80866 13.6286L3.80866 8.48214C3.80866 8.00859 3.46667 7.62439 3.04693 7.62439L2.2852 7.62439L2.2852 14.4863L3.04693 14.4863ZM36.6901 12.199L40.2449 12.199C40.7346 12.199 41.1336 12.5405 41.1336 12.9615C41.1336 13.3824 40.7346 13.7239 40.2449 13.7239L36.6901 13.7239C36.2004 13.7239 35.8014 13.3822 35.8014 12.9615C35.8014 12.5405 36.2004 12.199 36.6901 12.199ZM39.7117 23.6356L51.7978 23.6356L51.7978 16.0875C51.7978 15.6245 51.4102 15.2488 50.9345 15.2488L26.7622 15.2488C26.2865 15.2488 25.8989 15.6246 25.8989 16.0875L25.8989 23.6356L37.9851 23.6356L37.9851 16.9262L39.7117 16.9262L39.7117 23.6356ZM24.3754 19.8234L9.14079 19.8234L9.14079 18.2985L24.3754 18.2985L24.3754 19.8234ZM7.61733 22.1107L5.33213 20.5863L7.61733 19.061L7.61733 22.1107ZM9.14079 22.8732L24.3754 22.8732L24.3754 21.3483L9.14079 21.3483L9.14079 22.8732ZM51.7978 38.8844C51.7978 46.0314 45.9888 51.8459 38.8485 51.8459C31.7081 51.8459 25.8989 46.0314 25.8989 38.8844L25.8989 25.9229L51.7978 25.9229L51.7978 38.8844ZM5.0539 34.3098L10.6643 33.6L10.6643 28.1631L5.0539 27.4478L3.04693 30.0072L3.9889 30.0072C4.34258 28.9957 5.28204 28.2648 6.39403 28.2648C7.80662 28.2648 8.95627 29.4375 8.95627 30.8783C8.95627 32.3192 7.80662 33.4918 6.39403 33.4918C5.28204 33.4918 4.34258 32.761 3.98979 31.7495L3.04693 31.7495L5.0539 34.3098ZM15.67 33.5471L24.3754 33.5471L24.3754 28.2164L12.1877 28.2103L12.1877 33.5473L13.9289 33.5473L13.9289 28.2166L15.67 28.2166L15.67 33.5471ZM5.33213 30.4976C5.33213 30.0766 5.67412 29.7351 6.09386 29.7351C6.5136 29.7351 6.85559 30.0766 6.85559 30.4976C6.85559 30.9185 6.5136 31.26 6.09386 31.26C5.67412 31.26 5.33213 30.9183 5.33213 30.4976ZM2.2852 39.6468L2.2852 49.5585L28.9458 49.5585C26.4942 46.9861 24.9266 43.5034 24.7106 39.6468L22.945 39.6468L22.945 43.2512L21.2234 43.2512L21.2234 39.6468L19.5017 39.6468L19.5017 42.3501L17.7801 42.3501L17.7801 39.6468L16.0584 39.6468L16.0584 43.2512L14.3368 43.2512L14.3368 39.6468L12.6151 39.6468L12.6151 42.3501L10.8935 42.3501L10.8935 39.6468L9.1718 39.6468L9.1718 43.2512L7.45015 43.2512L7.45015 39.6468L5.7285 39.6468L5.7285 42.3501L4.00685 42.3501L4.00685 39.6468L2.2852 39.6468Z" id="Shape" fill="#FFFFFF" fill-rule="evenodd" stroke="none" />
  </g>
</svg>