<svg width="284" height="310" viewBox="0 0 284 310" fill="none" xmlns="http://www.w3.org/2000/svg">
<path fill-rule="evenodd" clip-rule="evenodd" d="M0 20C0 8.95431 8.9543 0 20 0H103.968C115.014 0 123.968 8.95431 123.968 20V140.106C123.968 144.476 122.537 148.726 119.893 152.206L35.9248 262.718C24.335 277.972 0 269.776 0 250.619V20Z" fill="#E4E8F6" fill-opacity="0.4"/>
<path fill-rule="evenodd" clip-rule="evenodd" d="M160.032 20C160.032 8.95431 168.986 0 180.032 0H264C275.046 0 284 8.95431 284 20V140.106C284 144.476 282.569 148.726 279.925 152.206L195.956 262.718C184.367 277.972 160.032 269.776 160.032 250.619V20Z" fill="#E4E8F6" fill-opacity="0.4"/>
</svg>
