<?xml version="1.0" encoding="utf-8"?>
<svg width="55px" height="55px" viewBox="0 0 55 55" version="1.1" xmlns:xlink="http://www.w3.org/1999/xlink" xmlns="http://www.w3.org/2000/svg">
  <desc>Created with Lunacy</desc>
  <g id="Firebase">
    <g id="Firebase">
      <path d="M27.5 55C42.6878 55 55 42.6878 55 27.5C55 12.3122 42.6878 0 27.5 0C12.3122 0 0 12.3122 0 27.5C0 42.6878 12.3122 55 27.5 55Z" id="Oval-2" fill="#FFC24A" stroke="none" />
      <g id="firebase-seeklogo.com" transform="translate(12.375 6.875)">
        <path d="M0 33L0.255657 32.6534L12.3495 10.4379L12.375 10.2027L7.04379 0.508195C6.59714 -0.303894 5.33972 -0.09857 5.19314 0.8105L0 33Z" id="Shape" fill="#FFFFFF" stroke="none" />
        <path d="M4.10163 11.6875L8.25 7.78788L4.10043 0.51693C3.70652 -0.171316 2.60668 -0.173303 2.21693 0.51693L0 4.39778L0 4.7283L4.10163 11.6875Z" transform="translate(12.375 6.1875)" id="Shape" fill="#FFFFFF" stroke="none" />
        <path d="M16.478 31.9587L30.25 24.4505L26.3172 0.773508C26.1941 0.0327172 25.2644 -0.260148 24.722 0.271021L0 24.4846L13.6931 31.9581C14.5584 32.4304 15.6124 32.4306 16.478 31.9587" transform="translate(0 8.9375)" id="Shape" fill="#FFFFFF" stroke="none" />
        <path d="M29.5625 24.4529L25.7131 0.783129C25.5927 0.0425641 24.8302 -0.263885 24.2993 0.267122L0 24.5043L13.3568 31.9582C14.2038 32.4304 15.2354 32.4306 16.0826 31.9589L29.5625 24.4529Z" transform="translate(0 8.9375)" id="Shape" fill="#FFFFFF" stroke="none" />
        <path d="M16.478 7.66185C15.6124 8.14457 14.5584 8.14435 13.6931 7.66117L0.11029 0.125875L0 0.242342L13.6931 7.88745C14.5584 8.37062 15.6124 8.37085 16.478 7.88813L30.25 0.207495L30.2163 0L16.478 7.66185Z" transform="translate(0 33)" id="Shape" fill="#FFFFFF" stroke="none" />
      </g>
    </g>
  </g>
</svg>