<?xml version="1.0" encoding="utf-8"?>
<svg width="55px" height="55px" viewBox="0 0 55 55" version="1.1" xmlns:xlink="http://www.w3.org/1999/xlink" xmlns="http://www.w3.org/2000/svg">
  <desc>Created with Lunacy</desc>
  <g id="Reinvent-Icon">
    <g id="Reinvent">
      <path d="M47.6961 20.0777L53.2002 20.0777C53.6818 20.0777 54.0723 20.4685 54.0723 20.9506L54.0723 33.1718C54.0723 33.6539 53.6818 34.0448 53.2002 34.0448L47.6961 34.0448C47.3843 34.969 47.0105 35.8711 46.5772 36.7448L50.4704 40.6416C50.8108 40.9825 50.8108 41.5351 50.4704 41.8759L41.8363 50.5181C41.4957 50.8588 40.9436 50.8588 40.6031 50.5181L36.7099 46.6213C35.8372 47.0547 34.9363 47.4286 34.0132 47.7404L34.0132 53.2495C34.0132 53.7316 33.6227 54.1225 33.1411 54.1225L20.9312 54.1225C20.4496 54.1225 20.0591 53.7316 20.0591 53.2495L20.0591 47.7404C19.1357 47.4283 18.2345 47.0541 17.3616 46.6204L13.4684 50.5172C13.1278 50.858 12.5757 50.858 12.2352 50.5172L3.60104 41.8751C3.26058 41.5342 3.26058 40.9816 3.60104 40.6407L7.49425 36.7439C7.06123 35.8704 6.68774 34.9687 6.37617 34.0448L0.872134 34.0448C0.390498 34.0448 0 33.6539 0 33.1718L0 20.9506C0 20.4685 0.390498 20.0777 0.872134 20.0777L6.37617 20.0777C6.68796 19.1535 7.06178 18.2514 7.49512 17.3777L3.60191 13.4809C3.26145 13.14 3.26145 12.5874 3.60191 12.2465L12.236 3.60438C12.5766 3.26361 13.1287 3.26361 13.4692 3.60438L17.3624 7.5012C18.2351 7.06778 19.136 6.69394 20.0591 6.38208L20.0591 0.872943C20.0591 0.39086 20.4496 0 20.9312 0L33.1411 0C33.6227 0 34.0132 0.39086 34.0132 0.872943L34.0132 6.38208C34.9366 6.69416 35.8378 7.06833 36.7107 7.50207L40.6039 3.60525C40.9445 3.26448 41.4966 3.26448 41.8371 3.60525L50.4713 12.2474C50.8117 12.5883 50.8117 13.1408 50.4713 13.4817L46.578 17.3785C47.0111 18.252 47.3846 19.1538 47.6961 20.0777ZM47.0603 32.2989L52.328 32.2989L52.328 21.8236L47.0603 21.8236C46.6754 21.8249 46.3352 21.5733 46.2231 21.2047C45.8457 19.9665 45.3491 18.7678 44.7405 17.6256C44.5596 17.2866 44.6216 16.8691 44.8931 16.5973L48.6188 12.8672L41.2205 5.45677L37.4939 9.18598C37.2223 9.45768 36.8052 9.51977 36.4665 9.33874C35.3253 8.72954 34.1278 8.2325 32.8908 7.85474C32.5218 7.74409 32.2689 7.40408 32.2689 7.01846L32.2689 1.74589L21.8033 1.74589L21.8033 7.01846C21.8035 7.40277 21.5524 7.74202 21.185 7.85387C19.948 8.23163 18.7504 8.72866 17.6093 9.33787C17.2705 9.5189 16.8534 9.45681 16.5819 9.1851L12.8518 5.45677L5.45171 12.8637L9.17746 16.5938C9.44891 16.8656 9.51095 17.2831 9.33009 17.6221C8.72145 18.7643 8.22488 19.963 7.84746 21.2012C7.73692 21.5705 7.39722 21.8236 7.01196 21.8236L1.74427 21.8236L1.74427 32.2989L7.01196 32.2989C7.39591 32.2988 7.73484 32.5501 7.84659 32.9178C8.224 34.156 8.72057 35.3546 9.32921 36.4969C9.51007 36.8359 9.44804 37.2534 9.17659 37.5252L5.45171 41.2588L12.8518 48.6657L16.5784 44.9365C16.85 44.6648 17.267 44.6027 17.6058 44.7837C18.747 45.3929 19.9445 45.8899 21.1815 46.2677C21.5505 46.3784 21.8033 46.7184 21.8033 47.104L21.8033 52.3766L32.2689 52.3766L32.2689 47.104C32.2676 46.7187 32.519 46.3781 32.8873 46.266C34.1243 45.8882 35.3218 45.3912 36.463 44.782C36.8018 44.6009 37.2189 44.663 37.4904 44.9347L41.217 48.6639L48.6171 41.257L44.8913 37.5269C44.6199 37.2551 44.5579 36.8376 44.7387 36.4986C45.3474 35.3564 45.8439 34.1577 46.2213 32.9195C46.333 32.5495 46.6742 32.297 47.0603 32.2989Z" id="Shape" fill="#FFFFFF" fill-rule="evenodd" stroke="none" />
      <path d="M16.6159 8.78422L16.6159 6.99903C16.6163 6.88049 16.5922 6.76314 16.5451 6.65433L13.9229 0.530178C13.8345 0.323925 13.6703 0.159557 13.4643 0.0710849C13.0207 -0.11942 12.5067 0.0861765 12.3164 0.530178L9.69418 6.65433C9.64709 6.76314 9.62305 6.88049 9.62338 6.99903L9.62338 8.78477C3.96412 10.3452 -0.00382129 15.5097 2.76162e-06 21.4432C0.00481014 28.6909 5.87866 34.5624 13.1197 34.5577C19.285 34.5618 24.6203 30.2657 25.9369 24.2369C27.4324 17.3888 23.2895 10.6214 16.6159 8.78422ZM13.1197 3.0962L11.6357 6.56159L14.6037 6.56159L13.1197 3.0962ZM12.2456 32.7736C11.9518 32.7511 11.6603 32.7173 11.3715 32.6722L11.3715 8.31135L12.2456 8.31135L12.2456 32.7736ZM14.8678 32.6692C14.5757 32.715 14.2842 32.7491 13.9937 32.7719L13.9937 8.31135L14.8678 8.31135L14.8678 32.6692ZM2.02096 23.87C2.91808 27.9608 5.91122 31.0492 9.62338 32.2545L9.62338 10.6099C4.1149 12.3857 0.754979 18.0965 2.02096 23.87ZM16.6159 10.6115L16.6159 32.2535C22.1244 30.4777 25.4843 24.7668 24.2184 18.9934C23.347 15.02 20.4315 11.8457 16.6159 10.6115Z" transform="translate(14.26908 6.013606)" id="Shape" fill="#FFFFFF" fill-rule="evenodd" stroke="none" />
      <path d="M2.55931 21.5897C-0.189628 13.3356 4.26692 4.41376 12.5134 1.66227L11.9628 0C8.08146 1.29427 4.77628 3.90961 2.62236 7.39097C-2.46253 15.6097 0.0718272 26.3983 8.28293 31.4878L9.2042 30.0013C6.07471 28.0615 3.72346 25.0851 2.55931 21.5897Z" transform="translate(9.763053 10.52381)" id="Shape" fill="#FFFFFF" stroke="none" />
      <path d="M8.28354 0L7.82378 1.68852C16.0454 3.83383 21.0801 12.1253 19.1966 20.418C17.2704 28.8989 8.84011 34.211 0.367109 32.283L0 33.9934C1.20949 34.252 2.44302 34.3823 3.67983 34.3819C11.5736 34.3891 18.493 29.1004 20.5645 21.4762C23.0982 12.1513 17.5998 2.53605 8.28354 0Z" transform="translate(23.28113 10.52381)" id="Shape" fill="#FFFFFF" stroke="none" />
    </g>
  </g>
</svg>