<?xml version="1.0" encoding="utf-8"?>
<svg width="55px" height="55px" viewBox="0 0 55 55" version="1.1" xmlns:xlink="http://www.w3.org/1999/xlink" xmlns="http://www.w3.org/2000/svg">
  <desc>Created with Lunacy</desc>
  <g id="Ionic">
    <g id="Ionic">
      <path d="M27.5 55C42.6878 55 55 42.6878 55 27.5C55 12.3122 42.6878 0 27.5 0C12.3122 0 0 12.3122 0 27.5C0 42.6878 12.3122 55 27.5 55Z" id="Oval-2" fill="#498AFE" stroke="none" />
      <path d="M17.8711 35.7421C27.741 35.7421 35.7421 27.741 35.7421 17.8711C35.7421 8.00115 27.741 0 17.8711 0C8.00115 0 0 8.00115 0 17.8711C0 27.741 8.00115 35.7421 17.8711 35.7421Z" transform="translate(9.861268 9.801005)" id="Oval-3" fill="none" stroke="#FFFFFF" stroke-width="9" />
      <path d="M6.72567 13.4513C10.4402 13.4513 13.4513 10.4402 13.4513 6.72567C13.4513 3.01119 10.4402 0 6.72567 0C3.01118 0 0 3.01119 0 6.72567C0 10.4402 3.01118 13.4513 6.72567 13.4513Z" transform="translate(33.30504 8.648033)" id="Oval-4" fill="#498AFE" stroke="none" />
      <path d="M3.84324 7.68648C5.9658 7.68648 7.68648 5.96581 7.68648 3.84324C7.68648 1.72068 5.9658 0 3.84324 0C1.72068 0 0 1.72068 0 3.84324C0 5.96581 1.72068 7.68648 3.84324 7.68648Z" transform="translate(36.37963 11.3383)" id="Oval-4" fill="#FFFFFF" stroke="none" />
      <path d="M8.19093 16.3819C12.7147 16.3819 16.3819 12.7147 16.3819 8.19093C16.3819 3.66721 12.7147 0 8.19093 0C3.66721 0 0 3.66721 0 8.19093C0 12.7147 3.66721 16.3819 8.19093 16.3819Z" transform="translate(19.73357 19.9375)" id="Oval-4" fill="#FFFFFF" stroke="none" />
    </g>
  </g>
</svg>