<?xml version="1.0" encoding="utf-8"?>
<svg width="55px" height="55px" viewBox="0 0 55 55" version="1.1" xmlns:xlink="http://www.w3.org/1999/xlink" xmlns="http://www.w3.org/2000/svg">
  <desc>Created with Lunacy</desc>
  <g id="Java">
    <g id="Java">
      <path d="M27.5 55C42.6878 55 55 42.6878 55 27.5C55 12.3122 42.6878 0 27.5 0C12.3122 0 0 12.3122 0 27.5C0 42.6878 12.3122 55 27.5 55Z" id="Oval-2" fill="#F89820" stroke="none" />
      <g id="Java_Logo" transform="translate(12.94118 6.470588)">
        <path d="M1.78638 0C1.78638 0 0.366271 0.870292 2.79702 1.16479C5.74181 1.51881 7.24686 1.46804 10.492 0.820787C10.492 0.820787 11.3452 1.38455 12.5368 1.87284C5.26193 5.15852 -3.92761 1.68253 1.78638 0" transform="translate(6.875 29.52206)" id="Shape" fill="#FFFFFF" stroke="none" />
        <path d="M2.03657 0C2.03657 0 0.414727 1.26754 2.89166 1.53804C6.09476 1.88693 8.62432 1.91547 13.0014 1.02558C13.0014 1.02558 13.6068 1.67361 14.5588 2.028C5.60266 4.79309 -4.3729 2.24606 2.03657 0" transform="translate(5.661765 25.07353)" id="Shape" fill="#FFFFFF" stroke="none" />
        <path d="M1.60414 10.2183C3.35306 12.2901 1.14463 14.1544 1.14463 14.1544C1.14463 14.1544 5.58544 11.7957 3.54598 8.84194C1.64118 6.08742 0.180449 4.71881 8.08824 0C8.08824 -1.42893e-15 -4.32438 3.18971 1.60414 10.2183" transform="translate(14.15441 7.683823)" id="Shape" fill="#FFFFFF" stroke="none" />
        <path d="M25.1626 0.32163C25.1626 0.32163 26.2181 1.2077 24.0002 1.8932C19.7828 3.19489 6.44695 3.58796 2.7423 1.94506C1.41057 1.35479 3.90794 0.535641 4.69351 0.363755C5.51279 0.182748 5.98097 0.216469 5.98097 0.216469C4.49996 -0.846513 -3.5917 2.30369 1.87081 3.20586C16.7679 5.66729 29.0267 2.09747 25.1626 0.32163" transform="translate(0 32.35294)" id="Shape" fill="#FFFFFF" stroke="none" />
        <path d="M6.6436 0.00598363C6.6436 0.00598363 -0.232795 1.5929 4.20849 2.16917C6.08374 2.41311 9.82201 2.35792 13.3041 2.07444C16.1499 1.8412 19.0074 1.34529 19.0074 1.34529C19.0074 1.34529 18.0039 1.76283 17.2779 2.24447C10.2951 4.02886 -3.1945 3.19874 0.688973 1.37353C3.97323 -0.168997 6.6436 0.00598363 6.6436 0.00598363" transform="translate(3.235294 21.02941)" id="Shape" fill="#FFFFFF" stroke="none" />
        <path d="M0.134334 7.09768C6.81822 3.49184 3.72785 0.0266571 1.57082 0.493499C1.04212 0.607743 0.806391 0.706734 0.806391 0.706734C0.806391 0.706734 1.00266 0.38753 1.37753 0.249362C5.64483 -1.30817 8.92667 4.84312 0 7.27941C0 7.27951 0.103415 7.18351 0.134334 7.09768" transform="translate(22.24265 20.625)" id="Shape" fill="#FFFFFF" stroke="none" />
        <path d="M8.70228 0C8.70228 0 12.6139 3.98426 4.99228 10.1109C-1.11949 15.0256 3.59861 17.8278 4.98974 21.0294C1.4222 17.7519 -1.19589 14.8668 0.560531 12.1815C3.13855 8.23984 10.2805 6.32876 8.70228 0" transform="translate(8.897058 0)" id="Shape" fill="#FFFFFF" stroke="none" />
        <path d="M5.39063 3.51895C12.2573 3.96177 22.8017 3.27326 23.0515 0C23.0515 0 22.5714 1.24087 17.3766 2.22632C11.5158 3.33746 4.28729 3.20773 0 2.49561C0.000102771 2.49551 0.877662 3.2274 5.39063 3.51895" transform="translate(4.852942 34.375)" id="Shape" fill="#FFFFFF" stroke="none" />
      </g>
    </g>
  </g>
</svg>