<?xml version="1.0" encoding="utf-8"?>
<svg width="55px" height="55px" viewBox="0 0 55 55" version="1.1" xmlns:xlink="http://www.w3.org/1999/xlink" xmlns="http://www.w3.org/2000/svg">
  <desc>Created with Lunacy</desc>
  <g id="JQuery">
    <g id="JQuery">
      <path d="M27.5 55C42.6878 55 55 42.6878 55 27.5C55 12.3122 42.6878 0 27.5 0C12.3122 0 0 12.3122 0 27.5C0 42.6878 12.3122 55 27.5 55Z" id="Oval-2" fill="#21ACE2" stroke="none" />
      <g id="g12" transform="matrix(1 2.145688E-07 2.145688E-07 -1 10.31286 44.68912)">
        <path d="M2.22646 25.6476L4.6477 28.7007C1.91507 23.4573 3.14373 17.0705 6.56231 12.4411C6.68435 12.273 6.81544 12.1041 6.94523 11.9381L7.06305 11.7919C7.17065 11.6569 7.28148 11.5209 7.39295 11.3884L7.51078 11.248C7.65957 11.0739 7.80954 10.902 7.96439 10.7333L7.98795 10.7099C8.1344 10.5502 8.28304 10.3917 8.43568 10.2362L8.58295 10.0958C8.70344 9.97452 8.8246 9.85637 8.9482 9.73902L9.08959 9.59865C9.25739 9.44425 9.42968 9.28736 9.60211 9.1366L9.65513 9.09566C9.8153 8.95782 9.97417 8.82545 10.1382 8.6921L10.3149 8.55173C10.4439 8.44898 10.5733 8.3467 10.7037 8.24759L10.8923 8.10723C11.0342 8.00195 11.181 7.89943 11.3282 7.79724L11.4696 7.69196C11.6207 7.58949 11.7758 7.49222 11.9291 7.39368L12.0999 7.2767C12.3112 7.14391 12.5246 7.01117 12.7421 6.88484L12.907 6.79711C13.0703 6.70306 13.2355 6.61177 13.4019 6.52222C13.4927 6.47309 13.5865 6.42288 13.6788 6.376C13.8146 6.30553 13.9472 6.23727 14.0852 6.17129L14.2384 6.09526C14.4154 6.01132 14.5901 5.9299 14.7686 5.84961L14.8982 5.79697C15.1058 5.70686 15.3165 5.62301 15.5286 5.53963L15.6935 5.47529C15.8857 5.4009 16.0807 5.32683 16.2767 5.25889L16.3651 5.2238C16.5841 5.14856 16.8029 5.08062 17.0249 5.01324L17.1957 4.9606C17.4232 4.89463 17.6516 4.81981 17.885 4.76759C24.0431 3.37681 30.5431 4.62863 34.2033 9.3647C34.2033 9.3647 29.841 -2.30727 14.8334 0.410285C14.5976 0.453519 14.373 0.534231 14.1441 0.603293L13.9851 0.650083C13.76 0.719706 13.5355 0.790125 13.3135 0.866486L13.2369 0.89573C13.0356 0.965634 12.8351 1.04218 12.636 1.11798L12.4829 1.17647C12.2685 1.26041 12.0564 1.34786 11.8466 1.43966L11.7288 1.4923C11.5449 1.57344 11.3616 1.65817 11.1809 1.7438L11.0454 1.80813L10.963 1.84907C10.8463 1.90747 10.7357 1.96474 10.6213 2.02454C10.5328 2.07002 10.438 2.11189 10.3503 2.15906C10.1886 2.24609 10.0326 2.33714 9.8731 2.4281L9.69637 2.52753C9.47965 2.65414 9.26553 2.78688 9.05424 2.91939L8.87751 3.03637C8.74022 3.12508 8.60021 3.21389 8.46513 3.30541L8.42389 3.33465L8.27073 3.43993C8.1288 3.53763 7.9862 3.64188 7.84657 3.74407L7.64627 3.89614C7.51891 3.99159 7.39284 4.09004 7.26924 4.18858L7.08662 4.3348C6.93406 4.45888 6.78103 4.58194 6.633 4.70912L6.55053 4.78515L6.53874 4.791C6.37007 4.93698 6.20728 5.08919 6.04389 5.24135L5.89661 5.38174C5.77453 5.49825 5.65111 5.61391 5.53136 5.73266L5.38997 5.87888C5.23665 6.03582 5.08436 6.19205 4.93636 6.35263L4.91869 6.37018L4.90691 6.38187C4.75515 6.54779 4.60567 6.71446 4.45919 6.88487L4.34137 7.03108C4.23301 7.16135 4.1226 7.29184 4.01736 7.42295L3.88775 7.58672C3.77032 7.73719 3.65309 7.88823 3.54018 8.04292L3.47538 8.13065L3.46948 8.14819C3.3398 8.32843 3.21093 8.50881 3.08656 8.69213L2.97463 8.86174C2.88539 8.99734 2.79578 9.13415 2.70953 9.27115C2.6661 9.34162 2.62858 9.41124 2.58582 9.48171C2.50874 9.60972 2.43083 9.7383 2.35607 9.86772C2.31487 9.94043 2.27276 10.0092 2.23235 10.0841L2.16166 10.2069C2.12354 10.2757 2.09298 10.3462 2.05562 10.4175C1.99686 10.5281 1.93533 10.6389 1.87889 10.7509C-0.491421 15.4569 -0.876964 21.2198 2.22646 25.6476ZM13.6905 31.9467L11.8584 29.3791C9.61401 26.1731 9.7373 21.8798 11.4873 18.4888C11.781 17.92 12.1092 17.3708 12.477 16.8453C12.8134 16.3672 13.1919 15.7961 13.6375 15.4123C13.8 15.2352 13.9666 15.0622 14.1383 14.8918L14.2738 14.7631C14.4408 14.6017 14.61 14.4438 14.7863 14.2894L14.8039 14.2718L14.8098 14.266C15.0043 14.097 15.2063 13.9353 15.4107 13.7747L15.5462 13.6694C15.7514 13.5133 15.9623 13.3592 16.1766 13.2132L16.1942 13.1957C16.2881 13.1305 16.3876 13.0705 16.4829 13.0085L16.6184 12.9208C16.7717 12.8231 16.9266 12.7307 17.0838 12.64L17.1486 12.5991C17.2844 12.5219 17.4221 12.4451 17.561 12.371L17.7082 12.2949C17.8043 12.2458 17.9 12.1965 17.9969 12.1487L18.0381 12.1253C18.2356 12.0285 18.4361 11.9389 18.639 11.8504L18.7745 11.7978C18.9378 11.7296 19.0979 11.661 19.2635 11.5989C19.3336 11.5726 19.4045 11.5479 19.4756 11.5229C19.625 11.4676 19.7774 11.4158 19.9292 11.365C19.9979 11.3431 20.0676 11.322 20.1354 11.3007C20.3513 11.2341 20.5651 11.1506 20.7893 11.1135C32.3761 9.20782 35.0516 18.0618 35.0516 18.0618C32.6402 14.6132 27.9692 12.9696 22.9867 14.2542C22.7647 14.3118 22.5435 14.3732 22.3269 14.4414L22.1325 14.5057C21.9784 14.5554 21.8255 14.6092 21.673 14.6637C21.6035 14.6895 21.5355 14.7133 21.4668 14.7397C21.3005 14.8026 21.1344 14.8698 20.9719 14.9385L20.8364 14.9912C20.6335 15.0805 20.4339 15.1742 20.2355 15.2719C20.1334 15.3211 20.0299 15.3732 19.9292 15.424L19.7584 15.5117C19.6286 15.5816 19.4961 15.6546 19.3695 15.7281L19.2812 15.7808C19.124 15.8726 18.9684 15.9644 18.8158 16.0615L18.6744 16.1551C18.5736 16.2202 18.4724 16.2871 18.374 16.3539C18.1597 16.5002 17.9539 16.6555 17.7495 16.8101L17.6081 16.9154C15.4262 18.6243 13.6948 20.9629 12.8717 23.6122C12.0103 26.3601 12.1975 29.4433 13.6905 31.9467ZM19.9587 32.169L20.9484 33.52C19.119 30.2376 20.8656 26.2103 23.67 24.0977C24.1622 23.7288 24.6919 23.4035 25.2489 23.1385C25.5418 22.9981 25.8428 22.8734 26.1502 22.7642C26.3874 22.6808 26.6578 22.595 26.9043 22.5361C30.0388 21.7803 32.5945 22.2988 34.115 24.472C34.0686 24.4055 34.0093 24.3004 33.9337 24.1663C33.2573 22.9668 31.2744 19.4499 25.5198 20.5534C25.3787 20.58 25.2448 20.628 25.1075 20.6703L24.9779 20.7113C24.8818 20.743 24.7846 20.7751 24.6892 20.8107C22.3747 21.6529 20.3958 23.4347 19.4285 25.7003C18.5107 27.8353 18.6358 30.2361 19.9587 32.169Z" id="signet" fill="#FFFFFF" fill-rule="evenodd" stroke="none" />
      </g>
    </g>
  </g>
</svg>