<?xml version="1.0" encoding="utf-8"?>
<svg width="55px" height="55px" viewBox="0 0 55 55" version="1.1" xmlns:xlink="http://www.w3.org/1999/xlink" xmlns="http://www.w3.org/2000/svg">
  <desc>Created with Lunacy</desc>
  <g id="MongoDB">
    <g id="MongoDB">
      <path d="M27.5 55C42.6878 55 55 42.6878 55 27.5C55 12.3122 42.6878 0 27.5 0C12.3122 0 0 12.3122 0 27.5C0 42.6878 12.3122 55 27.5 55Z" id="Oval-2" fill="#499D4A" stroke="none" />
      <path d="M27.5 0C12.3122 0 0 12.3122 0 27.5C0 42.6878 12.3122 55 27.5 55L27.5 2.66454e-15L27.5 0Z" id="Combined-Shape" fill="#58AA50" fill-rule="evenodd" stroke="none" />
      <g id="leaf" transform="translate(17.1875 5.5)">
        <path d="M2.45149 38.0994C2.45149 38.0994 2.59226 32.1246 0.483174 31.6958C-0.922374 30.0375 0.708646 -38.6331 5.76959 31.4669C5.76959 31.4669 4.02614 32.3529 3.71688 33.8685C3.37928 35.3552 3.60414 38.5 3.60414 38.5L2.45149 38.0994Z" transform="translate(8.25 5.5)" id="Shape" fill="#E7E7E7" stroke="none" />
        <path d="M9.93791 17.5177C7.55659 7.215 1.94068 3.8383 1.32321 2.53948C0.647107 1.61595 0 0 0 0L0.441281 28.658C0.441281 28.687 -0.470275 37.4317 1.85274 38.5C1.85243 38.4997 12.4081 31.6884 9.93791 17.5177Z" transform="translate(10.3125 0)" id="Shape" fill="#F3F3F3" stroke="none" />
        <path d="M9.12244 38.0611C9.12244 38.0611 -0.559815 31.5813 0.0255079 20.1717C0.58186 8.76182 7.42869 3.15548 8.75198 2.1413C9.61537 1.23978 9.64434 0.901521 9.70278 0C10.3054 1.26787 10.1745 18.9603 10.2586 21.0449C10.5099 29.074 9.78484 36.5402 9.12244 38.0611Z" transform="translate(0.6684623 0)" id="Shape" fill="#FFFFFF" stroke="none" />
      </g>
    </g>
  </g>
</svg>