<?xml version="1.0" encoding="utf-8"?>
<svg width="55px" height="55px" viewBox="0 0 55 55" version="1.1" xmlns:xlink="http://www.w3.org/1999/xlink" xmlns="http://www.w3.org/2000/svg">
  <desc>Created with Lunacy</desc>
  <g id="Node-JS">
    <g id="Node-JS">
      <path d="M27.5 55C42.6878 55 55 42.6878 55 27.5C55 12.3122 42.6878 0 27.5 0C12.3122 0 0 12.3122 0 27.5C0 42.6878 12.3122 55 27.5 55Z" id="Oval-2" fill="#689F63" stroke="none" />
      <g id="Node.js_logo" transform="translate(8.088235 5.257353)">
        <path d="M19.563 44.0904C18.9726 44.0904 18.3862 43.9355 17.8685 43.6374L12.4749 40.4442C11.6693 39.9937 12.0624 39.8344 12.3281 39.7426C13.4022 39.3665 13.6202 39.2815 14.7667 38.6304C14.8872 38.5617 15.0449 38.5859 15.1683 38.6587L19.3119 41.1176C19.4615 41.1984 19.6738 41.1984 19.8125 41.1176L35.9688 31.7918C36.1184 31.7069 36.2155 31.533 36.2155 31.3551L36.2155 12.7117C36.2155 12.5256 36.1184 12.3598 35.9655 12.2668L19.8158 2.94917C19.6661 2.8602 19.468 2.8602 19.3183 2.94917L3.1718 12.2668C3.01529 12.3558 2.91581 12.5297 2.91581 12.7076L2.91581 31.351C2.91581 31.529 3.01287 31.6988 3.16654 31.7837L7.59081 34.3396C9.99301 35.5407 11.461 34.1253 11.461 32.7017L11.461 14.301C11.461 14.0381 11.6673 13.8359 11.9301 13.8359L13.9765 13.8359C14.2312 13.8359 14.4415 14.0381 14.4415 14.301L14.4415 32.7098C14.4415 35.9128 12.6945 37.7528 9.65735 37.7528C8.72316 37.7528 7.98713 37.7528 5.93272 36.7418L1.69449 34.2992C0.647059 33.6926 0 32.5602 0 31.351L0 12.7076C0 11.4944 0.647059 10.362 1.69449 9.76351L17.8669 0.433732C18.8901 -0.144577 20.2489 -0.144577 21.264 0.433732L37.4162 9.76756C38.4596 10.3701 39.1107 11.4984 39.1107 12.7117L39.1107 31.3551C39.1107 32.5642 38.4596 33.6926 37.4162 34.2992L21.264 43.629C20.7463 43.9282 20.1599 44.0819 19.5614 44.0819" id="Shape" fill="#FFFFFF" stroke="none" />
        <path d="M8.55129 17.8924C1.48217 17.8924 0 14.6474 0 11.9257C0 11.6669 0.208677 11.4606 0.467904 11.4606L2.55467 11.4606C2.78518 11.4606 2.9793 11.6285 3.0157 11.8561C3.33114 13.9825 4.26938 15.055 8.54401 15.055C11.9492 15.055 13.3969 14.2858 13.3969 12.4801C13.3969 11.4408 12.9845 10.6684 7.69474 10.1507C3.27048 9.71397 0.536655 8.73934 0.536655 5.20074C0.536655 1.94118 3.28665 0 7.89291 0C13.0653 0 15.6293 1.79559 15.9528 5.65368C15.965 5.78713 15.9164 5.91654 15.8275 6.0136C15.7385 6.10662 15.6131 6.16324 15.4837 6.16324L13.3848 6.16324C13.1664 6.16324 12.9764 6.00956 12.9319 5.79926C12.4264 3.56287 11.205 2.84706 7.88482 2.84706C4.16827 2.84706 3.73555 4.14118 3.73555 5.11176C3.73555 6.2886 4.24511 6.63235 9.25982 7.29559C14.226 7.95478 16.5837 8.88493 16.5837 12.375C16.5837 15.8934 13.6477 17.9114 8.52783 17.9114L8.55129 17.8924Z" transform="translate(15.77206 13.34559)" id="Shape" fill="#FFFFFF" stroke="none" />
      </g>
    </g>
  </g>
</svg>