<?xml version="1.0" encoding="utf-8"?>
<svg width="55px" height="55px" viewBox="0 0 55 55" version="1.1" xmlns:xlink="http://www.w3.org/1999/xlink" xmlns="http://www.w3.org/2000/svg">
  <desc>Created with Lunacy</desc>
  <g id="Obj-C">
    <g id="Obj-C">
      <path d="M27.5 55C42.6878 55 55 42.6878 55 27.5C55 12.3122 42.6878 0 27.5 0C12.3122 0 0 12.3122 0 27.5C0 42.6878 12.3122 55 27.5 55Z" id="Oval-2" fill="#53A9F8" stroke="none" />
      <g id="Obj-C" fill="#FFFFFF" transform="translate(8.321045 15.03125)">
        <path d="M13.7549 14.1675L13.7256 14.1675L13.7256 15.2515L12.5244 15.2515L12.5244 4.14795L13.7256 4.14795L13.7256 9.06982L13.7549 9.06982Q14.6411 7.57568 16.3477 7.57568Q17.7905 7.57568 18.6072 8.58276Q19.4238 9.58984 19.4238 11.2817Q19.4238 13.1641 18.5083 14.2957Q17.5928 15.4272 16.0034 15.4272Q14.5166 15.4272 13.7549 14.1675ZM21.4087 5.62744Q21.6357 5.84717 21.958 5.84717Q22.2876 5.84717 22.5183 5.62012Q22.749 5.39307 22.749 5.0708Q22.749 4.73389 22.5183 4.5105Q22.2876 4.28711 21.958 4.28711Q21.6357 4.28711 21.4087 4.5105Q21.1816 4.73389 21.1816 5.0708Q21.1816 5.40771 21.4087 5.62744ZM5.61035 15.4272Q3.37646 15.4272 2.03247 13.9551Q0.688476 12.4829 0.688477 10.1245Q0.688477 7.59033 2.05811 6.08154Q3.42773 4.57275 5.78613 4.57275Q7.96143 4.57275 9.29077 6.0376Q10.6201 7.50244 10.6201 9.86816Q10.6201 12.439 9.25781 13.9331Q7.89551 15.4272 5.61035 15.4272ZM35.3833 15.4272Q37.1191 15.4272 38.2837 14.812L38.2837 13.6182Q37.1265 14.3213 35.5444 14.3213Q33.8379 14.3213 32.7869 13.1824Q31.7358 12.0435 31.7358 10.1245Q31.7358 8.10303 32.8601 6.89453Q33.9844 5.68604 35.7935 5.68604Q37.1558 5.68604 38.2837 6.31592L38.2837 5.00488Q37.3022 4.57275 35.8081 4.57275Q33.479 4.57275 31.9629 6.12549Q30.4468 7.67822 30.4468 10.1978Q30.4468 12.5415 31.7944 13.9844Q33.1421 15.4272 35.3833 15.4272ZM5.69824 5.68604Q4.04297 5.68604 3.01025 6.87988Q1.97754 8.07373 1.97754 10.0146Q1.97754 11.9556 2.98462 13.1384Q3.9917 14.3213 5.61035 14.3213Q7.33887 14.3213 8.33496 13.1934Q9.33105 12.0654 9.33105 10.0366Q9.33105 7.95654 8.36426 6.82129Q7.39746 5.68604 5.69824 5.68604ZM21.8005 17.782Q22.5439 16.7822 22.5439 14.9365L22.5439 7.75146L21.3428 7.75146L21.3428 15.1343Q21.3428 17.7563 19.7021 17.7563Q19.2188 17.7563 18.6768 17.4268L18.6768 18.5474Q19.1602 18.7817 19.6729 18.7817Q21.0571 18.7817 21.8005 17.782ZM13.7256 11.1426L13.7256 12.1899Q13.7256 13.1201 14.3298 13.7683Q14.9341 14.4165 15.8643 14.4165Q16.9556 14.4165 17.5745 13.5815Q18.1934 12.7466 18.1934 11.2598Q18.1934 10.0073 17.6147 9.29688Q17.0361 8.58643 16.0474 8.58643Q15 8.58643 14.3628 9.31519Q13.7256 10.0439 13.7256 11.1426ZM28.8135 11.5454L24.8145 11.5454L24.8145 10.6006L28.8135 10.6006L28.8135 11.5454Z" />
      </g>
    </g>
  </g>
</svg>