<?xml version="1.0" encoding="utf-8"?>
<svg width="53px" height="53px" viewBox="0 0 53 53" version="1.1" xmlns:xlink="http://www.w3.org/1999/xlink" xmlns="http://www.w3.org/2000/svg">
  <desc>Created with Lunacy</desc>
  <defs>
    <linearGradient x1="-2.220446E-16" y1="0.5" x2="1" y2="0.5" id="gradient_1">
      <stop offset="0" stop-color="#93C934" />
      <stop offset="1" stop-color="#5DBD37" />
    </linearGradient>
  </defs>
  <g id="Optimised-Icon">
    <g id="optimzation">
      <path d="M48.125 0L4.375 0C1.96263 0 0 1.96263 0 4.375L0 35C0 37.4124 1.96263 39.375 4.375 39.375L19.0767 39.375L17.6444 47.25L14.2065 47.25C13.2055 47.25 12.306 47.8065 11.858 48.7008C11.4476 49.5206 11.4914 50.4753 11.9726 51.2549C12.4548 52.0345 13.2895 52.5 14.2065 52.5L38.2926 52.5C39.2096 52.5 40.0444 52.0345 40.5265 51.2549C41.0077 50.4753 41.0515 49.5206 40.6411 48.7008C40.194 47.8065 39.2936 47.25 38.2935 47.25L34.8556 47.25L33.4232 39.375L48.125 39.375C50.5374 39.375 52.5 37.4124 52.5 35L52.5 4.375C52.5 1.96263 50.5374 0 48.125 0ZM1.75 30.625L50.75 30.625L50.75 4.375C50.75 2.92775 49.5723 1.75 48.125 1.75L4.375 1.75C2.92775 1.75 1.75 2.92775 1.75 4.375L1.75 30.625ZM50.75 35C50.75 36.4473 49.5723 37.625 48.125 37.625L4.375 37.625C2.92775 37.625 1.75 36.4473 1.75 35L1.75 32.375L50.75 32.375L50.75 35ZM38.2935 49L30.625 49C30.1411 49 29.75 48.6089 29.75 48.125C29.75 47.6411 30.1411 47.25 30.625 47.25L33.0767 47.25L31.6444 39.375L20.8556 39.375L19.4232 47.25L25.375 47.25C25.8589 47.25 26.25 47.6411 26.25 48.125C26.25 48.6089 25.8589 49 25.375 49L14.2065 49C13.8722 49 13.573 49.1855 13.4234 49.483C13.2256 49.8776 13.384 50.2092 13.4619 50.3344C13.5389 50.4595 13.7655 50.75 14.2065 50.75L38.2935 50.75C38.7345 50.75 38.9602 50.4595 39.0381 50.3352C39.116 50.2101 39.2744 49.8776 39.0766 49.4839C38.9279 49.1855 38.6277 49 38.2935 49Z" id="Shape" fill="url(#gradient_1)" fill-rule="evenodd" stroke="none" />
      <path d="M4.375 0L0.875 0C0.391125 0 0 0.33525 0 0.75C0 1.16475 0.391125 1.5 0.875 1.5L4.375 1.5C4.85887 1.5 5.25 1.16475 5.25 0.75C5.25 0.33525 4.85887 0 4.375 0Z" transform="translate(23.25 33.75)" id="Shape" fill="url(#gradient_1)" stroke="none" />
      <path d="M32.1316 20.01L30.2871 20.01C30.9253 18.3344 31.2632 16.5865 31.2632 14.79C31.2632 6.63462 24.6406 0 16.5 0C8.35942 0 1.73684 6.63462 1.73684 14.79C1.73684 16.5865 2.07466 18.3344 2.71295 20.01L0.868421 20.01C0.388184 20.01 0 20.3989 0 20.88C0 21.3611 0.388184 21.75 0.868421 21.75L32.1316 21.75C32.6118 21.75 33 21.3611 33 20.88C33 20.3989 32.6118 20.01 32.1316 20.01ZM25.8555 20.01L28.4252 20.01C29.1564 18.3466 29.5263 16.5926 29.5263 14.79C29.5263 7.59423 23.6827 1.74 16.5 1.74C9.31729 1.74 3.47368 7.59423 3.47368 14.79C3.47368 16.5926 3.84363 18.3466 4.57484 20.01L7.1445 20.01C6.44542 18.5275 6.07895 16.8997 6.07895 15.225C6.07895 14.2323 6.20661 13.2492 6.45932 12.3035C6.5835 11.839 7.06634 11.5623 7.52226 11.6876C7.986 11.812 8.26129 12.2887 8.13711 12.7525C7.92434 13.5529 7.81579 14.3846 7.81579 15.225C7.81579 16.9258 8.26042 18.571 9.10366 20.01L13.5048 20.01C13.4553 19.9256 13.4049 19.8421 13.3633 19.7533C13.3277 19.6759 13.3025 19.5959 13.2721 19.5167C13.2226 19.3871 13.1722 19.2592 13.1383 19.1235C13.1149 19.0304 13.1045 18.9347 13.0888 18.8398C13.0715 18.7372 13.0428 18.6371 13.035 18.5319C13.0341 18.5197 13.0349 18.5075 13.0357 18.4953C13.0364 18.4849 13.0371 18.4745 13.0367 18.464C13.0329 18.39 13.0365 18.3159 13.0401 18.2419C13.0414 18.2142 13.0427 18.1864 13.0437 18.1586C13.0472 18.0325 13.0463 17.9072 13.0637 17.7837C13.0758 17.6967 13.1019 17.6114 13.121 17.5253C13.1514 17.3896 13.1783 17.2538 13.2243 17.1225C13.253 17.0416 13.2947 16.9659 13.3285 16.8867C13.385 16.7553 13.4406 16.6248 13.5144 16.5013C13.5257 16.483 13.5309 16.463 13.5422 16.4447C13.5882 16.3691 13.6698 16.2664 13.7541 16.1603C13.794 16.1089 13.8227 16.0515 13.8652 16.0019C13.9026 15.9584 13.9477 15.9262 13.9868 15.8853C14.9056 14.837 16.896 12.9491 18.5721 11.3996C23.2554 7.06962 23.2928 7.08093 23.8998 7.33149C24.1369 7.42719 24.3201 7.62381 24.4 7.86741C24.6241 8.55036 20.9498 16.8136 19.7983 19.354C19.7227 19.5837 19.6246 19.8029 19.5047 20.01L23.8955 20.01C24.7396 18.571 25.1842 16.9258 25.1842 15.225C25.1842 14.2697 25.0453 13.3301 24.7717 12.4332C24.631 11.9738 24.8898 11.4866 25.3475 11.3465C25.8077 11.2039 26.2914 11.464 26.4321 11.9234C26.7569 12.9874 26.9211 14.0975 26.9211 15.225C26.9211 16.8997 26.5546 18.5275 25.8555 20.01ZM18.7648 15.6313C18.3576 15.2798 17.8825 15.0458 17.3771 14.9144C18.6415 13.7016 20.1925 12.267 21.4839 11.0977C20.8204 12.7177 20.0067 14.6665 19.3215 16.2568C19.16 16.0306 18.9802 15.8166 18.7648 15.6313ZM18.0041 19.1374C18.0067 19.133 18.0102 19.127 18.0128 19.1217C18.1761 18.832 18.2586 18.4936 18.2325 18.1386C18.1978 17.6758 17.9841 17.2538 17.6333 16.9502C17.3154 16.677 16.9186 16.53 16.5035 16.53C16.4592 16.53 16.414 16.5317 16.3697 16.5352C15.9242 16.5692 15.5204 16.771 15.2208 17.0999C15.1965 17.1277 15.1687 17.159 15.1487 17.1842C15.0975 17.2486 15.0497 17.3139 15.0089 17.3835C14.9698 17.4505 14.9394 17.5192 14.9099 17.5888C14.8952 17.6236 14.8761 17.6575 14.8639 17.6932C14.8396 17.7637 14.8248 17.835 14.8092 17.9072C14.8005 17.9464 14.7883 17.9846 14.7831 18.0247C14.7736 18.0908 14.7736 18.1578 14.7718 18.2239C14.7714 18.2368 14.7707 18.2497 14.77 18.2625C14.7682 18.2963 14.7665 18.3299 14.7684 18.364C14.7718 18.4318 14.7849 18.4979 14.7962 18.5641C14.8031 18.6076 14.8083 18.6519 14.8187 18.6946C14.8361 18.7633 14.8622 18.8303 14.8873 18.8964C14.9021 18.9347 14.9143 18.9738 14.9316 19.0104C14.9603 19.0713 14.9968 19.1287 15.0324 19.1861C15.0567 19.2253 15.0793 19.2662 15.1071 19.3036C15.1435 19.3532 15.1869 19.3975 15.2286 19.4436C15.2642 19.4828 15.299 19.5228 15.3381 19.5585C15.3876 19.6037 15.444 19.6429 15.4996 19.6829C15.5378 19.7099 15.5743 19.7394 15.6133 19.7629C15.6802 19.8029 15.7506 19.8334 15.82 19.863C15.8548 19.8778 15.8886 19.8969 15.9242 19.9091C15.992 19.9326 16.0606 19.9465 16.1292 19.9613C16.1717 19.9708 16.2134 19.9839 16.2568 19.99C16.3168 19.9978 16.3767 19.9978 16.4366 19.9996C16.4514 20 16.4661 20.0007 16.4808 20.0014C16.5196 20.0032 16.5582 20.0049 16.5973 20.003C16.6554 20.0004 16.7119 19.9883 16.7692 19.9796C16.8248 19.9708 16.8804 19.9639 16.9342 19.95C16.9915 19.9343 17.0471 19.9126 17.1036 19.8917C17.1539 19.8734 17.2052 19.856 17.2529 19.8325C17.3024 19.809 17.3493 19.7795 17.3962 19.7507C17.4466 19.7203 17.4978 19.6907 17.5447 19.655C17.5838 19.6255 17.6194 19.5898 17.6567 19.5567C17.7036 19.5141 17.7514 19.4723 17.7931 19.4254C17.8287 19.3862 17.8591 19.341 17.8912 19.2975C17.9303 19.2444 17.9711 19.1939 18.0041 19.1374Z" transform="translate(9.75 5.25)" id="Shape" fill="url(#gradient_1)" fill-rule="evenodd" stroke="none" />
      <path d="M9.93658 0.707748C6.868 -0.451341 3.27276 -0.175367 0.428602 1.45204C0.00329039 1.6954 -0.127018 2.21055 0.135408 2.6036C0.306438 2.8595 0.603251 3 0.906399 3C1.06928 3 1.23307 2.95986 1.38148 2.87539C3.73789 1.52647 6.71507 1.29816 9.25246 2.25738C9.71306 2.43216 10.2433 2.22727 10.4325 1.7991C10.6216 1.37092 10.3999 0.882531 9.93658 0.707748Z" transform="translate(20.25 9.75)" id="Shape" fill="url(#gradient_1)" stroke="none" />
    </g>
  </g>
</svg>