<?xml version="1.0" encoding="utf-8"?>
<svg width="55px" height="55px" viewBox="0 0 55 55" version="1.1" xmlns:xlink="http://www.w3.org/1999/xlink" xmlns="http://www.w3.org/2000/svg">
  <desc>Created with Lunacy</desc>
  <g id="PHP">
    <g id="PHP">
      <path d="M27.5 55C42.6878 55 55 42.6878 55 27.5C55 12.3122 42.6878 0 27.5 0C12.3122 0 0 12.3122 0 27.5C0 42.6878 12.3122 55 27.5 55Z" id="Oval-2" fill="#777BB3" stroke="none" />
      <g id="php-logo" transform="translate(8.088235 17.79412)">
        <path d="M8.8093 0L3.06504 0L0 15.368L2.9793 15.368L3.79379 11.2956L6.36585 11.2956C7.23735 11.2956 8.08055 11.1957 8.89504 10.9956C9.70952 10.7954 10.4739 10.3238 11.1885 9.58092C11.7744 8.99493 12.2314 8.33776 12.5602 7.60901C12.9032 6.88026 13.1248 6.13735 13.2247 5.37989C13.4819 3.72221 13.2319 2.41474 12.4745 1.4575C11.717 0.500257 10.4953 0.0141544 8.8093 0ZM5.56851 2.46489L5.57279 2.44346L5.55136 2.46489L5.56851 2.46489ZM5.56851 2.46489L4.28677 8.8736C4.3725 8.88776 4.45824 8.89503 4.54397 8.89503L4.84404 8.89503C6.21581 8.90919 7.35908 8.77371 8.27346 8.48779C9.18783 8.18772 9.80254 7.14474 10.1168 5.35846C10.374 3.85809 10.1168 2.99346 9.34515 2.76496C8.58768 2.53647 7.63772 2.4293 6.49445 2.44346C6.32298 2.45761 6.15879 2.46489 6.00147 2.46489L5.56851 2.46489Z" transform="translate(0 4.09386)" id="Shape" fill="#FFFFFF" fill-rule="evenodd" stroke="none" />
        <path d="M3.08647 0L6.04434 0L5.20842 4.09386L7.86621 4.09386C9.32371 4.12257 10.4096 4.42265 11.1242 4.99408C11.8529 5.56552 12.0672 6.65176 11.7672 8.25202L10.3311 15.3895L7.33037 15.3895L8.70213 8.57353C8.84489 7.85893 8.80202 7.3518 8.57353 7.05173C8.34504 6.75166 7.85206 6.60162 7.0946 6.60162L4.71544 6.58018L2.95787 15.3895L0 15.3895L3.08647 0L3.08647 0" transform="translate(13.53202 0)" id="Shape" fill="#FFFFFF" stroke="none" />
        <path d="M8.8093 0L3.06504 0L0 15.368L2.9793 15.368L3.79379 11.2956L6.36585 11.2956C7.23735 11.2956 8.08055 11.1957 8.89504 10.9956C9.70952 10.7954 10.4739 10.3238 11.1885 9.58092C11.7744 8.99493 12.2314 8.33776 12.5602 7.60901C12.9032 6.88026 13.1248 6.13735 13.2247 5.37989C13.4819 3.72221 13.2319 2.41474 12.4745 1.4575C11.717 0.500257 10.4953 0.0141544 8.8093 0ZM5.56851 2.46489L5.57279 2.44346L5.55136 2.46489L5.56851 2.46489ZM5.56851 2.46489L4.28676 8.8736C4.3725 8.88776 4.45823 8.89503 4.54397 8.89503L4.84404 8.89503C6.21581 8.90919 7.35908 8.77371 8.27345 8.48779C9.18783 8.18772 9.80254 7.14474 10.1168 5.35846C10.374 3.85809 10.1168 2.99346 9.34515 2.76496C8.58768 2.53647 7.63772 2.4293 6.49445 2.44346C6.32298 2.45761 6.15879 2.46489 6.00147 2.46489L5.56851 2.46489Z" transform="translate(25.4104 4.09386)" id="Shape" fill="#FFFFFF" fill-rule="evenodd" stroke="none" />
      </g>
    </g>
  </g>
</svg>