<?xml version="1.0" encoding="utf-8"?>
<svg width="55px" height="55px" viewBox="0 0 55 55" version="1.1" xmlns:xlink="http://www.w3.org/1999/xlink" xmlns="http://www.w3.org/2000/svg">
  <desc>Created with Lunacy</desc>
  <g id="React-Native">
    <g id="React-Native">
      <path d="M27.5 55C42.6878 55 55 42.6878 55 27.5C55 12.3122 42.6878 0 27.5 0C12.3122 0 0 12.3122 0 27.5C0 42.6878 12.3122 55 27.5 55Z" id="Oval-2" fill="#61DAFB" stroke="none" />
      <path d="M44 19.5982C44 16.6832 40.3498 13.9206 34.7534 12.2074C36.0448 6.50285 35.4709 1.96431 32.9417 0.511258C32.3611 0.171789 31.6826 0.0102695 30.9417 0.00897726L30.9417 0C28.4753 0 25.2466 1.75801 21.9821 4.80762C18.7175 1.77595 15.4888 0.0358778 13.0224 0.0358778L13.0224 0.0448472C12.2691 0.0448472 11.5874 0.206297 10.9955 0.547136C8.47534 2.00019 7.91031 6.52976 9.21076 12.2164C3.63229 13.9385 0 16.6921 0 19.5982C0 22.5133 3.65022 25.2759 9.24664 26.9891C7.95516 32.6936 8.52915 37.2322 11.0583 38.6852C11.6413 39.0261 12.3229 39.1875 13.0762 39.1875C15.5426 39.1875 18.7713 37.4295 22.0359 34.3799C25.3004 37.4115 28.5291 39.1516 30.9955 39.1516C31.7489 39.1516 32.4305 38.9902 33.0224 38.6493C35.5426 37.1963 36.1076 32.6667 34.8072 26.9801C40.3677 25.2669 44 22.5043 44 19.5982ZM23.4081 6.20685C26.3272 3.49347 29.0674 2.00496 30.9327 2.0002L30.9327 2.00916C31.3453 2.00916 31.6771 2.08988 31.9552 2.24236C33.1749 2.94198 33.704 5.6059 33.2915 9.03223C33.1928 9.87536 33.0314 10.7633 32.8341 11.6692C31.0762 11.2387 29.157 10.9068 27.139 10.6916C25.9283 9.03223 24.6726 7.52536 23.4081 6.20685ZM13.0224 2.03606C14.8789 2.03606 17.6323 3.51602 20.5561 6.21582C19.3004 7.53433 18.0448 9.03223 16.852 10.6916C14.8251 10.9068 12.9058 11.2387 11.148 11.6782C10.9417 10.7813 10.7892 9.91123 10.6816 9.07708C10.2601 5.65075 10.7803 2.98682 11.991 2.27824C12.2601 2.11679 12.6099 2.04503 13.0224 2.04503L13.0224 2.03606ZM21.9731 7.62403C22.8072 8.48509 23.6413 9.44482 24.4664 10.4942C23.6592 10.4584 22.8341 10.4315 22 10.4315C21.157 10.4315 20.3229 10.4494 19.5067 10.4942C20.3139 9.44482 21.148 8.48509 21.9731 7.62403ZM28.2152 23.1681C27.5157 24.3789 26.7982 25.527 26.0538 26.5944C24.7175 26.711 23.3632 26.7738 22 26.7738C20.6457 26.7738 19.2915 26.711 17.9641 26.6034C17.2197 25.536 16.4933 24.3969 15.7937 23.195C15.1121 22.02 14.4933 20.827 13.9283 19.6251C14.4843 18.4232 15.1121 17.2213 15.7848 16.0463C16.4843 14.8355 17.2018 13.6874 17.9462 12.62C19.2825 12.5034 20.6368 12.4406 22 12.4406C23.3543 12.4406 24.7085 12.5034 26.0359 12.611C26.7803 13.6784 27.5067 14.8175 28.2063 16.0194C28.8879 17.1944 29.5067 18.3874 30.0717 19.5893C29.5067 20.7912 28.8879 21.9931 28.2152 23.1681ZM14.0448 15.0328C14.4574 14.3063 14.8969 13.5977 15.3363 12.907C14.0538 13.0954 12.8161 13.3376 11.6413 13.6156C11.9821 14.7816 12.3946 15.9836 12.8789 17.1855C13.2466 16.4679 13.6323 15.7503 14.0448 15.0328ZM31.1121 17.1585C31.5785 15.9656 31.991 14.7727 32.3229 13.6156C31.148 13.3286 29.9193 13.0954 28.6457 12.907C29.0852 13.5887 29.5247 14.2883 29.9372 15.0059C30.3587 15.7234 30.7444 16.441 31.1121 17.1585ZM34.287 25.0427C35.157 24.7646 36 24.4686 36.7713 24.1368C39.9462 22.7914 42 21.0064 42.009 19.5982C42.009 18.19 39.9552 16.4141 36.7803 15.0597C35.991 14.7278 35.148 14.4229 34.2601 14.1448C33.7578 15.8939 33.0942 17.7147 32.2691 19.5803C33.1031 21.4549 33.7758 23.2847 34.287 25.0427ZM7.21973 24.1368C4.04484 22.7824 1.99103 21.0064 1.99103 19.5982C1.99103 18.19 4.04484 16.4051 7.21973 15.0597C7.99103 14.7278 8.83408 14.4318 9.70404 14.1538C10.2152 15.9118 10.8879 17.7416 11.722 19.6162C10.8969 21.4818 10.2332 23.3026 9.73094 25.0517C8.84305 24.7736 8 24.4686 7.21973 24.1368ZM32.3498 25.5719C32.009 24.4059 31.5964 23.204 31.1121 22.002C30.7444 22.7196 30.3587 23.4461 29.9462 24.1637C29.5336 24.8902 29.0942 25.5988 28.6547 26.2894C29.9372 26.1011 31.1749 25.8589 32.3498 25.5719ZM11.6682 25.5809C12.8431 25.8679 14.0717 26.1011 15.3453 26.2894C14.9058 25.6078 14.4753 24.9081 14.0538 24.1906C13.6323 23.473 13.2466 22.7555 12.8789 22.0379C12.4126 23.2309 12 24.4238 11.6682 25.5809ZM33.3184 30.1194C33.7399 33.5457 33.2197 36.2096 32.009 36.9182C31.7399 37.0797 31.3901 37.1514 30.9776 37.1514C29.1211 37.1514 26.3677 35.6715 23.4439 32.9717C24.6996 31.6532 25.9552 30.1553 27.148 28.4959C29.1749 28.2807 31.0942 27.9488 32.852 27.5093C33.0583 28.4152 33.2197 29.2852 33.3184 30.1194ZM10.7085 30.1642C10.296 33.5906 10.8251 36.2545 12.0448 36.9541C12.3139 37.1066 12.6547 37.1873 13.0583 37.1963C14.9238 37.1963 17.6682 35.7074 20.5919 32.9896C19.3274 31.6711 18.0718 30.1642 16.861 28.5049C14.8431 28.2896 12.9238 27.9578 11.1659 27.5272C10.9686 28.4331 10.8072 29.3211 10.7085 30.1642ZM22.0179 31.5724C21.1839 30.7114 20.3498 29.7516 19.5247 28.7022C20.3318 28.7381 21.1569 28.765 21.991 28.765C22.8341 28.765 23.6682 28.7471 24.4843 28.7022C23.6771 29.7516 22.843 30.7114 22.0179 31.5724Z" transform="translate(5.5 8.25)" id="Shape" fill="#FFFFFF" fill-rule="evenodd" stroke="none" />
      <path d="M4.125 8.25C6.40317 8.25 8.25 6.40317 8.25 4.125C8.25 1.84683 6.40317 0 4.125 0C1.84683 0 0 1.84683 0 4.125C0 6.40317 1.84683 8.25 4.125 8.25Z" transform="translate(23.375 24.0625)" id="Oval" fill="#FFFFFF" stroke="none" />
    </g>
  </g>
</svg>