<?xml version="1.0" encoding="utf-8"?>
<svg width="63px" height="54px" viewBox="0 0 63 54" version="1.1" xmlns:xlink="http://www.w3.org/1999/xlink" xmlns="http://www.w3.org/2000/svg">
  <desc>Created with Lunacy</desc>
  <defs>
    <linearGradient x1="-2.220446E-16" y1="0.5" x2="1" y2="0.5" id="gradient_1">
      <stop offset="0" stop-color="#93C934" />
      <stop offset="1" stop-color="#5DBD37" />
    </linearGradient>
  </defs>
  <g id="Responsive-Icon">
    <g id="responsive-3">
      <path d="M27.7347 1.01473C27.7347 0.454278 28.1888 0 28.7494 0C29.31 0 29.7641 0.4544 29.7643 1.01473L29.7643 7.95188C29.7643 10.249 27.8955 12.1177 25.5984 12.1177L9.76168 12.1177L10.7435 16.2074L14.724 16.2074C15.2846 16.2074 15.7387 16.6617 15.7387 17.2222C15.7387 17.7826 15.2846 18.2369 14.724 18.2369L1.01478 18.2369C0.703989 18.2369 0.410261 18.0944 0.21792 17.8504C0.0254567 17.6062 -0.0445077 17.2875 0.0280344 16.9853L1.19656 12.1177L1.12881 12.1177C0.568233 12.1177 0.114078 11.6634 0.114078 11.103C0.114078 10.5425 0.568233 10.0883 1.12881 10.0883L25.5983 10.0883C26.7764 10.0883 27.7347 9.12986 27.7347 7.95188L27.7347 1.01473ZM3.28371 12.1177L2.30188 16.2074L8.65637 16.2074L7.67453 12.1177L3.28371 12.1177Z" transform="translate(24.9619 31.43389)" id="Shape" fill="url(#gradient_1)" fill-rule="evenodd" stroke="none" />
      <path d="M37.4664 0L4.16718 0C1.8694 0 0 1.8694 0 4.16718L0.000122745 13.8521C0.000122745 14.4125 0.454278 14.8668 1.01485 14.8668C1.57543 14.8668 2.02958 14.4125 2.02958 13.8521L2.02946 4.16718C2.02946 2.98846 2.98846 2.02946 4.16718 2.02946L37.4663 2.02946C38.0269 2.02946 38.481 1.57518 38.481 1.01473C38.4812 0.4544 38.0269 0 37.4664 0Z" transform="translate(5.073524 6.270635)" id="Shape" fill="url(#gradient_1)" stroke="none" />
      <path d="M25.9796 0L1.01473 0C0.454155 0 0 0.454278 0 1.01473C0 1.57518 0.454155 2.02946 1.01473 2.02946L25.9796 2.02946C26.5402 2.02946 26.9944 1.57518 26.9944 1.01473C26.9944 0.454278 26.5401 0 25.9796 0Z" transform="translate(24.80545 37.19944)" id="Shape" fill="url(#gradient_1)" stroke="none" />
      <path d="M34.5385 0L1.01473 0C0.454155 0 0 0.454278 0 1.01473C0 1.57518 0.454155 2.02946 1.01473 2.02946L34.5385 2.02946C35.0991 2.02946 35.5532 1.57518 35.5532 1.01473C35.5532 0.4544 35.0989 0 34.5385 0Z" transform="translate(8.001473 10.59333)" id="Shape" fill="url(#gradient_1)" stroke="none" />
      <path d="M17.2502 19.7896C17.8107 19.7896 18.2649 19.3353 18.2649 18.7749L18.2649 3.18633C18.2649 1.42936 16.8357 0 15.0786 0L3.18633 0C1.42936 0 0 1.42936 0 3.18633L0 27.2008C0 28.9578 1.42924 30.3871 3.18633 30.3871L15.0786 30.3871C16.8355 30.3871 18.2649 28.9578 18.2649 27.2008L18.2649 21.8192C18.2649 21.2587 17.8107 20.8045 17.2502 20.8045C16.6896 20.8045 16.2354 21.2587 16.2354 21.8192L16.2354 27.2008C16.2354 27.8387 15.7165 28.3577 15.0786 28.3577L3.18633 28.3577C2.54842 28.3577 2.02946 27.8387 2.02946 27.2008L2.02946 3.18633C2.02946 2.54842 2.54842 2.02946 3.18633 2.02946L15.0786 2.02946C15.7165 2.02946 16.2354 2.54842 16.2354 3.18633L16.2354 18.775C16.2354 19.3353 16.6896 19.7896 17.2502 19.7896Z" transform="translate(44.58034 0.1215)" id="Shape" fill="url(#gradient_1)" stroke="none" />
      <path d="M13.0363 2.81736L10.5161 0.297165C10.1198 -0.0989321 9.47748 -0.0991776 9.08101 0.297165C8.68479 0.693507 8.68479 1.33595 9.08101 1.73229L9.86903 2.52031L1.01473 2.52031C0.454155 2.52031 0 2.97459 0 3.53504C0 4.0955 0.454155 4.54977 1.01473 4.54977L9.86903 4.54977L9.08101 5.33779C8.68479 5.73414 8.68479 6.37658 9.08101 6.77292C9.27924 6.97103 9.53897 7.07021 9.79858 7.07021C10.0582 7.07021 10.318 6.97116 10.5161 6.77292L13.0363 4.25273C13.4326 3.85602 13.4326 3.21358 13.0363 2.81736Z" transform="translate(27.41721 18.03116)" id="Shape" fill="url(#gradient_1)" stroke="none" />
      <path d="M12.3189 2.52031L3.46459 2.52031L4.25261 1.73229C4.64895 1.33595 4.64895 0.693507 4.25261 0.297165C3.85627 -0.0989321 3.21394 -0.0991776 2.81748 0.297165L0.297165 2.81736C0.106911 3.00773 0 3.26574 0 3.5348C0 3.80385 0.106911 4.06211 0.297165 4.25224L2.81748 6.77243C3.01571 6.97054 3.27544 7.06972 3.53504 7.06972C3.79465 7.06972 4.0545 6.97066 4.25261 6.77243C4.64895 6.37609 4.64895 5.73364 4.25261 5.3373L3.46459 4.54928L12.3189 4.54928C12.8793 4.54953 13.3335 4.09525 13.3335 3.5348C13.3335 2.97435 12.8795 2.52031 12.3189 2.52031Z" transform="translate(27.41697 25.20166)" id="Shape" fill="url(#gradient_1)" stroke="none" />
      <path d="M11.4551 0L1.01473 0C0.454155 0 0 0.454278 0 1.01473C0 1.57518 0.454155 2.02946 1.01473 2.02946L11.4551 2.02946C12.0157 2.02946 12.4699 1.57518 12.4699 1.01473C12.4699 0.454278 12.0157 0 11.4551 0Z" transform="translate(47.47773 5.613952)" id="Shape" fill="url(#gradient_1)" stroke="none" />
      <path d="M11.4551 0L1.01473 0C0.454155 0 0 0.454278 0 1.01473C0 1.57518 0.454155 2.02946 1.01473 2.02946L11.4551 2.02946C12.0157 2.02946 12.4699 1.57518 12.4699 1.01473C12.4699 0.454278 12.0157 0 11.4551 0Z" transform="translate(47.47773 22.98661)" id="Shape" fill="url(#gradient_1)" stroke="none" />
      <path d="M20.6043 0L3.18633 0C1.42924 0 0 1.42948 0 3.1862L0 9.22683C0 9.78728 0.454155 10.2416 1.01473 10.2416C1.5753 10.2416 2.02946 9.78728 2.02946 9.22683L2.02946 3.1862C2.02946 2.5483 2.54842 2.02934 3.18633 2.02934L20.6043 2.02934C21.2422 2.02934 21.7611 2.5483 21.7611 3.1862L21.7611 27.2007C21.7611 27.8386 21.2422 28.3576 20.6043 28.3576L3.18633 28.3576C2.54842 28.3576 2.02946 27.8386 2.02946 27.2007L2.02946 12.3614C2.02946 11.8009 1.5753 11.3466 1.01473 11.3466C0.454155 11.3466 0 11.801 0 12.3614L0 27.2007C0 28.9577 1.42924 30.387 3.18633 30.387L20.6043 30.387C22.3612 30.387 23.7906 28.9577 23.7906 27.2007L23.7906 3.1862C23.7907 1.42948 22.3612 0 20.6043 0Z" transform="translate(0 22.2294)" id="Shape" fill="url(#gradient_1)" stroke="none" />
      <path d="M17.4437 0L1.01473 0C0.454155 0 0 0.454277 0 1.01473C0 1.57518 0.454278 2.02946 1.01473 2.02946L17.4437 2.02946C18.0043 2.02946 18.4585 1.57518 18.4585 1.01473C18.4585 0.454277 18.0043 0 17.4437 0Z" transform="translate(2.666012 27.72197)" id="Shape" fill="url(#gradient_1)" stroke="none" />
      <path d="M17.4437 0L1.01473 0C0.454155 0 0 0.454278 0 1.01473C0 1.57518 0.454278 2.02946 1.01473 2.02946L17.4437 2.02946C18.0043 2.02946 18.4585 1.57518 18.4585 1.01473C18.4585 0.454401 18.0043 0 17.4437 0Z" transform="translate(2.666012 45.0945)" id="Shape" fill="url(#gradient_1)" stroke="none" />
      <path d="M1.01473 2.02946C1.57515 2.02946 2.02946 1.57515 2.02946 1.01473C2.02946 0.454309 1.57515 0 1.01473 0C0.45431 0 0 0.454309 0 1.01473C0 1.57515 0.45431 2.02946 1.01473 2.02946Z" transform="translate(52.69793 25.71546)" id="Oval" fill="url(#gradient_1)" stroke="none" />
      <path d="M1.01473 2.02946C1.57515 2.02946 2.02946 1.57515 2.02946 1.01473C2.02946 0.45431 1.57515 0 1.01473 0C0.45431 0 0 0.45431 0 1.01473C0 1.57515 0.45431 2.02946 1.01473 2.02946Z" transform="translate(10.88057 47.88105)" id="Oval" fill="url(#gradient_1)" stroke="none" />
    </g>
  </g>
</svg>