<?xml version="1.0" encoding="utf-8"?>
<svg width="55px" height="55px" viewBox="0 0 55 55" version="1.1" xmlns:xlink="http://www.w3.org/1999/xlink" xmlns="http://www.w3.org/2000/svg">
  <desc>Created with Lunacy</desc>
  <defs>
    <linearGradient x1="0.5" y1="1" x2="0.5" y2="-2.48949816E-17" id="gradient_1">
      <stop offset="0" stop-color="#93C934" />
      <stop offset="1" stop-color="#5DBD37" />
    </linearGradient>
  </defs>
  <g id="Retina-Ready-Icon">
    <g id="resolution-2">
      <path d="M49.2749 10.9712L49.2749 8.21252C49.2733 6.70134 48.0486 5.47663 46.5374 5.47502L43.7787 5.47502C34.0611 -1.82501 20.6888 -1.82501 10.9713 5.47502L8.21259 5.47502C6.70142 5.47663 5.47671 6.70134 5.47511 8.21252L5.47511 10.9712C1.90472 15.693 -0.018578 21.4554 0.000135274 27.375C0.000135274 42.4938 12.2563 54.75 27.375 54.75C42.4937 54.75 54.7499 42.4938 54.7499 27.375C54.7686 21.4554 52.8453 15.693 49.2749 10.9712ZM40.5473 5.47502C36.5754 3.07116 32.0177 1.80827 27.375 1.82506C22.7323 1.80827 18.1747 3.07116 14.2027 5.47502L40.5473 5.47502ZM7.30013 8.21252C7.30078 7.70887 7.70894 7.3007 8.21259 7.30006L42.8875 7.30006L42.8875 10.0376L39.2375 10.0376C38.7335 10.0376 38.3251 10.446 38.3251 10.95L38.3251 14.6L34.6751 14.6C34.1711 14.6 33.7626 15.0085 33.7626 15.5124L33.7626 19.1624L30.1127 19.1624C29.6087 19.1624 29.2002 19.5709 29.2002 20.0749L29.2002 23.7248L25.5503 23.7248C25.0463 23.7248 24.6378 24.1333 24.6378 24.6373L24.6378 28.2873L20.9879 28.2873C20.4839 28.2873 20.0754 28.6959 20.0754 29.1997L20.0754 32.8497L7.30013 32.8497L7.30013 8.21252ZM46.5375 7.30006L44.7125 7.30006L44.7125 10.0376L47.45 10.0376L47.45 8.21252C47.4493 7.70887 47.0412 7.3007 46.5375 7.30006ZM40.15 11.8626L40.15 14.6001L42.8875 14.6001L42.8875 11.8626L40.15 11.8626ZM44.7125 11.8626L47.45 11.8626L47.45 14.6001L44.7125 14.6001L44.7125 11.8626ZM1.82516 27.375C1.84099 41.4793 13.2707 52.9092 27.375 52.9251C41.4793 52.9092 52.9091 41.4793 52.9247 27.375C52.9415 22.7323 51.6786 18.1747 49.2748 14.2026L49.2748 35.5875C49.2732 37.0987 48.0485 38.3234 46.5373 38.325L31.9374 38.325L31.9374 40.2229C35.0763 40.6778 37.4069 43.3657 37.4124 46.5375C37.4124 47.0415 37.0039 47.45 36.4999 47.45L18.25 47.45C17.746 47.45 17.3375 47.0415 17.3375 46.5375C17.343 43.3657 19.6736 40.6779 22.8125 40.2229L22.8125 38.325L8.21259 38.325C6.70142 38.3234 5.47671 37.0987 5.47511 35.5875L5.47511 14.2026C3.07125 18.1746 1.80837 22.7323 1.82516 27.375ZM35.5875 16.425L35.5875 19.1625L38.3249 19.1625L38.3249 16.425L35.5875 16.425ZM40.15 19.1625L40.15 16.425L42.8875 16.425L42.8875 19.1625L40.15 19.1625ZM47.45 16.425L44.7125 16.425L44.7125 19.1625L47.45 19.1625L47.45 16.425ZM31.0251 23.725L31.0251 20.9876L33.7625 20.9876L33.7625 23.725L31.0251 23.725ZM35.5875 23.725L35.5875 20.9876L38.3249 20.9876L38.3249 23.725L35.5875 23.725ZM40.15 20.9876L40.15 23.725L42.8875 23.725L42.8875 20.9876L40.15 20.9876ZM44.7125 20.9876L47.45 20.9876L47.45 23.725L44.7125 23.725L44.7125 20.9876ZM26.4625 25.5501L26.4625 28.2876L29.2 28.2876L29.2 25.5501L26.4625 25.5501ZM31.0251 28.2876L31.0251 25.5501L33.7625 25.5501L33.7625 28.2876L31.0251 28.2876ZM35.5875 28.2876L35.5875 25.5501L38.3249 25.5501L38.3249 28.2876L35.5875 28.2876ZM40.15 25.5501L40.15 28.2876L42.8875 28.2876L42.8875 25.5501L40.15 25.5501ZM47.45 25.5501L44.7125 25.5501L44.7125 28.2876L47.45 28.2876L47.45 25.5501ZM24.6375 32.85L24.6375 30.1125L21.9 30.1125L21.9 32.85L24.6375 32.85ZM29.2 30.1125L29.2 32.85L26.4625 32.85L26.4625 30.1125L29.2 30.1125ZM33.7625 32.85L33.7625 30.1125L31.0251 30.1125L31.0251 32.85L33.7625 32.85ZM38.3249 32.85L38.3249 30.1125L35.5875 30.1125L35.5875 32.85L38.3249 32.85ZM42.8875 30.1125L42.8875 32.85L40.15 32.85L40.15 30.1125L42.8875 30.1125ZM44.7125 30.1125L47.45 30.1125L47.45 32.85L44.7125 32.85L44.7125 30.1125ZM7.30013 34.675L47.45 34.675L47.45 35.5875C47.4493 36.0912 47.0412 36.4993 46.5375 36.5L8.21259 36.5C7.70894 36.4993 7.30078 36.0912 7.30013 35.5875L7.30013 34.675ZM24.6375 40.15L24.6375 38.325L30.1125 38.325L30.1125 40.15L24.6375 40.15ZM35.4957 45.625C35.0593 43.5023 33.1922 41.9779 31.0251 41.9751L23.7251 41.9751C21.5579 41.9779 19.6908 43.5023 19.2544 45.625L35.4957 45.625Z" id="Shape" fill="url(#gradient_1)" fill-rule="evenodd" stroke="none" />
    </g>
  </g>
</svg>