<?xml version="1.0" encoding="utf-8"?>
<svg width="56px" height="53px" viewBox="0 0 56 53" version="1.1" xmlns:xlink="http://www.w3.org/1999/xlink" xmlns="http://www.w3.org/2000/svg">
  <desc>Created with Lunacy</desc>
  <g id="Services-Icon">
    <path d="M49.5322 25.7595L55.3144 18.6065C55.6609 18.1778 55.6609 17.5654 55.3144 17.1367L49.5322 9.9838C49.3102 9.70918 48.976 9.54953 48.6226 9.54953L32.9881 9.54953L32.9881 5.3592C32.9881 2.40414 30.5831 0 27.6271 0C24.6711 0 22.2663 2.40414 22.2663 5.3592L22.2663 9.54953L16.4247 9.54953C13.8072 9.54953 11.6776 11.6783 11.6776 14.2951L11.6776 21.4481C11.6776 24.0648 13.8071 26.1938 16.4247 26.1938L48.6226 26.1938C48.976 26.1938 49.3102 26.0341 49.5322 25.7595ZM24.6053 9.5494L30.6491 9.5494L30.6491 5.3592C30.6491 3.69344 29.2934 2.33828 27.6271 2.33828C25.9608 2.33828 24.6053 3.69344 24.6053 5.3592L24.6053 9.5494ZM48.064 11.8878L52.9012 17.8716L48.064 23.8555L16.4247 23.8555C15.0968 23.8555 14.0166 22.7756 14.0166 21.4481L14.0166 14.2951C14.0166 12.9677 15.0968 11.8878 16.4247 11.8878L48.064 11.8878ZM20.3612 34.4775C20.3612 33.8318 19.8377 33.3084 19.1918 33.3084L7.51014 33.3084L2.67306 27.3245L7.51001 21.3408L8.48509 21.3408C9.13103 21.3408 9.65457 20.8174 9.65457 20.1717C9.65457 19.5259 9.13103 19.0025 8.48509 19.0025L6.95152 19.0025C6.59821 19.0025 6.264 19.1622 6.04193 19.4368L0.259916 26.5895C-0.0866386 27.0182 -0.0866386 27.6305 0.259916 28.0591L6.04193 35.2123C6.264 35.4869 6.59821 35.6465 6.95152 35.6465L19.1916 35.6465C19.8376 35.6467 20.3612 35.1233 20.3612 34.4775ZM40.9852 51.4499C40.9852 52.0957 40.4617 52.619 39.8157 52.619L15.4384 52.619C14.7925 52.619 14.2689 52.0957 14.2689 51.4499C14.2689 50.8042 14.7925 50.2808 15.4384 50.2808L22.2663 50.2808L22.2663 29.2144C22.2663 28.5687 22.7899 28.0453 23.4358 28.0453C24.0817 28.0453 24.6053 28.5687 24.6053 29.2144L24.6053 50.2808L30.6491 50.2808L30.6491 29.2144C30.6491 28.5687 31.1727 28.0453 31.8186 28.0453C32.4645 28.0453 32.9881 28.5687 32.9881 29.2144L32.9881 50.2808L39.8159 50.2808C40.4617 50.2808 40.9852 50.8043 40.9852 51.4499ZM41.5577 29.2144C41.5577 28.5687 42.0813 28.0453 42.7272 28.0453C43.373 28.0453 43.8967 28.5688 43.8967 29.2144L43.8967 30.9009C43.8967 33.5175 41.7672 35.6465 39.1496 35.6465L36.1373 35.6465C35.4914 35.6465 34.9679 35.1231 34.9679 34.4774C34.9679 33.8316 35.4914 33.3083 36.1373 33.3083L39.1496 33.3083C40.4775 33.3083 41.5577 32.2284 41.5577 30.9009L41.5577 29.2144Z" id="XMLID_88_" fill="#FFFFFF" fill-rule="evenodd" stroke="none" />
  </g>
</svg>