<svg width="56" height="53" viewBox="0 0 56 53" fill="none" xmlns="http://www.w3.org/2000/svg">
<path fill-rule="evenodd" clip-rule="evenodd" d="M49.6205 25.8208L55.4026 18.6677C55.7492 18.2391 55.7492 17.6267 55.4026 17.198L49.6205 10.0451C49.3984 9.77046 49.0642 9.61081 48.7109 9.61081H33.0763V5.42048C33.0763 2.46542 30.6714 0.0612793 27.7153 0.0612793C24.7594 0.0612793 22.3546 2.46542 22.3546 5.42048V9.61081H16.5129C13.8955 9.61081 11.7659 11.7395 11.7659 14.3563V21.5094C11.7659 24.1261 13.8954 26.2551 16.5129 26.2551H48.7109C49.0642 26.2551 49.3984 26.0954 49.6205 25.8208ZM39.904 52.6803C40.55 52.6803 41.0735 52.1569 41.0735 51.5112C41.0735 50.8656 40.55 50.342 39.9042 50.342H33.0764V29.2757C33.0764 28.63 32.5529 28.1066 31.9069 28.1066C31.261 28.1066 30.7374 28.63 30.7374 29.2757V50.342H24.6936V29.2757C24.6936 28.63 24.1701 28.1066 23.5241 28.1066C22.8782 28.1066 22.3546 28.63 22.3546 29.2757V50.342H15.5267C14.8808 50.342 14.3573 50.8654 14.3573 51.5112C14.3573 52.1569 14.8808 52.6803 15.5267 52.6803H39.904ZM24.6938 9.61067H30.7376V5.42048C30.7376 3.75472 29.3819 2.39956 27.7156 2.39956C26.0493 2.39956 24.6938 3.75472 24.6938 5.42048V9.61067ZM48.1523 11.9491L52.9895 17.9329L48.1523 23.9168H16.513C15.1851 23.9168 14.1049 22.8369 14.1049 21.5094V14.3563C14.1049 13.029 15.1851 11.9491 16.513 11.9491H48.1523ZM20.4496 34.5388C20.4496 33.893 19.9261 33.3697 19.2801 33.3697H7.59852L2.76144 27.3857L7.59839 21.4021H8.57347C9.21941 21.4021 9.74295 20.8787 9.74295 20.2329C9.74295 19.5872 9.21941 19.0638 8.57347 19.0638H7.0399C6.68659 19.0638 6.35238 19.2235 6.13031 19.4981L0.348295 26.6507C0.00174029 27.0794 0.00174029 27.6918 0.348295 28.1203L6.13031 35.2735C6.35238 35.5481 6.68659 35.7078 7.0399 35.7078H19.28C19.926 35.7079 20.4496 35.1845 20.4496 34.5388ZM41.6461 29.2757C41.6461 28.63 42.1696 28.1066 42.8156 28.1066C43.4614 28.1066 43.985 28.6301 43.985 29.2757V30.9621C43.985 33.5788 41.8555 35.7078 39.238 35.7078H36.2257C35.5798 35.7078 35.0562 35.1844 35.0562 34.5387C35.0562 33.8929 35.5798 33.3695 36.2257 33.3695H39.238C40.5659 33.3695 41.6461 32.2896 41.6461 30.9621V29.2757Z" fill="url(#paint0_linear)"/>
<defs>
<linearGradient id="paint0_linear" x1="56.3616" y1="-0.333364" x2="0.231658" y2="-0.333364" gradientUnits="userSpaceOnUse">
<stop stop-color="#67C5E2"/>
<stop offset="1" stop-color="#5AA2FA"/>
</linearGradient>
</defs>
</svg>
