<?xml version="1.0" encoding="utf-8"?>
<svg width="55px" height="55px" viewBox="0 0 55 55" version="1.1" xmlns:xlink="http://www.w3.org/1999/xlink" xmlns="http://www.w3.org/2000/svg">
  <desc>Created with Lunacy</desc>
  <g id="Shopify">
    <g id="Shopify">
      <path d="M27.5 55C42.6878 55 55 42.6878 55 27.5C55 12.3122 42.6878 0 27.5 0C12.3122 0 0 12.3122 0 27.5C0 42.6878 12.3122 55 27.5 55Z" id="Oval-2" fill="#95BF46" stroke="none" />
      <g id="shopify-logo-svg-vector" transform="translate(10.3125 6.875)">
        <path d="M29.1709 7.18371C29.0317 7.17205 26.0872 6.95271 26.0872 6.95271C26.0872 6.95271 24.0422 4.9124 23.8178 4.68656C23.5932 4.46086 23.1546 4.52951 22.9843 4.57987C22.9592 4.5873 22.5375 4.7181 21.8399 4.93506C21.1568 2.95955 19.9511 1.14414 17.8302 1.14414C17.7716 1.14414 17.7114 1.14653 17.6511 1.14997C17.0479 0.348292 16.3007 0 15.6553 0C10.7145 0 8.35409 6.20709 7.614 9.36133C5.69415 9.95918 4.33029 10.3842 4.15608 10.4392C3.08445 10.777 3.05056 10.811 2.90985 11.8257C2.80395 12.594 0 34.386 0 34.386L21.849 38.5L33.6875 35.9262C33.6875 35.9262 29.5317 7.68958 29.5056 7.49609C29.4789 7.30259 29.3103 7.19551 29.1709 7.18371ZM12.1558 7.94762C12.8726 4.18149 14.5698 2.29557 16.1532 1.54677C15.9477 1.40456 15.7328 1.3318 15.5194 1.3318C11.9707 1.3318 9.97722 6.01439 9.1377 8.887L12.1558 7.94762ZM18.7835 5.88544L20.6323 5.31039C20.1639 3.87229 19.436 2.62266 18.3432 2.48482C18.6152 3.26848 18.7848 4.25703 18.7848 5.4848C18.7848 5.62568 18.7842 5.7545 18.7835 5.88544ZM16.9875 2.72828C17.2913 3.49339 17.4889 4.59141 17.4889 6.0731C17.4889 6.14891 17.4882 6.21822 17.4876 6.28833C16.2853 6.6626 14.9788 7.06894 13.6694 7.47661C14.4046 4.62507 15.7827 3.24781 16.9875 2.72828Z" id="Shape" fill="#FFFFFF" fill-rule="evenodd" stroke="none" />
        <path d="M4.21151 2.39253C4.21151 2.39253 2.20049 0.368516 1.98011 0.144488C1.89764 0.0611345 1.78644 0.0184061 1.67018 0L0 33.6875L11.8716 31.1346C11.8716 31.1346 7.60121 3.12352 7.57481 2.93157C7.54803 2.73962 7.38175 2.63339 7.24462 2.62169C7.10774 2.61012 4.21151 2.39253 4.21151 2.39253Z" transform="translate(21.83945 4.8125)" id="Shape" fill="#F5F5F5" stroke="none" />
        <path d="M13.0625 0.566672L11.5567 4.86779C11.5567 4.86779 10.2374 4.19165 8.62018 4.19165C6.24931 4.19165 6.13001 5.62035 6.13001 5.98036C6.13001 7.94477 11.4627 8.69746 11.4627 13.2988C11.4627 16.9189 9.07156 19.25 5.84746 19.25C1.97854 19.25 0 16.9379 0 16.9379L1.03593 13.6512C1.03593 13.6512 3.0697 15.3278 4.78582 15.3278C5.90718 15.3278 6.36331 14.4801 6.36331 13.8606C6.36331 11.2982 1.98833 11.1839 1.98833 6.97328C1.98833 3.42942 4.63726 0 9.98437 0C12.0447 0 13.0625 0.566672 13.0625 0.566672" transform="translate(5.5 13.75)" id="Shape" fill="#95BF46" stroke="none" />
      </g>
    </g>
  </g>
</svg>