<?xml version="1.0" encoding="utf-8"?>
<svg width="55px" height="55px" viewBox="0 0 55 55" version="1.1" xmlns:xlink="http://www.w3.org/1999/xlink" xmlns="http://www.w3.org/2000/svg">
  <desc>Created with Lunacy</desc>
  <defs>
    <linearGradient x1="0.258951068" y1="0.8144671" x2="0.3834117" y2="0.734213" id="gradient_1">
      <stop offset="0" stop-color="#FFFFFF" />
      <stop offset="1" stop-color="#EDEDEE" />
    </linearGradient>
  </defs>
  <g id="SQL">
    <g id="SQL">
      <path d="M27.5 55C42.6878 55 55 42.6878 55 27.5C55 12.3122 42.6878 0 27.5 0C12.3122 0 0 12.3122 0 27.5C0 42.6878 12.3122 55 27.5 55Z" id="Oval-2" fill="#A91D22" stroke="none" />
      <g id="Group-2" transform="translate(10.3125 6.875)">
        <path d="M22.8869 0L22.8868 3.81845e-05L14.9412 2.6074L8.02853 5.67341L6.09462 6.1865C5.60209 6.65731 5.08566 7.13415 4.5271 7.61699C3.91452 8.14808 3.34397 8.63099 2.90548 8.98098C2.41904 9.36729 1.69833 10.0915 1.33201 10.5502C0.785448 11.2382 0.353045 11.9685 0.166851 12.5299C-0.163495 13.5439 -0.00125773 14.5699 0.635341 15.5175C1.45212 16.7246 3.07973 17.9558 4.97751 18.7947C5.94451 19.2233 7.57206 19.7725 8.79721 20.0803C10.8331 20.5994 14.773 21.1607 16.941 21.2453C17.3794 21.2634 17.968 21.2634 17.992 21.2453C18.0401 21.215 18.3764 20.5693 18.7669 19.7666C20.1002 17.0324 21.0611 14.4673 21.5835 12.2764C21.8958 10.9487 22.142 9.18021 22.3041 7.08595C22.3463 6.50047 22.3642 4.53892 22.3282 3.87496C22.2741 2.78858 22.178 1.90745 22.028 1.04435C22.0039 0.91757 21.9978 0.802873 22.0099 0.796862C22.0339 0.778771 22.1059 0.75464 23.0849 0.470892L22.8868 0.000194825L22.8868 5.56643e-05L22.8869 5.56643e-05L22.8869 0ZM21.3854 4.09221C21.3373 2.92123 21.1452 1.06836 21.0731 1.06836C21.0071 1.06836 19.0251 1.70811 18.1903 1.99183C17.6978 2.16089 17.6918 2.1669 17.752 2.20912C17.9321 2.35396 19.0732 3.11447 19.6738 3.49474C20.3644 3.92928 21.3314 4.5026 21.3794 4.5026C21.3913 4.5026 21.3974 4.33964 21.3854 4.09221ZM17.0252 2.40829C17.0793 2.40829 17.2173 2.48666 17.5477 2.69192C18.7848 3.4705 20.4665 4.41209 21.1872 4.72598C21.2742 4.76378 21.3308 4.78122 21.3369 4.80947C21.3451 4.84801 21.2592 4.90667 21.0279 5.0646C20.9958 5.08654 20.9608 5.1104 20.923 5.13639C19.8299 5.88477 18.4665 6.62107 16.7969 7.36346C16.5026 7.49625 16.2564 7.59881 16.2504 7.59881C16.2385 7.59881 16.2744 7.44802 16.3224 7.26691C16.7248 5.76395 16.9531 4.24304 16.9651 3.02385C16.9711 2.42025 16.9711 2.42025 17.0252 2.40225C17.0131 2.40829 17.0191 2.40829 17.0252 2.40829ZM16.1543 4.48445C16.2024 4.11632 16.2263 2.76429 16.1904 2.72813C16.1664 2.70403 13.0013 3.93524 12.9052 4.00162C12.8872 4.01977 13.1034 4.55083 13.2415 4.82244C13.5118 5.35354 13.8781 5.89674 14.3466 6.43996C14.6168 6.7538 15.4396 7.56255 15.4638 7.5324C15.4756 7.52038 15.5358 7.33315 15.6019 7.11C15.8781 6.18647 16.0462 5.36567 16.1543 4.48445ZM12.2626 4.27925C12.2685 4.27925 12.2745 4.27925 12.2806 4.28526C12.2926 4.29734 12.3347 4.39394 12.3707 4.50254C12.5628 5.02765 12.9952 5.80019 13.3677 6.29513C13.7761 6.83835 14.3106 7.41771 14.7549 7.79795C14.8991 7.91866 15.0312 8.0333 15.0492 8.05145C15.0549 8.05715 15.0599 8.0618 15.0607 8.06705C15.0644 8.0942 14.9515 8.13735 14.2018 8.42391L14.1183 8.45585C12.9833 8.89039 11.746 9.32493 10.3286 9.78361C9.99005 9.89331 9.65177 10.004 9.3138 10.1156C9.25966 10.1337 9.27772 10.1035 9.43386 9.85611C10.1365 8.75156 11.2055 6.58483 11.8061 5.05178C11.9082 4.78621 12.0103 4.52069 12.0284 4.46032C12.0524 4.37577 12.0824 4.34562 12.1604 4.30335C12.2025 4.29138 12.2446 4.27925 12.2626 4.27925ZM10.4729 6.02955C10.7732 5.43806 11.0795 4.79233 11.0615 4.7802C11.0375 4.75607 8.551 5.92699 7.78227 6.31928C7.60211 6.40985 7.60804 6.40381 7.53005 6.77799C7.42791 7.28495 7.40985 8.10572 7.49997 8.57653C7.59004 9.05335 7.75826 9.57244 7.96245 9.97684C8.05853 10.1639 8.0706 10.176 8.1006 10.1338C8.11865 10.1096 8.25674 9.89229 8.40087 9.65694C9.25368 8.29294 9.89028 7.17025 10.4729 6.02955ZM21.4215 5.20274L21.4215 5.45621C21.4215 6.80214 21.2773 8.649 21.0671 9.99499C21.031 10.2303 21.0009 10.4234 20.995 10.4295C20.995 10.4295 20.8209 10.3813 20.6167 10.3208C19.7158 10.0372 18.7369 9.6207 17.854 9.13192C17.2713 8.81201 16.4246 8.28685 16.4486 8.26269C16.4545 8.25671 16.7068 8.12392 17.0011 7.96697C18.1784 7.35138 19.3073 6.68748 20.2863 6.02961C20.6527 5.78212 21.2051 5.38385 21.3254 5.27516L21.4215 5.20274ZM6.50899 7.25472C6.54502 7.03744 6.55103 6.98915 6.52702 6.98915C6.52104 6.98915 6.51505 6.98915 6.515 6.99519C6.44294 7.0194 5.50003 7.54443 4.88744 7.89442C4.03463 8.38337 3.53612 8.76359 2.91149 9.41539C1.97462 10.3932 1.30193 11.552 1.16382 12.4392C1.14582 12.5419 1.15185 12.5479 1.19381 12.5358C1.21796 12.5298 1.54221 12.4392 1.91455 12.3367C3.16384 11.9927 7.13961 10.8217 7.18167 10.7855C7.18777 10.7795 7.09161 10.5743 6.9715 10.3268C6.53909 9.43359 6.39486 8.7817 6.44302 7.90048C6.45496 7.7014 6.48495 7.4117 6.50899 7.25472ZM15.8961 8.67308C15.9021 8.66706 16.0462 8.74558 16.2204 8.84814C17.5056 9.59657 19.2953 10.2907 20.8207 10.6467L20.959 10.677L20.7667 10.7855C19.968 11.2322 17.3435 12.3306 14.6589 13.3386C14.2685 13.4834 13.8842 13.6283 13.812 13.6584C13.7399 13.6886 13.6738 13.7067 13.6738 13.7007C13.6738 13.6946 13.782 13.4834 13.92 13.2239C14.6708 11.8116 15.4276 10.0915 15.8119 8.8964C15.8601 8.78173 15.89 8.67917 15.8961 8.67308ZM14.8391 9.26459C14.8992 9.11975 14.9473 8.99312 14.9412 8.98697C14.9352 8.98697 14.743 9.06548 14.5087 9.16209C12.857 9.87426 11.1935 10.4537 9.23557 10.9908L8.68909 11.1417L8.79724 11.2745C9.53589 12.21 10.6649 13.1756 11.9382 13.9603C12.1544 14.093 12.3347 14.2018 12.3406 14.2018C12.3467 14.2018 12.5329 13.8819 12.7551 13.4835C13.6318 11.9263 14.3166 10.5381 14.8391 9.26459ZM20.8749 11.0692C20.8809 11.2081 20.5746 12.4514 20.3223 13.3506C20.1122 14.105 19.9319 14.6966 19.6017 15.7407C19.4575 16.1995 19.3315 16.5796 19.3254 16.5796C19.3194 16.5796 19.2834 16.5736 19.2474 16.5616C17.4637 16.2356 15.8661 15.7829 14.3646 15.1794C13.9442 15.0104 13.3436 14.7388 13.3076 14.7086C13.2956 14.6964 13.656 14.5275 14.1124 14.3283C16.8451 13.1273 19.6798 11.7632 20.6527 11.1779C20.7668 11.1054 20.8569 11.0692 20.8749 11.0692ZM5.35588 14.1594C6.42496 12.6566 7.18771 11.5521 7.17569 11.54C7.16971 11.54 6.88736 11.6063 6.53898 11.691C6.19063 11.7755 5.22377 12.0048 4.38896 12.1979C2.88742 12.548 1.28385 12.9283 1.19378 12.9524C1.1338 12.9704 1.1338 13.1153 1.19988 13.4051C1.33802 14.0267 1.68628 14.7087 2.20282 15.3545C2.44906 15.6683 3.00152 16.2356 3.31985 16.5013L3.59013 16.7306L3.84248 16.3383C3.98063 16.121 4.22683 15.7588 4.38902 15.5295C4.55114 15.3001 4.98355 14.6845 5.35588 14.1594ZM7.9444 11.8358L8.13652 12.053C9.00146 13.0248 9.8843 13.7431 10.9533 14.3707C11.1456 14.4794 11.2897 14.5759 11.2776 14.582C11.2356 14.6122 7.566 15.9218 5.86638 16.5133C4.91151 16.8512 4.12469 17.1228 4.11877 17.1228C4.11279 17.1228 4.0587 17.0867 3.99854 17.0444L3.89051 16.9659L4.06465 16.7125C4.62916 15.8916 5.33796 14.9924 6.88143 13.1213L7.9444 11.8358ZM13.3316 15.4934C13.0073 15.3725 12.743 15.276 12.7371 15.282C12.7371 15.288 12.5689 15.5355 12.3707 15.8373C11.656 16.9358 10.7971 18.0946 9.93235 19.1328C9.75814 19.338 9.61402 19.5251 9.61402 19.5371C9.61402 19.5612 9.81229 19.6156 9.87227 19.6035C9.89629 19.5975 10.3047 19.4828 10.7792 19.344C13.3496 18.6016 16.5026 17.6661 17.5357 17.3402C18.1844 17.135 19.0671 16.8393 19.1092 16.8151C19.1333 16.797 19.0612 16.7849 18.9291 16.7728C18.0582 16.7004 16.5808 16.447 15.5598 16.1874C14.7309 15.9761 14.1124 15.7891 13.3316 15.4934ZM11.68 15.3123C11.686 15.3183 11.2596 16.0063 10.515 17.1892C10.1966 17.6902 9.84223 18.2575 9.71607 18.4567C9.59596 18.6498 9.41581 18.9517 9.31375 19.1206L9.13955 19.4285L9.04948 19.4043C8.83321 19.3439 7.31378 18.8067 6.91137 18.6438C6.41286 18.4446 5.89637 18.2032 5.51197 17.998C5.03157 17.7385 4.43103 17.3522 4.47902 17.3402C4.49102 17.3342 5.31384 17.1108 6.30474 16.8392C8.93532 16.1209 10.3947 15.7045 11.3497 15.4027C11.5239 15.3484 11.674 15.3061 11.68 15.3123ZM19.1632 17.0745L19.1572 17.0745C19.1152 17.0806 18.959 17.147 18.7729 17.2315C17.5898 17.7867 16.4186 18.2394 15.2354 18.6015C14.2985 18.8912 13.3736 19.1266 11.4517 19.5611L10.557 19.7665L10.7011 19.7966C11.3317 19.9414 13.8421 20.382 15.3375 20.6114C16.1964 20.7382 17.6077 20.9374 17.7099 20.9433C17.752 20.9494 17.7819 20.9011 17.8599 20.7079C18.2144 19.8509 19.1873 17.135 19.1632 17.0745Z" transform="translate(0 18.61391)" id="Shape" fill="url(#gradient_1)" fill-rule="evenodd" stroke="none" />
        <path d="M5.03285 1.31607C6.40813 0.754838 8.54027 -0.0176983 8.6724 0.000309132L8.6724 0.0002813L8.67254 0.0002813L8.67254 0.000420461C8.73851 0.0064322 8.75047 0.0305627 8.85258 0.440975C9.0388 1.11699 9.37516 2.05844 9.72946 2.87325C10.1859 3.92344 10.9666 5.48062 11.6753 6.73605L11.8134 6.98347L12.4982 7.09216C12.5161 7.09216 12.5282 7.09817 12.5461 7.09817L12.492 7.55083L7.27906 6.65152L2.72062 5.83067L0.804818 5.21505L0 4.44852C0 4.3761 0.012075 4.30368 0.0360866 4.24332C0.102056 4.08039 0.51654 3.66399 0.846804 3.4285C1.7357 2.80094 3.17701 2.07664 5.03285 1.31607ZM8.57619 0.308216L8.58236 0.308216C8.58826 0.314172 8.6123 0.48328 8.63637 0.682335C8.73837 1.52743 8.9247 2.3421 9.21893 3.22333C9.22999 3.25637 9.2405 3.28768 9.25045 3.31733C9.36313 3.65312 9.4047 3.77698 9.36869 3.80662C9.34765 3.82394 9.30012 3.80908 9.2248 3.78554C9.21168 3.78143 9.19771 3.77707 9.1829 3.77256C8.57031 3.60362 5.82568 3.1268 3.83776 2.84918C3.51943 2.8069 3.24915 2.76468 3.24915 2.75867C3.22514 2.73454 4.68451 1.96796 5.32714 1.66626C6.14993 1.28593 8.4081 0.338358 8.57619 0.308216ZM3.02095 3.09048L2.78662 3.01211L3.09902 3.29572C3.41735 3.59756 4.24618 4.39422 5.30321 5.42624L5.90372 6.01776L6.14395 6.05402C6.27608 6.07214 6.40215 6.0963 6.42619 6.0963C6.45015 6.0963 6.6244 5.99966 6.81653 5.87901C7.46517 5.47461 8.40212 4.9495 9.25485 4.52097C9.47112 4.41841 9.63918 4.32787 9.63319 4.32186C9.6273 4.32186 9.45905 4.30371 9.26092 4.28559C7.49511 4.14076 4.29409 3.52511 3.02095 3.09048ZM2.54648 3.19917L3.39328 4.26146C3.85568 4.84691 4.32414 5.42025 4.42633 5.54695C4.43826 5.56178 4.44995 5.57629 4.46128 5.59034L4.4613 5.59037C4.54679 5.69648 4.61177 5.77713 4.60649 5.78243C4.58245 5.80052 3.38137 5.56509 2.74466 5.42031C2.09003 5.26938 1.81979 5.19696 1.4174 5.07026L1.08706 4.96158L1.08706 4.87703C1.09304 4.47263 1.6036 3.86911 2.4684 3.25355L2.54648 3.19917ZM9.86747 4.86498C9.7954 4.70202 9.76547 4.64772 9.7414 4.64772C9.73542 4.64171 9.72334 4.64772 9.71736 4.65977C9.6934 4.67792 9.56728 4.78654 9.42914 4.90124C8.86455 5.37806 8.22798 5.82474 7.59733 6.17473C7.51926 6.217 7.45919 6.25928 7.45919 6.26529C7.45919 6.27737 8.1139 6.38589 10.1498 6.71793C10.752 6.81666 10.8835 6.84214 10.8918 6.82036C10.8952 6.81151 10.8783 6.79488 10.8644 6.7722C10.7084 6.53685 10.0717 5.31761 9.86747 4.86498Z" transform="translate(6.022581 0)" id="Shape" fill="url(#gradient_1)" fill-rule="evenodd" stroke="none" />
        <path d="M3.15912 0.525192C3.03302 0.211329 3.16507 0 3.16507 0C3.29721 0.51303 3.92187 0.682026 4.35427 0.851106C4.89479 1.03819 5.5854 1.20112 5.94574 1.27967C6.64241 1.43052 7.69352 1.61154 8.39614 1.7323C10.354 2.07029 12.1317 2.36609 14.8824 2.79451C16.1796 2.99368 17.7772 3.27128 18.5039 3.4162C22.3595 4.18272 25.4046 5.21479 27.7588 6.53651C29.4706 7.50223 30.8698 8.66704 32.0229 10.1035C32.4193 10.5984 32.7497 11.0631 33.2301 11.8115L33.3142 11.9443L32.7676 12.0289C27.5066 12.8375 18.2636 15.3242 12.6423 17.4488C8.73848 18.9214 5.55538 20.3519 2.72669 21.9091C1.50154 22.5851 0.97902 22.8928 0.594668 23.1826L0 23.3818C4.06591 20.026 6.70251 17.0022 7.95172 14.262C8.65434 12.735 8.93669 11.4193 8.90066 9.92249C8.84059 7.59274 8.19793 5.90278 6.72056 4.18874C6.39623 3.81448 3.72365 1.19508 3.72365 1.19508C3.46545 0.953612 3.23727 0.718264 3.15912 0.525192ZM4.71467 1.50895C4.71896 1.50463 4.7706 1.5224 4.84675 1.54861C4.87567 1.55856 4.90813 1.56973 4.94287 1.58137C5.17108 1.65974 5.46534 1.75031 5.81377 1.84694C6.07736 1.9198 6.34162 1.99021 6.60651 2.05816C6.96686 2.14864 7.2671 2.23317 7.27308 2.23317C7.3152 2.27544 7.92181 4.22478 8.126 4.97321C8.20397 5.25696 8.26415 5.49832 8.25814 5.49832C8.25196 5.50444 8.18599 5.40177 8.10795 5.26297C7.40524 4.01963 6.29417 2.75822 5.0089 1.74421C4.84082 1.62362 4.71467 1.51496 4.71467 1.50895ZM7.66401 2.33124L7.66508 2.33095C7.67465 2.36191 7.72429 2.47678 7.78358 2.6013C8.19197 3.4764 8.64249 4.71974 8.85856 5.55869C8.88872 5.68552 8.92465 5.78808 8.92465 5.78808C8.92465 5.78808 9.07486 5.64324 9.24901 5.46818C9.68147 5.03363 10.282 4.5508 10.9487 4.10418C11.2129 3.92308 12.0117 3.44631 12.2098 3.34375C12.2999 3.29541 12.3721 3.25324 12.3721 3.24111C12.3721 3.22911 12.2159 3.19282 12.0177 3.16268C10.8466 2.96348 9.01476 2.61341 7.99376 2.38407C7.83169 2.34789 7.69955 2.32977 7.66951 2.32977C7.66737 2.32977 7.66598 2.33051 7.66508 2.33095C7.66398 2.32741 7.66341 2.32497 7.66341 2.32373C7.66341 2.32928 7.66341 2.331 7.66401 2.33124ZM12.8705 3.32563C12.9065 3.33766 12.9666 3.54289 13.0867 3.99552C13.3089 4.87073 13.411 5.84848 13.375 6.75984C13.3629 7.01333 13.351 7.24868 13.3389 7.27894L13.3209 7.33922L13.0086 7.23666C12.366 7.03145 11.321 6.72357 10.4262 6.47013C9.91563 6.33131 9.50134 6.20456 9.50134 6.19251C9.50134 6.15624 10.2461 5.40787 10.5644 5.12423C11.1708 4.58699 12.8164 3.30749 12.8705 3.32563ZM16.8944 4.01364C15.7713 3.79633 13.303 3.36791 13.2849 3.38592C13.2789 3.39204 13.3149 3.48255 13.3569 3.57913C13.7774 4.55687 14.0057 5.71572 14.0057 6.86243C14.0057 7.0737 14.0117 7.24868 14.0177 7.24868C14.0236 7.24868 14.2819 7.07971 14.5882 6.87451C15.7592 6.08981 16.9364 5.4441 18.5219 4.72581C18.9243 4.54476 19.0505 4.47234 19.0145 4.46032C18.9424 4.4301 17.7293 4.17657 16.8944 4.01364ZM19.669 4.65345C19.6871 4.67154 19.609 5.16047 19.5369 5.45011C19.3207 6.34943 18.7382 7.68336 18.0236 8.93868C17.8973 9.162 17.7833 9.34308 17.7712 9.34909C17.7593 9.3551 17.5971 9.26454 17.4109 9.15591C16.7142 8.74549 15.9215 8.35924 15.0566 7.99706C14.8165 7.8945 14.6062 7.80995 14.6002 7.79798C14.5581 7.76171 16.492 6.47615 17.513 5.86053C18.3238 5.36564 19.645 4.62926 19.669 4.65345ZM21.8431 5.19665C21.2726 5.02765 20.1796 4.72584 20.1255 4.72584C20.1074 4.72584 20.0895 4.81632 20.0834 4.93102C19.9814 6.15026 19.567 7.58069 18.9244 8.95073C18.8463 9.11978 18.7862 9.25858 18.7983 9.25858C18.8102 9.25858 18.9663 9.19821 19.1405 9.12579C21.2726 8.25671 23.4828 7.56856 26.0652 6.97108L26.3714 6.89872L25.9331 6.69947C24.876 6.21664 23.2545 5.61917 21.8431 5.19665ZM9.24303 7.23666C9.261 7.21851 10.0958 7.41773 10.5463 7.54437C11.2309 7.73758 12.6843 8.2264 12.6843 8.26266C12.6843 8.26867 12.5222 8.4075 12.3301 8.57655C11.5433 9.23442 10.7865 9.92842 9.87957 10.8096C9.60929 11.0693 9.38114 11.2805 9.36918 11.2805C9.3571 11.2805 9.3512 11.2442 9.3571 11.1959C9.49522 10.1819 9.46528 8.87828 9.27308 7.55651C9.26894 7.51781 9.2648 7.48039 9.26096 7.44561L9.26095 7.44553C9.24802 7.3284 9.23839 7.24129 9.24303 7.23666ZM26.1493 8.25056C26.4015 7.8945 26.7979 7.2668 26.786 7.25481C26.7739 7.24267 25.9991 7.466 25.2724 7.6953C23.885 8.12386 22.0354 8.78774 20.678 9.34305C19.9032 9.65683 18.8823 10.0975 18.8823 10.1156C18.8823 10.1216 18.9363 10.1699 19.0024 10.2181C19.0685 10.2664 19.2666 10.4294 19.4468 10.5803C20.4017 11.377 21.2065 12.2642 21.8792 13.2782C21.9633 13.411 22.0413 13.5196 22.0473 13.5196C22.0534 13.5196 22.2515 13.2661 22.4918 12.9644C22.7259 12.6626 23.4347 11.7632 24.0652 10.9666C25.2604 9.45777 25.789 8.7696 26.1493 8.25056ZM27.2484 7.37543C27.2723 7.36945 27.4165 7.44187 27.5907 7.54437C29.0502 8.38332 30.4795 9.46373 31.6086 10.5743C31.9269 10.8882 32.7137 11.709 32.7016 11.715C32.7016 11.715 32.4253 11.7391 32.1011 11.7633C29.5726 11.9565 26.3356 12.4935 23.2245 13.248C23.0143 13.2962 22.8282 13.3385 22.8161 13.3385C22.8042 13.3385 23.0384 13.1031 23.3327 12.8195C25.1584 11.0511 25.9933 9.93451 26.9782 7.94273C27.1162 7.64707 27.2364 7.39358 27.2484 7.37543ZM15.3269 9.43359C14.7383 9.13793 13.9576 8.76962 13.8734 8.75162C13.8555 8.75162 13.8314 8.8119 13.8075 8.90241C13.5612 10.0552 13.1288 11.2382 12.5883 12.228C12.4261 12.5237 12.4201 12.5479 12.4441 12.5479C12.4501 12.5479 12.6903 12.403 12.9786 12.228C13.9876 11.6123 14.9545 11.0752 16.0837 10.5079C16.4379 10.3328 16.7262 10.1819 16.7202 10.1759C16.6782 10.1397 15.8674 9.70509 15.3269 9.43359ZM13.0927 8.8964C13.1107 8.91455 12.9065 9.65686 12.7805 10.0613C12.5341 10.8278 12.1198 11.7874 11.7174 12.5117C11.6212 12.6806 11.4771 12.9281 11.3991 13.0669L11.249 13.3083L10.9126 12.9825C10.5223 12.6022 10.2039 12.3668 9.7956 12.1555C9.63333 12.0711 9.50727 11.9986 9.50727 11.9866C9.50727 11.9383 10.5343 11.0028 11.321 10.3268C11.8855 9.83793 13.0747 8.87831 13.0927 8.8964ZM18.1617 11.0631L17.8674 10.8701L17.6571 11.1959C16.6121 12.7712 15.2068 14.3888 13.6213 15.8553C13.5826 15.8911 13.5464 15.9246 13.5127 15.9559L13.5126 15.956L13.5125 15.9561C13.1122 16.327 13.0464 16.388 13.053 16.3973C13.0543 16.3991 13.0584 16.3989 13.0634 16.3987L13.0686 16.3986C13.0867 16.3986 13.3209 16.3141 13.5972 16.2115C16.0776 15.294 18.2036 14.612 20.9543 13.8456L21.4407 13.7068L21.3688 13.6283C21.2365 13.4834 20.5759 12.8858 20.2337 12.6022C19.627 12.0892 18.8342 11.5038 18.1617 11.0631ZM16.6122 11.1839C16.6241 11.1959 15.8014 12.3607 15.3088 13.0186C14.7203 13.8033 13.6752 15.119 12.9546 15.976C12.6543 16.3321 12.3961 16.6279 12.3841 16.6339C12.366 16.6399 12.36 16.5494 12.36 16.4106C12.36 15.6802 12.1739 14.9017 11.8495 14.2378C11.7114 13.9602 11.6873 13.8938 11.7175 13.8636C11.8315 13.761 13.5792 12.7591 14.6842 12.1616C15.429 11.7633 16.594 11.1718 16.6122 11.1839ZM9.33312 13.2118C9.17695 13.1273 9.0388 13.0549 9.02075 13.0549C9.00878 13.0549 8.94868 13.1877 8.90066 13.3627C8.76853 13.7671 8.58239 14.2319 8.39625 14.6242C8.18596 15.0647 7.98786 15.4088 7.59143 16.0184C7.53145 16.1089 7.54934 16.0968 8.07798 15.6743C8.58239 15.2699 9.4472 14.612 10.0178 14.2016C10.222 14.0508 10.3781 13.924 10.3661 13.912C10.0598 13.6584 9.71747 13.423 9.33312 13.2118ZM11.0448 14.6482C11.0745 14.6423 11.1103 14.6957 11.2692 14.9324L11.2729 14.938C11.6153 15.4509 11.8795 16.1391 11.9457 16.6943L11.9576 16.8151L11.1349 17.135C9.66338 17.7083 8.30616 18.2757 7.38715 18.6981C7.12898 18.8189 6.67852 19.0361 6.38429 19.181C6.08997 19.3318 5.84975 19.4465 5.84975 19.4405C5.84975 19.4345 6.03589 19.2957 6.26409 19.1266C8.05995 17.817 9.61539 16.3805 10.7805 14.944C10.9066 14.7931 11.0208 14.6543 11.0327 14.6483L11.0448 14.6482ZM8.98483 16.1571C9.45329 15.6803 10.1379 14.9018 10.1139 14.8776C10.0899 14.8534 8.05394 16.2416 7.17108 16.8814C6.8407 17.1169 6.79864 17.1592 6.57043 17.4549C6.22809 17.9014 5.92785 18.2636 5.53142 18.6921C4.90679 19.3741 4.85275 19.4345 4.89482 19.4104C4.91288 19.3982 5.07501 19.2957 5.25516 19.181C6.67858 18.2757 7.82571 17.3462 8.98483 16.1571Z" transform="translate(2.935497 4.158819)" id="Shape" fill="url(#gradient_1)" fill-rule="evenodd" stroke="none" />
      </g>
    </g>
  </g>
</svg>