<svg width="54" height="53" viewBox="0 0 54 53" fill="none" xmlns="http://www.w3.org/2000/svg">
<path fill-rule="evenodd" clip-rule="evenodd" d="M52.1713 1.02155C50.8326 -0.258812 48.7253 -0.258812 47.3866 1.02155L39.6135 8.80872H12.6368V11.0023H37.4239L29.618 18.8223C29.5163 18.9241 29.4397 19.0411 29.3865 19.1659L29.3858 19.1656L26.9623 24.8283C26.9039 24.9648 26.8737 25.1118 26.8737 25.2603C26.8736 25.866 27.3639 26.3571 27.9688 26.3572H34.5396C36.3541 26.3572 37.825 27.8303 37.825 29.6475V29.8355C36.5492 30.2873 35.6348 31.5054 35.6348 32.9379C35.6348 33.223 35.6711 33.4997 35.7392 33.7636L18.2247 41.5593C17.6319 40.9758 16.8192 40.6155 15.9223 40.6155C14.1079 40.6155 12.6369 42.0886 12.6369 43.9058C12.6369 45.7231 14.1079 47.1962 15.9223 47.1962C17.7368 47.1962 19.2077 45.7231 19.2077 43.9058C19.2077 43.7794 19.1999 43.6546 19.186 43.5319L36.9964 35.6045C37.5373 35.9965 38.2015 36.2283 38.9202 36.2283C40.7347 36.2283 42.2056 34.7551 42.2056 32.9379C42.2056 31.5054 41.2912 30.2873 40.0154 29.8355V29.6475C40.0118 26.6203 37.5623 24.1672 34.5397 24.1636H33.3092L34.0502 23.8456L34.0492 23.8431C34.178 23.7886 34.2966 23.7097 34.3973 23.6087L46.9298 11.0581C47.3662 11.2026 47.6814 11.6136 47.6814 12.099V49.3899C47.6814 49.9956 47.191 50.4867 46.5862 50.4867H6.06598C5.14011 50.4859 4.25736 50.0949 3.63365 49.4096C3.0817 48.8054 2.77708 48.0152 2.78057 47.1963V47.1491C2.7817 47.0559 2.78714 46.9616 2.79587 46.8673C3.02842 45.1426 4.51712 43.868 6.25428 43.9059H9.35129C9.95612 43.9059 10.4465 43.4149 10.4465 42.8091V5.51835C10.4465 4.91262 9.95612 4.42153 9.35129 4.42153H6.06588C3.04341 4.42523 0.593925 6.8783 0.590332 9.90555V47.1964C0.590332 50.2251 3.04187 52.6803 6.06598 52.6803H46.5861C48.4006 52.6803 49.8715 51.2072 49.8715 49.39V12.0991C49.8715 11.0128 49.3455 10.0497 48.5351 9.45045L52.1713 5.80904C53.4904 4.48662 53.4904 2.34387 52.1713 1.02155ZM15.9222 45.0028C15.3174 45.0028 14.827 44.5117 14.827 43.9059C14.827 43.3002 15.3174 42.8091 15.9222 42.8091C16.527 42.8091 17.0174 43.3002 17.0174 43.9059C17.0174 44.5117 16.527 45.0028 15.9222 45.0028ZM37.8248 32.938C37.8248 33.5438 38.3152 34.0348 38.92 34.0348C39.5248 34.0348 40.0152 33.5438 40.0152 32.938C40.0152 32.3323 39.5248 31.8412 38.92 31.8412C38.3152 31.8412 37.8248 32.3323 37.8248 32.938ZM2.78067 9.90555C2.78067 8.08834 4.25161 6.61518 6.06608 6.61518H8.25632V41.7124H6.25448C5.0011 41.7125 3.7819 42.1209 2.78067 42.8761V9.90555ZM31.7071 22.4654L30.7607 21.5176L30.0496 23.1766L31.7071 22.4654ZM33.6229 21.2825L31.9408 19.5978L45.7408 5.77871L47.4221 7.46245L33.6229 21.2825ZM48.9709 5.91146L50.6184 4.26144C51.0826 3.79688 51.0829 3.04339 50.6191 2.57852L50.6184 2.5779C50.1484 2.12733 49.4075 2.12733 48.9374 2.5779L47.2898 4.22782L48.9709 5.91146Z" fill="url(#paint0_linear)"/>
<path fill-rule="evenodd" clip-rule="evenodd" d="M15.8836 16.5986C17.6935 16.5986 19.1607 18.057 19.1607 19.856C19.1607 21.2742 18.2486 22.48 16.9759 22.9273V23.1134C16.9759 23.713 17.465 24.1992 18.0683 24.1992H24.6225V26.3707H18.0683C16.2584 26.3707 14.7912 24.9124 14.7912 23.1134V22.9273C13.5185 22.48 12.6064 21.2742 12.6064 19.856C12.6064 18.057 14.0737 16.5986 15.8836 16.5986ZM16.9759 19.856C16.9759 19.2563 16.4868 18.7702 15.8835 18.7702C15.2802 18.7702 14.7911 19.2563 14.7911 19.856C14.7911 20.4557 15.2802 20.9418 15.8835 20.9418C16.4868 20.9418 16.9759 20.4557 16.9759 19.856Z" fill="url(#paint1_linear)"/>
<path d="M37.457 47.4184L38.8929 45.9818L40.3264 47.4161L41.8957 45.846L40.4622 44.4115L41.8957 42.9772L40.3264 41.4071L38.8929 42.8414L37.457 41.4048L35.8877 42.9749L37.3236 44.4115L35.8877 45.8482L37.457 47.4184Z" fill="url(#paint2_linear)"/>
<path d="M17.0456 29.3785L15.6109 30.8147L14.1753 29.3777L12.6064 30.9482L14.042 32.3853L12.608 33.8208L14.1769 35.3913L15.6109 33.9558L17.044 35.3905L18.6129 33.8199L17.1798 32.3853L18.6145 30.949L17.0456 29.3785Z" fill="url(#paint3_linear)"/>
<defs>
<linearGradient id="paint0_linear" x1="53.8219" y1="-0.333364" x2="0.725866" y2="-0.333364" gradientUnits="userSpaceOnUse">
<stop stop-color="#67C5E2"/>
<stop offset="1" stop-color="#5AA2FA"/>
</linearGradient>
<linearGradient id="paint1_linear" x1="24.7736" y1="16.5253" x2="12.6374" y2="16.5253" gradientUnits="userSpaceOnUse">
<stop stop-color="#67C5E2"/>
<stop offset="1" stop-color="#5AA2FA"/>
</linearGradient>
<linearGradient id="paint2_linear" x1="41.9713" y1="41.3597" x2="35.9032" y2="41.3597" gradientUnits="userSpaceOnUse">
<stop stop-color="#67C5E2"/>
<stop offset="1" stop-color="#5AA2FA"/>
</linearGradient>
<linearGradient id="paint3_linear" x1="18.69" y1="29.3326" x2="12.6219" y2="29.3326" gradientUnits="userSpaceOnUse">
<stop stop-color="#67C5E2"/>
<stop offset="1" stop-color="#5AA2FA"/>
</linearGradient>
</defs>
</svg>
