<?xml version="1.0" encoding="utf-8"?>
<svg width="55px" height="55px" viewBox="0 0 55 55" version="1.1" xmlns:xlink="http://www.w3.org/1999/xlink" xmlns="http://www.w3.org/2000/svg">
  <desc>Created with Lunacy</desc>
  <g id="Swift">
    <g id="Swift">
      <path d="M27.5 55C42.6878 55 55 42.6878 55 27.5C55 12.3122 42.6878 0 27.5 0C12.3122 0 0 12.3122 0 27.5C0 42.6878 12.3122 55 27.5 55Z" id="Oval-2" fill="#FD2C23" stroke="none" />
      <g id="Swift_logo" transform="translate(10.91912 12.53677)">
        <path d="M24.0984 26.7266C20.3351 28.907 15.1606 29.131 9.95467 26.8932C5.73952 25.0946 2.24204 21.9461 0 18.3488C1.07618 19.2481 2.33171 19.9679 3.6769 20.5971C9.05314 23.1245 14.4283 22.9514 18.211 20.6036C18.2085 20.6012 18.2069 20.5996 18.2053 20.5971C12.8244 16.4596 8.25064 11.0628 4.84291 6.65592C4.12516 5.9363 3.58707 5.03681 3.04897 4.22733C7.1743 8.00499 13.7213 12.7718 16.0525 14.1216C11.1208 8.90432 6.72603 2.42867 6.90505 2.60821C14.7075 10.5234 21.9721 15.0209 21.9721 15.0209C22.2124 15.1568 22.3979 15.27 22.5471 15.3711C22.7043 14.9699 22.8422 14.5534 22.9583 14.1216C24.2138 9.53434 22.7793 4.3171 19.6401 0C26.9039 4.40727 31.2091 12.682 29.4149 19.6081C29.3682 19.7949 29.3174 19.9793 29.2625 20.1605C29.2835 20.1856 29.3045 20.2114 29.3254 20.2381C32.9122 24.7356 31.926 29.5023 31.4776 28.603C29.5319 24.7841 25.9298 25.9519 24.0985 26.7267L24.0984 26.7266Z" id="Shape" fill="#FFFFFF" stroke="none" />
      </g>
    </g>
  </g>
</svg>