<?xml version="1.0" encoding="utf-8"?>
<svg width="82px" height="80px" viewBox="0 0 82 80" version="1.1" xmlns:xlink="http://www.w3.org/1999/xlink" xmlns="http://www.w3.org/2000/svg">
  <desc>Created with Lunacy</desc>
  <defs>
    <linearGradient x1="-2.220446E-16" y1="0.5" x2="0.5" y2="0.5" id="gradient_1">
      <stop offset="0" stop-color="#F13C5B" />
      <stop offset="1" stop-color="#F45D77" />
    </linearGradient>
  </defs>
  <g id="technology-icon">
    <g id="Technology-Icon">
      <path d="M0 3.69748C0 1.6587 1.80912 0 4.03279 0C6.25645 0 8.06541 1.6587 8.06557 3.69748C8.06557 5.73626 6.25645 7.39496 4.03279 7.39496C1.80912 7.39496 0 5.73641 0 3.69748ZM2.51975 3.69748C2.51975 4.46234 3.19839 5.08472 4.03279 5.08472C4.86701 5.08472 5.54566 4.4625 5.54583 3.69748C5.54583 2.93261 4.86718 2.31024 4.03279 2.31024C3.19839 2.31024 2.51975 2.93261 2.51975 3.69748Z" transform="translate(5.377049 11.42857)" id="Shape" fill="url(#gradient_1)" fill-rule="evenodd" stroke="none" />
      <path d="M0 3.69748C0 1.65885 1.80912 0 4.03279 0C6.25645 0 8.06557 1.6587 8.06557 3.69748C8.06557 5.73626 6.25645 7.39496 4.03279 7.39496C1.80895 7.39496 0 5.73641 0 3.69748ZM2.51975 3.69748C2.51975 4.46234 3.19839 5.08472 4.03279 5.08472C4.86718 5.08472 5.54583 4.4625 5.54583 3.69748C5.54583 2.93261 4.86718 2.31024 4.03279 2.31024C3.19839 2.31024 2.51975 2.93261 2.51975 3.69748Z" transform="translate(14.11476 11.42857)" id="Shape" fill="url(#gradient_1)" fill-rule="evenodd" stroke="none" />
      <path d="M0 3.69748C0 1.6587 1.80908 0 4.0327 0C6.25649 0 8.06557 1.6587 8.06557 3.69748C8.06557 5.73626 6.25649 7.39496 4.0327 7.39496C1.80925 7.39496 0 5.73641 0 3.69748ZM2.51969 3.69748C2.51969 4.46234 3.19833 5.08472 4.0327 5.08472C4.86708 5.08472 5.54588 4.4625 5.54588 3.69748C5.54588 2.93261 4.86708 2.31024 4.0327 2.31024C3.19833 2.31024 2.51969 2.93261 2.51969 3.69748Z" transform="translate(23.52459 11.42857)" id="Shape" fill="url(#gradient_1)" fill-rule="evenodd" stroke="none" />
      <path d="M39.9014 1.20253C39.9014 0.538483 40.448 0 41.1228 0C41.7976 0 42.3443 0.538483 42.3443 1.20253L42.3443 78.7975C42.3443 79.4615 41.7976 80 41.1228 80C40.4482 80 39.9014 79.4617 39.9014 78.7975L39.9014 69.5792L6.44264 69.5792C2.89074 69.5792 0.00128506 66.7345 0.00128506 63.2378L0.00128506 22.0403C0.00112443 22.0319 0 22.0239 0 22.0155C0 22.0071 0.00112443 21.999 0.00128506 21.9906L0.00128506 13.9461C0.00128506 10.4494 2.89074 7.6047 6.44264 7.6047L39.9014 7.6047L39.9014 1.20253ZM15.5417 20.8131L39.9014 20.8131L39.9014 10.0099L6.44264 10.0099C4.23796 10.0099 2.44418 11.7758 2.44418 13.9463L2.44418 20.8129L11.1566 20.8129C11.8312 20.8129 12.378 21.3513 12.378 22.0155C12.378 22.6795 11.8314 23.218 11.1566 23.218L2.44418 23.218L2.44418 63.2376C2.44418 65.4082 4.23796 67.174 6.44264 67.174L6.44264 67.1742L39.9014 67.1742L39.9014 23.2182L15.5417 23.2182C14.867 23.2182 14.3202 22.6798 14.3202 22.0156C14.3202 21.3516 14.8668 20.8131 15.5417 20.8131Z" id="Shape" fill="url(#gradient_1)" fill-rule="evenodd" stroke="none" />
      <path d="M38.3112 6.32857C38.3112 2.83893 35.4187 0 31.8632 0L1.22274 0C0.547211 0 0 0.53739 0 1.20009C0 1.86295 0.547372 2.40018 1.22274 2.40018L19.497 2.40018L19.497 9.25525L1.22274 9.25525C0.547211 9.25525 0 9.79265 0 10.4553C0 11.1182 0.547372 11.6554 1.22274 11.6554L20.7197 11.6554C21.3953 11.6554 21.9425 11.118 21.9425 10.4553L21.9425 2.40034L24.8771 2.40034L24.8771 8.85533C24.8771 9.51819 25.4245 10.0554 26.0998 10.0554L35.8655 10.0554L35.8655 13.1816L1.22274 13.1816C0.547211 13.1816 0 13.719 0 14.3817C0 15.0445 0.547372 15.5818 1.22274 15.5818L12.5146 15.5818L12.5146 16.5989L7.97468 21.0546C7.43406 20.786 6.83314 20.6427 6.20955 20.6427C5.16417 20.6427 4.18119 21.0423 3.44182 21.768C1.91596 23.2657 1.91596 25.7027 3.44182 27.2006C4.20498 27.9495 5.20711 28.324 6.20955 28.324C7.21183 28.324 8.21427 27.9496 8.97744 27.2006C10.2013 25.9992 10.4411 24.1945 9.70186 22.7541L14.6021 17.9446C14.8315 17.7195 14.9603 17.4143 14.9603 17.0959L14.9603 15.5818L16.7254 15.5818L16.7254 29.6103C15.1645 30.1154 14.0342 31.5595 14.0342 33.2588C14.0342 35.3771 15.79 37.1002 17.9481 37.1002C20.1064 37.1002 21.8622 35.377 21.8622 33.2588C21.8622 31.5597 20.7319 30.1156 19.1709 29.6103L19.1709 15.5816L21.3311 15.5816L21.3311 24.6966C21.3311 25.0149 21.4599 25.3201 21.6892 25.5452L26.5895 30.3547C25.8503 31.7952 26.0899 33.5997 27.3139 34.8012C28.0771 35.5501 29.0792 35.9246 30.0816 35.9246C31.0841 35.9246 32.0864 35.5503 32.8495 34.8012C34.3754 33.3033 34.3754 30.8664 32.8495 29.3686C32.1103 28.6429 31.1273 28.2433 30.0816 28.2433C29.4582 28.2433 28.8573 28.3865 28.3167 28.6553L23.7767 24.1996L23.7767 15.5816L35.8657 15.5816L35.8657 17.8959L27.2412 17.8959C26.5657 17.8959 26.0185 18.4333 26.0185 19.096C26.0185 19.7589 26.5659 20.2961 27.2412 20.2961L35.8657 20.2961L35.8657 22.6116L30.5018 22.6116C29.8263 22.6116 29.2791 23.1489 29.2791 23.8116C29.2791 24.4745 29.8264 25.0117 30.5018 25.0117L35.8657 25.0117L35.8657 55.5202C35.8657 57.6863 34.0702 59.4486 31.8632 59.4486L31.3042 59.4486L31.3042 45.4196C32.8651 44.9144 33.9954 43.4703 33.9954 41.7712C33.9954 39.653 32.2396 37.9298 30.0815 37.9298C27.9232 37.9298 26.1674 39.653 26.1674 41.7712C26.1674 43.4703 27.2977 44.9146 28.8587 45.4196L28.8587 59.4486L1.22274 59.4486C0.547211 59.4486 0 59.9859 0 60.6486C0 61.3115 0.547372 61.8487 1.22274 61.8487L31.8632 61.8487C35.4187 61.8487 38.3112 59.0098 38.3112 55.5202L38.3112 8.90173C38.3118 8.88611 38.3112 6.32857 38.3112 6.32857ZM27.3228 7.65508L35.8659 7.65508L35.8659 6.32873C35.8659 4.1626 34.0703 2.40034 31.8633 2.40034L27.3228 2.40034L27.3228 7.65508ZM5.17141 25.5034C5.74403 26.0655 6.67555 26.0651 7.24801 25.5034C7.82063 24.9414 7.82063 24.0271 7.24785 23.4651C6.97063 23.1928 6.60175 23.0429 6.20955 23.0429C5.81751 23.0429 5.44879 23.1928 5.17141 23.4651C4.59879 24.0269 4.59879 24.9414 5.17141 25.5034ZM30.0815 30.6435C29.6894 30.6435 29.3207 30.7935 29.0433 31.0657C28.4707 31.6276 28.4707 32.542 29.0432 33.104C29.6158 33.6662 30.5473 33.6657 31.1198 33.104C31.6924 32.542 31.6924 31.6277 31.1198 31.0657C30.8426 30.7935 30.4737 30.6435 30.0815 30.6435ZM19.4167 33.2587C19.4167 34.0533 18.7579 34.6999 17.9481 34.6999C17.1383 34.6999 16.4797 34.0533 16.4797 33.2587C16.4797 32.464 17.1383 31.8174 17.9481 31.8174C18.7579 31.8174 19.4167 32.464 19.4167 33.2587ZM30.0816 43.2123C29.2718 43.2123 28.613 42.5657 28.613 41.771C28.613 40.9764 29.2718 40.3298 30.0816 40.3298C30.8914 40.3298 31.5501 40.9764 31.5501 41.771C31.5501 42.5658 30.8914 43.2123 30.0816 43.2123Z" transform="translate(43.68853 7.394958)" id="Shape" fill="url(#gradient_1)" fill-rule="evenodd" stroke="none" />
      <path d="M19.2852 3.59333C19.7978 2.02953 21.2633 0.897164 22.9871 0.897164C25.1364 0.897164 26.8851 2.65605 26.8853 4.81833C26.8853 6.98045 25.1367 8.73949 22.9875 8.73949C21.2634 8.73949 19.7981 7.60712 19.2855 6.04333L1.2177 6.04333C0.545113 6.04333 0 5.49495 0 4.81833C0 4.14187 0.544953 3.59333 1.2177 3.59333L4.31735 3.59333L4.31735 1.225C4.31735 0.548544 4.86246 0 5.53504 0C6.20763 0 6.75274 0.548383 6.75274 1.225L6.75274 3.59333L8.86337 3.59333L8.86337 1.225C8.86337 0.548544 9.40848 0 10.0811 0C10.7537 0 11.2988 0.548383 11.2988 1.225L11.2988 3.59333L13.5718 3.59333L13.5718 1.225C13.5718 0.548544 14.1167 0 14.7895 0C15.4621 0 16.0072 0.548383 16.0072 1.225L16.0072 3.59333L19.2852 3.59333ZM21.5246 4.81817C21.5246 5.6293 22.1805 6.28933 22.987 6.28933C23.7934 6.28933 24.4494 5.6293 24.4494 4.81817C24.4494 4.00703 23.7934 3.34701 22.987 3.34701C22.1805 3.34701 21.5246 4.00703 21.5246 4.81817Z" transform="translate(43.68853 55.12605)" id="Shape" fill="url(#gradient_1)" fill-rule="evenodd" stroke="none" />
      <path d="M14.0003 12.3685C14.5069 10.8155 15.9545 9.691 17.6575 9.691C19.7808 9.691 21.5082 11.4379 21.5082 13.585C21.5082 15.7321 19.7808 17.479 17.6575 17.479C15.9542 17.479 14.5069 16.3546 14.0003 14.8015L1.20293 14.8015C0.538504 14.8015 0 14.2568 0 13.585C0 12.9132 0.538346 12.3685 1.20293 12.3685L1.20293 12.3686L4.90618 12.3686L4.90618 7.59234C3.37039 7.08039 2.25858 5.61638 2.25858 3.894C2.25858 1.74702 3.98594 0 6.10911 0C8.23243 0 9.95979 1.74686 9.95979 3.894C9.95979 5.61638 8.84782 7.08023 7.31204 7.59234L7.31204 12.3685L14.0003 12.3685ZM6.10927 5.35497C5.31258 5.35497 4.66461 4.69951 4.66461 3.894C4.66461 3.08832 5.31258 2.43303 6.10927 2.43303C6.90595 2.43303 7.55408 3.08848 7.55408 3.894C7.55408 4.69951 6.90595 5.35497 6.10927 5.35497ZM16.2129 13.585C16.2129 14.3905 16.8608 15.046 17.6575 15.046C18.4542 15.046 19.1023 14.3905 19.1023 13.585C19.1023 12.7795 18.4542 12.124 17.6575 12.124C16.8608 12.124 16.2129 12.7795 16.2129 13.585Z" transform="translate(43.68853 36.97479)" id="Shape" fill="url(#gradient_1)" fill-rule="evenodd" stroke="none" />
      <path d="M15.6097 0L1.19353 0C0.534138 0 0 0.602072 0 1.34454C0 2.087 0.534294 2.68908 1.19353 2.68908L15.6097 2.68908C16.2691 2.68908 16.8033 2.087 16.8033 1.34454C16.8033 0.601895 16.269 0 15.6097 0Z" transform="translate(43.68853 12.10084)" id="Shape" fill="url(#gradient_1)" stroke="none" />
    </g>
  </g>
</svg>