<?xml version="1.0" encoding="utf-8"?>
<svg width="56px" height="53px" viewBox="0 0 56 53" version="1.1" xmlns:xlink="http://www.w3.org/1999/xlink" xmlns="http://www.w3.org/2000/svg">
  <desc>Created with Lunacy</desc>
  <defs>
    <linearGradient x1="1" y1="0.5" x2="-2.220446E-16" y2="0.5" id="gradient_1">
      <stop offset="0" stop-color="#93C934" />
      <stop offset="1" stop-color="#5DBD37" />
    </linearGradient>
  </defs>
  <g id="WD-Services-Icon">
    <path d="M49.466 25.7012L55.2404 18.5644C55.5865 18.1366 55.5865 17.5257 55.2404 17.0979L49.466 9.96121C49.2442 9.68721 48.9105 9.52792 48.5576 9.52792L32.944 9.52792L32.944 5.34708C32.944 2.3987 30.5422 0 27.5901 0C24.6382 0 22.2365 2.3987 22.2365 5.34708L22.2365 9.52792L16.4027 9.52792C13.7888 9.52792 11.662 11.6518 11.662 14.2627L11.662 21.3996C11.662 24.0103 13.7887 26.1345 16.4027 26.1345L48.5576 26.1345C48.9105 26.1345 49.2442 25.9752 49.466 25.7012ZM24.5724 9.52779L30.6081 9.52779L30.6081 5.34708C30.6081 3.68508 29.2543 2.33299 27.5901 2.33299C25.9261 2.33299 24.5724 3.68508 24.5724 5.34708L24.5724 9.52779ZM47.9998 11.8609L52.8305 17.8312L47.9998 23.8015L16.4027 23.8015C15.0766 23.8015 13.9978 22.7241 13.9978 21.3996L13.9978 14.2627C13.9978 12.9384 15.0766 11.8609 16.4027 11.8609L47.9998 11.8609ZM20.334 34.3995C20.334 33.7552 19.8112 33.233 19.1661 33.233L7.5001 33.233L2.66949 27.2626L7.49997 21.2925L8.47375 21.2925C9.11883 21.2925 9.64166 20.7703 9.64166 20.126C9.64166 19.4817 9.11883 18.9595 8.47375 18.9595L6.94223 18.9595C6.58939 18.9595 6.25563 19.1188 6.03385 19.3928L0.259568 26.5293C-0.0865228 26.957 -0.0865228 27.568 0.259568 27.9956L6.03385 35.1326C6.25563 35.4066 6.58939 35.5659 6.94223 35.5659L19.166 35.5659C19.8111 35.566 20.334 35.0438 20.334 34.3995ZM40.9304 51.3335C40.9304 51.9778 40.4076 52.5 39.7625 52.5L15.4178 52.5C14.7727 52.5 14.2499 51.9778 14.2499 51.3335C14.2499 50.6892 14.7727 50.167 15.4178 50.167L22.2365 50.167L22.2365 29.1483C22.2365 28.5041 22.7594 27.9819 23.4045 27.9819C24.0495 27.9819 24.5724 28.5041 24.5724 29.1483L24.5724 50.167L30.6081 50.167L30.6081 29.1483C30.6081 28.5041 31.131 27.9819 31.7761 27.9819C32.4211 27.9819 32.944 28.5041 32.944 29.1483L32.944 50.167L39.7626 50.167C40.4076 50.167 40.9304 50.6893 40.9304 51.3335ZM41.5022 29.1483C41.5022 28.5041 42.025 27.9819 42.6701 27.9819C43.315 27.9819 43.838 28.5042 43.838 29.1483L43.838 30.831C43.838 33.4417 41.7113 35.5659 39.0973 35.5659L36.089 35.5659C35.4439 35.5659 34.9211 35.0437 34.9211 34.3994C34.9211 33.7551 35.4439 33.2329 36.089 33.2329L39.0973 33.2329C40.4234 33.2329 41.5022 32.1554 41.5022 30.831L41.5022 29.1483Z" id="XMLID_88_" fill="url(#gradient_1)" fill-rule="evenodd" stroke="none" />
  </g>
</svg>