<?xml version="1.0" encoding="utf-8"?>
<svg width="55px" height="55px" viewBox="0 0 55 55" version="1.1" xmlns:xlink="http://www.w3.org/1999/xlink" xmlns="http://www.w3.org/2000/svg">
  <desc>Created with Lunacy</desc>
  <g id="Wordpress">
    <g id="Wordpress">
      <path d="M27.5 55C42.6878 55 55 42.6878 55 27.5C55 12.3122 42.6878 0 27.5 0C12.3122 0 0 12.3122 0 27.5C0 42.6878 12.3122 55 27.5 55Z" id="Oval-2" fill="#00749A" stroke="none" />
      <g id="WordPress_logo" transform="translate(6.066177 6.066177)">
        <g id="Group">
          <path d="M0 7.55574C0 14.9045 4.29158 21.2552 10.5147 24.2647L1.61524 0C0.580068 2.30897 0 4.86418 0 7.55574Z" transform="translate(3.235294 14.15441)" id="Shape" fill="#FFFFFF" stroke="none" />
          <path d="M27.9005 17.6019C27.9005 15.3109 27.0806 13.7242 26.3774 12.4893C25.4411 10.9622 24.5636 9.66907 24.5636 8.14204C24.5636 6.43793 25.8513 4.85164 27.6651 4.85164C27.747 4.85164 27.8246 4.86187 27.9044 4.86646C24.6184 1.84485 20.2404 0 15.432 0C8.97943 0 3.30253 3.32285 0 8.35581C0.433332 8.36886 0.841712 8.37803 1.18859 8.37803C3.12048 8.37803 6.11093 8.14275 6.11093 8.14275C7.10658 8.08384 7.22396 9.55161 6.22937 9.66978C6.22937 9.66978 5.2288 9.78795 4.11543 9.8465L10.8414 29.9265L14.8834 17.7593L12.0057 9.8458C11.0111 9.78724 10.0689 9.66907 10.0689 9.66907C9.07362 9.61052 9.1903 8.08313 10.1856 8.14204C10.1856 8.14204 13.2358 8.37732 15.0506 8.37732C16.9822 8.37732 19.973 8.14204 19.973 8.14204C20.9693 8.08313 21.0864 9.5509 20.0914 9.66907C20.0914 9.66907 19.0888 9.78724 17.9775 9.8458L24.6521 29.7737L26.4944 23.5947C27.2929 21.0306 27.9005 19.1889 27.9005 17.6019Z" transform="translate(6.066177 3.235294)" id="Shape" fill="#FFFFFF" stroke="none" />
          <path d="M5.52819 0L0 16.227C1.6506 16.7172 3.39622 16.9853 5.20494 16.9853C7.35058 16.9853 9.40823 16.6106 11.3235 15.9303C11.2741 15.8506 11.2292 15.7659 11.1924 15.6739L5.52819 0Z" transform="translate(16.17647 23.05147)" id="Shape" fill="#FFFFFF" stroke="none" />
          <path d="M7.01 0C7.09044 0.584591 7.136 1.21214 7.136 1.88717C7.136 3.74955 6.7815 5.84312 5.71371 8.46086L0 24.6691C5.56102 21.4874 9.30147 15.5762 9.30147 8.80554C9.30182 5.61473 8.47109 2.61425 7.01 0Z" transform="translate(30.73529 12.53677)" id="Shape" fill="#FFFFFF" stroke="none" />
          <path d="M0 21.6355C0 9.7056 9.70599 0 21.6355 0C33.5647 0 43.2717 9.7056 43.2721 21.6355C43.2721 33.5668 33.5647 43.2721 21.6355 43.2721C9.70599 43.2721 0 33.5668 0 21.6355ZM0.992036 21.6355C0.992036 33.019 10.253 42.2803 21.6355 42.2803C33.0176 42.2803 42.2779 33.019 42.2779 21.6355C42.2779 10.2527 33.0176 0.992069 21.6355 0.992069C10.2527 0.992069 0.992036 10.2527 0.992036 21.6355Z" id="Shape" fill="#FFFFFF" fill-rule="evenodd" stroke="none" />
        </g>
      </g>
    </g>
  </g>
</svg>