<?xml version="1.0" encoding="UTF-8"?>
<svg width="58px" height="53px" viewBox="0 0 58 53" version="1.1" xmlns="http://www.w3.org/2000/svg" xmlns:xlink="http://www.w3.org/1999/xlink">
    <!-- Generator: Sketch 64 (93537) - https://sketch.com -->
    <title>Create</title>
    <desc>Created with Sketch.</desc>
    <defs>
        <linearGradient x1="92.0840594%" y1="129.792031%" x2="10.7336691%" y2="16.2020781%" id="linearGradient-1">
            <stop stop-color="#454CE0" offset="0%"></stop>
            <stop stop-color="#0D7CDE" offset="100%"></stop>
        </linearGradient>
        <linearGradient x1="92.0840594%" y1="145.557277%" x2="10.7336691%" y2="9.52431136%" id="linearGradient-2">
            <stop stop-color="#454CE0" offset="0%"></stop>
            <stop stop-color="#0D7CDE" offset="100%"></stop>
        </linearGradient>
        <linearGradient x1="92.0840594%" y1="138.12384%" x2="10.7336691%" y2="12.6729304%" id="linearGradient-3">
            <stop stop-color="#454CE0" offset="0%"></stop>
            <stop stop-color="#0D7CDE" offset="100%"></stop>
        </linearGradient>
        <linearGradient x1="92.0840594%" y1="138.12384%" x2="10.7336691%" y2="12.6729304%" id="linearGradient-4">
            <stop stop-color="#454CE0" offset="0%"></stop>
            <stop stop-color="#0D7CDE" offset="100%"></stop>
        </linearGradient>
    </defs>
    <g id="Create" stroke="none" stroke-width="1" fill="none" fill-rule="evenodd">
        <path d="M50.5777013,33.3000605 C52.8863725,30.3898357 54.7430517,27.3674257 56.1006138,24.302733 C60.4381517,14.5106745 55.3129695,4.75146459 48.0770184,1.32521025 C44.6709921,-0.287666241 40.9511767,-0.433154748 37.6024706,0.915341851 C34.201995,2.2845251 31.197324,5.17167632 28.8474184,9.30923306 C26.4973996,5.17167632 23.4928418,2.2845251 20.0923662,0.915341851 C16.7438867,-0.433041085 13.0237315,-0.287552578 9.61781842,1.32521025 C2.38198063,4.75146459 -2.74331478,14.5105608 1.59410976,24.3026193 C5.44012039,32.9851006 12.5472707,39.6118748 17.8322927,43.6419064 C23.5418926,47.9958773 28.2804459,50.2785693 28.4793678,50.3735915 C28.7101216,50.4838445 28.9844887,50.4838445 29.2152425,50.3735915 C29.3899222,50.2901629 33.2606281,48.4249548 38.2099978,44.8649192 C39.0904194,49.4916811 43.1522308,53 48.0161864,53 C53.5213138,53 58,48.5062237 58,42.982548 C58,38.3472614 54.8456845,34.4378261 50.5777013,33.3000605 Z M28.0819772,11.5156572 C28.391235,12.1361429 29.3034886,12.1361429 29.6127463,11.5156572 C34.6766433,1.3538533 42.0935045,0.390787586 47.3465811,2.8781864 C53.8548137,5.96004217 58.4544842,14.7607329 54.5367666,23.6052975 C53.1210912,26.8013844 51.133459,29.9570074 48.6296042,32.9847597 C48.4267176,32.9723704 48.2223582,32.9653233 48.016413,32.9653233 C42.5485552,32.9652096 38.0942244,37.3982899 38.0338455,42.8703627 C33.7017452,46.0786116 29.9967697,48.0537318 28.8471919,48.6395503 C27.6297586,48.0194056 23.5451778,45.8413971 18.8680228,42.2747691 C13.7426141,38.3664705 6.85647546,31.9547465 3.15807026,23.6051838 C-0.759534098,14.7607329 3.83990991,5.95981484 10.3482557,2.8781864 C15.6009925,0.390901249 23.0180802,1.35396697 28.0819772,11.5156572 Z M48,38 C48.436114,38 48.7894572,38.3534477 48.7894572,38.7894572 L48.7894572,38.7894572 L48.7894572,42.2105428 L52.2105428,42.2105428 C52.6465523,42.2105428 53,42.5639906 53,43 C53,43.4360094 52.6466568,43.7894572 52.2105428,43.7894572 L52.2105428,43.7894572 L48.7894572,43.7894572 L48.7894572,47.2105428 C48.7894572,47.6465523 48.436114,48 48,48 C47.563886,48 47.2105428,47.6465523 47.2105428,47.2105428 L47.2105428,47.2105428 L47.2105428,43.7894572 L43.7894572,43.7894572 C43.3533432,43.7894572 43,43.4360094 43,43 C43,42.5639906 43.3533432,42.2105428 43.7894572,42.2105428 L43.7894572,42.2105428 L47.2105428,42.2105428 L47.2105428,38.7894572 C47.2105428,38.3534477 47.563886,38 48,38 Z M48.0161864,51.282781 C43.4548049,51.282781 39.7439388,47.5594118 39.7439388,42.9826616 C39.7439388,38.4059115 43.4548049,34.6825423 48.0161864,34.6825423 C52.5775679,34.6825423 56.2884341,38.4059115 56.2884341,42.9826616 C56.2884341,47.5594118 52.5774547,51.282781 48.0161864,51.282781 Z" id="Shape" fill="url(#linearGradient-1)" fill-rule="nonzero"></path>
        <path d="M43.5,10 C41.0187,10 39,12.0187 39,14.5 C39,16.9813 41.0185869,19 43.5,19 C45.9811868,19 48,16.9813 48,14.5 C48,12.0187 45.9813,10 43.5,10 Z M43.5,17.2909818 C41.9608656,17.2909818 40.7089051,16.0389082 40.7089051,14.4998869 C40.7089051,12.9608656 41.9608656,11.708792 43.5,11.708792 C45.0391344,11.708792 46.2910949,12.9608656 46.2910949,14.4998869 C46.2910949,16.0389082 45.0391344,17.2909818 43.5,17.2909818 Z" id="Shape" fill="url(#linearGradient-2)" fill-rule="nonzero"></path>
        <path d="M47.2053696,20 L39.7947453,20 C38.8050603,20 38,20.8050519 38,21.7947266 L38,30.1316062 C38,30.6112116 38.3886775,31 38.8684029,31 L48.1315971,31 C48.6113225,31 49,30.6112116 49,30.1316062 L49,21.7947266 C49.000115,20.8050519 48.1949397,20 47.2053696,20 Z M47.2631942,29.2630974 L39.7368058,29.2630974 L39.7368058,21.7947266 C39.7368058,21.7627682 39.7629016,21.7367877 39.7947453,21.7367877 L47.2053696,21.7367877 C47.2372134,21.7367877 47.2633092,21.7627682 47.2633092,21.7947266 L47.2633092,29.2630974 L47.2631942,29.2630974 Z" id="Shape" fill="url(#linearGradient-2)" fill-rule="nonzero"></path>
        <path d="M29,18 C26.2931273,18 24.0909091,20.1148286 24.0909091,22.7142857 C24.0909091,25.3137428 26.2930039,27.4285714 29,27.4285714 C31.7067493,27.4285714 33.9090909,25.3137428 33.9090909,22.7142857 C33.9090909,20.1148286 31.7068727,18 29,18 Z M29,25.6381714 C27.3209443,25.6381714 25.9551692,24.3264752 25.9551692,22.7141672 C25.9551692,21.1018592 27.3209443,19.7901631 29,19.7901631 C30.6790557,19.7901631 32.0448308,21.1018592 32.0448308,22.7141672 C32.0448308,24.3264752 30.6790557,25.6381714 29,25.6381714 Z" id="Shape" fill="url(#linearGradient-3)" fill-rule="nonzero"></path>
        <path d="M33.0422214,28.4761905 L24.957904,28.4761905 C23.8782476,28.4761905 23,29.3195782 23,30.3563802 L23,39.0902541 C23,39.5926978 23.4240119,40 23.9473486,40 L34.0526514,40 C34.5759881,40 35,39.5926978 35,39.0902541 L35,30.3563802 C35.0001254,29.3195782 34.1217524,28.4761905 33.0422214,28.4761905 Z M33.1053028,38.1803877 L24.8946972,38.1803877 L24.8946972,30.3563802 C24.8946972,30.3229 24.9231654,30.2956823 24.957904,30.2956823 L33.0422214,30.2956823 C33.0769601,30.2956823 33.1054282,30.3229 33.1054282,30.3563802 L33.1054282,38.1803877 L33.1053028,38.1803877 Z" id="Shape" fill="url(#linearGradient-4)" fill-rule="nonzero"></path>
        <path d="M14.5,10 C12.0188132,10 10,12.0187 10,14.5 C10,16.9813 12.0185869,19 14.5,19 C16.9813,19 19,16.9813 19,14.5 C19,12.0187 16.9813,10 14.5,10 Z M14.5,17.2909818 C12.9609787,17.2909818 11.7089051,16.0389082 11.7089051,14.4998869 C11.7089051,12.9608656 12.9608656,11.708792 14.5,11.708792 C16.0390213,11.708792 17.2910949,12.9608656 17.2910949,14.4998869 C17.291208,16.0389082 16.0390213,17.2909818 14.5,17.2909818 Z" id="Shape" fill="url(#linearGradient-2)" fill-rule="nonzero"></path>
        <path d="M18.2053696,20 L10.7947453,20 C9.8050603,20 9,20.8050519 9,21.7947266 L9,30.1316062 C9,30.6112116 9.38879251,31 9.8684029,31 L19.1315971,31 C19.6112075,31 20,30.6112116 20,30.1316062 L20,21.7947266 C20.000115,20.8050519 19.1950547,20 18.2053696,20 Z M18.2631942,29.2630974 L10.7368058,29.2630974 L10.7368058,21.7947266 C10.7368058,21.7627682 10.7627866,21.7367877 10.7947453,21.7367877 L18.2053696,21.7367877 C18.2373283,21.7367877 18.2633092,21.7627682 18.2633092,21.7947266 L18.2633092,29.2630974 L18.2631942,29.2630974 Z" id="Shape" fill="url(#linearGradient-2)" fill-rule="nonzero"></path>
    </g>
</svg>