<?xml version="1.0" encoding="UTF-8"?>
<svg width="53px" height="53px" viewBox="0 0 53 53" version="1.1" xmlns="http://www.w3.org/2000/svg" xmlns:xlink="http://www.w3.org/1999/xlink">
    <!-- Generator: Sketch 64 (93537) - https://sketch.com -->
    <title>Manage</title>
    <desc>Created with Sketch.</desc>
    <defs>
        <linearGradient x1="100%" y1="130.762585%" x2="10.7336691%" y2="9.52431136%" id="linearGradient-1">
            <stop stop-color="#454CE0" offset="0%"></stop>
            <stop stop-color="#0D7CDE" offset="100%"></stop>
        </linearGradient>
        <linearGradient x1="100%" y1="85.8944821%" x2="10.7336691%" y2="32.010805%" id="linearGradient-2">
            <stop stop-color="#454CE0" offset="0%"></stop>
            <stop stop-color="#0D7CDE" offset="100%"></stop>
        </linearGradient>
        <linearGradient x1="80.2469136%" y1="130.762585%" x2="26.2462937%" y2="9.52431136%" id="linearGradient-3">
            <stop stop-color="#454CE0" offset="0%"></stop>
            <stop stop-color="#0D7CDE" offset="100%"></stop>
        </linearGradient>
        <linearGradient x1="100%" y1="130.762585%" x2="10.7336691%" y2="9.52431136%" id="linearGradient-4">
            <stop stop-color="#454CE0" offset="0%"></stop>
            <stop stop-color="#0D7CDE" offset="100%"></stop>
        </linearGradient>
        <linearGradient x1="94.2906574%" y1="130.762585%" x2="15.2173678%" y2="9.52431136%" id="linearGradient-5">
            <stop stop-color="#454CE0" offset="0%"></stop>
            <stop stop-color="#0D7CDE" offset="100%"></stop>
        </linearGradient>
        <linearGradient x1="100%" y1="104.06421%" x2="10.7336691%" y2="22.9047043%" id="linearGradient-6">
            <stop stop-color="#454CE0" offset="0%"></stop>
            <stop stop-color="#0D7CDE" offset="100%"></stop>
        </linearGradient>
        <linearGradient x1="100%" y1="68.9849356%" x2="10.7336691%" y2="40.4853424%" id="linearGradient-7">
            <stop stop-color="#454CE0" offset="0%"></stop>
            <stop stop-color="#0D7CDE" offset="100%"></stop>
        </linearGradient>
        <linearGradient x1="100%" y1="66.1534991%" x2="10.7336691%" y2="41.9043701%" id="linearGradient-8">
            <stop stop-color="#454CE0" offset="0%"></stop>
            <stop stop-color="#0D7CDE" offset="100%"></stop>
        </linearGradient>
        <linearGradient x1="61.7535463%" y1="130.762585%" x2="40.7696272%" y2="9.52431136%" id="linearGradient-9">
            <stop stop-color="#454CE0" offset="0%"></stop>
            <stop stop-color="#0D7CDE" offset="100%"></stop>
        </linearGradient>
        <linearGradient x1="60.000608%" y1="130.762585%" x2="42.1462563%" y2="9.52431136%" id="linearGradient-10">
            <stop stop-color="#454CE0" offset="0%"></stop>
            <stop stop-color="#0D7CDE" offset="100%"></stop>
        </linearGradient>
        <linearGradient x1="95.3514739%" y1="130.762585%" x2="14.3842804%" y2="9.52431136%" id="linearGradient-11">
            <stop stop-color="#454CE0" offset="0%"></stop>
            <stop stop-color="#0D7CDE" offset="100%"></stop>
        </linearGradient>
    </defs>
    <g id="Manage" stroke="none" stroke-width="1" fill="none" fill-rule="evenodd">
        <g fill-rule="nonzero">
            <path d="M50.2272237,20.1554839 C52.4178551,17.4762907 53.3759666,13.9968062 52.8657833,10.5736258 C51.8757715,3.81691006 45.5968298,-0.857877896 38.8411503,0.132301898 C35.7953933,0.578760487 33.0255901,2.14556076 31.0738242,4.52634203 C29.5331191,6.4945576 26.9791118,7.37234994 24.5542508,6.7670254 C22.5152836,6.20045134 20.3834855,6.04787821 18.2845811,6.31835881 C11.188485,7.27663293 5.58872068,12.8262324 4.56548409,19.9143697 C4.12627607,23.0787719 4.65643845,26.3020175 6.08609976,29.1588446 C2.67597342,29.2080831 -0.0485733683,32.0129117 0.000656784722,35.4235065 C0.0449197698,38.4927437 2.33621913,41.0637446 5.3796581,41.4591983 L6.33247129,51.2335943 C6.33247129,52.2092013 7.12313404,53 8.09857543,53 L13.2511843,53 C13.7667763,53 14.2565391,52.7736777 14.5916573,52.3817569 C14.9404629,51.9652168 15.0831862,51.4137675 14.9802002,50.8803136 L12.618919,41.5183728 L13.060445,41.5183728 C14.0371006,41.523672 15.0124316,41.5938866 15.9798152,41.7285749 C19.1491994,48.6007693 26.0255259,53.0014335 33.5922888,53 C34.1751031,53 34.7637677,52.9738334 35.3583929,52.9213933 C44.726582,51.9963496 52.1088973,44.5315267 52.9311291,35.1522531 C53.2772856,30.9900535 52.2631003,26.8278539 50.0408997,23.291734 C49.4241982,22.3145815 49.4991473,21.0528171 50.2272237,20.1554839 Z M5.30371562,39.6636487 C2.91395595,39.1783292 1.37016017,36.8473385 1.85539728,34.4571732 C2.20817658,32.7193629 3.56620029,31.3611087 5.30371562,31.0082695 L5.30371562,39.6636487 Z M13.2511843,51.2335943 L8.09416017,51.1452741 L7.15812498,41.5183728 L10.7954165,41.5183728 L13.2511843,51.2335943 Z M7.06981977,39.7519689 L7.06981977,30.9199493 L8.83592391,30.9199493 L8.83592391,39.7519689 L7.06981977,39.7519689 Z M13.0577959,39.7519689 L10.6020281,39.7519689 L10.6020281,30.9199493 L13.0577959,30.9199493 C15.6205234,30.9208325 18.1664729,30.507494 20.5972945,29.6958314 L24.7308612,28.3180364 L24.7308612,42.3538819 L20.5972945,40.9760868 C18.1664729,40.1645346 15.6205234,39.7510857 13.0577959,39.7519689 Z M51.165025,35.0100576 C50.3849589,44.7187655 41.8835958,51.9567159 32.1765355,51.1766278 C26.2786307,50.7025692 21.0116666,47.3015792 18.1521233,42.1207165 C18.7861547,42.2717441 19.4166538,42.4439685 20.0392056,42.6506377 L29.7527783,45.8884561 C29.8418562,45.9182642 29.935239,45.9337202 30.0291736,45.9343826 C30.5168392,45.9343826 30.9122257,45.5389289 30.9122257,45.0511806 L30.9122257,40.6351708 C32.8629981,40.6351708 34.444434,39.0534665 34.444434,37.102363 L34.444434,33.5695552 C34.444434,31.6184517 32.8629981,30.0367474 30.9122257,30.0367474 L30.9122257,25.6207376 C30.9123361,25.1329893 30.5170599,24.7374252 30.0293944,24.7373148 C29.9344663,24.7373148 29.8402005,24.7525501 29.7501292,24.7825789 L20.0365564,28.0203973 C17.7864293,28.771119 15.4298945,29.1537662 13.0577959,29.1535454 L8.09857543,29.1535454 C6.51095819,26.4356018 5.88299778,23.2628092 6.3156933,20.1448854 C7.38286173,12.4187451 14.5101958,7.02061476 22.2350249,8.08785393 C22.8569143,8.17374532 23.4724016,8.3011472 24.0774027,8.46895557 C27.1768051,9.26394773 30.4535906,8.15839968 32.4381397,5.64800852 C36.1351476,1.11464327 42.8064956,0.437116974 47.3392019,4.13464197 C51.8719082,7.83216696 52.5493195,14.5047577 48.8523116,19.0382334 C47.6470559,20.5223439 47.5210002,22.6094605 48.5388281,24.2279281 C50.5583682,27.4427832 51.4799434,31.2264204 51.165025,35.0100576 Z M26.4969654,42.9429776 L26.4969654,27.7289406 L29.1461216,26.8457387 L29.1461216,43.8261795 L26.4969654,42.9429776 Z M30.9122257,38.8687669 L30.9122257,31.8031513 C31.8876671,31.8031513 32.6783299,32.5939482 32.6783299,33.5695552 L32.6783299,37.102363 C32.6783299,38.07797 31.8875567,38.8687669 30.9122257,38.8687669 Z" id="Shape" fill="url(#linearGradient-1)"></path>
            <rect id="Rectangle" fill="url(#linearGradient-2)" x="13" y="36" width="3" height="2"></rect>
            <rect id="Rectangle" fill="url(#linearGradient-2)" x="13" y="33" width="3" height="2"></rect>
            <path d="M44.8529279,12.0007314 C44.7888368,11.901962 44.706481,11.8171419 44.6103444,11.7512206 L39.3605673,8.15142645 C38.9586313,7.87559222 38.4152793,7.98707335 38.1471032,8.40059971 C38.0511854,8.54852875 38.0000001,8.72233131 38.0000001,8.90018364 L38.0000001,16.099772 C37.9998907,16.4317405 38.1773988,16.7368231 38.4619805,16.8935266 C38.7466715,17.0502302 39.0920631,17.0329062 39.3605673,16.8485292 L44.6103444,13.248735 C45.0123899,12.9730133 45.1209946,12.4142577 44.8529279,12.0007314 Z M39.7499258,14.4177682 L39.7499258,10.5821875 L42.5498069,12.4999778 L39.7499258,14.4177682 Z" id="Shape" fill="url(#linearGradient-3)"></path>
            <path d="M41,4 C36.5817778,4 33,7.58166667 33,12 C33.0048889,16.4162222 36.5837778,19.9951111 41,20 C45.4183333,20 49,16.4182222 49,12 C49,7.58177778 45.4182222,4 41,4 Z M41,18.2222222 C37.5635556,18.2222222 34.7777778,15.4364444 34.7777778,12 C34.7816667,8.56522222 37.5652222,5.78166667 41,5.77777778 C44.4364444,5.77777778 47.2222222,8.56355556 47.2222222,12 C47.2222222,15.4364444 44.4364444,18.2222222 41,18.2222222 Z" id="Shape" fill="url(#linearGradient-4)"></path>
            <path d="M23.3333333,16.2631579 L22.4444444,16.2631579 C21.9535556,16.2631579 21.5555556,15.8625395 21.5555556,15.3684211 L21.5555556,12.6842105 C21.5555556,11.2017434 20.3616667,10 18.8888889,10 C17.4161111,10 16.2222222,11.2017434 16.2222222,12.6842105 L16.2222222,15.3684211 C16.2222222,15.8625395 15.8242222,16.2631579 15.3333333,16.2631579 C15.3333333,15.7690395 14.9353333,15.3684211 14.4444444,15.3684211 L10.8888889,15.3684211 C10.398,15.3684211 10,15.7690395 10,16.2631579 L10,26.1052632 C10,26.5993816 10.398,27 10.8888889,27 L14.4444444,27 C14.9353333,27 15.3333333,26.5993816 15.3333333,26.1052632 L23.3333333,26.1052632 C24.8061111,26.1052632 26,24.9035197 26,23.4210526 L26,18.9473684 C26,17.4650132 24.8061111,16.2631579 23.3333333,16.2631579 Z M13.5555556,25.2105263 L11.7777778,25.2105263 L11.7777778,17.1578947 L13.5555556,17.1578947 L13.5555556,25.2105263 Z M24.2222222,23.4210526 C24.2222222,23.9151711 23.8242222,24.3157895 23.3333333,24.3157895 L15.3333333,24.3157895 L15.3333333,18.0526316 C16.8061111,18.0526316 18,16.8508882 18,15.3684211 L18,12.6842105 C18,12.1900921 18.398,11.7894737 18.8888889,11.7894737 C19.3797778,11.7894737 19.7777778,12.1900921 19.7777778,12.6842105 L19.7777778,15.3684211 C19.7777778,16.8508882 20.9716667,18.0526316 22.4444444,18.0526316 L23.3333333,18.0526316 C23.8242222,18.0526316 24.2222222,18.45325 24.2222222,18.9473684 L24.2222222,23.4210526 Z" id="Shape" fill="url(#linearGradient-5)"></path>
            <path d="M49.217206,33.1255136 L48.837548,32.7559564 C47.9345235,31.8867848 46.5253997,31.7518706 45.4642957,32.4330257 L44.5008912,33.055574 L43.5374868,32.4330257 C42.4764942,31.751223 41.0669247,31.8861372 40.1642344,32.7559564 L39.782794,33.1255136 C38.7390687,34.1370467 38.7390687,35.7767406 39.782794,36.7882737 L43.8699103,40.7471977 C44.2179302,41.0842674 44.7820698,41.0842674 45.1300897,40.7471977 L49.217206,36.7882737 C50.2609313,35.7767406 50.2609313,34.1370467 49.217206,33.1255136 Z M47.9585863,35.5667061 C47.9583635,35.5669219 47.9581407,35.5671378 47.9579179,35.5673537 L44.5008912,38.9158176 L41.0447558,35.5708075 C40.6968473,35.2336298 40.6968473,34.6870651 41.0447558,34.3498874 L41.425305,33.9811937 C41.7257561,33.6899948 42.196541,33.6448795 42.5500195,33.8732623 L44.0071576,34.8144242 C44.3066061,35.0080531 44.6969587,35.0080531 44.9964073,34.8144242 L46.4544366,33.8732623 C46.8075809,33.6450954 47.2778087,33.6898869 47.5782599,33.9803303 L47.5782599,33.9768765 L47.9579179,34.3455702 C48.3061605,34.6826399 48.3064947,35.2293125 47.9585863,35.5667061 Z" id="Shape" fill="url(#linearGradient-6)"></path>
            <polygon id="Rectangle" fill="url(#linearGradient-7)" transform="translate(34.825811, 25.576695) rotate(-75.948471) translate(-34.825811, -25.576695) " points="33.008564 24.6956186 36.643059 24.6956186 36.643059 26.4577713 33.008564 26.4577713"></polygon>
            <polygon id="Rectangle" fill="url(#linearGradient-8)" transform="translate(37.908849, 28.219950) rotate(-26.565051) translate(-37.908849, -28.219950) " points="35.9378816 27.3384802 39.8798159 27.3384802 39.8798159 29.1014204 35.9378816 29.1014204"></polygon>
            <polygon id="Rectangle" fill="url(#linearGradient-9)" transform="translate(34.820620, 45.849429) rotate(-14.034854) translate(-34.820620, -45.849429) " points="33.9396076 44.0323134 35.7016319 44.0323134 35.7016319 47.6665438 33.9396076 47.6665438"></polygon>
            <polygon id="Rectangle" fill="url(#linearGradient-10)" transform="translate(37.908399, 43.204803) rotate(-63.434949) translate(-37.908399, -43.204803) " points="37.0269287 41.2338356 38.7898688 41.2338356 38.7898688 45.1757698 37.0269287 45.1757698"></polygon>
            <path d="M1,24 L2.73913043,24 C2.73913043,12.12625 9.73652174,4.75 21,4.75 L21,3 C8.66347826,3 1,11.05 1,24 Z" id="Path" fill="url(#linearGradient-11)"></path>
        </g>
    </g>
</svg>