<?xml version="1.0" encoding="UTF-8"?>
<svg width="53px" height="53px" viewBox="0 0 53 53" version="1.1" xmlns="http://www.w3.org/2000/svg" xmlns:xlink="http://www.w3.org/1999/xlink">
    <!-- Generator: Sketch 64 (93537) - https://sketch.com -->
    <title>Analyse</title>
    <desc>Created with Sketch.</desc>
    <defs>
        <linearGradient x1="86.4615365%" y1="129.185278%" x2="10.7603441%" y2="9.52431136%" id="linearGradient-1">
            <stop stop-color="#454CE0" offset="0%"></stop>
            <stop stop-color="#0D7CDE" offset="100%"></stop>
        </linearGradient>
    </defs>
    <g id="Analyse" stroke="none" stroke-width="1" fill="none" fill-rule="evenodd">
        <path d="M47.1147917,0 L5.88520833,0 C2.63489752,0 -6.96331881e-13,2.63489752 -6.96331881e-13,5.88520833 L-6.96331881e-13,25.0314583 C-6.96331881e-13,28.2817691 2.63489752,30.9166667 5.88520833,30.9166667 L41.4283333,30.9166667 C41.9694172,30.9186721 42.48574,31.1436592 42.8556035,31.5385982 C43.225467,31.9335371 43.41615,32.4634885 43.3827083,33.0035417 C43.1320612,35.9324545 42.6558569,38.8376696 41.9583333,41.6933333 C41.8526068,42.0943909 41.9805505,42.5208702 42.2895833,42.7975 C42.5038581,42.981417 42.7804538,43.0762498 43.0625,43.0625 C43.1942402,43.0638108 43.3251228,43.0412119 43.4489583,42.99625 C43.824375,42.8527083 52.6025,39.385625 52.9779167,25.3295833 C52.9833539,25.2487024 52.9833539,25.1675476 52.9779167,25.0866667 L52.9779167,5.88520833 C52.9779395,2.6435021 50.3564751,0.0121640008 47.1147917,0 Z M50.7916667,25.175 C50.5597917,33.754375 47.0375,37.895 44.7077083,39.7058333 C45.1373191,37.5328716 45.4286679,35.3348477 45.58,33.125 C45.6639707,31.9782896 45.2634706,30.8488795 44.4758333,30.01125 C43.6849208,29.1727167 42.5809925,28.7007474 41.4283333,28.7083333 L5.88520833,28.7083333 C3.85704316,28.70227 2.21439665,27.0596235 2.20833333,25.0314583 L2.20833333,5.88520833 C2.21439665,3.85704316 3.85704316,2.21439665 5.88520833,2.20833333 L47.1147917,2.20833333 C49.1429568,2.21439665 50.7856034,3.85704316 50.7916667,5.88520833 L50.7916667,24.9652083 C50.7970759,25.0350343 50.7970759,25.105174 50.7916667,25.175 Z M43.0625,8.66770833 C43.0676872,8.72279482 43.0676872,8.77824684 43.0625,8.83333333 L43.0625,13.25 C43.0625,13.8598144 42.5681477,14.3541667 41.9583333,14.3541667 C41.3485189,14.3541667 40.8541667,13.8598144 40.8541667,13.25 L40.8541667,11.3177083 L31.6564583,19.5879167 C31.2714206,19.9341115 30.697533,19.9662492 30.27625,19.6652083 L23.1875,14.6302083 L13.8904167,21.8514583 C13.7067121,21.9943037 13.4825729,22.0754576 13.25,22.0833333 C12.7787108,22.081872 12.3603008,21.7814383 12.2082781,21.3353389 C12.0562554,20.8892394 12.2041358,20.3958241 12.5764583,20.106875 L22.5139583,12.3777083 C22.9042845,12.0887489 23.4375905,12.0887489 23.8279167,12.3777083 L30.839375,17.3795833 L39.0764583,9.9375 L37.5416667,9.9375 C36.9318523,9.9375 36.4375,9.44314774 36.4375,8.83333333 C36.4375,8.22351892 36.9318523,7.72916667 37.5416667,7.72916667 L41.9583333,7.72916667 L42.2233333,7.72916667 L42.3779167,7.72916667 C42.4333744,7.7557381 42.4853027,7.78912059 42.5325,7.82854167 C42.6077376,7.86733815 42.6751272,7.91975229 42.73125,7.983125 L42.73125,7.983125 C42.7651488,8.02201531 42.7913749,8.06697432 42.8085417,8.115625 C42.8628602,8.17860336 42.9075149,8.24930665 42.9410417,8.32541667 C42.9935542,8.43488281 43.0342695,8.54962599 43.0625,8.66770833 L43.0625,8.66770833 Z M35.3333333,44.1666667 C35.3333333,39.2881514 31.3785153,35.3333333 26.5,35.3333333 C21.6214847,35.3333333 17.6666667,39.2881514 17.6666667,44.1666667 C17.6666667,49.045182 21.6214847,53 26.5,53 C31.3785153,53 35.3333333,49.045182 35.3333333,44.1666667 Z M19.875,44.1666667 C19.875,40.5077802 22.8411135,37.5416667 26.5,37.5416667 C30.1588865,37.5416667 33.125,40.5077802 33.125,44.1666667 C33.125,47.8255531 30.1588865,50.7916667 26.5,50.7916667 C22.8411135,50.7916667 19.875,47.8255531 19.875,44.1666667 Z" id="Shape" fill="url(#linearGradient-1)" fill-rule="nonzero"></path>
    </g>
</svg>