<?xml version="1.0" encoding="UTF-8"?>
<svg width="56px" height="53px" viewBox="0 0 56 53" version="1.1" xmlns="http://www.w3.org/2000/svg" xmlns:xlink="http://www.w3.org/1999/xlink">
    <!-- Generator: Sketch 64 (93537) - https://sketch.com -->
    <title>Services</title>
    <desc>Created with Sketch.</desc>
    <defs>
        <linearGradient x1="85.5651872%" y1="104.782432%" x2="10.7336691%" y2="13.7145716%" id="linearGradient-1">
            <stop stop-color="#454CE0" offset="0%"></stop>
            <stop stop-color="#0D7CDE" offset="100%"></stop>
        </linearGradient>
    </defs>
    <g id="Services" stroke="none" stroke-width="1" fill="none" fill-rule="evenodd">
        <path d="M40.9851939,51.4499087 C40.9851939,52.0956631 40.4616589,52.6190476 39.8157189,52.6190476 L15.4384021,52.6190476 C14.792462,52.6190476 14.268927,52.0956631 14.268927,51.4499087 C14.268927,50.8041542 14.792462,50.2807697 15.4384021,50.2807697 L22.2663169,50.2807697 L22.2663169,29.2144444 C22.2663169,28.56869 22.7898519,28.0453055 23.435792,28.0453055 C24.081732,28.0453055 24.605267,28.56869 24.605267,29.2144444 L24.605267,50.2807697 L30.6491138,50.2807697 L30.6491138,29.2144444 C30.6491138,28.56869 31.1726488,28.0453055 31.8185888,28.0453055 C32.4645289,28.0453055 32.9880639,28.56869 32.9880639,29.2144444 L32.9880639,50.2807697 L39.8158488,50.2807697 C40.4616589,50.2807697 40.9851939,50.8042841 40.9851939,51.4499087 Z M55.3143814,18.6064569 L49.532237,25.7595089 C49.3101667,26.0341266 48.9759567,26.1937791 48.6226453,26.1937791 L16.4246593,26.1937791 C13.8071144,26.1937791 11.6776303,24.064777 11.6776303,21.4481141 L11.6776303,14.2950621 C11.6776303,11.6782693 13.8072443,9.54952705 16.4246593,9.54952705 L22.2663169,9.54952705 L22.2663169,5.3592031 C22.2663169,2.40413942 24.6711474,1.0658141e-13 27.6270605,1.0658141e-13 C30.5831035,1.0658141e-13 32.9880639,2.40413942 32.9880639,5.3592031 L32.9880639,9.54952705 L48.6226453,9.54952705 C48.9759567,9.54952705 49.3101667,9.70917947 49.532237,9.98379723 L55.3143814,17.1367193 C55.6609358,17.5654036 55.6609358,18.1777726 55.3143814,18.6064569 Z M24.605267,9.54939715 L30.6491138,9.54939715 L30.6491138,5.3592031 C30.6491138,3.69343989 29.2934324,2.33827793 27.6270605,2.33827793 C25.9608185,2.33827793 24.605267,3.69343989 24.605267,5.3592031 L24.605267,9.54939715 Z M52.9012347,17.8715881 L48.0640261,11.887805 L16.4246593,11.887805 C15.0967854,11.887805 14.0165803,12.9676997 14.0165803,14.2950621 L14.0165803,21.4481141 C14.0165803,22.7756064 15.0967854,23.8555011 16.4246593,23.8555011 L48.0640261,23.8555011 L52.9012347,17.8715881 Z M20.3612422,34.4775183 C20.3612422,33.8317639 19.8377072,33.3083794 19.1917671,33.3083794 L7.51014113,33.3083794 L2.67306254,27.3244663 L7.51001119,21.3408131 L8.48509346,21.3408131 C9.1310335,21.3408131 9.65456848,20.8174286 9.65456848,20.1716742 C9.65456848,19.5259197 9.1310335,19.0025352 8.48509346,19.0025352 L6.9515219,19.0025352 C6.5982105,19.0025352 6.26400053,19.1621876 6.04193022,19.4368054 L0.259915821,26.5894676 C-0.0866386071,27.0181519 -0.0866386071,27.6305209 0.259915821,28.0590753 L6.04193022,35.2122572 C6.26400053,35.486875 6.5982105,35.6465274 6.9515219,35.6465274 L19.1916372,35.6465274 C19.8375772,35.6465274 20.3612422,35.1232727 20.3612422,34.4775183 Z M42.7271919,28.0453055 C42.0812518,28.0453055 41.5577169,28.56869 41.5577169,29.2144444 L41.5577169,30.9008624 C41.5577169,32.2283548 40.4775118,33.3082495 39.1496379,33.3082495 L36.1373301,33.3082495 C35.4913901,33.3082495 34.9678551,33.831634 34.9678551,34.4773884 C34.9678551,35.1231428 35.4913901,35.6465274 36.1373301,35.6465274 L39.1496379,35.6465274 C41.7671828,35.6465274 43.8966669,33.5175253 43.8966669,30.9008624 L43.8966669,29.2144444 C43.8966669,28.5688199 43.373002,28.0453055 42.7271919,28.0453055 Z" fill="url(#linearGradient-1)" fill-rule="nonzero"></path>
    </g>
</svg>