<svg width="52" height="46" viewBox="0 0 52 46" fill="none" xmlns="http://www.w3.org/2000/svg">
<path d="M45.3987 6.59971H47.004C47.4472 6.59971 47.8066 6.20444 47.8066 5.71685C47.8066 5.22925 47.4472 4.83398 47.004 4.83398H45.3987C44.069 4.83398 42.9909 6.0198 42.9909 7.48257V8.36543H42.1883C41.7451 8.36543 41.3857 8.7607 41.3857 9.24829C41.3857 9.73588 41.7451 10.1312 42.1883 10.1312H42.9909V12.7797C42.9909 13.2673 43.3503 13.6626 43.7935 13.6626C44.2368 13.6626 44.5961 13.2673 44.5961 12.7797V10.1312H45.3987C45.842 10.1312 46.2014 9.73588 46.2014 9.24829C46.2014 8.7607 45.842 8.36543 45.3987 8.36543H44.5961V7.48257C44.5961 6.99498 44.9555 6.59971 45.3987 6.59971Z" fill="url(#paint0_linear)"/>
<path d="M49.2772 1.62366H39.1109C37.7072 1.62366 36.5693 2.82145 36.5693 4.299V6.08255C36.5693 6.57507 36.9486 6.97433 37.4165 6.97433C37.8844 6.97433 38.2637 6.57507 38.2637 6.08255V4.299C38.2637 3.80648 38.643 3.40722 39.1109 3.40722H49.2772C49.7451 3.40722 50.1244 3.80648 50.1244 4.299V15.0003C50.1244 15.4929 49.7451 15.8921 49.2772 15.8921H39.1109C38.643 15.8921 38.2637 15.4929 38.2637 15.0003V9.64967C38.2637 9.15715 37.8844 8.75789 37.4165 8.75789C36.9486 8.75789 36.5693 9.15715 36.5693 9.64967V15.0003C36.5693 16.4779 37.7072 17.6757 39.1109 17.6757H49.2772C50.6809 17.6757 51.8188 16.4779 51.8188 15.0003V4.299C51.8188 2.82145 50.6809 1.62366 49.2772 1.62366V1.62366Z" fill="url(#paint1_linear)"/>
<path fill-rule="evenodd" clip-rule="evenodd" d="M43.7924 41.7538C42.0194 41.7538 40.582 40.3165 40.582 38.5434C40.582 36.7704 42.0194 35.333 43.7924 35.333C45.5655 35.333 47.0028 36.7704 47.0028 38.5434C47.0028 40.3165 45.5655 41.7538 43.7924 41.7538ZM43.7931 40.1486C44.6797 40.1486 45.3983 39.43 45.3983 38.5434C45.3983 37.6569 44.6797 36.9382 43.7931 36.9382C42.9066 36.9382 42.1879 37.6569 42.1879 38.5434C42.1879 39.43 42.9066 40.1486 43.7931 40.1486Z" fill="url(#paint2_linear)"/>
<path d="M48.4745 29.7146H38.3082C36.9045 29.7146 35.7666 30.9124 35.7666 32.3899V43.0913C35.7666 44.5688 36.9045 45.7666 38.3082 45.7666H48.4745C49.8781 45.7666 51.016 44.5688 51.016 43.0913V41.3077C51.016 40.8152 50.6367 40.416 50.1688 40.416C49.7009 40.416 49.3216 40.8152 49.3216 41.3077V43.0913C49.3216 43.5838 48.9423 43.9831 48.4745 43.9831H38.3082C37.8403 43.9831 37.461 43.5838 37.461 43.0913V32.3899C37.461 31.8974 37.8403 31.4982 38.3082 31.4982H48.4745C48.9423 31.4982 49.3216 31.8974 49.3216 32.3899V37.7406C49.3216 38.2331 49.7009 38.6324 50.1688 38.6324C50.6367 38.6324 51.016 38.2331 51.016 37.7406V32.3899C51.016 30.9124 49.8781 29.7146 48.4745 29.7146Z" fill="url(#paint3_linear)"/>
<path fill-rule="evenodd" clip-rule="evenodd" d="M20.518 11.2548C20.3677 11.2553 20.2202 11.2135 20.0924 11.1344C19.857 10.9873 19.7143 10.7293 19.7148 10.4519V5.63446C19.7157 5.35618 19.8606 5.09818 20.0979 4.9526C20.3351 4.80703 20.6309 4.79465 20.8795 4.91987L25.6987 7.32859C25.9669 7.46596 26.1356 7.74189 26.1356 8.04317C26.1356 8.34446 25.9669 8.62038 25.6987 8.75776L20.8795 11.1665C20.7676 11.2238 20.6438 11.254 20.518 11.2548ZM23.5395 8.04306L21.3227 6.93505V9.15107L23.5395 8.04306Z" fill="url(#paint4_linear)"/>
<path fill-rule="evenodd" clip-rule="evenodd" d="M29.3461 8.84706C29.3461 13.2797 25.9324 16.8731 21.7214 16.8731C17.5104 16.8731 14.0967 13.2797 14.0967 8.84706C14.0967 4.41441 17.5104 0.821045 21.7214 0.821045C25.9324 0.821045 29.3461 4.41441 29.3461 8.84706ZM27.6511 8.84687C27.6511 5.39926 24.996 2.60442 21.7208 2.60442C18.4455 2.60442 15.7904 5.39926 15.7904 8.84687C15.7904 12.2945 18.4455 15.0893 21.7208 15.0893C24.996 15.0893 27.6511 12.2945 27.6511 8.84687Z" fill="url(#paint5_linear)"/>
<path d="M30.1483 20.0835C30.401 20.0835 30.6388 19.9448 30.7904 19.709L33.1981 15.9636C33.4641 15.5499 33.3922 14.9629 33.0376 14.6527C32.683 14.3424 32.18 14.4262 31.914 14.8399L29.5063 18.5854C29.2403 18.9991 29.3122 19.586 29.6668 19.8963C29.8057 20.0178 29.9747 20.0835 30.1483 20.0835Z" fill="url(#paint6_linear)"/>
<path d="M31.9412 22.973C32.1181 23.1751 32.3956 23.294 32.6903 23.294C32.8929 23.294 33.09 23.2377 33.2521 23.1335L36.9975 20.7257C37.4112 20.4598 37.4951 19.9567 37.1848 19.6021C36.8745 19.2475 36.2876 19.1756 35.8739 19.4416L32.1285 21.8493C31.7148 22.1153 31.631 22.6184 31.9412 22.973Z" fill="url(#paint7_linear)"/>
<path d="M40.5607 25.5538C40.5175 25.3408 40.3777 25.1526 40.1738 25.0326C39.9698 24.9126 39.7192 24.8711 39.4799 24.9178L34.9763 25.7128C34.4789 25.7567 34.1159 26.1482 34.1657 26.5873C34.2154 27.0264 34.659 27.3467 35.1565 27.3028H35.3366L39.8402 26.5078C40.0815 26.4696 40.2947 26.3463 40.4307 26.1663C40.5666 25.9862 40.6136 25.7651 40.5607 25.5538Z" fill="url(#paint8_linear)"/>
<path fill-rule="evenodd" clip-rule="evenodd" d="M11.6312 24.8992H1.31208C0.837152 24.8992 0.452148 24.4999 0.452148 24.0074V9.73895C0.452148 9.24643 0.837152 8.84717 1.31208 8.84717H11.6312C12.1062 8.84717 12.4912 9.24643 12.4912 9.73895V24.0074C12.4912 24.4999 12.1062 24.8992 11.6312 24.8992ZM10.7718 10.6306H2.17245V23.1155H10.7718V10.6306Z" fill="url(#paint9_linear)"/>
<path d="M8.47909 12.0575H6.87389C6.43063 12.0575 6.07129 12.5965 6.07129 13.2614C6.07129 13.9263 6.43063 14.4653 6.87389 14.4653H8.47909C8.92236 14.4653 9.28169 13.9263 9.28169 13.2614C9.28169 12.5965 8.92236 12.0575 8.47909 12.0575Z" fill="url(#paint10_linear)"/>
<path d="M8.34395 15.2679H4.59848C4.08134 15.2679 3.66211 15.8069 3.66211 16.4718C3.66211 17.1367 4.08134 17.6757 4.59848 17.6757H8.34395C8.86109 17.6757 9.28032 17.1367 9.28032 16.4718C9.28032 15.8069 8.86109 15.2679 8.34395 15.2679Z" fill="url(#paint11_linear)"/>
<path d="M8.34395 19.281H4.59848C4.08134 19.281 3.66211 19.82 3.66211 20.4849C3.66211 21.1498 4.08134 21.6888 4.59848 21.6888H8.34395C8.86109 21.6888 9.28032 21.1498 9.28032 20.4849C9.28032 19.82 8.86109 19.281 8.34395 19.281Z" fill="url(#paint12_linear)"/>
<path fill-rule="evenodd" clip-rule="evenodd" d="M28.9008 23.3554C28.745 23.0893 28.4563 22.925 28.1435 22.9244C27.8307 22.9238 27.5413 23.087 27.3844 23.3524C27.2275 23.6179 27.2268 23.9453 27.3827 24.2114L31.2305 30.7427L17.2701 35.8788H17.209H17.1392L14.8707 37.1628L13.3612 38.0188C12.9599 38.2465 12.4827 38.3081 12.035 38.19C11.5896 38.072 11.2101 37.7858 10.9792 37.394L9.23418 34.4322C8.80798 33.6277 9.09493 32.6368 9.88857 32.1723L12.9075 30.4603L15.0888 34.1668C15.2453 34.4327 15.5349 34.596 15.8479 34.5948C16.1602 34.596 16.4494 34.4333 16.6061 34.1683C16.7628 33.9032 16.7632 33.5762 16.607 33.3108L14.3559 29.493L25.3061 20.6332L25.6638 21.241C25.9047 21.6523 26.4399 21.7941 26.8591 21.5577C27.2784 21.3214 27.4229 20.7963 27.182 20.385L26.3095 18.9041C26.18 18.687 25.9599 18.5368 25.7074 18.4932C25.4536 18.4463 25.1915 18.5121 24.9919 18.673L12.7766 28.5514L9.05968 30.6571C7.68786 31.4411 7.02815 33.0345 7.45423 34.5349L6.58171 35.0228C5.6623 35.5408 5.15218 36.5517 5.2898 37.5831C5.42742 38.6145 6.18559 39.4625 7.20993 39.7309C7.43197 39.7886 7.66079 39.8174 7.8905 39.8165C8.34951 39.8146 8.80027 39.6967 9.19928 39.4741L10.0718 38.9861C10.4909 39.4109 11.0181 39.7183 11.5987 39.8764C11.8969 39.9582 12.2053 39.9986 12.5149 39.9962C13.1282 39.9976 13.7307 39.838 14.2599 39.534L15.019 39.106L16.7641 42.0763C17.4861 43.3011 19.0818 43.7221 20.3327 43.018C20.9346 42.6777 21.374 42.1166 21.554 41.4583C21.7341 40.8 21.64 40.0985 21.2924 39.5083L19.7045 36.7947L32.7923 31.9754C33.0325 31.8868 33.2208 31.6989 33.3071 31.4618C33.393 31.2275 33.3707 30.9681 33.246 30.7513L28.9008 23.3554ZM8.29236 37.9846C8.09169 38.0984 7.8531 38.1292 7.62924 38.0702C7.4057 38.0132 7.2143 37.8716 7.097 37.6764C6.98099 37.4795 6.9496 37.2455 7.00975 37.0259C7.06992 36.8051 7.21757 36.6171 7.41984 36.5037L8.17893 36.0757L9.05145 37.5566L8.29236 37.9846ZM19.862 41.032C19.9222 40.8124 19.8908 40.5783 19.7748 40.3814L18.0385 37.4538H17.9687L16.5203 38.2671L18.2653 41.2374C18.5079 41.6419 19.0372 41.7793 19.452 41.5456C19.6524 41.4342 19.7998 41.2496 19.862 41.032Z" fill="url(#paint13_linear)"/>
<defs>
<linearGradient id="paint0_linear" x1="60.4238" y1="24.0935" x2="45.5827" y2="3.18501" gradientUnits="userSpaceOnUse">
<stop stop-color="#454CE0"/>
<stop offset="1" stop-color="#0D7CDE"/>
</linearGradient>
<linearGradient id="paint1_linear" x1="81.7847" y1="36.641" x2="57.8011" y2="-7.49535" gradientUnits="userSpaceOnUse">
<stop stop-color="#454CE0"/>
<stop offset="1" stop-color="#0D7CDE"/>
</linearGradient>
<linearGradient id="paint2_linear" x1="59.6201" y1="49.34" x2="50.2992" y2="31.2841" gradientUnits="userSpaceOnUse">
<stop stop-color="#454CE0"/>
<stop offset="1" stop-color="#0D7CDE"/>
</linearGradient>
<linearGradient id="paint3_linear" x1="80.982" y1="64.732" x2="56.9984" y2="20.5956" gradientUnits="userSpaceOnUse">
<stop stop-color="#454CE0"/>
<stop offset="1" stop-color="#0D7CDE"/>
</linearGradient>
<linearGradient id="paint4_linear" x1="38.7529" y1="18.8409" x2="29.432" y2="0.785059" gradientUnits="userSpaceOnUse">
<stop stop-color="#454CE0"/>
<stop offset="1" stop-color="#0D7CDE"/>
</linearGradient>
<linearGradient id="paint5_linear" x1="59.312" y1="35.8384" x2="35.3285" y2="-8.29796" gradientUnits="userSpaceOnUse">
<stop stop-color="#454CE0"/>
<stop offset="1" stop-color="#0D7CDE"/>
</linearGradient>
<linearGradient id="paint6_linear" x1="41.2445" y1="26.7214" x2="31.7452" y2="13.5776" gradientUnits="userSpaceOnUse">
<stop stop-color="#454CE0"/>
<stop offset="1" stop-color="#0D7CDE"/>
</linearGradient>
<linearGradient id="paint7_linear" x1="48.4122" y1="28.0353" x2="43.7729" y2="15.4538" gradientUnits="userSpaceOnUse">
<stop stop-color="#454CE0"/>
<stop offset="1" stop-color="#0D7CDE"/>
</linearGradient>
<linearGradient id="paint8_linear" x1="53.1992" y1="30.1517" x2="51.5991" y2="21.8861" gradientUnits="userSpaceOnUse">
<stop stop-color="#454CE0"/>
<stop offset="1" stop-color="#0D7CDE"/>
</linearGradient>
<linearGradient id="paint9_linear" x1="36.1485" y1="43.8645" x2="9.4484" y2="5.07331" gradientUnits="userSpaceOnUse">
<stop stop-color="#454CE0"/>
<stop offset="1" stop-color="#0D7CDE"/>
</linearGradient>
<linearGradient id="paint10_linear" x1="15.5903" y1="17.3101" x2="12.703" y2="9.85264" gradientUnits="userSpaceOnUse">
<stop stop-color="#454CE0"/>
<stop offset="1" stop-color="#0D7CDE"/>
</linearGradient>
<linearGradient id="paint11_linear" x1="20.3204" y1="20.5205" x2="18.5117" y2="12.3454" gradientUnits="userSpaceOnUse">
<stop stop-color="#454CE0"/>
<stop offset="1" stop-color="#0D7CDE"/>
</linearGradient>
<linearGradient id="paint12_linear" x1="20.3204" y1="24.5336" x2="18.5117" y2="16.3584" gradientUnits="userSpaceOnUse">
<stop stop-color="#454CE0"/>
<stop offset="1" stop-color="#0D7CDE"/>
</linearGradient>
<linearGradient id="paint13_linear" x1="88.559" y1="72.7553" x2="55.0487" y2="-0.534661" gradientUnits="userSpaceOnUse">
<stop stop-color="#454CE0"/>
<stop offset="1" stop-color="#0D7CDE"/>
</linearGradient>
</defs>
</svg>
