<?xml version="1.0" encoding="UTF-8"?>
<svg width="238px" height="47px" viewBox="0 0 238 47" version="1.1" xmlns="http://www.w3.org/2000/svg" xmlns:xlink="http://www.w3.org/1999/xlink">
    <!-- Generator: Sketch 64 (93537) - https://sketch.com -->
    <title>get-social</title>
    <desc>Created with Sketch.</desc>
    <g id="Desktop" stroke="none" stroke-width="1" fill="none" fill-rule="evenodd">
        <g id="Main" transform="translate(-837.000000, -534.000000)">
            <g id="MKT-MGMT" transform="translate(693.000000, 487.000000)">
                <g id="MKT-&amp;-MGMT">
                    <g id="get-social" transform="translate(144.000000, 47.000000)">
                        <g id="GET-SOCIAL">
                            <g id="get-social">
                                <rect id="Rectangle" fill="#545BF4" x="0" y="0" width="238" height="47" rx="23.5"></rect>
                                <path d="M73.29,30.18 C74.694,30.18 75.984,29.814 77.16,29.082 C77.532,28.854 77.718,28.53 77.718,28.11 L77.718,28.11 L77.718,24.294 C77.718,23.982 77.616,23.721 77.412,23.511 C77.208,23.301 76.95,23.196 76.638,23.196 L76.638,23.196 L73.686,23.196 C73.374,23.196 73.113,23.298 72.903,23.502 C72.693,23.706 72.588,23.964 72.588,24.276 C72.588,24.588 72.693,24.846 72.903,25.05 C73.113,25.254 73.374,25.356 73.686,25.356 L73.686,25.356 L75.378,25.356 L75.378,27.696 C75.09,27.792 74.754,27.87 74.37,27.93 C73.986,27.99 73.626,28.02 73.29,28.02 C72.522,28.02 71.814,27.825 71.166,27.435 C70.518,27.045 70.005,26.52 69.627,25.86 C69.249,25.2 69.06,24.48 69.06,23.7 C69.06,22.92 69.249,22.2 69.627,21.54 C70.005,20.88 70.518,20.355 71.166,19.965 C71.814,19.575 72.522,19.38 73.29,19.38 C73.986,19.38 74.658,19.518 75.306,19.794 C75.522,19.89 75.72,19.938 75.9,19.938 C76.188,19.938 76.431,19.827 76.629,19.605 C76.827,19.383 76.926,19.122 76.926,18.822 C76.926,18.642 76.881,18.474 76.791,18.318 C76.701,18.162 76.566,18.036 76.386,17.94 C75.51,17.46 74.478,17.22 73.29,17.22 C72.102,17.22 71.004,17.511 69.996,18.093 C68.988,18.675 68.19,19.461 67.602,20.451 C67.014,21.441 66.72,22.524 66.72,23.7 C66.72,24.876 67.014,25.959 67.602,26.949 C68.19,27.939 68.988,28.725 69.996,29.307 C71.004,29.889 72.102,30.18 73.29,30.18 Z M91.2412941,30 C91.5532941,30 91.8142941,29.904 92.0242941,29.712 C92.2342941,29.52 92.3392941,29.274 92.3392941,28.974 C92.3392941,28.698 92.2342941,28.455 92.0242941,28.245 C91.8142941,28.035 91.5532941,27.93 91.2412941,27.93 L91.2412941,27.93 L86.3632941,27.93 L86.3632941,24.6 L90.4312941,24.6 C90.7552941,24.6 91.0192941,24.507 91.2232941,24.321 C91.4272941,24.135 91.5292941,23.892 91.5292941,23.592 C91.5292941,23.28 91.4242941,23.025 91.2142941,22.827 C91.0042941,22.629 90.7432941,22.53 90.4312941,22.53 L90.4312941,22.53 L86.3632941,22.53 L86.3632941,19.47 L91.2412941,19.47 C91.5652941,19.47 91.8292941,19.377 92.0332941,19.191 C92.2372941,19.005 92.3392941,18.762 92.3392941,18.462 C92.3392941,18.15 92.2342941,17.895 92.0242941,17.697 C91.8142941,17.499 91.5532941,17.4 91.2412941,17.4 L91.2412941,17.4 L85.2112941,17.4 C84.8992941,17.4 84.6382941,17.505 84.4282941,17.715 C84.2182941,17.925 84.1132941,18.186 84.1132941,18.498 L84.1132941,18.498 L84.1132941,28.902 C84.1132941,29.214 84.2182941,29.475 84.4282941,29.685 C84.6382941,29.895 84.8992941,30 85.2112941,30 L85.2112941,30 L91.2412941,30 Z M102.910588,30 C103.246588,30 103.528588,29.895 103.756588,29.685 C103.984588,29.475 104.098588,29.214 104.098588,28.902 L104.098588,28.902 L104.098588,19.47 L106.924588,19.47 C107.248588,19.47 107.512588,19.377 107.716588,19.191 C107.920588,19.005 108.022588,18.756 108.022588,18.444 C108.022588,18.132 107.920588,17.88 107.716588,17.688 C107.512588,17.496 107.248588,17.4 106.924588,17.4 L106.924588,17.4 L98.9325882,17.4 C98.6205882,17.4 98.3595882,17.496 98.1495882,17.688 C97.9395882,17.88 97.8345882,18.126 97.8345882,18.426 C97.8345882,18.738 97.9365882,18.99 98.1405882,19.182 C98.3445882,19.374 98.6085882,19.47 98.9325882,19.47 L98.9325882,19.47 L101.758588,19.47 L101.758588,28.902 C101.758588,29.214 101.866588,29.475 102.082588,29.685 C102.298588,29.895 102.574588,30 102.910588,30 Z M127.473176,30.18 C128.289176,30.18 129.051176,30.027 129.759176,29.721 C130.467176,29.415 131.034176,28.977 131.460176,28.407 C131.886176,27.837 132.099176,27.174 132.099176,26.418 C132.099176,25.614 131.943176,24.969 131.631176,24.483 C131.319176,23.997 130.854176,23.613 130.236176,23.331 C129.618176,23.049 128.793176,22.818 127.761176,22.638 C126.849176,22.47 126.180176,22.254 125.754176,21.99 C125.328176,21.726 125.115176,21.336 125.115176,20.82 C125.115176,20.364 125.322176,19.995 125.736176,19.713 C126.150176,19.431 126.735176,19.29 127.491176,19.29 C127.935176,19.29 128.436176,19.395 128.994176,19.605 C129.552176,19.815 129.987176,20.046 130.299176,20.298 C130.443176,20.406 130.605176,20.46 130.785176,20.46 C131.061176,20.46 131.301176,20.355 131.505176,20.145 C131.709176,19.935 131.811176,19.692 131.811176,19.416 C131.811176,19.056 131.637176,18.738 131.289176,18.462 C130.845176,18.09 130.290176,17.79 129.624176,17.562 C128.958176,17.334 128.247176,17.22 127.491176,17.22 C126.651176,17.22 125.889176,17.367 125.205176,17.661 C124.521176,17.955 123.981176,18.381 123.585176,18.939 C123.189176,19.497 122.991176,20.154 122.991176,20.91 C122.991176,22.974 124.305176,24.198 126.933176,24.582 C127.977176,24.738 128.739176,24.969 129.219176,25.275 C129.699176,25.581 129.939176,26.004 129.939176,26.544 C129.939176,26.988 129.696176,27.36 129.210176,27.66 C128.724176,27.96 128.145176,28.11 127.473176,28.11 C126.849176,28.11 126.309176,28.02 125.853176,27.84 C125.397176,27.66 124.929176,27.372 124.449176,26.976 C124.269176,26.832 124.065176,26.76 123.837176,26.76 C123.549176,26.76 123.303176,26.865 123.099176,27.075 C122.895176,27.285 122.793176,27.528 122.793176,27.804 C122.793176,28.152 122.955176,28.47 123.279176,28.758 C123.867176,29.274 124.497176,29.64 125.169176,29.856 C125.841176,30.072 126.609176,30.18 127.473176,30.18 Z M143.876471,30.18 C145.040471,30.18 146.087471,29.892 147.017471,29.316 C147.947471,28.74 148.676471,27.957 149.204471,26.967 C149.732471,25.977 149.996471,24.888 149.996471,23.7 C149.996471,22.512 149.732471,21.423 149.204471,20.433 C148.676471,19.443 147.947471,18.66 147.017471,18.084 C146.087471,17.508 145.040471,17.22 143.876471,17.22 C142.712471,17.22 141.665471,17.508 140.735471,18.084 C139.805471,18.66 139.079471,19.443 138.557471,20.433 C138.035471,21.423 137.774471,22.512 137.774471,23.7 C137.774471,24.888 138.035471,25.977 138.557471,26.967 C139.079471,27.957 139.805471,28.74 140.735471,29.316 C141.665471,29.892 142.712471,30.18 143.876471,30.18 Z M143.876471,28.02 C143.144471,28.02 142.493471,27.831 141.923471,27.453 C141.353471,27.075 140.909471,26.556 140.591471,25.896 C140.273471,25.236 140.114471,24.504 140.114471,23.7 C140.114471,22.896 140.273471,22.164 140.591471,21.504 C140.909471,20.844 141.353471,20.325 141.923471,19.947 C142.493471,19.569 143.144471,19.38 143.876471,19.38 C144.596471,19.38 145.244471,19.572 145.820471,19.956 C146.396471,20.34 146.846471,20.859 147.170471,21.513 C147.494471,22.167 147.656471,22.896 147.656471,23.7 C147.656471,24.504 147.494471,25.233 147.170471,25.887 C146.846471,26.541 146.396471,27.06 145.820471,27.444 C145.244471,27.828 144.596471,28.02 143.876471,28.02 Z M162.151765,30.18 C163.207765,30.18 164.203765,29.946 165.139765,29.478 C165.319765,29.394 165.457765,29.274 165.553765,29.118 C165.649765,28.962 165.697765,28.788 165.697765,28.596 C165.697765,28.332 165.607765,28.086 165.427765,27.858 C165.211765,27.594 164.947765,27.462 164.635765,27.462 C164.467765,27.462 164.275765,27.51 164.059765,27.606 C163.519765,27.882 162.883765,28.02 162.151765,28.02 C160.915765,28.02 159.916765,27.654 159.154765,26.922 C158.392765,26.19 158.011765,25.116 158.011765,23.7 C158.011765,22.872 158.179765,22.137 158.515765,21.495 C158.851765,20.853 159.331765,20.355 159.955765,20.001 C160.579765,19.647 161.311765,19.47 162.151765,19.47 C162.835765,19.47 163.471765,19.608 164.059765,19.884 C164.263765,19.992 164.467765,20.046 164.671765,20.046 C164.971765,20.046 165.217765,19.92 165.409765,19.668 C165.589765,19.428 165.679765,19.182 165.679765,18.93 C165.679765,18.51 165.493765,18.204 165.121765,18.012 C164.209765,17.544 163.219765,17.31 162.151765,17.31 C160.915765,17.31 159.805765,17.583 158.821765,18.129 C157.837765,18.675 157.066765,19.434 156.508765,20.406 C155.950765,21.378 155.671765,22.476 155.671765,23.7 C155.671765,25.08 155.965765,26.256 156.553765,27.228 C157.141765,28.2 157.927765,28.935 158.911765,29.433 C159.895765,29.931 160.975765,30.18 162.151765,30.18 Z M172.939059,30 C173.239059,30 173.503059,29.895 173.731059,29.685 C173.959059,29.475 174.073059,29.214 174.073059,28.902 L174.073059,28.902 L174.073059,18.498 C174.073059,18.186 173.965059,17.925 173.749059,17.715 C173.533059,17.505 173.275059,17.4 172.975059,17.4 C172.639059,17.4 172.363059,17.505 172.147059,17.715 C171.931059,17.925 171.823059,18.186 171.823059,18.498 L171.823059,18.498 L171.823059,28.902 C171.823059,29.214 171.928059,29.475 172.138059,29.685 C172.348059,29.895 172.615059,30 172.939059,30 Z M189.972353,30.09 C190.236353,30.09 190.470353,29.991 190.674353,29.793 C190.878353,29.595 190.980353,29.34 190.980353,29.028 C190.980353,28.896 190.950353,28.752 190.890353,28.596 L190.890353,28.596 L186.462353,18.048 C186.378353,17.82 186.243353,17.643 186.057353,17.517 C185.871353,17.391 185.670353,17.328 185.454353,17.328 C185.214353,17.304 184.998353,17.358 184.806353,17.49 C184.614353,17.622 184.470353,17.808 184.374353,18.048 L184.374353,18.048 L179.892353,28.812 C179.856353,28.932 179.838353,29.046 179.838353,29.154 C179.838353,29.442 179.919353,29.67 180.081353,29.838 C180.243353,30.006 180.480353,30.09 180.792353,30.09 C180.996353,30.09 181.185353,30.027 181.359353,29.901 C181.533353,29.775 181.662353,29.598 181.746353,29.37 L181.746353,29.37 L182.682353,27.174 L188.046353,27.174 L188.982353,29.352 C189.078353,29.58 189.213353,29.76 189.387353,29.892 C189.561353,30.024 189.756353,30.09 189.972353,30.09 Z M187.164353,25.104 L183.564353,25.104 L185.346353,20.892 L187.164353,25.104 Z M203.693647,30 C204.005647,30 204.266647,29.901 204.476647,29.703 C204.686647,29.505 204.791647,29.256 204.791647,28.956 C204.791647,28.644 204.686647,28.389 204.476647,28.191 C204.266647,27.993 204.005647,27.894 203.693647,27.894 L203.693647,27.894 L198.995647,27.894 L198.995647,18.498 C198.995647,18.186 198.887647,17.925 198.671647,17.715 C198.455647,17.505 198.197647,17.4 197.897647,17.4 C197.561647,17.4 197.285647,17.505 197.069647,17.715 C196.853647,17.925 196.745647,18.186 196.745647,18.498 L196.745647,18.498 L196.745647,28.902 C196.745647,29.214 196.850647,29.475 197.060647,29.685 C197.270647,29.895 197.531647,30 197.843647,30 L197.843647,30 L203.693647,30 Z" id="GETSOCIAL" fill="#DADDFD" fill-rule="nonzero"></path>
                                <circle id="Oval" fill="#54EA41" cx="37.5" cy="23.5" r="7.5"></circle>
                            </g>
                        </g>
                    </g>
                </g>
            </g>
        </g>
    </g>
</svg>