<svg width="166" height="166" viewBox="0 0 166 166" fill="none" xmlns="http://www.w3.org/2000/svg">
<path d="M52.3366 22.3504C50.3571 22.9985 48.1608 23.0426 46.0423 22.3131C40.8727 20.5331 38.1147 14.8797 39.8944 9.71104C41.6731 4.54524 47.3256 1.79254 52.4951 3.57257C57.6619 5.35163 60.4166 11.0007 58.6384 16.1651C57.8515 18.4505 56.3066 20.2625 54.3828 21.421L113.814 143.244C115.906 142.446 118.28 142.347 120.56 143.132C125.727 144.911 128.482 150.56 126.703 155.725C124.924 160.893 119.273 163.651 114.107 161.873C108.938 160.093 106.18 154.439 107.959 149.271C108.69 147.148 110.081 145.442 111.819 144.281L52.3366 22.3504Z" fill="#E6E6E6"/>
</svg>
