<svg width="162" height="162" viewBox="0 0 162 162" fill="none" xmlns="http://www.w3.org/2000/svg">
<path id="Path" d="M130.574 22.2517C132.594 23.4717 135.008 24.0801 137.532 23.8148C143.693 23.1672 148.179 17.629 147.531 11.4695C146.884 5.3133 141.346 0.833791 135.185 1.48131C129.028 2.12847 124.547 7.66276 125.194 13.8173C125.48 16.5408 126.724 18.9349 128.552 20.7042L31.894 140.044C29.787 138.63 27.1917 137.916 24.4745 138.202C18.3172 138.849 13.8363 144.384 14.4831 150.538C15.1305 156.698 20.6662 161.183 26.8218 160.536C32.9825 159.888 37.4681 154.35 36.8207 148.19C36.5549 145.661 35.454 143.423 33.8316 141.698L130.574 22.2517Z" fill="#E6E6E6"/>
</svg>
