<?xml version="1.0" encoding="UTF-8"?>
<svg width="9px" height="12px" viewBox="0 0 9 12" version="1.1" xmlns="http://www.w3.org/2000/svg" xmlns:xlink="http://www.w3.org/1999/xlink">
    <title>Path</title>
    <defs>
        <linearGradient x1="20.6933171%" y1="-3.4674732%" x2="107.716031%" y2="175.428625%" id="linearGradient-1">
            <stop stop-color="#FAD761" offset="0%"></stop>
            <stop stop-color="#F76B1C" offset="100%"></stop>
        </linearGradient>
    </defs>
    <g id="Desktop" stroke="none" stroke-width="1" fill="none" fill-rule="evenodd">
        <g id="Main" transform="translate(-761.000000, -186.000000)" fill="url(#linearGradient-1)" fill-rule="nonzero">
            <g id="noun_Unlock_398993" transform="translate(761.000000, 186.000000)">
                <path d="M8.256,4.992 L2.784,4.992 L2.784,2.832 C2.784,2.016 3.456,1.296 4.32,1.296 C5.184,1.296 5.856,1.968 5.856,2.832 L5.856,3.264 C5.856,3.648 6.144,3.936 6.528,3.936 C6.912,3.936 7.2,3.648 7.2,3.264 L7.2,2.832 C7.2,1.296 5.952,0 4.368,0 C2.784,0 1.536,1.248 1.536,2.832 L1.536,4.992 L0.432,4.992 C0.192,4.992 0,5.184 0,5.424 L0,11.088 C0,11.328 0.192,11.52 0.432,11.52 L8.256,11.52 C8.496,11.52 8.688,11.328 8.688,11.088 L8.688,5.424 C8.688,5.184 8.496,4.992 8.256,4.992 Z" id="Path"></path>
            </g>
        </g>
    </g>
</svg>