<svg width="184" height="75" viewBox="0 0 184 75" fill="none" xmlns="http://www.w3.org/2000/svg">
<path d="M0.266914 1.88368H6.27679L12.1928 17.4092L18.1713 1.88368H24.1186V24.0451H20.3624V5.63985H20.2998L13.57 24.0451H10.8155L4.08569 5.63985H4.02309V24.0451H0.266914V1.88368ZM37.4149 21.9792H37.321C36.7784 22.8348 36.0898 23.4608 35.2551 23.8573C34.4204 24.2329 33.5022 24.4207 32.5006 24.4207C31.8119 24.4207 31.1337 24.3268 30.466 24.139C29.8191 23.9512 29.2348 23.6695 28.7131 23.2939C28.2123 22.9183 27.8053 22.4487 27.4923 21.8853C27.1793 21.3219 27.0228 20.6645 27.0228 19.9133C27.0228 19.0995 27.1689 18.4108 27.461 17.8474C27.7532 17.2631 28.1392 16.7832 28.6192 16.4075C29.12 16.0111 29.6939 15.6981 30.3408 15.4685C30.9877 15.239 31.6554 15.072 32.3441 14.9677C33.0536 14.8425 33.7631 14.7694 34.4726 14.7486C35.1821 14.7068 35.8498 14.686 36.4758 14.686H37.4149V14.2791C37.4149 13.34 37.0914 12.6409 36.4445 12.1819C35.7977 11.7019 34.9734 11.4619 33.9717 11.4619C33.1788 11.4619 32.438 11.608 31.7493 11.9001C31.0607 12.1714 30.466 12.547 29.9651 13.027L27.9932 11.055C28.8279 10.1994 29.7982 9.58383 30.9042 9.20822C32.031 8.8326 33.1892 8.64479 34.3787 8.64479C35.4429 8.64479 36.3402 8.77 37.0706 9.02041C37.8009 9.24995 38.4061 9.55253 38.8861 9.92815C39.366 10.3038 39.7312 10.742 39.9816 11.2428C40.2529 11.7228 40.4407 12.2132 40.545 12.714C40.6702 13.2148 40.7433 13.7052 40.7641 14.1851C40.785 14.6442 40.7954 15.0512 40.7954 15.4059V24.0451H37.4149V21.9792ZM37.1958 17.3153H36.4132C35.8916 17.3153 35.3073 17.3362 34.6604 17.3779C34.0135 17.4196 33.3979 17.524 32.8136 17.6909C32.2502 17.837 31.7702 18.0665 31.3737 18.3795C30.9772 18.6717 30.779 19.089 30.779 19.6316C30.779 19.9863 30.852 20.2889 30.9981 20.5393C31.165 20.7689 31.3737 20.9671 31.6241 21.1341C31.8745 21.301 32.1562 21.4262 32.4693 21.5097C32.7823 21.5723 33.0953 21.6036 33.4083 21.6036C34.7021 21.6036 35.6516 21.301 36.2567 20.6958C36.8828 20.0698 37.1958 19.2247 37.1958 18.1604V17.3153ZM44.0542 9.02041H47.8104V11.3993H47.873C48.2904 10.5229 48.8851 9.84468 49.6572 9.36472C50.4293 8.88477 51.3162 8.64479 52.3178 8.64479C52.5474 8.64479 52.7665 8.66566 52.9751 8.70739C53.2047 8.74913 53.4342 8.8013 53.6638 8.8639V12.4949C53.3508 12.4114 53.0377 12.3488 52.7247 12.3071C52.4326 12.2445 52.1404 12.2132 51.8483 12.2132C50.9718 12.2132 50.2623 12.3801 49.7198 12.714C49.1981 13.027 48.7912 13.3922 48.499 13.8095C48.2278 14.2269 48.0399 14.6442 47.9356 15.0616C47.8521 15.4789 47.8104 15.792 47.8104 16.0006V24.0451H44.0542V9.02041ZM55.4377 0.381205H59.1939V15.2494L64.9846 9.02041H69.805L63.3569 15.8441L70.212 24.0451H65.235L59.2565 16.3762H59.1939V24.0451H55.4377V0.381205ZM74.4724 17.8474C74.5976 18.9743 75.0358 19.8507 75.7871 20.4767C76.5383 21.1028 77.446 21.4158 78.5103 21.4158C79.4493 21.4158 80.2319 21.228 80.8579 20.8524C81.5048 20.4559 82.0682 19.9655 82.5482 19.3812L85.2401 21.4158C84.3636 22.5009 83.3829 23.273 82.2978 23.7321C81.2126 24.1912 80.0753 24.4207 78.8859 24.4207C77.759 24.4207 76.6948 24.2329 75.6931 23.8573C74.6915 23.4817 73.8255 22.9496 73.0951 22.2609C72.3648 21.5723 71.7805 20.748 71.3422 19.7881C70.9249 18.8073 70.7162 17.7222 70.7162 16.5328C70.7162 15.3433 70.9249 14.2686 71.3422 13.3087C71.7805 12.3279 72.3648 11.4932 73.0951 10.8046C73.8255 10.116 74.6915 9.58383 75.6931 9.20822C76.6948 8.8326 77.759 8.64479 78.8859 8.64479C79.9293 8.64479 80.8788 8.8326 81.7343 9.20822C82.6108 9.56297 83.3516 10.0847 83.9567 10.7733C84.5828 11.4619 85.0627 12.3175 85.3966 13.34C85.7513 14.3417 85.9287 15.4998 85.9287 16.8145V17.8474H74.4724ZM82.1725 15.0303C82.1517 13.9243 81.8074 13.0583 81.1396 12.4323C80.4718 11.7854 79.5432 11.4619 78.3538 11.4619C77.2269 11.4619 76.3296 11.7854 75.6618 12.4323C75.0149 13.0792 74.6185 13.9452 74.4724 15.0303H82.1725ZM86.9059 12.2132V9.02041H90.0048V4.66951H93.7609V9.02041H97.8927V12.2132H93.7609V18.7865C93.7609 19.5377 93.8966 20.1324 94.1679 20.5706C94.46 21.0089 95.0234 21.228 95.8581 21.228C96.192 21.228 96.5572 21.1967 96.9537 21.1341C97.3502 21.0506 97.6632 20.9254 97.8927 20.7585V23.9199C97.4962 24.1077 97.0058 24.2329 96.4216 24.2955C95.8581 24.379 95.3573 24.4207 94.9191 24.4207C93.9174 24.4207 93.0932 24.306 92.4463 24.0764C91.8202 23.8677 91.3194 23.5443 90.9438 23.1061C90.5891 22.647 90.3386 22.0835 90.1926 21.4158C90.0674 20.748 90.0048 19.9759 90.0048 19.0995V12.2132H86.9059ZM100.135 9.02041H103.892V24.0451H100.135V9.02041ZM99.6033 3.91827C99.6033 3.31311 99.8224 2.79142 100.261 2.3532C100.72 1.89411 101.294 1.66457 101.982 1.66457C102.671 1.66457 103.245 1.88368 103.704 2.3219C104.184 2.73925 104.424 3.27137 104.424 3.91827C104.424 4.56517 104.184 5.10772 103.704 5.54595C103.245 5.9633 102.671 6.17197 101.982 6.17197C101.294 6.17197 100.72 5.95286 100.261 5.51464C99.8224 5.05556 99.6033 4.52343 99.6033 3.91827ZM107.421 9.02041H110.99V11.4306H111.052C111.407 10.6794 111.95 10.0325 112.68 9.48993C113.41 8.9265 114.402 8.64479 115.654 8.64479C116.655 8.64479 117.5 8.81173 118.189 9.14561C118.899 9.4795 119.472 9.91772 119.911 10.4603C120.349 11.0028 120.662 11.6289 120.85 12.3384C121.037 13.0479 121.131 13.7887 121.131 14.5608V24.0451H117.375V16.4389C117.375 16.0215 117.354 15.5624 117.313 15.0616C117.271 14.5399 117.156 14.0599 116.968 13.6217C116.801 13.1626 116.53 12.787 116.154 12.4949C115.779 12.1819 115.268 12.0253 114.621 12.0253C113.995 12.0253 113.463 12.1297 113.024 12.3384C112.607 12.547 112.252 12.8288 111.96 13.1835C111.689 13.5383 111.491 13.9452 111.365 14.4043C111.24 14.8633 111.177 15.3433 111.177 15.8441V24.0451H107.421V9.02041ZM140.076 9.02041V22.6991C140.076 24.0555 139.909 25.2763 139.575 26.3614C139.241 27.4674 138.719 28.396 138.01 29.1472C137.321 29.9193 136.445 30.5141 135.38 30.9314C134.316 31.3488 133.054 31.5575 131.593 31.5575C130.195 31.5575 128.87 31.3801 127.618 31.0253C126.366 30.6706 125.207 30.0237 124.143 29.0846L126.397 26.0171C127.148 26.7057 127.931 27.2379 128.744 27.6135C129.558 27.9891 130.497 28.1769 131.562 28.1769C132.459 28.1769 133.21 28.0517 133.815 27.8013C134.441 27.5509 134.932 27.2066 135.286 26.7683C135.662 26.3301 135.923 25.798 136.069 25.172C136.236 24.5668 136.319 23.8886 136.319 23.1374V22.0418H136.257C135.714 22.7722 134.994 23.3252 134.097 23.7008C133.2 24.0555 132.282 24.2329 131.342 24.2329C130.216 24.2329 129.193 24.0347 128.275 23.6382C127.357 23.2208 126.564 22.6678 125.896 21.9792C125.249 21.2906 124.748 20.4767 124.394 19.5377C124.039 18.5987 123.861 17.597 123.861 16.5328C123.861 15.4268 124.028 14.3938 124.362 13.4339C124.696 12.474 125.187 11.6393 125.833 10.9298C126.48 10.2203 127.252 9.6673 128.15 9.27082C129.068 8.85347 130.111 8.64479 131.28 8.64479C132.344 8.64479 133.335 8.85347 134.254 9.27082C135.172 9.68817 135.902 10.3559 136.445 11.2741H136.507V9.02041H140.076ZM132.062 12.0253C131.395 12.0253 130.789 12.1401 130.247 12.3697C129.704 12.5783 129.235 12.8809 128.838 13.2774C128.463 13.653 128.16 14.1225 127.931 14.686C127.722 15.2285 127.618 15.8337 127.618 16.5015C127.618 17.1066 127.722 17.67 127.931 18.1917C128.16 18.7134 128.473 19.1725 128.87 19.569C129.266 19.9655 129.736 20.2785 130.278 20.508C130.821 20.7376 131.405 20.8524 132.031 20.8524C132.72 20.8524 133.335 20.7376 133.878 20.508C134.441 20.2785 134.911 19.9759 135.286 19.6003C135.683 19.2038 135.986 18.7343 136.194 18.1917C136.403 17.6492 136.507 17.0649 136.507 16.4389C136.507 15.1242 136.111 14.0599 135.318 13.2461C134.525 12.4323 133.44 12.0253 132.062 12.0253ZM167.864 18.8178L172.654 24.0451H167.802L165.454 21.5097C164.557 22.5739 163.597 23.3565 162.574 23.8573C161.552 24.3581 160.331 24.6085 158.912 24.6085C157.931 24.6085 156.982 24.4625 156.064 24.1703C155.166 23.899 154.374 23.4921 153.685 22.9496C152.996 22.3861 152.443 21.7079 152.026 20.915C151.609 20.1011 151.4 19.1621 151.4 18.0978C151.4 17.3466 151.525 16.658 151.775 16.0319C152.026 15.385 152.36 14.8007 152.777 14.2791C153.215 13.7365 153.727 13.267 154.311 12.8705C154.895 12.4531 155.521 12.1193 156.189 11.8688C155.834 11.4724 155.5 11.0863 155.187 10.7107C154.895 10.3351 154.634 9.94902 154.405 9.55253C154.175 9.15605 153.987 8.72826 153.841 8.26917C153.716 7.81008 153.654 7.30926 153.654 6.7667C153.654 5.86939 153.821 5.07642 154.154 4.38779C154.509 3.69916 154.979 3.13573 155.563 2.69751C156.147 2.23842 156.825 1.89411 157.598 1.66457C158.37 1.43502 159.173 1.32025 160.008 1.32025C160.842 1.32025 161.635 1.42459 162.387 1.63326C163.138 1.84194 163.795 2.16539 164.359 2.60361C164.943 3.02096 165.402 3.56352 165.736 4.23128C166.091 4.89905 166.268 5.68159 166.268 6.57889C166.268 7.26753 166.143 7.90399 165.892 8.48828C165.642 9.05171 165.308 9.5734 164.891 10.0534C164.473 10.5124 163.993 10.9402 163.451 11.3367C162.929 11.7123 162.397 12.0358 161.855 12.3071L165.423 16.1571L167.896 12.401H172.309L167.864 18.8178ZM160.07 4.70081C159.34 4.70081 158.714 4.90948 158.192 5.32683C157.671 5.72332 157.41 6.25544 157.41 6.92321C157.41 7.21536 157.472 7.5075 157.598 7.79965C157.723 8.07093 157.89 8.35264 158.098 8.64479C158.307 8.91607 158.526 9.17691 158.756 9.42733C159.006 9.67774 159.257 9.91772 159.507 10.1473C159.82 9.98032 160.154 9.79251 160.509 9.58383C160.863 9.35429 161.187 9.10388 161.479 8.8326C161.792 8.54045 162.042 8.22744 162.23 7.89355C162.418 7.55967 162.512 7.18406 162.512 6.7667C162.512 6.16154 162.272 5.67115 161.792 5.29553C161.312 4.89905 160.738 4.70081 160.07 4.70081ZM158.568 14.0912C158.192 14.3208 157.827 14.5608 157.472 14.8112C157.118 15.0407 156.794 15.3016 156.502 15.5937C156.21 15.8859 155.97 16.2197 155.782 16.5954C155.615 16.971 155.532 17.3988 155.532 17.8787C155.532 18.3587 155.626 18.8073 155.813 19.2247C156.001 19.642 156.252 19.9968 156.565 20.2889C156.898 20.5811 157.274 20.8106 157.691 20.9776C158.109 21.1445 158.557 21.228 159.037 21.228C159.893 21.228 160.644 20.9984 161.291 20.5393C161.938 20.0803 162.543 19.5794 163.107 19.0369L158.568 14.0912ZM0.266914 44.8837H6.27679L12.1928 60.4092L18.1713 44.8837H24.1186V67.0451H20.3624V48.6399H20.2998L13.57 67.0451H10.8155L4.08569 48.6399H4.02309V67.0451H0.266914V44.8837ZM37.4149 64.9792H37.321C36.7784 65.8348 36.0898 66.4608 35.2551 66.8573C34.4204 67.2329 33.5022 67.4207 32.5006 67.4207C31.8119 67.4207 31.1337 67.3268 30.466 67.139C29.8191 66.9512 29.2348 66.6695 28.7131 66.2939C28.2123 65.9183 27.8053 65.4487 27.4923 64.8853C27.1793 64.3219 27.0228 63.6645 27.0228 62.9133C27.0228 62.0995 27.1689 61.4108 27.461 60.8474C27.7532 60.2631 28.1392 59.7832 28.6192 59.4075C29.12 59.0111 29.6939 58.6981 30.3408 58.4685C30.9877 58.239 31.6554 58.072 32.3441 57.9677C33.0536 57.8425 33.7631 57.7694 34.4726 57.7486C35.1821 57.7068 35.8498 57.686 36.4758 57.686H37.4149V57.2791C37.4149 56.34 37.0914 55.6409 36.4445 55.1819C35.7977 54.7019 34.9734 54.4619 33.9717 54.4619C33.1788 54.4619 32.438 54.608 31.7493 54.9001C31.0607 55.1714 30.466 55.547 29.9651 56.027L27.9932 54.055C28.8279 53.1994 29.7982 52.5838 30.9042 52.2082C32.031 51.8326 33.1892 51.6448 34.3787 51.6448C35.4429 51.6448 36.3402 51.77 37.0706 52.0204C37.8009 52.25 38.4061 52.5525 38.8861 52.9281C39.366 53.3038 39.7312 53.742 39.9816 54.2428C40.2529 54.7228 40.4407 55.2132 40.545 55.714C40.6702 56.2148 40.7433 56.7052 40.7641 57.1851C40.785 57.6442 40.7954 58.0512 40.7954 58.4059V67.0451H37.4149V64.9792ZM37.1958 60.3153H36.4132C35.8916 60.3153 35.3073 60.3362 34.6604 60.3779C34.0135 60.4196 33.3979 60.524 32.8136 60.6909C32.2502 60.837 31.7702 61.0665 31.3737 61.3795C30.9772 61.6717 30.779 62.089 30.779 62.6316C30.779 62.9863 30.852 63.2889 30.9981 63.5393C31.165 63.7689 31.3737 63.9671 31.6241 64.1341C31.8745 64.301 32.1562 64.4262 32.4693 64.5097C32.7823 64.5723 33.0953 64.6036 33.4083 64.6036C34.7021 64.6036 35.6516 64.301 36.2567 63.6958C36.8828 63.0698 37.1958 62.2247 37.1958 61.1604V60.3153ZM44.0542 52.0204H47.6226V54.4306H47.6852C48.0399 53.6794 48.5825 53.0325 49.3129 52.4899C50.0432 51.9265 51.0344 51.6448 52.2865 51.6448C53.2882 51.6448 54.1333 51.8117 54.8219 52.1456C55.5314 52.4795 56.1053 52.9177 56.5435 53.4603C56.9817 54.0028 57.2947 54.6289 57.4825 55.3384C57.6704 56.0479 57.7643 56.7887 57.7643 57.5608V67.0451H54.0081V59.4389C54.0081 59.0215 53.9872 58.5624 53.9455 58.0616C53.9037 57.5399 53.789 57.0599 53.6012 56.6217C53.4342 56.1626 53.1629 55.787 52.7873 55.4949C52.4117 55.1819 51.9005 55.0253 51.2536 55.0253C50.6275 55.0253 50.0954 55.1297 49.6572 55.3384C49.2398 55.547 48.8851 55.8288 48.5929 56.1835C48.3217 56.5383 48.1234 56.9452 47.9982 57.4043C47.873 57.8633 47.8104 58.3433 47.8104 58.8441V67.0451H44.0542V52.0204ZM70.636 64.9792H70.5421C69.9995 65.8348 69.3109 66.4608 68.4762 66.8573C67.6415 67.2329 66.7233 67.4207 65.7217 67.4207C65.033 67.4207 64.3548 67.3268 63.6871 67.139C63.0402 66.9512 62.4559 66.6695 61.9342 66.2939C61.4334 65.9183 61.0265 65.4487 60.7134 64.8853C60.4004 64.3219 60.2439 63.6645 60.2439 62.9133C60.2439 62.0995 60.39 61.4108 60.6821 60.8474C60.9743 60.2631 61.3603 59.7832 61.8403 59.4075C62.3411 59.0111 62.915 58.6981 63.5619 58.4685C64.2088 58.239 64.8765 58.072 65.5652 57.9677C66.2747 57.8425 66.9842 57.7694 67.6937 57.7486C68.4032 57.7068 69.0709 57.686 69.697 57.686H70.636V57.2791C70.636 56.34 70.3126 55.6409 69.6657 55.1819C69.0188 54.7019 68.1945 54.4619 67.1928 54.4619C66.3999 54.4619 65.6591 54.608 64.9704 54.9001C64.2818 55.1714 63.6871 55.547 63.1863 56.027L61.2143 54.055C62.049 53.1994 63.0193 52.5838 64.1253 52.2082C65.2522 51.8326 66.4103 51.6448 67.5998 51.6448C68.664 51.6448 69.5613 51.77 70.2917 52.0204C71.0221 52.25 71.6272 52.5525 72.1072 52.9281C72.5871 53.3038 72.9523 53.742 73.2027 54.2428C73.474 54.7228 73.6618 55.2132 73.7661 55.714C73.8914 56.2148 73.9644 56.7052 73.9853 57.1851C74.0061 57.6442 74.0166 58.0512 74.0166 58.4059V67.0451H70.636V64.9792ZM70.4169 60.3153H69.6344C69.1127 60.3153 68.5284 60.3362 67.8815 60.3779C67.2346 60.4196 66.619 60.524 66.0347 60.6909C65.4713 60.837 64.9913 61.0665 64.5948 61.3795C64.1983 61.6717 64.0001 62.089 64.0001 62.6316C64.0001 62.9863 64.0731 63.2889 64.2192 63.5393C64.3861 63.7689 64.5948 63.9671 64.8452 64.1341C65.0956 64.301 65.3774 64.4262 65.6904 64.5097C66.0034 64.5723 66.3164 64.6036 66.6294 64.6036C67.9232 64.6036 68.8727 64.301 69.4779 63.6958C70.1039 63.0698 70.4169 62.2247 70.4169 61.1604V60.3153ZM92.7383 52.0204V65.6991C92.7383 67.0555 92.5713 68.2763 92.2374 69.3614C91.9035 70.4674 91.3819 71.396 90.6724 72.1472C89.9837 72.9193 89.1073 73.5141 88.043 73.9314C86.9788 74.3488 85.7163 74.5575 84.2556 74.5575C82.8574 74.5575 81.5323 74.3801 80.2803 74.0253C79.0282 73.6706 77.8701 73.0237 76.8058 72.0846L79.0595 69.0171C79.8108 69.7057 80.5933 70.2379 81.4071 70.6135C82.221 70.9891 83.16 71.1769 84.2243 71.1769C85.1216 71.1769 85.8728 71.0517 86.478 70.8013C87.104 70.5509 87.5944 70.2066 87.9491 69.7683C88.3247 69.3301 88.5856 68.798 88.7317 68.172C88.8986 67.5668 88.9821 66.8886 88.9821 66.1374V65.0418H88.9195C88.3769 65.7722 87.657 66.3252 86.7597 66.7008C85.8624 67.0555 84.9442 67.2329 84.0051 67.2329C82.8783 67.2329 81.8558 67.0347 80.9376 66.6382C80.0194 66.2208 79.2265 65.6678 78.5587 64.9792C77.9118 64.2906 77.411 63.4767 77.0562 62.5377C76.7015 61.5987 76.5241 60.597 76.5241 59.5328C76.5241 58.4268 76.691 57.3938 77.0249 56.4339C77.3588 55.474 77.8492 54.6393 78.4961 53.9298C79.143 53.2203 79.9151 52.6673 80.8124 52.2708C81.7306 51.8535 82.774 51.6448 83.9425 51.6448C85.0068 51.6448 85.998 51.8535 86.9162 52.2708C87.8344 52.6882 88.5647 53.3559 89.1073 54.2741H89.1699V52.0204H92.7383ZM84.7251 55.0253C84.0573 55.0253 83.4522 55.1401 82.9096 55.3697C82.367 55.5783 81.8975 55.8809 81.501 56.2774C81.1254 56.653 80.8228 57.1225 80.5933 57.686C80.3846 58.2285 80.2803 58.8337 80.2803 59.5015C80.2803 60.1066 80.3846 60.67 80.5933 61.1917C80.8228 61.7134 81.1358 62.1725 81.5323 62.569C81.9288 62.9655 82.3983 63.2785 82.9409 63.508C83.4835 63.7376 84.0677 63.8524 84.6938 63.8524C85.3824 63.8524 85.998 63.7376 86.5406 63.508C87.104 63.2785 87.5735 62.9759 87.9491 62.6003C88.3456 62.2038 88.6482 61.7343 88.8569 61.1917C89.0655 60.6492 89.1699 60.0649 89.1699 59.4389C89.1699 58.1242 88.7734 57.0599 87.9804 56.2461C87.1875 55.4323 86.1023 55.0253 84.7251 55.0253ZM99.214 60.8474C99.3392 61.9743 99.7774 62.8507 100.529 63.4767C101.28 64.1028 102.188 64.4158 103.252 64.4158C104.191 64.4158 104.973 64.228 105.599 63.8524C106.246 63.4559 106.81 62.9655 107.29 62.3812L109.982 64.4158C109.105 65.5009 108.124 66.273 107.039 66.7321C105.954 67.1912 104.817 67.4207 103.627 67.4207C102.501 67.4207 101.436 67.2329 100.435 66.8573C99.4331 66.4817 98.5671 65.9496 97.8367 65.2609C97.1064 64.5723 96.5221 63.748 96.0838 62.7881C95.6665 61.8073 95.4578 60.7222 95.4578 59.5328C95.4578 58.3433 95.6665 57.2686 96.0838 56.3087C96.5221 55.3279 97.1064 54.4932 97.8367 53.8046C98.5671 53.116 99.4331 52.5838 100.435 52.2082C101.436 51.8326 102.501 51.6448 103.627 51.6448C104.671 51.6448 105.62 51.8326 106.476 52.2082C107.352 52.563 108.093 53.0847 108.698 53.7733C109.324 54.4619 109.804 55.3175 110.138 56.34C110.493 57.3417 110.67 58.4998 110.67 59.8145V60.8474H99.214ZM106.914 58.0303C106.893 56.9243 106.549 56.0583 105.881 55.4323C105.213 54.7854 104.285 54.4619 103.095 54.4619C101.969 54.4619 101.071 54.7854 100.403 55.4323C99.7565 56.0792 99.3601 56.9452 99.214 58.0303H106.914ZM113.244 52.0204H116.812V54.368H116.875C117.209 53.6585 117.741 53.0325 118.471 52.4899C119.222 51.9265 120.224 51.6448 121.476 51.6448C123.834 51.6448 125.399 52.5734 126.171 54.4306C126.714 53.4707 127.392 52.7716 128.206 52.3334C129.02 51.8743 129.99 51.6448 131.117 51.6448C132.119 51.6448 132.964 51.8117 133.652 52.1456C134.341 52.4795 134.894 52.9386 135.311 53.5229C135.75 54.1072 136.063 54.7958 136.25 55.5888C136.438 56.3609 136.532 57.1956 136.532 58.0929V67.0451H132.776V58.5311C132.776 58.072 132.734 57.6338 132.651 57.2164C132.567 56.7782 132.421 56.4026 132.213 56.0896C132.004 55.7557 131.722 55.4949 131.367 55.3071C131.013 55.1193 130.554 55.0253 129.99 55.0253C129.406 55.0253 128.905 55.1401 128.488 55.3697C128.091 55.5783 127.757 55.8705 127.486 56.2461C127.236 56.6009 127.048 57.0182 126.923 57.4982C126.818 57.9572 126.766 58.4268 126.766 58.9067V67.0451H123.01V58.0929C123.01 57.1538 122.812 56.413 122.415 55.8705C122.019 55.3071 121.361 55.0253 120.443 55.0253C119.817 55.0253 119.285 55.1297 118.847 55.3384C118.429 55.547 118.075 55.8288 117.783 56.1835C117.511 56.5383 117.313 56.9452 117.188 57.4043C117.063 57.8633 117 58.3433 117 58.8441V67.0451H113.244V52.0204ZM142.859 60.8474C142.984 61.9743 143.422 62.8507 144.173 63.4767C144.925 64.1028 145.832 64.4158 146.897 64.4158C147.836 64.4158 148.618 64.228 149.244 63.8524C149.891 63.4559 150.455 62.9655 150.934 62.3812L153.626 64.4158C152.75 65.5009 151.769 66.273 150.684 66.7321C149.599 67.1912 148.462 67.4207 147.272 67.4207C146.145 67.4207 145.081 67.2329 144.079 66.8573C143.078 66.4817 142.212 65.9496 141.481 65.2609C140.751 64.5723 140.167 63.748 139.729 62.7881C139.311 61.8073 139.103 60.7222 139.103 59.5328C139.103 58.3433 139.311 57.2686 139.729 56.3087C140.167 55.3279 140.751 54.4932 141.481 53.8046C142.212 53.116 143.078 52.5838 144.079 52.2082C145.081 51.8326 146.145 51.6448 147.272 51.6448C148.316 51.6448 149.265 51.8326 150.121 52.2082C150.997 52.563 151.738 53.0847 152.343 53.7733C152.969 54.4619 153.449 55.3175 153.783 56.34C154.138 57.3417 154.315 58.4998 154.315 59.8145V60.8474H142.859ZM150.559 58.0303C150.538 56.9243 150.194 56.0583 149.526 55.4323C148.858 54.7854 147.93 54.4619 146.74 54.4619C145.613 54.4619 144.716 54.7854 144.048 55.4323C143.401 56.0792 143.005 56.9452 142.859 58.0303H150.559ZM157.045 52.0204H160.613V54.4306H160.676C161.031 53.6794 161.573 53.0325 162.304 52.4899C163.034 51.9265 164.025 51.6448 165.277 51.6448C166.279 51.6448 167.124 51.8117 167.813 52.1456C168.522 52.4795 169.096 52.9177 169.534 53.4603C169.973 54.0028 170.286 54.6289 170.473 55.3384C170.661 56.0479 170.755 56.7887 170.755 57.5608V67.0451H166.999V59.4389C166.999 59.0215 166.978 58.5624 166.936 58.0616C166.895 57.5399 166.78 57.0599 166.592 56.6217C166.425 56.1626 166.154 55.787 165.778 55.4949C165.403 55.1819 164.891 55.0253 164.244 55.0253C163.618 55.0253 163.086 55.1297 162.648 55.3384C162.231 55.547 161.876 55.8288 161.584 56.1835C161.313 56.5383 161.114 56.9452 160.989 57.4043C160.864 57.8633 160.801 58.3433 160.801 58.8441V67.0451H157.045V52.0204ZM172.484 55.2132V52.0204H175.582V47.6695H179.339V52.0204H183.47V55.2132H179.339V61.7865C179.339 62.5377 179.474 63.1324 179.746 63.5706C180.038 64.0089 180.601 64.228 181.436 64.228C181.77 64.228 182.135 64.1967 182.531 64.1341C182.928 64.0506 183.241 63.9254 183.47 63.7585V66.9199C183.074 67.1077 182.584 67.2329 181.999 67.2955C181.436 67.379 180.935 67.4207 180.497 67.4207C179.495 67.4207 178.671 67.306 178.024 67.0764C177.398 66.8677 176.897 66.5443 176.521 66.1061C176.167 65.647 175.916 65.0835 175.77 64.4158C175.645 63.748 175.582 62.9759 175.582 62.0995V55.2132H172.484Z" fill="white"/>
</svg>
