<svg width="52" height="56" viewBox="0 0 52 56" fill="none" xmlns="http://www.w3.org/2000/svg">
<path d="M45.8077 0.864502H43.4547C42.4203 0.864502 42.4203 2.46366 43.4547 2.46366H45.8077C48.2378 2.46366 50.2149 4.42807 50.2149 6.84259V25.3472C50.2149 27.7619 48.2379 29.7263 45.8077 29.7263H43.139C42.9629 29.7263 42.7917 29.7841 42.6518 29.8908L37.7547 33.6262V30.5259C37.7547 30.0843 37.3958 29.7263 36.9528 29.7263H27.1941C26.395 29.7263 25.6269 29.5159 24.9495 29.116V20.1403C24.9495 18.459 24.0908 16.9736 22.7869 16.0948V6.84259C22.7869 4.42807 24.764 2.46366 27.1941 2.46366H38.4299C39.4641 2.46366 39.4641 0.864502 38.4299 0.864502H27.1941C23.8797 0.864502 21.1832 3.5463 21.1832 6.84259V15.392C20.8161 15.3046 20.4336 15.257 20.0399 15.257H5.36166C2.6546 15.257 0.452148 17.4476 0.452148 20.1403V21.8668C0.452148 22.8982 2.05579 22.8982 2.05579 21.8668V20.1403C2.05579 18.3294 3.53874 16.8561 5.36166 16.8561H20.04C21.863 16.8561 23.346 18.3294 23.346 20.1403V29.4344C23.3364 29.505 23.3368 29.5761 23.346 29.6461V34.7327C23.346 34.8333 23.3399 34.9334 23.3308 35.0329H21.6773C19.8552 35.0329 18.3362 36.3444 18.0213 38.0679C17.9484 38.0953 17.8783 38.1336 17.8134 38.1835L14.2271 40.9448V38.8164C14.2271 38.3749 13.8682 38.0169 13.4253 38.0169H5.36166C3.53874 38.0169 2.05579 36.5436 2.05579 34.7327V26.6643C2.05579 25.633 0.452148 25.633 0.452148 26.6643V34.7328C0.452148 37.4255 2.6546 39.6161 5.36166 39.6161H12.6236V42.5725C12.6236 43.2138 13.4046 43.5986 13.9155 43.2054L17.9604 40.091V49.0863C17.9604 51.1252 19.6279 52.7838 21.6774 52.7838H26.5979V54.6496C26.5979 55.2908 27.3789 55.676 27.8897 55.2826L31.135 52.7838H32.0938C34.1432 52.7838 35.8107 51.1251 35.8107 49.0863V47.6666C35.8107 46.6353 34.2071 46.6353 34.2071 47.6666V49.0863C34.2071 50.2434 33.2591 51.1847 32.0938 51.1847H30.8614C30.6841 51.1847 30.5117 51.2433 30.3715 51.3513L28.2014 53.022V51.9842C28.2014 51.5426 27.8425 51.1846 27.3996 51.1846H21.6773C20.512 51.1846 19.564 50.2432 19.564 49.0862V38.7306C19.564 37.5735 20.5119 36.6322 21.6773 36.6322H32.0938C33.259 36.6322 34.2071 37.5736 34.2071 38.7306V42.6559C34.2071 43.6873 35.8107 43.6873 35.8107 42.6559V38.7307C35.8107 36.6918 34.1432 35.0331 32.0938 35.0331H24.9405C24.9466 34.9333 24.9497 30.8947 24.9497 30.8947C25.6567 31.1782 26.4146 31.3255 27.1942 31.3255H36.1511V35.2446C36.1511 35.8843 36.9288 36.2695 37.4401 35.8796L43.4106 31.3255H45.8078C49.1222 31.3255 51.8186 28.6438 51.8186 25.3473V6.84259C51.8185 3.5463 49.1221 0.864502 45.8077 0.864502Z" fill="url(#paint0_linear)"/>
<path fill-rule="evenodd" clip-rule="evenodd" d="M38.9745 5.77775C37.956 5.50866 36.9181 6.34149 36.9181 7.43068C36.9181 8.6207 36.4991 9.76756 35.7388 10.6594L33.5287 13.2476C33.3856 13.0204 33.1384 12.87 32.8568 12.87H28.5424C28.0993 12.87 27.7402 13.2417 27.7402 13.7001V23.7469C27.7402 24.2054 28.0993 24.5771 28.5424 24.5771H32.8568C33.1809 24.5771 33.4594 24.3777 33.586 24.0915C34.4594 24.6438 35.4716 24.9425 36.5014 24.9425H44.1262C45.2913 24.9425 46.2525 23.8961 46.1978 22.6934C46.1765 22.2262 46.1943 16.6669 46.199 15.2001L46.199 15.1991L46.2001 14.8499C46.2001 13.6664 45.2697 12.7034 44.1285 12.7034L40.1635 12.6911L40.3277 12.2887C41.078 10.4499 40.9544 8.31752 39.9977 6.58446C39.7743 6.17955 39.4108 5.8932 38.9745 5.77775ZM32.0552 22.917H29.3451V14.5306H32.0552V22.917ZM44.5949 14.8501C44.5949 14.582 44.3842 14.3639 44.1251 14.3639L38.9522 14.3479C38.6839 14.347 38.4336 14.2073 38.2855 13.9755C38.1376 13.7437 38.1113 13.4507 38.2158 13.1947L38.8488 11.643C39.4057 10.2778 39.3142 8.69485 38.6038 7.4083C38.5833 7.37178 38.5213 7.38395 38.5213 7.43088C38.5213 9.02581 37.9598 10.5627 36.9403 11.7586L33.6579 15.6028V22.0816L33.9955 22.3645C34.702 22.9563 35.5915 23.2823 36.5004 23.2823H44.1251C44.2548 23.2823 44.3755 23.2289 44.4651 23.1317C44.5169 23.0754 44.6026 22.9539 44.5942 22.7716C44.5713 22.2664 44.5793 19.2271 44.5911 16.018L44.5914 15.9437C44.5934 15.4003 44.5949 15.0012 44.5949 14.8501Z" fill="url(#paint1_linear)"/>
<path fill-rule="evenodd" clip-rule="evenodd" d="M6.87305 29.198C6.87305 28.7383 7.24564 28.3656 7.70548 28.3656H10.4345L10.7703 26.335H7.70548C7.24564 26.335 6.87305 25.9623 6.87305 25.5026C6.87305 25.0429 7.24564 24.6702 7.70548 24.6702H11.0455L11.5488 21.6264C11.6239 21.1729 12.0512 20.8657 12.5058 20.9409C12.9593 21.0159 13.2663 21.4445 13.1913 21.8979L12.7329 24.6703H14.7411L15.2443 21.6265C15.3193 21.173 15.7473 20.8658 16.2014 20.941C16.6549 21.016 16.9619 21.4446 16.8868 21.8981L16.4285 24.6704H18.8822C19.3421 24.6704 19.7147 25.0431 19.7147 25.5028C19.7147 25.9625 19.3421 26.3352 18.8822 26.3352H16.1532L15.8175 28.3658H18.8822C19.3421 28.3658 19.7147 28.7385 19.7147 29.1982C19.7147 29.6579 19.3421 30.0306 18.8822 30.0306H15.5422L15.039 33.0744C14.9715 33.4821 14.6186 33.7712 14.2186 33.7712C14.1736 33.7712 14.128 33.7675 14.0819 33.7599C13.6284 33.6848 13.3214 33.2563 13.3964 32.8028L13.8548 30.0305H11.8467L11.3434 33.0743C11.2759 33.482 10.9231 33.7711 10.5231 33.7711C10.478 33.7711 10.4324 33.7674 10.3863 33.7598C9.93284 33.6847 9.62584 33.2562 9.70087 32.8027L10.1593 30.0304H7.70548C7.24564 30.0304 6.87305 29.6577 6.87305 29.198ZM14.4669 26.3349H12.4588L12.123 28.3655H14.1312L14.4669 26.3349Z" fill="url(#paint2_linear)"/>
<path fill-rule="evenodd" clip-rule="evenodd" d="M24.4483 40.2716C25.3514 40.0635 26.2518 40.2718 26.9285 40.7997C27.5729 40.2989 28.4459 40.0979 29.3463 40.2873C30.5449 40.5392 31.7543 41.5539 31.7543 43.253C31.7543 45.4529 29.9862 46.7918 27.3313 48.1255C27.2085 48.1872 27.0736 48.218 26.9387 48.218C26.8038 48.218 26.669 48.1872 26.5461 48.1255C25.0244 47.361 24.0421 46.7191 23.3614 46.044C22.5281 45.2177 22.123 44.3047 22.123 43.253C22.123 41.5631 23.2909 40.5379 24.4483 40.2716ZM26.9382 46.5212C29.2469 45.317 30.0775 44.4395 30.0775 43.2529C30.0775 42.3792 29.5121 41.949 28.9826 41.8379C28.5392 41.7446 27.9688 41.8415 27.6976 42.3924C27.5625 42.6668 27.2743 42.8445 26.9548 42.8505C26.6367 42.8568 26.3401 42.6899 26.1934 42.4207C25.9359 41.9477 25.5183 41.7815 25.1385 41.7815C25.036 41.7815 24.9363 41.7936 24.8433 41.815C24.3383 41.9312 23.7987 42.37 23.7987 43.2529C23.7987 44.4394 24.6295 45.3169 26.9382 46.5212Z" fill="url(#paint3_linear)"/>
<defs>
<linearGradient id="paint0_linear" x1="90.8942" y1="64.7388" x2="40.7847" y2="-15.6433" gradientUnits="userSpaceOnUse">
<stop stop-color="#454CE0"/>
<stop offset="1" stop-color="#0D7CDE"/>
</linearGradient>
<linearGradient id="paint1_linear" x1="60.2429" y1="28.2159" x2="42.7615" y2="-0.407063" gradientUnits="userSpaceOnUse">
<stop stop-color="#454CE0"/>
<stop offset="1" stop-color="#0D7CDE"/>
</linearGradient>
<linearGradient id="paint2_linear" x1="29.4836" y1="35.9588" x2="18.0203" y2="16.421" gradientUnits="userSpaceOnUse">
<stop stop-color="#454CE0"/>
<stop offset="1" stop-color="#0D7CDE"/>
</linearGradient>
<linearGradient id="paint3_linear" x1="39.0809" y1="49.5853" x2="32.6037" y2="36.3376" gradientUnits="userSpaceOnUse">
<stop stop-color="#454CE0"/>
<stop offset="1" stop-color="#0D7CDE"/>
</linearGradient>
</defs>
</svg>
