<svg width="185" height="27" viewBox="0 0 185 27" fill="none" xmlns="http://www.w3.org/2000/svg">
<path d="M4.98787 8.79419C4.17724 8.79419 3.47095 8.62163 2.869 8.27651C2.26705 7.92337 1.80555 7.42174 1.48451 6.77163C1.16347 6.1135 1.00295 5.33899 1.00295 4.4481C1.00295 3.56524 1.16347 2.79876 1.48451 2.14865C1.80555 1.49052 2.26705 0.98889 2.869 0.643772C3.47095 0.290627 4.17724 0.114054 4.98787 0.114054C5.51758 0.114054 6.01921 0.198328 6.49274 0.366874C6.96628 0.527394 7.37962 0.764162 7.73276 1.07718C7.88526 1.19757 7.9615 1.35809 7.9615 1.55874C7.9615 1.7032 7.92137 1.82761 7.84111 1.93195C7.76085 2.02826 7.66454 2.07642 7.55218 2.07642C7.41574 2.07642 7.28331 2.02425 7.15489 1.91991C6.76964 1.63097 6.4165 1.43032 6.09546 1.31796C5.78244 1.19757 5.42528 1.13737 5.02398 1.13737C4.14112 1.13737 3.46292 1.42229 2.98939 1.99214C2.51585 2.56199 2.27909 3.38064 2.27909 4.4481C2.27909 5.52359 2.51585 6.34625 2.98939 6.9161C3.46292 7.48595 4.14112 7.77087 5.02398 7.77087C5.40923 7.77087 5.75836 7.71068 6.07138 7.59029C6.39242 7.4699 6.75359 7.26925 7.15489 6.98834C7.31541 6.884 7.44784 6.83183 7.55218 6.83183C7.66454 6.83183 7.76085 6.884 7.84111 6.98834C7.92137 7.08465 7.9615 7.20504 7.9615 7.34951C7.9615 7.55016 7.88526 7.71068 7.73276 7.83107C7.37962 8.14408 6.96628 8.38486 6.49274 8.55341C6.01921 8.71393 5.51758 8.79419 4.98787 8.79419ZM11.7296 8.78215C11.1518 8.78215 10.6421 8.65775 10.2007 8.40894C9.76726 8.16013 9.43017 7.80699 9.18939 7.34951C8.95664 6.884 8.84026 6.34625 8.84026 5.73628C8.84026 5.11827 8.95664 4.58053 9.18939 4.12305C9.43017 3.65754 9.76726 3.30038 10.2007 3.05158C10.6421 2.80277 11.1518 2.67837 11.7296 2.67837C12.3075 2.67837 12.8131 2.80277 13.2465 3.05158C13.688 3.30038 14.0251 3.65754 14.2578 4.12305C14.4986 4.58053 14.619 5.11827 14.619 5.73628C14.619 6.34625 14.4986 6.884 14.2578 7.34951C14.0251 7.80699 13.688 8.16013 13.2465 8.40894C12.8131 8.65775 12.3075 8.78215 11.7296 8.78215ZM11.7296 7.81903C12.2674 7.81903 12.6767 7.64246 12.9576 7.28931C13.2465 6.93617 13.391 6.41849 13.391 5.73628C13.391 5.06209 13.2465 4.54843 12.9576 4.19528C12.6687 3.83411 12.2593 3.65353 11.7296 3.65353C11.1999 3.65353 10.7906 3.83411 10.5016 4.19528C10.2127 4.54843 10.0682 5.06209 10.0682 5.73628C10.0682 6.41849 10.2087 6.93617 10.4896 7.28931C10.7785 7.64246 11.1919 7.81903 11.7296 7.81903ZM19.1391 2.67837C20.5436 2.67837 21.2459 3.46893 21.2459 5.05005V8.1802C21.2459 8.3648 21.1897 8.50926 21.0774 8.6136C20.973 8.70991 20.8245 8.75807 20.6319 8.75807C20.4473 8.75807 20.2988 8.7059 20.1865 8.60156C20.0821 8.49723 20.03 8.35677 20.03 8.1802V5.11025C20.03 4.61264 19.9296 4.24745 19.729 4.0147C19.5364 3.78194 19.2314 3.66557 18.814 3.66557C18.3244 3.66557 17.9312 3.81806 17.6342 4.12305C17.3372 4.42804 17.1888 4.83736 17.1888 5.35103V8.1802C17.1888 8.35677 17.1326 8.49723 17.0202 8.60156C16.9159 8.7059 16.7714 8.75807 16.5868 8.75807C16.4022 8.75807 16.2537 8.7059 16.1414 8.60156C16.029 8.49723 15.9728 8.35677 15.9728 8.1802V3.28032C15.9728 3.11177 16.029 2.97533 16.1414 2.87099C16.2617 2.75863 16.4102 2.70244 16.5868 2.70244C16.7634 2.70244 16.9038 2.75461 17.0082 2.85895C17.1125 2.96329 17.1647 3.09973 17.1647 3.26828V3.76188C17.3573 3.40873 17.6262 3.13986 17.9713 2.95526C18.3164 2.77067 18.7057 2.67837 19.1391 2.67837ZM26.0756 2.67837C27.4802 2.67837 28.1824 3.46893 28.1824 5.05005V8.1802C28.1824 8.3648 28.1263 8.50926 28.0139 8.6136C27.9096 8.70991 27.7611 8.75807 27.5685 8.75807C27.3839 8.75807 27.2354 8.7059 27.123 8.60156C27.0187 8.49723 26.9665 8.35677 26.9665 8.1802V5.11025C26.9665 4.61264 26.8662 4.24745 26.6655 4.0147C26.4729 3.78194 26.1679 3.66557 25.7506 3.66557C25.261 3.66557 24.8677 3.81806 24.5707 4.12305C24.2738 4.42804 24.1253 4.83736 24.1253 5.35103V8.1802C24.1253 8.35677 24.0691 8.49723 23.9568 8.60156C23.8524 8.7059 23.7079 8.75807 23.5233 8.75807C23.3387 8.75807 23.1903 8.7059 23.0779 8.60156C22.9655 8.49723 22.9094 8.35677 22.9094 8.1802V3.28032C22.9094 3.11177 22.9655 2.97533 23.0779 2.87099C23.1983 2.75863 23.3468 2.70244 23.5233 2.70244C23.6999 2.70244 23.8404 2.75461 23.9447 2.85895C24.0491 2.96329 24.1012 3.09973 24.1012 3.26828V3.76188C24.2938 3.40873 24.5627 3.13986 24.9078 2.95526C25.253 2.77067 25.6422 2.67837 26.0756 2.67837ZM34.4448 7.21708C34.5572 7.21708 34.6495 7.26122 34.7217 7.34951C34.7939 7.43779 34.8301 7.55016 34.8301 7.6866C34.8301 7.91935 34.6856 8.11599 34.3967 8.27651C34.1157 8.43703 33.8067 8.56143 33.4696 8.64972C33.1406 8.73801 32.8236 8.78215 32.5186 8.78215C31.5875 8.78215 30.8532 8.51328 30.3154 7.97553C29.7777 7.42977 29.5088 6.68736 29.5088 5.74832C29.5088 5.14636 29.6252 4.61264 29.8579 4.14713C30.0987 3.68162 30.4318 3.32045 30.8572 3.06361C31.2906 2.80678 31.7802 2.67837 32.3259 2.67837C33.1125 2.67837 33.7345 2.93119 34.192 3.43682C34.6495 3.94246 34.8782 4.62467 34.8782 5.48346C34.8782 5.8045 34.7337 5.96502 34.4448 5.96502H30.7247C30.805 7.20905 31.4029 7.83107 32.5186 7.83107C32.8155 7.83107 33.0724 7.79094 33.2891 7.71068C33.5058 7.63042 33.7345 7.52608 33.9753 7.39766C33.9994 7.38161 34.0636 7.34951 34.1679 7.30135C34.2803 7.24517 34.3726 7.21708 34.4448 7.21708ZM32.35 3.56925C31.8845 3.56925 31.5113 3.71773 31.2304 4.0147C30.9495 4.31166 30.7809 4.72901 30.7247 5.26676H33.8308C33.8067 4.72099 33.6663 4.30363 33.4095 4.0147C33.1606 3.71773 32.8075 3.56925 32.35 3.56925ZM38.7343 8.78215C38.1644 8.78215 37.6628 8.65775 37.2294 8.40894C36.804 8.16013 36.4709 7.80699 36.2302 7.34951C35.9974 6.89202 35.881 6.36231 35.881 5.76035C35.881 5.15038 36.0014 4.61264 36.2422 4.14713C36.491 3.68162 36.8361 3.32045 37.2776 3.06361C37.719 2.80678 38.2246 2.67837 38.7945 2.67837C39.0995 2.67837 39.4044 2.72251 39.7094 2.8108C40.0224 2.89908 40.2993 3.01947 40.5401 3.17197C40.797 3.34854 40.9254 3.5532 40.9254 3.78596C40.9254 3.9224 40.8893 4.03878 40.817 4.13509C40.7448 4.22337 40.6525 4.26752 40.5401 4.26752C40.4679 4.26752 40.3957 4.25146 40.3234 4.21936C40.2512 4.17923 40.1589 4.12305 40.0465 4.05081C39.8459 3.9224 39.6573 3.82609 39.4807 3.76188C39.3121 3.68964 39.1075 3.65353 38.8667 3.65353C38.3209 3.65353 37.8956 3.83812 37.5906 4.20732C37.2936 4.57652 37.1451 5.09018 37.1451 5.74832C37.1451 6.40645 37.2936 6.9161 37.5906 7.27727C37.8875 7.63042 38.3089 7.80699 38.8547 7.80699C39.0954 7.80699 39.3081 7.77087 39.4927 7.69864C39.6773 7.6264 39.8659 7.53009 40.0586 7.4097C40.1469 7.35352 40.2351 7.30536 40.3234 7.26523C40.4117 7.2251 40.492 7.20504 40.5642 7.20504C40.6766 7.20504 40.7689 7.25319 40.8411 7.34951C40.9133 7.43779 40.9495 7.55016 40.9495 7.6866C40.9495 7.79896 40.9173 7.9033 40.8531 7.99961C40.797 8.0879 40.6966 8.1802 40.5522 8.27651C40.3114 8.43703 40.0305 8.56143 39.7094 8.64972C39.3884 8.73801 39.0633 8.78215 38.7343 8.78215ZM44.9386 7.83107C45.1152 7.84712 45.2396 7.89527 45.3118 7.97553C45.3921 8.04777 45.4322 8.15211 45.4322 8.28855C45.4322 8.44907 45.368 8.57347 45.2396 8.66176C45.1192 8.74202 44.9386 8.77412 44.6978 8.75807L44.3728 8.73399C43.7227 8.68584 43.2371 8.4892 42.916 8.14408C42.595 7.79094 42.4345 7.27326 42.4345 6.59105V3.76188H41.7121C41.359 3.76188 41.1824 3.60537 41.1824 3.29236C41.1824 3.14789 41.2266 3.03552 41.3149 2.95526C41.4112 2.86698 41.5436 2.82283 41.7121 2.82283H42.4345V1.58282C42.4345 1.39822 42.4867 1.25375 42.591 1.14941C42.7034 1.04507 42.8518 0.992903 43.0364 0.992903C43.221 0.992903 43.3695 1.04507 43.4819 1.14941C43.5942 1.25375 43.6504 1.39822 43.6504 1.58282V2.82283H44.8423C45.0108 2.82283 45.1393 2.86698 45.2275 2.95526C45.3238 3.03552 45.372 3.14789 45.372 3.29236C45.372 3.44485 45.3238 3.56123 45.2275 3.64149C45.1393 3.72175 45.0108 3.76188 44.8423 3.76188H43.6504V6.67532C43.6504 7.05254 43.7267 7.32944 43.8792 7.50601C44.0397 7.68259 44.2805 7.78291 44.6015 7.80699L44.9386 7.83107ZM53.6574 3.06361C53.7055 2.94322 53.7738 2.85494 53.8621 2.79876C53.9584 2.74257 54.0587 2.71448 54.163 2.71448C54.3155 2.71448 54.448 2.76665 54.5603 2.87099C54.6807 2.97533 54.7409 3.09973 54.7409 3.2442C54.7409 3.32446 54.7249 3.40071 54.6927 3.47294L51.3459 10.576C51.2977 10.6883 51.2255 10.7726 51.1292 10.8288C51.0409 10.893 50.9446 10.9251 50.8403 10.9251C50.6958 10.9251 50.5634 10.8769 50.443 10.7806C50.3306 10.6843 50.2744 10.5639 50.2744 10.4195C50.2744 10.3552 50.2945 10.275 50.3346 10.1787L51.1653 8.40894L48.8418 3.47294C48.8097 3.40873 48.7936 3.3365 48.7936 3.25624C48.7936 3.10374 48.8578 2.97533 48.9863 2.87099C49.1147 2.76665 49.2591 2.71448 49.4197 2.71448C49.6604 2.71448 49.833 2.82685 49.9373 3.05158L51.8034 7.193L53.6574 3.06361ZM58.2045 8.78215C57.6266 8.78215 57.1169 8.65775 56.6755 8.40894C56.2421 8.16013 55.905 7.80699 55.6642 7.34951C55.4315 6.884 55.3151 6.34625 55.3151 5.73628C55.3151 5.11827 55.4315 4.58053 55.6642 4.12305C55.905 3.65754 56.2421 3.30038 56.6755 3.05158C57.1169 2.80277 57.6266 2.67837 58.2045 2.67837C58.7823 2.67837 59.288 2.80277 59.7214 3.05158C60.1628 3.30038 60.4999 3.65754 60.7327 4.12305C60.9734 4.58053 61.0938 5.11827 61.0938 5.73628C61.0938 6.34625 60.9734 6.884 60.7327 7.34951C60.4999 7.80699 60.1628 8.16013 59.7214 8.40894C59.288 8.65775 58.7823 8.78215 58.2045 8.78215ZM58.2045 7.81903C58.7422 7.81903 59.1515 7.64246 59.4325 7.28931C59.7214 6.93617 59.8659 6.41849 59.8659 5.73628C59.8659 5.06209 59.7214 4.54843 59.4325 4.19528C59.1435 3.83411 58.7342 3.65353 58.2045 3.65353C57.6748 3.65353 57.2654 3.83411 56.9765 4.19528C56.6876 4.54843 56.5431 5.06209 56.5431 5.73628C56.5431 6.41849 56.6835 6.93617 56.9645 7.28931C57.2534 7.64246 57.6667 7.81903 58.2045 7.81903ZM66.9984 2.70244C67.183 2.70244 67.3275 2.75461 67.4318 2.85895C67.5442 2.96329 67.6004 3.10776 67.6004 3.29236V8.19224C67.6004 8.36078 67.5442 8.49723 67.4318 8.60156C67.3195 8.7059 67.171 8.75807 66.9864 8.75807C66.8178 8.75807 66.6814 8.70991 66.577 8.6136C66.4727 8.50926 66.4205 8.37282 66.4205 8.20428V7.74679C66.2359 8.08389 65.9791 8.34072 65.65 8.51729C65.329 8.69386 64.9678 8.78215 64.5665 8.78215C63.1379 8.78215 62.4236 7.9956 62.4236 6.4225V3.29236C62.4236 3.10776 62.4758 2.96329 62.5801 2.85895C62.6925 2.75461 62.8449 2.70244 63.0376 2.70244C63.2222 2.70244 63.3666 2.75461 63.471 2.85895C63.5833 2.96329 63.6395 3.10776 63.6395 3.29236V6.41046C63.6395 6.884 63.7358 7.23313 63.9285 7.45786C64.1211 7.68259 64.418 7.79495 64.8193 7.79495C65.2929 7.79495 65.6701 7.64246 65.951 7.33747C66.24 7.03248 66.3844 6.62716 66.3844 6.12153V3.29236C66.3844 3.11578 66.4406 2.97533 66.553 2.87099C66.6653 2.75863 66.8138 2.70244 66.9984 2.70244ZM72.3839 2.70244C72.7691 2.67837 72.9618 2.8429 72.9618 3.19604C72.9618 3.37262 72.9176 3.50505 72.8293 3.59333C72.7411 3.68162 72.5886 3.73379 72.3719 3.74984L72.0107 3.78596C71.505 3.83411 71.1278 4.01068 70.879 4.31567C70.6382 4.62066 70.5178 4.98986 70.5178 5.42326V8.1802C70.5178 8.37282 70.4617 8.51729 70.3493 8.6136C70.2369 8.70991 70.0925 8.75807 69.9159 8.75807C69.7393 8.75807 69.5908 8.70991 69.4705 8.6136C69.3581 8.51729 69.3019 8.37282 69.3019 8.1802V3.28032C69.3019 3.09572 69.3581 2.95526 69.4705 2.85895C69.5908 2.75461 69.7393 2.70244 69.9159 2.70244C70.0764 2.70244 70.2088 2.75461 70.3132 2.85895C70.4255 2.95526 70.4817 3.09171 70.4817 3.26828V3.84615C70.6423 3.49301 70.875 3.22413 71.18 3.03954C71.485 2.85494 71.8301 2.74659 72.2153 2.71448L72.3839 2.70244ZM80.0393 2.67837C80.553 2.67837 81.0064 2.80277 81.3997 3.05158C81.793 3.30038 82.098 3.65353 82.3147 4.11101C82.5394 4.56849 82.6518 5.10222 82.6518 5.7122C82.6518 6.31415 82.5394 6.84788 82.3147 7.31339C82.098 7.7789 81.789 8.14007 81.3877 8.3969C80.9944 8.65373 80.5449 8.78215 80.0393 8.78215C79.5979 8.78215 79.2086 8.68985 78.8715 8.50525C78.5344 8.31263 78.2776 8.03974 78.101 7.6866V8.16816C78.101 8.34473 78.0448 8.4892 77.9325 8.60156C77.8281 8.7059 77.6837 8.75807 77.4991 8.75807C77.3145 8.75807 77.166 8.7059 77.0536 8.60156C76.9413 8.4892 76.8851 8.34473 76.8851 8.16816V0.728044C76.8851 0.551472 76.9413 0.411017 77.0536 0.306679C77.174 0.202341 77.3265 0.150172 77.5111 0.150172C77.6877 0.150172 77.8281 0.202341 77.9325 0.306679C78.0448 0.402991 78.101 0.53542 78.101 0.703967V3.78596C78.2776 3.43281 78.5344 3.15993 78.8715 2.9673C79.2086 2.77468 79.5979 2.67837 80.0393 2.67837ZM79.7504 7.81903C80.2721 7.81903 80.6774 7.63443 80.9663 7.26523C81.2633 6.89604 81.4118 6.37836 81.4118 5.7122C81.4118 5.05407 81.2673 4.54843 80.9783 4.19528C80.6894 3.83411 80.2801 3.65353 79.7504 3.65353C79.2207 3.65353 78.8113 3.83411 78.5224 4.19528C78.2415 4.55645 78.101 5.07012 78.101 5.73628C78.101 6.40244 78.2415 6.9161 78.5224 7.27727C78.8113 7.63844 79.2207 7.81903 79.7504 7.81903ZM87.08 2.70244C87.4652 2.67837 87.6578 2.8429 87.6578 3.19604C87.6578 3.37262 87.6137 3.50505 87.5254 3.59333C87.4371 3.68162 87.2846 3.73379 87.0679 3.74984L86.7068 3.78596C86.2011 3.83411 85.8239 4.01068 85.5751 4.31567C85.3343 4.62066 85.2139 4.98986 85.2139 5.42326V8.1802C85.2139 8.37282 85.1577 8.51729 85.0454 8.6136C84.933 8.70991 84.7885 8.75807 84.612 8.75807C84.4354 8.75807 84.2869 8.70991 84.1665 8.6136C84.0542 8.51729 83.998 8.37282 83.998 8.1802V3.28032C83.998 3.09572 84.0542 2.95526 84.1665 2.85895C84.2869 2.75461 84.4354 2.70244 84.612 2.70244C84.7725 2.70244 84.9049 2.75461 85.0093 2.85895C85.1216 2.95526 85.1778 3.09171 85.1778 3.26828V3.84615C85.3383 3.49301 85.5711 3.22413 85.8761 3.03954C86.181 2.85494 86.5262 2.74659 86.9114 2.71448L87.08 2.70244ZM90.8395 2.67837C91.618 2.67837 92.1959 2.875 92.5731 3.26828C92.9584 3.66155 93.151 4.25949 93.151 5.06209V8.1802C93.151 8.3648 93.0988 8.50926 92.9945 8.6136C92.8902 8.70991 92.7457 8.75807 92.5611 8.75807C92.3845 8.75807 92.2441 8.7059 92.1397 8.60156C92.0354 8.49723 91.9832 8.35677 91.9832 8.1802V7.73475C91.8307 8.07185 91.602 8.33269 91.297 8.51729C91 8.69386 90.6509 8.78215 90.2496 8.78215C89.8644 8.78215 89.5112 8.7059 89.1902 8.55341C88.8691 8.39289 88.6163 8.17217 88.4317 7.89126C88.2551 7.61035 88.1669 7.29734 88.1669 6.95222C88.1669 6.52684 88.2752 6.19376 88.4919 5.95298C88.7166 5.70417 89.0818 5.5276 89.5875 5.42326C90.1011 5.31892 90.8034 5.26676 91.6943 5.26676H91.9712V4.91762C91.9712 4.46817 91.8789 4.14311 91.6943 3.94246C91.5097 3.74181 91.2127 3.64149 90.8034 3.64149C90.5225 3.64149 90.2576 3.6776 90.0088 3.74984C89.76 3.82207 89.4871 3.92641 89.1902 4.06285C88.9735 4.18324 88.821 4.24344 88.7327 4.24344C88.6123 4.24344 88.512 4.1993 88.4317 4.11101C88.3595 4.02272 88.3234 3.91036 88.3234 3.77392C88.3234 3.65353 88.3555 3.54919 88.4197 3.4609C88.4919 3.36459 88.6043 3.27229 88.7568 3.184C89.0377 3.03151 89.3668 2.91112 89.744 2.82283C90.1212 2.72652 90.4864 2.67837 90.8395 2.67837ZM90.4663 7.87922C90.9077 7.87922 91.2689 7.73074 91.5498 7.43378C91.8307 7.12879 91.9712 6.73953 91.9712 6.26599V5.95298H91.7545C91.1285 5.95298 90.6469 5.98107 90.3098 6.03725C89.9727 6.09343 89.7319 6.18975 89.5875 6.32619C89.443 6.45461 89.3708 6.64322 89.3708 6.89202C89.3708 7.18096 89.4751 7.41773 89.6838 7.60233C89.8925 7.78692 90.1533 7.87922 90.4663 7.87922ZM97.9805 2.67837C99.3851 2.67837 100.087 3.46893 100.087 5.05005V8.1802C100.087 8.3648 100.031 8.50926 99.9188 8.6136C99.8145 8.70991 99.666 8.75807 99.4734 8.75807C99.2888 8.75807 99.1403 8.7059 99.0279 8.60156C98.9236 8.49723 98.8714 8.35677 98.8714 8.1802V5.11025C98.8714 4.61264 98.7711 4.24745 98.5705 4.0147C98.3778 3.78194 98.0728 3.66557 97.6555 3.66557C97.1659 3.66557 96.7726 3.81806 96.4757 4.12305C96.1787 4.42804 96.0302 4.83736 96.0302 5.35103V8.1802C96.0302 8.35677 95.974 8.49723 95.8617 8.60156C95.7573 8.7059 95.6129 8.75807 95.4283 8.75807C95.2437 8.75807 95.0952 8.7059 94.9828 8.60156C94.8705 8.49723 94.8143 8.35677 94.8143 8.1802V3.28032C94.8143 3.11177 94.8705 2.97533 94.9828 2.87099C95.1032 2.75863 95.2517 2.70244 95.4283 2.70244C95.6048 2.70244 95.7453 2.75461 95.8496 2.85895C95.954 2.96329 96.0061 3.09973 96.0061 3.26828V3.76188C96.1988 3.40873 96.4676 3.13986 96.8128 2.95526C97.1579 2.77067 97.5471 2.67837 97.9805 2.67837ZM106.554 0.150172C106.739 0.150172 106.887 0.202341 107 0.306679C107.112 0.411017 107.168 0.551472 107.168 0.728044V8.16816C107.168 8.35276 107.112 8.49723 107 8.60156C106.896 8.7059 106.751 8.75807 106.566 8.75807C106.382 8.75807 106.233 8.7059 106.121 8.60156C106.017 8.49723 105.964 8.35276 105.964 8.16816V7.6866C105.788 8.03974 105.531 8.31263 105.194 8.50525C104.857 8.68985 104.468 8.78215 104.026 8.78215C103.521 8.78215 103.067 8.65373 102.666 8.3969C102.273 8.14007 101.964 7.7789 101.739 7.31339C101.522 6.84788 101.414 6.31415 101.414 5.7122C101.414 5.10222 101.522 4.56849 101.739 4.11101C101.964 3.65353 102.273 3.30038 102.666 3.05158C103.059 2.80277 103.513 2.67837 104.026 2.67837C104.468 2.67837 104.853 2.77468 105.182 2.9673C105.519 3.1519 105.776 3.41676 105.952 3.76188V0.703967C105.952 0.53542 106.005 0.402991 106.109 0.306679C106.221 0.202341 106.37 0.150172 106.554 0.150172ZM104.315 7.81903C104.837 7.81903 105.242 7.63844 105.531 7.27727C105.82 6.9161 105.964 6.40244 105.964 5.73628C105.964 5.07012 105.82 4.55645 105.531 4.19528C105.25 3.83411 104.845 3.65353 104.315 3.65353C103.785 3.65353 103.372 3.83411 103.075 4.19528C102.786 4.54843 102.642 5.05407 102.642 5.7122C102.642 6.37033 102.79 6.88801 103.087 7.26523C103.384 7.63443 103.793 7.81903 104.315 7.81903ZM120.032 3.07565C120.12 2.83487 120.285 2.71448 120.526 2.71448C120.678 2.71448 120.815 2.76665 120.935 2.87099C121.055 2.97533 121.115 3.10374 121.115 3.25624C121.115 3.3365 121.099 3.40873 121.067 3.47294L119.069 8.34874C119.021 8.47716 118.94 8.57749 118.828 8.64972C118.716 8.71393 118.591 8.74603 118.455 8.74603C118.326 8.74603 118.206 8.71393 118.094 8.64972C117.981 8.57749 117.901 8.47716 117.853 8.34874L116.288 4.48422L114.759 8.34874C114.711 8.47716 114.63 8.57749 114.518 8.64972C114.414 8.71393 114.293 8.74603 114.157 8.74603C114.029 8.74603 113.904 8.71393 113.784 8.64972C113.671 8.57749 113.587 8.47716 113.531 8.34874L111.544 3.47294C111.512 3.40873 111.496 3.34051 111.496 3.26828C111.496 3.10776 111.561 2.97533 111.689 2.87099C111.825 2.76665 111.974 2.71448 112.134 2.71448C112.375 2.71448 112.54 2.83086 112.628 3.06361L114.181 7.16892L115.77 3.09973C115.818 2.97132 115.895 2.875 115.999 2.8108C116.103 2.74659 116.216 2.71448 116.336 2.71448C116.448 2.71448 116.557 2.74659 116.661 2.8108C116.765 2.875 116.842 2.97132 116.89 3.09973L118.479 7.14484L120.032 3.07565ZM122.857 8.75807C122.68 8.75807 122.532 8.70991 122.412 8.6136C122.299 8.51729 122.243 8.37282 122.243 8.1802V3.29236C122.243 3.09973 122.299 2.95526 122.412 2.85895C122.532 2.75461 122.68 2.70244 122.857 2.70244C123.034 2.70244 123.178 2.75461 123.29 2.85895C123.403 2.95526 123.459 3.09973 123.459 3.29236V8.1802C123.459 8.37282 123.403 8.51729 123.29 8.6136C123.178 8.70991 123.034 8.75807 122.857 8.75807ZM122.857 1.52262C122.624 1.52262 122.44 1.45841 122.303 1.33C122.167 1.20158 122.099 1.03303 122.099 0.824357C122.099 0.615681 122.167 0.451147 122.303 0.330757C122.44 0.202341 122.624 0.138133 122.857 0.138133C123.082 0.138133 123.262 0.202341 123.399 0.330757C123.543 0.451147 123.615 0.615681 123.615 0.824357C123.615 1.03303 123.547 1.20158 123.411 1.33C123.274 1.45841 123.09 1.52262 122.857 1.52262ZM128.036 7.83107C128.213 7.84712 128.337 7.89527 128.409 7.97553C128.49 8.04777 128.53 8.15211 128.53 8.28855C128.53 8.44907 128.465 8.57347 128.337 8.66176C128.217 8.74202 128.036 8.77412 127.795 8.75807L127.47 8.73399C126.82 8.68584 126.335 8.4892 126.013 8.14408C125.692 7.79094 125.532 7.27326 125.532 6.59105V3.76188H124.81C124.456 3.76188 124.28 3.60537 124.28 3.29236C124.28 3.14789 124.324 3.03552 124.412 2.95526C124.509 2.86698 124.641 2.82283 124.81 2.82283H125.532V1.58282C125.532 1.39822 125.584 1.25375 125.688 1.14941C125.801 1.04507 125.949 0.992903 126.134 0.992903C126.318 0.992903 126.467 1.04507 126.579 1.14941C126.692 1.25375 126.748 1.39822 126.748 1.58282V2.82283H127.94C128.108 2.82283 128.237 2.86698 128.325 2.95526C128.421 3.03552 128.469 3.14789 128.469 3.29236C128.469 3.44485 128.421 3.56123 128.325 3.64149C128.237 3.72175 128.108 3.76188 127.94 3.76188H126.748V6.67532C126.748 7.05254 126.824 7.32944 126.977 7.50601C127.137 7.68259 127.378 7.78291 127.699 7.80699L128.036 7.83107ZM132.581 2.67837C133.978 2.67837 134.676 3.46893 134.676 5.05005V8.1802C134.676 8.35677 134.62 8.49723 134.508 8.60156C134.395 8.7059 134.247 8.75807 134.062 8.75807C133.877 8.75807 133.729 8.7059 133.617 8.60156C133.512 8.49723 133.46 8.35677 133.46 8.1802V5.06209C133.46 4.58053 133.36 4.22739 133.159 4.00266C132.967 3.77793 132.662 3.66557 132.244 3.66557C131.755 3.66557 131.361 3.81806 131.064 4.12305C130.767 4.42804 130.619 4.83736 130.619 5.35103V8.1802C130.619 8.35677 130.563 8.49723 130.45 8.60156C130.346 8.7059 130.202 8.75807 130.017 8.75807C129.832 8.75807 129.684 8.7059 129.572 8.60156C129.459 8.49723 129.403 8.35677 129.403 8.1802V0.728044C129.403 0.551472 129.459 0.411017 129.572 0.306679C129.692 0.202341 129.844 0.150172 130.029 0.150172C130.206 0.150172 130.346 0.202341 130.45 0.306679C130.563 0.402991 130.619 0.53542 130.619 0.703967V3.71372C130.82 3.37663 131.088 3.1198 131.426 2.94322C131.763 2.76665 132.148 2.67837 132.581 2.67837ZM143.691 3.06361C143.74 2.94322 143.808 2.85494 143.896 2.79876C143.992 2.74257 144.093 2.71448 144.197 2.71448C144.35 2.71448 144.482 2.76665 144.594 2.87099C144.715 2.97533 144.775 3.09973 144.775 3.2442C144.775 3.32446 144.759 3.40071 144.727 3.47294L141.38 10.576C141.332 10.6883 141.26 10.7726 141.163 10.8288C141.075 10.893 140.979 10.9251 140.874 10.9251C140.73 10.9251 140.597 10.8769 140.477 10.7806C140.365 10.6843 140.308 10.5639 140.308 10.4195C140.308 10.3552 140.328 10.275 140.369 10.1787L141.199 8.40894L138.876 3.47294C138.844 3.40873 138.828 3.3365 138.828 3.25624C138.828 3.10374 138.892 2.97533 139.02 2.87099C139.149 2.76665 139.293 2.71448 139.454 2.71448C139.694 2.71448 139.867 2.82685 139.971 3.05158L141.837 7.193L143.691 3.06361ZM148.238 8.78215C147.661 8.78215 147.151 8.65775 146.71 8.40894C146.276 8.16013 145.939 7.80699 145.698 7.34951C145.465 6.884 145.349 6.34625 145.349 5.73628C145.349 5.11827 145.465 4.58053 145.698 4.12305C145.939 3.65754 146.276 3.30038 146.71 3.05158C147.151 2.80277 147.661 2.67837 148.238 2.67837C148.816 2.67837 149.322 2.80277 149.755 3.05158C150.197 3.30038 150.534 3.65754 150.767 4.12305C151.007 4.58053 151.128 5.11827 151.128 5.73628C151.128 6.34625 151.007 6.884 150.767 7.34951C150.534 7.80699 150.197 8.16013 149.755 8.40894C149.322 8.65775 148.816 8.78215 148.238 8.78215ZM148.238 7.81903C148.776 7.81903 149.186 7.64246 149.466 7.28931C149.755 6.93617 149.9 6.41849 149.9 5.73628C149.9 5.06209 149.755 4.54843 149.466 4.19528C149.178 3.83411 148.768 3.65353 148.238 3.65353C147.709 3.65353 147.299 3.83411 147.01 4.19528C146.722 4.54843 146.577 5.06209 146.577 5.73628C146.577 6.41849 146.718 6.93617 146.998 7.28931C147.287 7.64246 147.701 7.81903 148.238 7.81903ZM157.032 2.70244C157.217 2.70244 157.361 2.75461 157.466 2.85895C157.578 2.96329 157.634 3.10776 157.634 3.29236V8.19224C157.634 8.36078 157.578 8.49723 157.466 8.60156C157.353 8.7059 157.205 8.75807 157.02 8.75807C156.852 8.75807 156.715 8.70991 156.611 8.6136C156.507 8.50926 156.455 8.37282 156.455 8.20428V7.74679C156.27 8.08389 156.013 8.34072 155.684 8.51729C155.363 8.69386 155.002 8.78215 154.601 8.78215C153.172 8.78215 152.458 7.9956 152.458 6.4225V3.29236C152.458 3.10776 152.51 2.96329 152.614 2.85895C152.726 2.75461 152.879 2.70244 153.072 2.70244C153.256 2.70244 153.401 2.75461 153.505 2.85895C153.617 2.96329 153.674 3.10776 153.674 3.29236V6.41046C153.674 6.884 153.77 7.23313 153.962 7.45786C154.155 7.68259 154.452 7.79495 154.853 7.79495C155.327 7.79495 155.704 7.64246 155.985 7.33747C156.274 7.03248 156.418 6.62716 156.418 6.12153V3.29236C156.418 3.11578 156.475 2.97533 156.587 2.87099C156.699 2.75863 156.848 2.70244 157.032 2.70244ZM162.418 2.70244C162.803 2.67837 162.996 2.8429 162.996 3.19604C162.996 3.37262 162.952 3.50505 162.863 3.59333C162.775 3.68162 162.623 3.73379 162.406 3.74984L162.045 3.78596C161.539 3.83411 161.162 4.01068 160.913 4.31567C160.672 4.62066 160.552 4.98986 160.552 5.42326V8.1802C160.552 8.37282 160.496 8.51729 160.383 8.6136C160.271 8.70991 160.126 8.75807 159.95 8.75807C159.773 8.75807 159.625 8.70991 159.504 8.6136C159.392 8.51729 159.336 8.37282 159.336 8.1802V3.28032C159.336 3.09572 159.392 2.95526 159.504 2.85895C159.625 2.75461 159.773 2.70244 159.95 2.70244C160.11 2.70244 160.243 2.75461 160.347 2.85895C160.46 2.95526 160.516 3.09171 160.516 3.26828V3.84615C160.676 3.49301 160.909 3.22413 161.214 3.03954C161.519 2.85494 161.864 2.74659 162.249 2.71448L162.418 2.70244ZM171.855 7.74679C172 7.86718 172.072 8.01566 172.072 8.19224C172.072 8.34473 172.02 8.47716 171.915 8.58952C171.811 8.70189 171.687 8.75807 171.542 8.75807C171.39 8.75807 171.253 8.70189 171.133 8.58952L168.135 5.94094V8.16816C168.135 8.36078 168.079 8.50926 167.966 8.6136C167.854 8.70991 167.71 8.75807 167.533 8.75807C167.356 8.75807 167.208 8.70991 167.088 8.6136C166.975 8.50926 166.919 8.36078 166.919 8.16816V0.740084C166.919 0.547459 166.975 0.402991 167.088 0.306679C167.208 0.202341 167.356 0.150172 167.533 0.150172C167.71 0.150172 167.854 0.202341 167.966 0.306679C168.079 0.402991 168.135 0.547459 168.135 0.740084V5.45938L170.88 2.89507C171.016 2.77468 171.149 2.71448 171.277 2.71448C171.43 2.71448 171.562 2.77067 171.674 2.88303C171.787 2.99539 171.843 3.12782 171.843 3.28032C171.843 3.43281 171.775 3.57327 171.638 3.70168L169.495 5.66404L171.855 7.74679ZM177.643 7.21708C177.756 7.21708 177.848 7.26122 177.92 7.34951C177.992 7.43779 178.029 7.55016 178.029 7.6866C178.029 7.91935 177.884 8.11599 177.595 8.27651C177.314 8.43703 177.005 8.56143 176.668 8.64972C176.339 8.73801 176.022 8.78215 175.717 8.78215C174.786 8.78215 174.052 8.51328 173.514 7.97553C172.976 7.42977 172.707 6.68736 172.707 5.74832C172.707 5.14636 172.824 4.61264 173.056 4.14713C173.297 3.68162 173.63 3.32045 174.056 3.06361C174.489 2.80678 174.979 2.67837 175.524 2.67837C176.311 2.67837 176.933 2.93119 177.39 3.43682C177.848 3.94246 178.077 4.62467 178.077 5.48346C178.077 5.8045 177.932 5.96502 177.643 5.96502H173.923C174.004 7.20905 174.601 7.83107 175.717 7.83107C176.014 7.83107 176.271 7.79094 176.488 7.71068C176.704 7.63042 176.933 7.52608 177.174 7.39766C177.198 7.38161 177.262 7.34951 177.366 7.30135C177.479 7.24517 177.571 7.21708 177.643 7.21708ZM175.549 3.56925C175.083 3.56925 174.71 3.71773 174.429 4.0147C174.148 4.31166 173.979 4.72901 173.923 5.26676H177.029C177.005 4.72099 176.865 4.30363 176.608 4.0147C176.359 3.71773 176.006 3.56925 175.549 3.56925ZM183.512 3.06361C183.56 2.94322 183.628 2.85494 183.717 2.79876C183.813 2.74257 183.913 2.71448 184.017 2.71448C184.17 2.71448 184.302 2.76665 184.415 2.87099C184.535 2.97533 184.595 3.09973 184.595 3.2442C184.595 3.32446 184.579 3.40071 184.547 3.47294L181.2 10.576C181.152 10.6883 181.08 10.7726 180.984 10.8288C180.895 10.893 180.799 10.9251 180.695 10.9251C180.55 10.9251 180.418 10.8769 180.297 10.7806C180.185 10.6843 180.129 10.5639 180.129 10.4195C180.129 10.3552 180.149 10.275 180.189 10.1787L181.02 8.40894L178.696 3.47294C178.664 3.40873 178.648 3.3365 178.648 3.25624C178.648 3.10374 178.712 2.97533 178.841 2.87099C178.969 2.76665 179.114 2.71448 179.274 2.71448C179.515 2.71448 179.687 2.82685 179.792 3.05158L181.658 7.193L183.512 3.06361ZM3.61542 18.6784C4.39394 18.6784 4.97181 18.875 5.34904 19.2683C5.73429 19.6616 5.92691 20.2595 5.92691 21.0621V24.1802C5.92691 24.3648 5.87474 24.5093 5.7704 24.6136C5.66606 24.7099 5.5216 24.7581 5.337 24.7581C5.16043 24.7581 5.01997 24.7059 4.91563 24.6016C4.81129 24.4972 4.75912 24.3568 4.75912 24.1802V23.7348C4.60663 24.0718 4.37789 24.3327 4.0729 24.5173C3.77594 24.6939 3.42681 24.7821 3.02551 24.7821C2.64026 24.7821 2.28711 24.7059 1.96607 24.5534C1.64503 24.3929 1.39221 24.1722 1.20761 23.8913C1.03104 23.6104 0.942756 23.2973 0.942756 22.9522C0.942756 22.5268 1.05111 22.1938 1.26781 21.953C1.49254 21.7042 1.85772 21.5276 2.36336 21.4233C2.87702 21.3189 3.5793 21.2668 4.47019 21.2668H4.74709V20.9176C4.74709 20.4682 4.65479 20.1431 4.47019 19.9425C4.28559 19.7418 3.98863 19.6415 3.5793 19.6415C3.29839 19.6415 3.03353 19.6776 2.78473 19.7498C2.53592 19.8221 2.26303 19.9264 1.96607 20.0629C1.74937 20.1832 1.59688 20.2434 1.50859 20.2434C1.3882 20.2434 1.28787 20.1993 1.20761 20.111C1.13538 20.0227 1.09926 19.9104 1.09926 19.7739C1.09926 19.6535 1.13137 19.5492 1.19557 19.4609C1.26781 19.3646 1.38017 19.2723 1.53267 19.184C1.81358 19.0315 2.14264 18.9111 2.51987 18.8228C2.89709 18.7265 3.26227 18.6784 3.61542 18.6784ZM3.24221 23.8792C3.68364 23.8792 4.04481 23.7307 4.32572 23.4338C4.60663 23.1288 4.74709 22.7395 4.74709 22.266V21.953H4.53038C3.90435 21.953 3.42279 21.9811 3.0857 22.0373C2.74861 22.0934 2.50783 22.1897 2.36336 22.3262C2.21889 22.4546 2.14666 22.6432 2.14666 22.892C2.14666 23.181 2.251 23.4177 2.45967 23.6023C2.66835 23.7869 2.92919 23.8792 3.24221 23.8792ZM12.1409 18.7024C12.3255 18.7024 12.47 18.7546 12.5743 18.859C12.6867 18.9633 12.7429 19.1078 12.7429 19.2924V24.1922C12.7429 24.3608 12.6867 24.4972 12.5743 24.6016C12.462 24.7059 12.3135 24.7581 12.1289 24.7581C11.9603 24.7581 11.8239 24.7099 11.7196 24.6136C11.6152 24.5093 11.5631 24.3728 11.5631 24.2043V23.7468C11.3785 24.0839 11.1216 24.3407 10.7926 24.5173C10.4715 24.6939 10.1103 24.7821 9.70904 24.7821C8.28041 24.7821 7.5661 23.9956 7.5661 22.4225V19.2924C7.5661 19.1078 7.61827 18.9633 7.7226 18.859C7.83497 18.7546 7.98746 18.7024 8.18009 18.7024C8.36469 18.7024 8.50915 18.7546 8.61349 18.859C8.72586 18.9633 8.78204 19.1078 8.78204 19.2924V22.4105C8.78204 22.884 8.87835 23.2331 9.07097 23.4579C9.2636 23.6826 9.56056 23.7949 9.96186 23.7949C10.4354 23.7949 10.8126 23.6425 11.0935 23.3375C11.3825 23.0325 11.5269 22.6272 11.5269 22.1215V19.2924C11.5269 19.1158 11.5831 18.9753 11.6955 18.871C11.8078 18.7586 11.9563 18.7024 12.1409 18.7024ZM19.248 16.1502C19.4326 16.1502 19.5811 16.2023 19.6934 16.3067C19.8058 16.411 19.862 16.5515 19.862 16.728V24.1682C19.862 24.3528 19.8058 24.4972 19.6934 24.6016C19.5891 24.7059 19.4446 24.7581 19.26 24.7581C19.0754 24.7581 18.927 24.7059 18.8146 24.6016C18.7102 24.4972 18.6581 24.3528 18.6581 24.1682V23.6866C18.4815 24.0397 18.2247 24.3126 17.8876 24.5053C17.5505 24.6898 17.1612 24.7821 16.7198 24.7821C16.2142 24.7821 15.7607 24.6537 15.3594 24.3969C14.9661 24.1401 14.6571 23.7789 14.4324 23.3134C14.2157 22.8479 14.1073 22.3141 14.1073 21.7122C14.1073 21.1022 14.2157 20.5685 14.4324 20.111C14.6571 19.6535 14.9661 19.3004 15.3594 19.0516C15.7527 18.8028 16.2061 18.6784 16.7198 18.6784C17.1612 18.6784 17.5465 18.7747 17.8755 18.9673C18.2126 19.1519 18.4695 19.4168 18.646 19.7619V16.704C18.646 16.5354 18.6982 16.403 18.8025 16.3067C18.9149 16.2023 19.0634 16.1502 19.248 16.1502ZM17.0087 23.819C17.5304 23.819 17.9357 23.6384 18.2247 23.2773C18.5136 22.9161 18.6581 22.4024 18.6581 21.7363C18.6581 21.0701 18.5136 20.5565 18.2247 20.1953C17.9438 19.8341 17.5384 19.6535 17.0087 19.6535C16.479 19.6535 16.0657 19.8341 15.7687 20.1953C15.4798 20.5484 15.3353 21.0541 15.3353 21.7122C15.3353 22.3703 15.4838 22.888 15.7808 23.2652C16.0777 23.6344 16.487 23.819 17.0087 23.819ZM22.1713 24.7581C21.9947 24.7581 21.8463 24.7099 21.7259 24.6136C21.6135 24.5173 21.5573 24.3728 21.5573 24.1802V19.2924C21.5573 19.0997 21.6135 18.9553 21.7259 18.859C21.8463 18.7546 21.9947 18.7024 22.1713 18.7024C22.3479 18.7024 22.4924 18.7546 22.6047 18.859C22.7171 18.9553 22.7733 19.0997 22.7733 19.2924V24.1802C22.7733 24.3728 22.7171 24.5173 22.6047 24.6136C22.4924 24.7099 22.3479 24.7581 22.1713 24.7581ZM22.1713 17.5226C21.9386 17.5226 21.754 17.4584 21.6175 17.33C21.4811 17.2016 21.4129 17.033 21.4129 16.8244C21.4129 16.6157 21.4811 16.4511 21.6175 16.3308C21.754 16.2023 21.9386 16.1381 22.1713 16.1381C22.396 16.1381 22.5766 16.2023 22.7131 16.3308C22.8575 16.4511 22.9298 16.6157 22.9298 16.8244C22.9298 17.033 22.8615 17.2016 22.7251 17.33C22.5887 17.4584 22.4041 17.5226 22.1713 17.5226ZM29.0719 23.2171C29.1843 23.2171 29.2766 23.2612 29.3488 23.3495C29.4211 23.4378 29.4572 23.5502 29.4572 23.6866C29.4572 23.9194 29.3127 24.116 29.0238 24.2765C28.7429 24.437 28.4339 24.5614 28.0968 24.6497C27.7677 24.738 27.4507 24.7821 27.1457 24.7821C26.2147 24.7821 25.4803 24.5133 24.9425 23.9755C24.4048 23.4298 24.1359 22.6874 24.1359 21.7483C24.1359 21.1464 24.2523 20.6126 24.4851 20.1471C24.7258 19.6816 25.0589 19.3204 25.4843 19.0636C25.9177 18.8068 26.4073 18.6784 26.9531 18.6784C27.7396 18.6784 28.3616 18.9312 28.8191 19.4368C29.2766 19.9425 29.5053 20.6247 29.5053 21.4835C29.5053 21.8045 29.3609 21.965 29.0719 21.965H25.3519C25.4321 23.2091 26.0301 23.8311 27.1457 23.8311C27.4426 23.8311 27.6995 23.7909 27.9162 23.7107C28.1329 23.6304 28.3616 23.5261 28.6024 23.3977C28.6265 23.3816 28.6907 23.3495 28.795 23.3013C28.9074 23.2452 28.9997 23.2171 29.0719 23.2171ZM26.9771 19.5693C26.5116 19.5693 26.1384 19.7177 25.8575 20.0147C25.5766 20.3117 25.408 20.729 25.3519 21.2668H28.4579C28.4339 20.721 28.2934 20.3036 28.0366 20.0147C27.7878 19.7177 27.4346 19.5693 26.9771 19.5693ZM34.0115 18.6784C35.416 18.6784 36.1183 19.4689 36.1183 21.0501V24.1802C36.1183 24.3648 36.0621 24.5093 35.9498 24.6136C35.8454 24.7099 35.697 24.7581 35.5043 24.7581C35.3197 24.7581 35.1713 24.7059 35.0589 24.6016C34.9546 24.4972 34.9024 24.3568 34.9024 24.1802V21.1102C34.9024 20.6126 34.8021 20.2475 34.6014 20.0147C34.4088 19.7819 34.1038 19.6656 33.6864 19.6656C33.1969 19.6656 32.8036 19.8181 32.5066 20.123C32.2097 20.428 32.0612 20.8374 32.0612 21.351V24.1802C32.0612 24.3568 32.005 24.4972 31.8926 24.6016C31.7883 24.7059 31.6438 24.7581 31.4592 24.7581C31.2746 24.7581 31.1261 24.7059 31.0138 24.6016C30.9014 24.4972 30.8452 24.3568 30.8452 24.1802V19.2803C30.8452 19.1118 30.9014 18.9753 31.0138 18.871C31.1342 18.7586 31.2827 18.7024 31.4592 18.7024C31.6358 18.7024 31.7763 18.7546 31.8806 18.859C31.9849 18.9633 32.0371 19.0997 32.0371 19.2683V19.7619C32.2297 19.4087 32.4986 19.1399 32.8437 18.9553C33.1888 18.7707 33.5781 18.6784 34.0115 18.6784ZM40.2979 24.7821C39.7281 24.7821 39.2265 24.6577 38.7931 24.4089C38.3677 24.1601 38.0346 23.807 37.7938 23.3495C37.5611 22.892 37.4447 22.3623 37.4447 21.7604C37.4447 21.1504 37.5651 20.6126 37.8059 20.1471C38.0547 19.6816 38.3998 19.3204 38.8412 19.0636C39.2826 18.8068 39.7883 18.6784 40.3581 18.6784C40.6631 18.6784 40.9681 18.7225 41.2731 18.8108C41.5861 18.8991 41.863 19.0195 42.1038 19.172C42.3606 19.3485 42.489 19.5532 42.489 19.786C42.489 19.9224 42.4529 20.0388 42.3807 20.1351C42.3085 20.2234 42.2162 20.2675 42.1038 20.2675C42.0316 20.2675 41.9593 20.2515 41.8871 20.2194C41.8149 20.1792 41.7226 20.123 41.6102 20.0508C41.4095 19.9224 41.2209 19.8261 41.0444 19.7619C40.8758 19.6896 40.6711 19.6535 40.4304 19.6535C39.8846 19.6535 39.4592 19.8381 39.1542 20.2073C38.8573 20.5765 38.7088 21.0902 38.7088 21.7483C38.7088 22.4064 38.8573 22.9161 39.1542 23.2773C39.4512 23.6304 39.8726 23.807 40.4183 23.807C40.6591 23.807 40.8718 23.7709 41.0564 23.6986C41.241 23.6264 41.4296 23.5301 41.6222 23.4097C41.7105 23.3535 41.7988 23.3054 41.8871 23.2652C41.9754 23.2251 42.0556 23.205 42.1279 23.205C42.2402 23.205 42.3325 23.2532 42.4048 23.3495C42.477 23.4378 42.5131 23.5502 42.5131 23.6866C42.5131 23.799 42.481 23.9033 42.4168 23.9996C42.3606 24.0879 42.2603 24.1802 42.1158 24.2765C41.875 24.437 41.5941 24.5614 41.2731 24.6497C40.9521 24.738 40.627 24.7821 40.2979 24.7821ZM48.2003 23.2171C48.3127 23.2171 48.405 23.2612 48.4772 23.3495C48.5495 23.4378 48.5856 23.5502 48.5856 23.6866C48.5856 23.9194 48.4411 24.116 48.1522 24.2765C47.8713 24.437 47.5623 24.5614 47.2252 24.6497C46.8961 24.738 46.5791 24.7821 46.2741 24.7821C45.3431 24.7821 44.6087 24.5133 44.0709 23.9755C43.5332 23.4298 43.2643 22.6874 43.2643 21.7483C43.2643 21.1464 43.3807 20.6126 43.6135 20.1471C43.8542 19.6816 44.1873 19.3204 44.6127 19.0636C45.0461 18.8068 45.5357 18.6784 46.0815 18.6784C46.868 18.6784 47.49 18.9312 47.9475 19.4368C48.405 19.9425 48.6337 20.6247 48.6337 21.4835C48.6337 21.8045 48.4893 21.965 48.2003 21.965H44.4803C44.5605 23.2091 45.1585 23.8311 46.2741 23.8311C46.571 23.8311 46.8279 23.7909 47.0446 23.7107C47.2613 23.6304 47.49 23.5261 47.7308 23.3977C47.7549 23.3816 47.8191 23.3495 47.9234 23.3013C48.0358 23.2452 48.1281 23.2171 48.2003 23.2171ZM46.1055 19.5693C45.64 19.5693 45.2668 19.7177 44.9859 20.0147C44.705 20.3117 44.5365 20.729 44.4803 21.2668H47.5863C47.5623 20.721 47.4218 20.3036 47.165 20.0147C46.9162 19.7177 46.563 19.5693 46.1055 19.5693ZM52.0203 24.7821C51.2016 24.7821 50.5314 24.6136 50.0098 24.2765C49.8653 24.1882 49.7609 24.0959 49.6967 23.9996C49.6406 23.9033 49.6125 23.7949 49.6125 23.6746C49.6125 23.5461 49.6486 23.4378 49.7208 23.3495C49.7931 23.2612 49.8854 23.2171 49.9977 23.2171C50.1021 23.2171 50.2666 23.2813 50.4913 23.4097C50.7321 23.5381 50.9648 23.6425 51.1896 23.7227C51.4223 23.803 51.7113 23.8431 52.0564 23.8431C52.4416 23.8431 52.7426 23.7749 52.9593 23.6384C53.176 23.502 53.2844 23.3094 53.2844 23.0606C53.2844 22.9 53.2402 22.7716 53.1519 22.6753C53.0717 22.579 52.9272 22.4947 52.7185 22.4225C52.5099 22.3422 52.2009 22.258 51.7915 22.1697C51.0852 22.0172 50.5756 21.8125 50.2626 21.5557C49.9576 21.2908 49.8051 20.9337 49.8051 20.4842C49.8051 20.1391 49.9054 19.8301 50.1061 19.5572C50.3067 19.2763 50.5836 19.0596 50.9368 18.9071C51.2899 18.7546 51.6912 18.6784 52.1407 18.6784C52.4617 18.6784 52.7747 18.7225 53.0797 18.8108C53.3847 18.8911 53.6536 19.0114 53.8863 19.172C54.1512 19.3485 54.2836 19.5532 54.2836 19.786C54.2836 19.9144 54.2435 20.0227 54.1632 20.111C54.091 20.1993 54.0027 20.2434 53.8984 20.2434C53.8261 20.2434 53.7539 20.2274 53.6817 20.1953C53.6094 20.1632 53.5131 20.111 53.3927 20.0388C53.176 19.9104 52.9714 19.81 52.7787 19.7378C52.5941 19.6656 52.3614 19.6294 52.0805 19.6294C51.7434 19.6294 51.4705 19.7017 51.2618 19.8462C51.0612 19.9906 50.9608 20.1873 50.9608 20.4361C50.9608 20.6608 51.0531 20.8374 51.2377 20.9658C51.4304 21.0862 51.7875 21.2025 52.3092 21.3149C52.8469 21.4273 53.2683 21.5557 53.5733 21.7002C53.8783 21.8446 54.095 22.0252 54.2234 22.2419C54.3599 22.4506 54.4281 22.7195 54.4281 23.0485C54.4281 23.5702 54.2074 23.9916 53.7659 24.3126C53.3325 24.6256 52.7506 24.7821 52.0203 24.7821ZM56.2886 23.205C56.5294 23.205 56.718 23.2933 56.8544 23.4699C56.9989 23.6465 57.0711 23.9073 57.0711 24.2524C57.0711 24.9346 56.8424 25.5246 56.3849 26.0222C56.2886 26.1185 56.1842 26.1666 56.0719 26.1666C55.9675 26.1666 55.8792 26.1305 55.807 26.0583C55.7348 25.9941 55.6987 25.9138 55.6987 25.8175C55.6987 25.7372 55.7348 25.653 55.807 25.5647C56.0317 25.3319 56.1762 25.055 56.2404 24.734C56.0398 24.7179 55.8712 24.6417 55.7348 24.5053C55.6064 24.3688 55.5422 24.1963 55.5422 23.9876C55.5422 23.7628 55.6144 23.5782 55.7589 23.4338C55.9033 23.2813 56.0799 23.205 56.2886 23.205ZM64.5347 17.1374C64.1334 17.1695 63.8365 17.2979 63.6438 17.5226C63.4512 17.7393 63.3549 18.0604 63.3549 18.4857V18.8228H64.5468C64.7153 18.8228 64.8437 18.867 64.932 18.9553C65.0283 19.0355 65.0765 19.1479 65.0765 19.2924C65.0765 19.4368 65.0283 19.5532 64.932 19.6415C64.8437 19.7217 64.7153 19.7619 64.5468 19.7619H63.3549V24.1682C63.3549 24.3608 63.2947 24.5093 63.1743 24.6136C63.062 24.7099 62.9175 24.7581 62.7409 24.7581C62.5644 24.7581 62.4199 24.7099 62.3075 24.6136C62.1952 24.5093 62.139 24.3608 62.139 24.1682V19.7619H61.4166C61.2481 19.7619 61.1157 19.7217 61.0193 19.6415C60.9311 19.5532 60.8869 19.4368 60.8869 19.2924C60.8869 19.1479 60.9311 19.0355 61.0193 18.9553C61.1157 18.867 61.2481 18.8228 61.4166 18.8228H62.139V18.6663C62.139 17.9279 62.3276 17.3501 62.7048 16.9327C63.082 16.5073 63.6158 16.2706 64.306 16.2224L64.619 16.1983C64.8758 16.1823 65.0604 16.2104 65.1728 16.2826C65.2932 16.3548 65.3534 16.4712 65.3534 16.6317C65.3534 16.9126 65.1848 17.0732 64.8478 17.1133L64.5347 17.1374ZM68.3742 24.7821C67.7963 24.7821 67.2866 24.6577 66.8452 24.4089C66.4118 24.1601 66.0747 23.807 65.8339 23.3495C65.6012 22.884 65.4848 22.3463 65.4848 21.7363C65.4848 21.1183 65.6012 20.5805 65.8339 20.123C66.0747 19.6575 66.4118 19.3004 66.8452 19.0516C67.2866 18.8028 67.7963 18.6784 68.3742 18.6784C68.952 18.6784 69.4577 18.8028 69.8911 19.0516C70.3325 19.3004 70.6696 19.6575 70.9023 20.123C71.1431 20.5805 71.2635 21.1183 71.2635 21.7363C71.2635 22.3463 71.1431 22.884 70.9023 23.3495C70.6696 23.807 70.3325 24.1601 69.8911 24.4089C69.4577 24.6577 68.952 24.7821 68.3742 24.7821ZM68.3742 23.819C68.9119 23.819 69.3212 23.6425 69.6021 23.2893C69.8911 22.9362 70.0355 22.4185 70.0355 21.7363C70.0355 21.0621 69.8911 20.5484 69.6021 20.1953C69.3132 19.8341 68.9039 19.6535 68.3742 19.6535C67.8444 19.6535 67.4351 19.8341 67.1462 20.1953C66.8572 20.5484 66.7128 21.0621 66.7128 21.7363C66.7128 22.4185 66.8532 22.9362 67.1341 23.2893C67.4231 23.6425 67.8364 23.819 68.3742 23.819ZM75.6993 18.7024C76.0846 18.6784 76.2772 18.8429 76.2772 19.196C76.2772 19.3726 76.2331 19.505 76.1448 19.5933C76.0565 19.6816 75.904 19.7338 75.6873 19.7498L75.3261 19.786C74.8205 19.8341 74.4433 20.0107 74.1945 20.3157C73.9537 20.6207 73.8333 20.9899 73.8333 21.4233V24.1802C73.8333 24.3728 73.7771 24.5173 73.6647 24.6136C73.5524 24.7099 73.4079 24.7581 73.2313 24.7581C73.0548 24.7581 72.9063 24.7099 72.7859 24.6136C72.6735 24.5173 72.6173 24.3728 72.6173 24.1802V19.2803C72.6173 19.0957 72.6735 18.9553 72.7859 18.859C72.9063 18.7546 73.0548 18.7024 73.2313 18.7024C73.3919 18.7024 73.5243 18.7546 73.6286 18.859C73.741 18.9553 73.7972 19.0917 73.7972 19.2683V19.8462C73.9577 19.493 74.1904 19.2241 74.4954 19.0395C74.8004 18.8549 75.1455 18.7466 75.5308 18.7145L75.6993 18.7024ZM86.9424 18.6784C88.2586 18.6784 88.9168 19.4689 88.9168 21.0501V24.1802C88.9168 24.3648 88.8606 24.5093 88.7482 24.6136C88.6359 24.7099 88.4874 24.7581 88.3028 24.7581C88.1262 24.7581 87.9817 24.7099 87.8694 24.6136C87.757 24.5093 87.7008 24.3648 87.7008 24.1802V21.0621C87.7008 20.5725 87.6125 20.2194 87.436 20.0027C87.2594 19.7779 86.9825 19.6656 86.6053 19.6656C86.1638 19.6656 85.8147 19.8181 85.5579 20.123C85.301 20.42 85.1726 20.8293 85.1726 21.351V24.1802C85.1726 24.3648 85.1164 24.5093 85.0041 24.6136C84.8917 24.7099 84.7432 24.7581 84.5586 24.7581C84.3821 24.7581 84.2376 24.7099 84.1252 24.6136C84.0129 24.5093 83.9567 24.3648 83.9567 24.1802V21.0621C83.9567 20.5725 83.8684 20.2194 83.6918 20.0027C83.5153 19.7779 83.2384 19.6656 82.8611 19.6656C82.4197 19.6656 82.0666 19.8181 81.8017 20.123C81.5449 20.42 81.4165 20.8293 81.4165 21.351V24.1802C81.4165 24.3648 81.3603 24.5093 81.2479 24.6136C81.1355 24.7099 80.9911 24.7581 80.8145 24.7581C80.6379 24.7581 80.4894 24.7099 80.3691 24.6136C80.2567 24.5093 80.2005 24.3648 80.2005 24.1802V19.2803C80.2005 19.1037 80.2607 18.9633 80.3811 18.859C80.5015 18.7546 80.646 18.7024 80.8145 18.7024C80.983 18.7024 81.1195 18.7546 81.2238 18.859C81.3362 18.9553 81.3924 19.0917 81.3924 19.2683V19.7137C81.5689 19.3766 81.8137 19.1198 82.1268 18.9432C82.4398 18.7667 82.8009 18.6784 83.2103 18.6784C83.6597 18.6784 84.0289 18.7707 84.3179 18.9553C84.6148 19.1399 84.8355 19.4248 84.98 19.81C85.1566 19.4649 85.4174 19.192 85.7625 18.9914C86.1077 18.7827 86.5009 18.6784 86.9424 18.6784ZM95.1326 18.7024C95.3172 18.7024 95.4616 18.7546 95.566 18.859C95.6783 18.9633 95.7345 19.1078 95.7345 19.2924V24.1922C95.7345 24.3608 95.6783 24.4972 95.566 24.6016C95.4536 24.7059 95.3051 24.7581 95.1205 24.7581C94.952 24.7581 94.8155 24.7099 94.7112 24.6136C94.6069 24.5093 94.5547 24.3728 94.5547 24.2043V23.7468C94.3701 24.0839 94.1133 24.3407 93.7842 24.5173C93.4632 24.6939 93.102 24.7821 92.7007 24.7821C91.2721 24.7821 90.5577 23.9956 90.5577 22.4225V19.2924C90.5577 19.1078 90.6099 18.9633 90.7142 18.859C90.8266 18.7546 90.9791 18.7024 91.1717 18.7024C91.3563 18.7024 91.5008 18.7546 91.6051 18.859C91.7175 18.9633 91.7737 19.1078 91.7737 19.2924V22.4105C91.7737 22.884 91.87 23.2331 92.0626 23.4579C92.2552 23.6826 92.5522 23.7949 92.9535 23.7949C93.427 23.7949 93.8043 23.6425 94.0852 23.3375C94.3741 23.0325 94.5186 22.6272 94.5186 22.1215V19.2924C94.5186 19.1158 94.5748 18.9753 94.6871 18.871C94.7995 18.7586 94.948 18.7024 95.1326 18.7024ZM100.313 23.8311C100.49 23.8471 100.614 23.8953 100.687 23.9755C100.767 24.0478 100.807 24.1521 100.807 24.2885C100.807 24.4491 100.743 24.5735 100.614 24.6618C100.494 24.742 100.313 24.7741 100.073 24.7581L99.7476 24.734C99.0974 24.6858 98.6119 24.4892 98.2908 24.1441C97.9698 23.7909 97.8093 23.2733 97.8093 22.591V19.7619H97.0869C96.7338 19.7619 96.5572 19.6054 96.5572 19.2924C96.5572 19.1479 96.6014 19.0355 96.6896 18.9553C96.786 18.867 96.9184 18.8228 97.0869 18.8228H97.8093V17.5828C97.8093 17.3982 97.8614 17.2537 97.9658 17.1494C98.0781 17.0451 98.2266 16.9929 98.4112 16.9929C98.5958 16.9929 98.7443 17.0451 98.8567 17.1494C98.969 17.2537 99.0252 17.3982 99.0252 17.5828V18.8228H100.217C100.386 18.8228 100.514 18.867 100.602 18.9553C100.699 19.0355 100.747 19.1479 100.747 19.2924C100.747 19.4449 100.699 19.5612 100.602 19.6415C100.514 19.7217 100.386 19.7619 100.217 19.7619H99.0252V22.6753C99.0252 23.0525 99.1015 23.3294 99.254 23.506C99.4145 23.6826 99.6553 23.7829 99.9763 23.807L100.313 23.8311ZM106.231 18.7024C106.416 18.7024 106.56 18.7546 106.664 18.859C106.777 18.9633 106.833 19.1078 106.833 19.2924V24.1922C106.833 24.3608 106.777 24.4972 106.664 24.6016C106.552 24.7059 106.404 24.7581 106.219 24.7581C106.05 24.7581 105.914 24.7099 105.81 24.6136C105.705 24.5093 105.653 24.3728 105.653 24.2043V23.7468C105.469 24.0839 105.212 24.3407 104.883 24.5173C104.562 24.6939 104.2 24.7821 103.799 24.7821C102.371 24.7821 101.656 23.9956 101.656 22.4225V19.2924C101.656 19.1078 101.708 18.9633 101.813 18.859C101.925 18.7546 102.078 18.7024 102.27 18.7024C102.455 18.7024 102.599 18.7546 102.704 18.859C102.816 18.9633 102.872 19.1078 102.872 19.2924V22.4105C102.872 22.884 102.968 23.2331 103.161 23.4579C103.354 23.6826 103.651 23.7949 104.052 23.7949C104.526 23.7949 104.903 23.6425 105.184 23.3375C105.473 23.0325 105.617 22.6272 105.617 22.1215V19.2924C105.617 19.1158 105.673 18.9753 105.786 18.871C105.898 18.7586 106.046 18.7024 106.231 18.7024ZM111.003 18.6784C111.781 18.6784 112.359 18.875 112.736 19.2683C113.121 19.6616 113.314 20.2595 113.314 21.0621V24.1802C113.314 24.3648 113.262 24.5093 113.158 24.6136C113.053 24.7099 112.909 24.7581 112.724 24.7581C112.548 24.7581 112.407 24.7059 112.303 24.6016C112.198 24.4972 112.146 24.3568 112.146 24.1802V23.7348C111.994 24.0718 111.765 24.3327 111.46 24.5173C111.163 24.6939 110.814 24.7821 110.413 24.7821C110.027 24.7821 109.674 24.7059 109.353 24.5534C109.032 24.3929 108.779 24.1722 108.595 23.8913C108.418 23.6104 108.33 23.2973 108.33 22.9522C108.33 22.5268 108.438 22.1938 108.655 21.953C108.88 21.7042 109.245 21.5276 109.75 21.4233C110.264 21.3189 110.966 21.2668 111.857 21.2668H112.134V20.9176C112.134 20.4682 112.042 20.1431 111.857 19.9425C111.673 19.7418 111.376 19.6415 110.966 19.6415C110.686 19.6415 110.421 19.6776 110.172 19.7498C109.923 19.8221 109.65 19.9264 109.353 20.0629C109.136 20.1832 108.984 20.2434 108.896 20.2434C108.775 20.2434 108.675 20.1993 108.595 20.111C108.522 20.0227 108.486 19.9104 108.486 19.7739C108.486 19.6535 108.518 19.5492 108.583 19.4609C108.655 19.3646 108.767 19.2723 108.92 19.184C109.201 19.0315 109.53 18.9111 109.907 18.8228C110.284 18.7265 110.649 18.6784 111.003 18.6784ZM110.629 23.8792C111.071 23.8792 111.432 23.7307 111.713 23.4338C111.994 23.1288 112.134 22.7395 112.134 22.266V21.953H111.917C111.291 21.953 110.81 21.9811 110.473 22.0373C110.136 22.0934 109.895 22.1897 109.75 22.3262C109.606 22.4546 109.534 22.6432 109.534 22.892C109.534 23.181 109.638 23.4177 109.847 23.6023C110.055 23.7869 110.316 23.8792 110.629 23.8792ZM115.591 24.7581C115.415 24.7581 115.266 24.7099 115.146 24.6136C115.033 24.5173 114.977 24.3728 114.977 24.1802V16.7401C114.977 16.5475 115.033 16.403 115.146 16.3067C115.266 16.2023 115.415 16.1502 115.591 16.1502C115.768 16.1502 115.912 16.2023 116.025 16.3067C116.137 16.403 116.193 16.5475 116.193 16.7401V24.1802C116.193 24.3728 116.137 24.5173 116.025 24.6136C115.912 24.7099 115.768 24.7581 115.591 24.7581ZM124.222 18.6784C124.735 18.6784 125.189 18.8028 125.582 19.0516C125.975 19.3004 126.28 19.6535 126.497 20.111C126.722 20.5685 126.834 21.1022 126.834 21.7122C126.834 22.3141 126.722 22.8479 126.497 23.3134C126.28 23.7789 125.971 24.1401 125.57 24.3969C125.177 24.6537 124.727 24.7821 124.222 24.7821C123.78 24.7821 123.391 24.6898 123.054 24.5053C122.717 24.3126 122.46 24.0397 122.283 23.6866V24.1682C122.283 24.3447 122.227 24.4892 122.115 24.6016C122.01 24.7059 121.866 24.7581 121.681 24.7581C121.497 24.7581 121.348 24.7059 121.236 24.6016C121.124 24.4892 121.067 24.3447 121.067 24.1682V16.728C121.067 16.5515 121.124 16.411 121.236 16.3067C121.356 16.2023 121.509 16.1502 121.693 16.1502C121.87 16.1502 122.01 16.2023 122.115 16.3067C122.227 16.403 122.283 16.5354 122.283 16.704V19.786C122.46 19.4328 122.717 19.1599 123.054 18.9673C123.391 18.7747 123.78 18.6784 124.222 18.6784ZM123.933 23.819C124.454 23.819 124.86 23.6344 125.149 23.2652C125.446 22.896 125.594 22.3784 125.594 21.7122C125.594 21.0541 125.45 20.5484 125.161 20.1953C124.872 19.8341 124.462 19.6535 123.933 19.6535C123.403 19.6535 122.994 19.8341 122.705 20.1953C122.424 20.5565 122.283 21.0701 122.283 21.7363C122.283 22.4024 122.424 22.9161 122.705 23.2773C122.994 23.6384 123.403 23.819 123.933 23.819ZM132.779 23.2171C132.892 23.2171 132.984 23.2612 133.056 23.3495C133.128 23.4378 133.164 23.5502 133.164 23.6866C133.164 23.9194 133.02 24.116 132.731 24.2765C132.45 24.437 132.141 24.5614 131.804 24.6497C131.475 24.738 131.158 24.7821 130.853 24.7821C129.922 24.7821 129.188 24.5133 128.65 23.9755C128.112 23.4298 127.843 22.6874 127.843 21.7483C127.843 21.1464 127.96 20.6126 128.192 20.1471C128.433 19.6816 128.766 19.3204 129.192 19.0636C129.625 18.8068 130.115 18.6784 130.66 18.6784C131.447 18.6784 132.069 18.9312 132.526 19.4368C132.984 19.9425 133.213 20.6247 133.213 21.4835C133.213 21.8045 133.068 21.965 132.779 21.965H129.059C129.139 23.2091 129.737 23.8311 130.853 23.8311C131.15 23.8311 131.407 23.7909 131.623 23.7107C131.84 23.6304 132.069 23.5261 132.31 23.3977C132.334 23.3816 132.398 23.3495 132.502 23.3013C132.615 23.2452 132.707 23.2171 132.779 23.2171ZM130.684 19.5693C130.219 19.5693 129.846 19.7177 129.565 20.0147C129.284 20.3117 129.115 20.729 129.059 21.2668H132.165C132.141 20.721 132.001 20.3036 131.744 20.0147C131.495 19.7177 131.142 19.5693 130.684 19.5693ZM137.719 18.6784C139.123 18.6784 139.826 19.4689 139.826 21.0501V24.1802C139.826 24.3648 139.769 24.5093 139.657 24.6136C139.553 24.7099 139.404 24.7581 139.212 24.7581C139.027 24.7581 138.878 24.7059 138.766 24.6016C138.662 24.4972 138.61 24.3568 138.61 24.1802V21.1102C138.61 20.6126 138.509 20.2475 138.309 20.0147C138.116 19.7819 137.811 19.6656 137.394 19.6656C136.904 19.6656 136.511 19.8181 136.214 20.123C135.917 20.428 135.768 20.8374 135.768 21.351V24.1802C135.768 24.3568 135.712 24.4972 135.6 24.6016C135.496 24.7059 135.351 24.7581 135.166 24.7581C134.982 24.7581 134.833 24.7059 134.721 24.6016C134.609 24.4972 134.552 24.3568 134.552 24.1802V19.2803C134.552 19.1118 134.609 18.9753 134.721 18.871C134.841 18.7586 134.99 18.7024 135.166 18.7024C135.343 18.7024 135.483 18.7546 135.588 18.859C135.692 18.9633 135.744 19.0997 135.744 19.2683V19.7619C135.937 19.4087 136.206 19.1399 136.551 18.9553C136.896 18.7707 137.285 18.6784 137.719 18.6784ZM146.088 23.2171C146.2 23.2171 146.293 23.2612 146.365 23.3495C146.437 23.4378 146.473 23.5502 146.473 23.6866C146.473 23.9194 146.329 24.116 146.04 24.2765C145.759 24.437 145.45 24.5614 145.113 24.6497C144.784 24.738 144.467 24.7821 144.162 24.7821C143.231 24.7821 142.496 24.5133 141.959 23.9755C141.421 23.4298 141.152 22.6874 141.152 21.7483C141.152 21.1464 141.268 20.6126 141.501 20.1471C141.742 19.6816 142.075 19.3204 142.5 19.0636C142.934 18.8068 143.423 18.6784 143.969 18.6784C144.756 18.6784 145.378 18.9312 145.835 19.4368C146.293 19.9425 146.521 20.6247 146.521 21.4835C146.521 21.8045 146.377 21.965 146.088 21.965H142.368C142.448 23.2091 143.046 23.8311 144.162 23.8311C144.459 23.8311 144.715 23.7909 144.932 23.7107C145.149 23.6304 145.378 23.5261 145.618 23.3977C145.642 23.3816 145.707 23.3495 145.811 23.3013C145.923 23.2452 146.016 23.2171 146.088 23.2171ZM143.993 19.5693C143.528 19.5693 143.154 19.7177 142.873 20.0147C142.593 20.3117 142.424 20.729 142.368 21.2668H145.474C145.45 20.721 145.309 20.3036 145.053 20.0147C144.804 19.7177 144.451 19.5693 143.993 19.5693ZM152.557 17.5226C152.324 17.5226 152.14 17.4584 152.003 17.33C151.867 17.2016 151.799 17.033 151.799 16.8244C151.799 16.6157 151.867 16.4511 152.003 16.3308C152.14 16.2023 152.324 16.1381 152.557 16.1381C152.782 16.1381 152.962 16.2023 153.099 16.3308C153.243 16.4511 153.315 16.6157 153.315 16.8244C153.315 17.033 153.247 17.2016 153.111 17.33C152.974 17.4584 152.79 17.5226 152.557 17.5226ZM152.629 18.8228C152.798 18.8228 152.926 18.867 153.014 18.9553C153.111 19.0355 153.159 19.1479 153.159 19.2924V24.1802C153.159 24.3728 153.103 24.5173 152.99 24.6136C152.878 24.7099 152.734 24.7581 152.557 24.7581C152.38 24.7581 152.232 24.7099 152.112 24.6136C151.999 24.5173 151.943 24.3728 151.943 24.1802V19.7619H149.427V24.1682C149.427 24.3608 149.367 24.5093 149.246 24.6136C149.134 24.7099 148.989 24.7581 148.813 24.7581C148.636 24.7581 148.492 24.7099 148.379 24.6136C148.267 24.5093 148.211 24.3608 148.211 24.1682V19.7619H147.489C147.32 19.7619 147.188 19.7217 147.091 19.6415C147.003 19.5532 146.959 19.4368 146.959 19.2924C146.959 19.1479 147.003 19.0355 147.091 18.9553C147.188 18.867 147.32 18.8228 147.489 18.8228H148.211V18.6904C148.211 17.952 148.4 17.3741 148.777 16.9568C149.154 16.5314 149.688 16.2866 150.378 16.2224L150.667 16.1983L150.823 16.1863C151.177 16.1863 151.353 16.3348 151.353 16.6317C151.353 16.9126 151.197 17.0732 150.884 17.1133L150.607 17.1374C150.205 17.1695 149.908 17.2979 149.716 17.5226C149.523 17.7393 149.427 18.0604 149.427 18.4857V18.8228H152.629ZM157.734 23.8311C157.91 23.8471 158.035 23.8953 158.107 23.9755C158.187 24.0478 158.227 24.1521 158.227 24.2885C158.227 24.4491 158.163 24.5735 158.035 24.6618C157.914 24.742 157.734 24.7741 157.493 24.7581L157.168 24.734C156.518 24.6858 156.032 24.4892 155.711 24.1441C155.39 23.7909 155.23 23.2733 155.23 22.591V19.7619H154.507C154.154 19.7619 153.978 19.6054 153.978 19.2924C153.978 19.1479 154.022 19.0355 154.11 18.9553C154.206 18.867 154.339 18.8228 154.507 18.8228H155.23V17.5828C155.23 17.3982 155.282 17.2537 155.386 17.1494C155.499 17.0451 155.647 16.9929 155.832 16.9929C156.016 16.9929 156.165 17.0451 156.277 17.1494C156.39 17.2537 156.446 17.3982 156.446 17.5828V18.8228H157.638C157.806 18.8228 157.935 18.867 158.023 18.9553C158.119 19.0355 158.167 19.1479 158.167 19.2924C158.167 19.4449 158.119 19.5612 158.023 19.6415C157.935 19.7217 157.806 19.7619 157.638 19.7619H156.446V22.6753C156.446 23.0525 156.522 23.3294 156.674 23.506C156.835 23.6826 157.076 23.7829 157.397 23.807L157.734 23.8311ZM159.891 24.7581C159.674 24.7581 159.489 24.6858 159.337 24.5414C159.192 24.3969 159.12 24.2123 159.12 23.9876C159.12 23.7628 159.192 23.5782 159.337 23.4338C159.489 23.2813 159.674 23.205 159.891 23.205C160.107 23.205 160.288 23.2813 160.432 23.4338C160.577 23.5782 160.649 23.7628 160.649 23.9876C160.649 24.2123 160.577 24.3969 160.432 24.5414C160.288 24.6858 160.107 24.7581 159.891 24.7581Z" fill="white"/>
</svg>
